<?xml version="1.0" standalone="no"?>
<!DOCTYPE svg PUBLIC "-//W3C//DTD SVG 1.1//EN" "http://www.w3.org/Graphics/SVG/1.1/DTD/svg11.dtd" >
<svg xmlns="http://www.w3.org/2000/svg" xmlns:xlink="http://www.w3.org/1999/xlink" version="1.1">
<metadata></metadata>
<defs>
<font id="courier_primeitalic" horiz-adv-x="1228" >
<font-face units-per-em="2048" ascent="1638" descent="-410" />
<missing-glyph horiz-adv-x="500" />
<glyph unicode="&#xfb01;" d="M-298 -298q0 22 19 53q26 41 58 41q17 0 30 -9q43 -27 82 -39t94 -12q82 0 131 45.5t65 140.5l141 816h-198q-28 0 -40.5 10t-12.5 34q0 15 2 24q7 37 24 52.5t51 15.5h198l19 93q34 167 136.5 258.5t267.5 91.5q137 0 257 -51q43 -19 43 -58q0 -14 -6 -34 q-19 -55 -57 -55q-10 0 -25 5q-117 47 -228 47q-102 0 -159.5 -55.5t-80.5 -161.5l-17 -78h501q28 0 40.5 -10.5t12.5 -34.5q0 -15 -2 -24l-88 -497q-7 -42 -7 -66q0 -63 28.5 -91.5t93.5 -28.5q26 0 49 8t58 24l33 15q18 8 30 8q15 0 27 -10.5t26 -33.5q12 -22 12 -39 q0 -33 -42 -56q-54 -30 -106.5 -46t-109.5 -16q-119 0 -184 66.5t-65 184.5q0 42 13 112l73 399h-414l-146 -831q-27 -153 -118 -236t-239 -83q-65 0 -122 15.5t-120 52.5q-28 16 -28 44z" />
<glyph unicode="&#xfb02;" d="M-338 -298q0 22 19 53q26 41 58 41q16 0 30 -9q43 -27 82 -39t94 -12q82 0 131 45.5t65 140.5l141 816h-168q-28 0 -40.5 10t-12.5 34q0 15 2 24q7 37 24 52.5t51 15.5h168l19 93q34 165 143 257.5t276 92.5q72 0 145 -17t132 -42q26 -11 37.5 -27.5t11.5 -42.5 q0 -13 -3 -28l-150 -850q-7 -44 -7 -74q0 -53 30.5 -82.5t88.5 -29.5q48 0 89 16t83 43q23 14 41 14q34 0 50 -43q9 -24 9 -41q0 -35 -38 -58q-61 -36 -119 -56.5t-125 -20.5q-78 0 -136.5 29.5t-90.5 83t-32 123.5q0 49 14 133l138 791q-103 33 -184 33q-104 0 -168.5 -57 t-86.5 -160l-17 -78h230q28 0 40.5 -11t12.5 -35q0 -6 -2 -24q-6 -37 -23 -51.5t-52 -14.5h-227l-146 -831q-27 -153 -118 -236t-239 -83q-65 0 -122 15.5t-120 52.5q-28 16 -28 44z" />
<glyph horiz-adv-x="0" />
<glyph unicode="&#xd;" />
<glyph unicode=" " />
<glyph unicode="!" d="M434 53l27 154q6 34 35 48.5t94 14.5q67 0 97 -15t24 -48l-27 -154q-6 -34 -34.5 -48.5t-93.5 -14.5q-67 0 -97.5 15t-24.5 48zM570 512l77 707q4 50 50 50h130q35 0 35 -29q0 -9 -3 -21l-174 -707q-5 -23 -22 -35.5t-43 -12.5t-39 12.5t-11 35.5z" />
<glyph unicode="&#x22;" d="M382 769l24 450q3 50 50 50h164q35 0 35 -29q0 -9 -3 -21l-134 -450q-8 -26 -28 -40t-50 -14q-29 0 -44.5 14t-13.5 40zM842 769l24 450q3 50 50 50h164q35 0 35 -29q0 -9 -3 -21l-134 -450q-8 -26 -28 -40t-50 -14q-29 0 -44.5 14t-13.5 40z" />
<glyph unicode="#" d="M59 379q0 15 2 25q7 39 24.5 55.5t51.5 16.5h194l105 245h-186q-27 0 -40 11t-13 35q0 11 3 26q7 39 24.5 55.5t51.5 16.5h222l133 311q14 33 60 33q29 0 49.5 -13t20.5 -35q0 -10 -4 -19l-119 -277h254l133 311q14 33 60 33q29 0 49.5 -13t20.5 -35q0 -10 -4 -19 l-119 -277h156q27 0 40 -11t13 -35q0 -11 -3 -26q-7 -39 -24.5 -55.5t-51.5 -16.5h-192l-105 -245h184q27 0 40 -11t13 -35q0 -11 -3 -26q-7 -39 -24 -55.5t-51 -16.5h-220l-138 -321q-14 -33 -60 -33q-29 0 -49.5 13t-20.5 35q0 10 4 19l123 287h-253l-138 -321 q-14 -33 -60 -33q-29 0 -49.5 13t-20.5 35q0 10 4 19l123 287h-157q-28 0 -40.5 11t-12.5 36zM471 476h254l105 245h-254z" />
<glyph unicode="$" d="M139 163q0 6 2 20l42 240q6 35 25.5 50t61.5 15q21 0 31.5 -9.5t15.5 -31.5q16 -75 64.5 -118t133.5 -58l50 283q-94 13 -155 33q-74 25 -115 70.5t-41 122.5q0 80 45.5 150t137 113t221.5 43l29 161q6 34 25.5 49.5t56.5 15.5q31 0 45.5 -11t14.5 -34q0 -6 -2 -20 l-32 -178q101 -29 161 -93l8 45q6 35 25.5 50t60.5 15q35 0 50.5 -10.5t15.5 -34.5q0 -6 -2 -20l-34 -190q-6 -35 -25.5 -50t-60.5 -15q-35 0 -44 26q-20 59 -65 92.5t-114 46.5l-43 -247q96 -12 167 -34q75 -23 118 -75t43 -135q0 -71 -40 -143.5t-136 -124t-252 -54.5 l-31 -178q-6 -34 -25.5 -49.5t-56.5 -15.5q-31 0 -45.5 11t-14.5 34q0 6 2 20l33 189q-119 25 -189 110l-10 -56q-6 -35 -25.5 -50t-60.5 -15q-35 0 -50.5 10.5t-15.5 34.5zM414 795q0 -31 21.5 -49t58 -27.5t97.5 -17.5l42 240q-72 -2 -121 -23t-73.5 -53.5t-24.5 -69.5z M654 264q88 3 142.5 29t77 61.5t22.5 68.5q0 40 -25 62.5t-65 33t-104 18.5z" />
<glyph unicode="%" d="M66 175q0 27 33 54l1020 830q26 22 49 22q24 0 45 -27q17 -22 17 -42q0 -27 -32 -53l-1021 -830q-26 -22 -49 -22q-26 0 -45 27q-17 22 -17 41zM122 900q0 83 39.5 153.5t110 113t159.5 42.5q68 0 123.5 -30.5t87.5 -85t32 -123.5q0 -83 -39.5 -153.5t-110 -113 t-159.5 -42.5q-68 0 -123.5 30.5t-87.5 85t-32 123.5zM254 909q0 -52 33 -85t90 -33q46 0 84 24t59.5 63t21.5 83q0 52 -33 85t-90 33q-46 0 -84 -24t-59.5 -63t-21.5 -83zM622 217q0 83 39.5 153.5t110 113t159.5 42.5q68 0 123.5 -30.5t87.5 -85t32 -123.5 q0 -83 -39.5 -153.5t-110 -113t-159.5 -42.5q-68 0 -123.5 30.5t-87.5 85t-32 123.5zM754 226q0 -52 33 -85t90 -33q46 0 84 24t59.5 63t21.5 83q0 52 -33 85t-90 33q-46 0 -84 -24t-59.5 -63t-21.5 -83z" />
<glyph unicode="&#x26;" d="M128 258q0 229 260 385q-62 97 -62 200q0 91 46 175.5t133.5 137.5t205.5 53q91 0 167.5 -28t136.5 -76q14 -12 14 -35q0 -5 -2 -19l-23 -127q-6 -35 -25.5 -50t-60.5 -15q-35 0 -50.5 10.5t-15.5 34.5q0 6 2 20l16 90q-68 47 -176 47q-58 0 -106.5 -27t-77 -75 t-28.5 -109q0 -39 13 -75t40 -73l233 -328q53 83 105 195q19 42 59 42h161q28 0 40.5 -10t12.5 -34q0 -15 -2 -24q-7 -37 -24 -52.5t-51 -15.5h-83q-60 -128 -130 -224l83 -115h84q28 0 40.5 -10t12.5 -34q0 -15 -2 -24q-6 -37 -23 -52.5t-51 -15.5h-104q-49 0 -73 33 l-70 97q-157 -152 -331 -152q-92 0 -158.5 37.5t-101 101t-34.5 141.5zM286 274q0 -66 41 -107t111 -41q122 0 233 119l-205 288q-82 -50 -131 -112.5t-49 -146.5z" />
<glyph unicode="'" d="M612 769l24 450q3 50 50 50h164q35 0 35 -29q0 -9 -3 -21l-134 -450q-8 -26 -28 -40t-50 -14q-29 0 -44.5 14t-13.5 40z" />
<glyph unicode="(" d="M304 362q0 210 81 408.5t225.5 356.5t329.5 248q12 5 19 5q16 0 30 -13t22 -33q10 -21 10 -47q0 -34 -20 -44q-169 -88 -293 -222t-190.5 -302.5t-66.5 -356.5q0 -200 80.5 -352t205.5 -245q9 -8 9 -21t-7.5 -29t-20.5 -30q-12 -13 -26 -21t-28 -8q-13 0 -23 7 q-90 61 -166.5 163t-123.5 239.5t-47 296.5z" />
<glyph unicode=")" d="M249 -250q0 34 20 44q169 88 293 222t190.5 302.5t66.5 356.5q0 200 -80.5 352t-205.5 245q-9 8 -9 21t7.5 29t20.5 30q12 13 26 21t28 8q13 0 23 -7q90 -61 166.5 -163t123.5 -239.5t47 -296.5q0 -210 -81 -408.5t-225.5 -356.5t-329.5 -248q-12 -5 -19 -5q-16 0 -30 13 t-22 33q-10 21 -10 47z" />
<glyph unicode="*" d="M276 862q0 24 13 51q28 62 74 62q18 0 40 -11l238 -122l11 277q2 42 29 66t73 24q37 0 57.5 -16t20.5 -45q0 -12 -5 -29l-86 -282l263 118q21 9 41 9q31 0 50.5 -23.5t19.5 -64.5q0 -35 -20.5 -58.5t-57.5 -30.5l-283 -48l154 -212q19 -27 19 -49q0 -38 -49 -67 q-27 -17 -52 -17q-42 0 -64 52l-95 237l-175 -242q-15 -21 -34.5 -32.5t-40.5 -11.5q-30 0 -56 22q-34 29 -34 64q0 36 33 64l233 203l-263 54q-54 11 -54 58z" />
<glyph unicode="+" d="M200 558q0 15 2 24q7 37 24 52.5t51 15.5h313l55 313q6 34 24 48.5t55 14.5q32 0 45.5 -10t13.5 -33q0 -4 -2 -20l-55 -313h313q28 0 40.5 -10t12.5 -34q0 -15 -2 -24q-7 -37 -24 -52.5t-51 -15.5h-313l-55 -313q-6 -34 -24 -48.5t-55 -14.5q-32 0 -45.5 10t-13.5 33 q0 4 2 20l55 313h-313q-28 0 -40.5 10t-12.5 34z" />
<glyph unicode="," d="M265 -254q0 9 5 26l173 482q7 19 22.5 29.5t36.5 10.5h192q16 0 25 -8t9 -22t-11 -33l-292 -484q-25 -41 -97 -41q-63 0 -63 40z" />
<glyph unicode="-" d="M200 558q0 15 2 24q7 37 24 52.5t51 15.5h762q28 0 40.5 -10t12.5 -34q0 -15 -2 -24q-7 -37 -24 -52.5t-51 -15.5h-762q-28 0 -40.5 10t-12.5 34z" />
<glyph unicode="." d="M418 53l33 184q6 34 37 48.5t101 14.5q73 0 105.5 -15t26.5 -48l-33 -184q-6 -34 -37 -48.5t-101 -14.5q-73 0 -105.5 15t-26.5 48z" />
<glyph unicode="/" d="M82 -301q0 12 7 25l943 1638q18 32 78 32q36 0 57.5 -15.5t21.5 -38.5q0 -12 -7 -25l-943 -1638q-18 -32 -78 -32q-36 0 -57.5 15.5t-21.5 38.5z" />
<glyph unicode="0" d="M210 431q0 172 59 352.5t180 303t295 122.5q106 0 183.5 -56t118.5 -158.5t41 -238.5q0 -172 -59 -352.5t-180 -303t-295 -122.5q-106 0 -183.5 56t-118.5 158.5t-41 238.5zM365 426q0 -144 53 -222t148 -78q111 0 194 97.5t127.5 245t44.5 292.5q0 143 -53.5 221.5 t-147.5 78.5q-111 0 -194 -97.5t-127.5 -245t-44.5 -292.5z" />
<glyph unicode="1" d="M196 45q0 7 2 23q7 37 24 52.5t51 15.5h250l149 848l-268 -151q-16 -8 -29 -8q-32 0 -55 44q-13 25 -13 44q0 31 33 48l430 239q21 12 42 12q18 0 30 -11t12 -30q0 -9 -1 -14l-180 -1021h274q28 0 40.5 -10t12.5 -34q0 -15 -2 -24q-6 -37 -23 -52.5t-51 -15.5h-674 q-28 0 -41 10.5t-13 34.5z" />
<glyph unicode="2" d="M126 45q0 7 2 23q7 38 25 54l519 446q80 69 127.5 121t71 103t23.5 109q0 75 -50 117.5t-146 42.5q-108 0 -218 -61l-19 -105q-6 -35 -25.5 -50t-60.5 -15q-35 0 -50.5 10.5t-15.5 34.5q0 6 2 20l27 153q7 39 33 55q169 106 342 106q102 0 179 -36t119 -103.5t42 -158.5 q0 -82 -29 -150.5t-87 -134t-156 -149.5l-397 -341h446l26 146q6 35 25.5 50t61.5 15q35 0 50 -10.5t15 -34.5q0 -4 -2 -20l-38 -214q-6 -37 -23 -52.5t-51 -15.5h-714q-28 0 -41 10.5t-13 34.5z" />
<glyph unicode="3" d="M157 147q0 23 18 50q13 20 29 33t32 13q17 0 32 -14q57 -48 130.5 -75.5t151.5 -27.5q103 0 169.5 39t96.5 98.5t30 122.5q0 84 -56 126.5t-160 42.5h-73q-28 0 -40.5 10.5t-12.5 34.5q0 5 2 23q7 37 24 52.5t51 15.5h55q96 0 156 32.5t86 83.5t26 110q0 68 -50.5 106 t-145.5 38q-117 0 -204 -39l-12 -67q-6 -35 -25.5 -50t-61.5 -15q-35 0 -50 10.5t-15 34.5q0 4 2 20l20 114q4 22 12.5 35t24.5 22q77 42 155 62.5t169 20.5q101 0 177 -35.5t117 -99.5t41 -147q0 -102 -50 -179.5t-150 -122.5q70 -32 107.5 -93.5t37.5 -148.5 q0 -94 -47.5 -187t-153 -155.5t-268.5 -62.5q-98 0 -192 34t-163 92q-22 19 -22 43z" />
<glyph unicode="4" d="M150 404q0 15 2 24q7 38 18 50l603 673q27 31 55 44.5t66 13.5q75 0 75 -59q0 -5 -2 -19l-112 -635h162q28 0 40.5 -10t12.5 -34q0 -15 -2 -24q-7 -37 -24 -52.5t-51 -15.5h-162l-40 -224h132q28 0 40.5 -10t12.5 -34q0 -15 -2 -24q-6 -37 -23 -52.5t-51 -15.5h-430 q-28 0 -41 10.5t-13 34.5q0 7 2 23q7 37 24 52.5t51 15.5h148l40 224h-478q-28 0 -40.5 10t-12.5 34zM368 496h337l94 490z" />
<glyph unicode="5" d="M157 141q0 24 21 55q29 43 57 43q14 0 30 -13q57 -46 128.5 -73t146.5 -27q104 0 175 47t105.5 120t34.5 150q0 89 -54 142t-151 53q-123 0 -232 -67q-13 -8 -25 -11t-30 -3q-35 0 -56 11t-17 31l113 523q8 35 27 50t60 15h534q28 0 40.5 -10t12.5 -34q0 -15 -2 -24 q-7 -37 -24 -52.5t-51 -15.5h-466l-69 -316q98 51 214 51q104 0 179.5 -43t115 -119.5t39.5 -176.5q0 -110 -53 -218t-162.5 -179.5t-268.5 -71.5q-95 0 -186.5 32t-161.5 87q-24 18 -24 44z" />
<glyph unicode="6" d="M213 352q0 247 104.5 437t295.5 299t444 121q25 1 39 -14t14 -53q0 -78 -48 -80q-268 -14 -434 -136t-231 -326q65 64 144 97.5t166 33.5q96 0 171 -39.5t117 -112t42 -166.5q0 -109 -55 -209t-160 -163t-246 -63q-122 0 -203.5 51t-120.5 135.5t-39 187.5zM367 319 q0 -88 57 -140.5t158 -52.5q97 0 164 40.5t100 104.5t33 132q0 86 -51.5 133t-148.5 47q-82 0 -153.5 -32t-115 -92t-43.5 -140z" />
<glyph unicode="7" d="M316 885q0 6 2 20l38 214q7 37 24 52.5t51 15.5h674q28 0 40.5 -10t12.5 -34q0 -15 -2 -24q-4 -22 -13 -40l-612 -1055q-14 -23 -38 -34.5t-51 -11.5q-29 0 -50 13t-21 35q0 14 9 30l583 995h-469l-26 -146q-6 -35 -25.5 -50t-60.5 -15q-35 0 -50.5 10.5t-15.5 34.5z" />
<glyph unicode="8" d="M192 290q0 120 72 208.5t188 136.5q-57 35 -91 89.5t-34 121.5q0 81 50 165.5t145.5 141t224.5 56.5q94 0 167.5 -38t114.5 -103t41 -145q0 -101 -58.5 -176t-154.5 -122q72 -36 114.5 -98.5t42.5 -142.5q0 -96 -54.5 -190t-160 -155t-249.5 -61q-104 0 -185.5 40.5 t-127 111.5t-45.5 160zM352 301q0 -52 26 -91.5t74.5 -61.5t113.5 -22q87 0 152.5 36t101 94.5t35.5 122.5q0 79 -58 127t-156 48q-88 0 -153.5 -36.5t-100.5 -95t-35 -121.5zM480 847q0 -44 23.5 -79t65.5 -55t97 -20q67 0 124.5 29.5t91.5 79.5t34 108q0 70 -51 110.5 t-134 40.5q-76 0 -133.5 -31t-87.5 -80.5t-30 -102.5z" />
<glyph unicode="9" d="M186 45q0 78 48 80q268 14 434 136t231 326q-65 -64 -144 -97.5t-166 -33.5q-96 0 -171 39.5t-117 112t-42 166.5q0 109 55 209t160 163t246 63q122 0 203.5 -51t120.5 -135.5t39 -187.5q0 -247 -104.5 -437t-295.5 -299t-444 -121q-25 -1 -39 14t-14 53zM417 784 q0 -86 51.5 -133t148.5 -47q82 0 153.5 32t115 92t43.5 140q0 88 -57 140.5t-158 52.5q-97 0 -164 -40.5t-100 -104.5t-33 -132z" />
<glyph unicode=":" d="M418 53l33 184q6 34 37 48.5t101 14.5q73 0 105.5 -15t26.5 -48l-33 -184q-6 -34 -37 -48.5t-101 -14.5q-73 0 -105.5 15t-26.5 48zM529 683l33 184q6 34 37 48.5t101 14.5q73 0 105.5 -15t26.5 -48l-33 -184q-6 -34 -37 -48.5t-101 -14.5q-73 0 -105.5 15t-26.5 48z" />
<glyph unicode=";" d="M305 -254q0 9 5 26l173 482q7 19 22.5 29.5t36.5 10.5h192q16 0 25 -8t9 -22t-11 -33l-292 -484q-25 -41 -97 -41q-63 0 -63 40zM529 683l33 184q6 34 37 48.5t101 14.5q73 0 105.5 -15t26.5 -48l-33 -184q-6 -34 -37 -48.5t-101 -14.5q-73 0 -105.5 15t-26.5 48z" />
<glyph unicode="&#x3c;" d="M155 567q0 4 2 16q4 25 18 40.5t41 28.5l845 381q20 9 34 9q38 0 54 -49q6 -19 6 -36q0 -43 -47 -63l-722 -318l602 -315q32 -17 32 -44q0 -22 -20 -51q-30 -43 -63 -43q-18 0 -35 10l-710 381q-19 10 -28 22.5t-9 30.5z" />
<glyph unicode="=" d="M165 358q0 15 2 24q7 37 24 52.5t51 15.5h762q28 0 40.5 -10t12.5 -34q0 -15 -2 -24q-7 -37 -24 -52.5t-51 -15.5h-762q-28 0 -40.5 10t-12.5 34zM235 759q0 5 2 23q7 37 24 52.5t51 15.5h762q28 0 40.5 -10t12.5 -34q0 -15 -2 -24q-6 -37 -23.5 -52.5t-51.5 -15.5h-762 q-28 0 -40.5 10.5t-12.5 34.5z" />
<glyph unicode="&#x3e;" d="M137 209q0 43 47 63l722 318l-602 315q-32 17 -32 44q0 22 20 51q30 43 63 43q18 0 35 -10l710 -381q19 -10 28 -22.5t9 -30.5q0 -4 -2 -16q-4 -25 -18 -40.5t-41 -28.5l-845 -381q-19 -9 -34 -9q-38 0 -54 49q-6 20 -6 36z" />
<glyph unicode="?" d="M357 975q0 6 2 20l24 132q4 21 12 34.5t23 21.5q165 86 344 86q98 0 167.5 -33.5t106 -95t36.5 -143.5q0 -139 -94.5 -229t-287.5 -162l-36 -139q-12 -48 -75 -48q-62 0 -57 48l20 198q4 38 39 51l74 28q92 35 147 67.5t83 75.5t28 103q0 61 -42.5 96t-123.5 35 q-119 0 -223 -42l-15 -84q-6 -35 -25.5 -50t-60.5 -15q-35 0 -50.5 10.5t-15.5 34.5zM407 42q0 7 1 11l20 114q6 34 33.5 48.5t87.5 14.5q56 0 83 -12t27 -39q0 -8 -1 -12l-20 -114q-6 -34 -33 -48.5t-87 -14.5q-56 0 -83.5 12.5t-27.5 39.5z" />
<glyph unicode="@" d="M38 270q0 200 96 387t264 304t372 117q133 0 230.5 -55t149.5 -154t52 -228q0 -128 -44 -244t-124.5 -188t-186.5 -72q-64 0 -103 33.5t-53 96.5q-59 -67 -113.5 -101t-115.5 -34q-66 0 -109 45.5t-43 125.5q0 94 60 208.5t153 194t185 79.5q86 0 110 -100l42 63 q9 12 27 12q14 0 33 -8q33 -13 33 -35q0 -7 -2 -11l-130 -302q-18 -44 -18 -77q0 -30 16 -47t45 -17q69 0 118.5 58.5t74.5 145t25 167.5q0 151 -86.5 236t-242.5 85q-165 0 -301 -101.5t-213.5 -258t-77.5 -313.5q0 -148 83 -230t240 -82q69 0 137.5 10t124.5 27q8 2 12 2 q25 0 34 -44q3 -14 3 -24q0 -32 -25 -42q-58 -24 -136 -38t-159 -14q-137 0 -235.5 51t-150 146.5t-51.5 225.5zM448 327q0 -31 14 -46t38 -15q59 0 115 58.5t92 137t36 128.5q0 33 -16 50.5t-45 17.5q-43 0 -99 -55.5t-95.5 -134t-39.5 -141.5z" />
<glyph unicode="A" d="M-51 45q0 7 2 23q7 37 24 52.5t51 15.5h53l493 915h-184q-28 0 -40.5 10t-12.5 34q0 15 2 24q7 37 24 52.5t51 15.5h364q40 0 61.5 -15.5t27.5 -49.5l179 -986h64q28 0 40.5 -10t12.5 -34q0 -15 -2 -24q-6 -37 -23 -52.5t-51 -15.5h-354q-28 0 -41 10.5t-13 34.5 q0 7 2 23q7 37 24 52.5t51 15.5h140l-40 238h-485l-125 -238h116q28 0 40.5 -10t12.5 -34q0 -15 -2 -24q-6 -37 -23 -52.5t-51 -15.5h-334q-28 0 -41 10.5t-13 34.5zM440 510h392l-90 541h-19z" />
<glyph unicode="B" d="M19 45q0 7 2 23q7 37 24 52.5t51 15.5h122l162 915h-122q-28 0 -40.5 10t-12.5 34q0 15 2 24q7 37 24 52.5t51 15.5h491q156 0 238.5 -75t82.5 -204q0 -94 -48.5 -164.5t-133.5 -115.5q83 -29 128.5 -92.5t45.5 -155.5q0 -107 -51 -193.5t-149.5 -136.5t-235.5 -50h-577 q-28 0 -41 10.5t-13 34.5zM368 136h265q140 0 218 65t78 177q0 85 -54 126t-164 41h-270zM465 681h207q85 0 146 27.5t92 76.5t31 112q0 154 -194 154h-217z" />
<glyph unicode="C" d="M140 453q0 196 79 370t223 280t330 106q95 0 163.5 -34t108.5 -95l11 64q6 35 25.5 50t61.5 15q35 0 50 -10.5t15 -34.5q0 -4 -2 -20l-58 -330q-6 -35 -25.5 -50t-60.5 -15q-35 0 -50.5 10.5t-15.5 34.5q0 6 2 20q4 21 4 49q0 88 -60 143t-180 55q-138 0 -243.5 -86.5 t-162.5 -225t-57 -288.5q0 -158 76 -246.5t212 -88.5q97 0 191.5 30.5t178.5 85.5q14 10 31 10q35 0 58 -45q14 -28 14 -48q0 -30 -36 -53q-216 -128 -448 -128q-133 0 -231.5 58.5t-151 166t-52.5 250.5z" />
<glyph unicode="D" d="M19 45q0 7 2 23q7 37 24 52.5t51 15.5h112l162 915h-112q-28 0 -40.5 10t-12.5 34q0 15 2 24q7 37 24 52.5t51 15.5h456q136 0 237 -56t155.5 -160.5t54.5 -246.5q0 -157 -63.5 -324.5t-204.5 -283.5t-358 -116h-486q-28 0 -41 10.5t-13 34.5zM358 136h186 q168 0 276.5 92t158 226.5t49.5 264.5q0 161 -84.5 246.5t-237.5 85.5h-186z" />
<glyph unicode="E" d="M19 45q0 7 2 23q7 37 24 52.5t51 15.5h102l162 915h-102q-28 0 -40.5 10t-12.5 34q0 15 2 24q7 37 24 52.5t51 15.5h874q28 0 40.5 -10t12.5 -34q0 -15 -2 -24l-45 -254q-6 -35 -25.5 -50t-60.5 -15q-35 0 -50.5 10.5t-15.5 34.5q0 6 2 20l33 186h-535l-66 -371h250 l16 91q7 35 26.5 50t60.5 15q34 0 49.5 -10.5t15.5 -33.5q0 -13 -2 -21l-56 -318q-6 -35 -25.5 -50t-60.5 -15q-35 0 -50.5 10.5t-15.5 34.5q0 6 2 20l16 91h-250l-72 -408h555l41 229q6 35 25.5 50t60.5 15q35 0 50.5 -10.5t15.5 -34.5q0 -6 -2 -20l-53 -297 q-6 -37 -23 -52.5t-51 -15.5h-894q-28 0 -41 10.5t-13 34.5z" />
<glyph unicode="F" d="M19 45q0 7 2 23q7 37 24 52.5t51 15.5h132l162 915h-132q-28 0 -40.5 10t-12.5 34q0 15 2 24q7 37 24 52.5t51 15.5h904q28 0 40.5 -10t12.5 -34q0 -15 -2 -24l-47 -264q-6 -35 -25.5 -50t-60.5 -15q-35 0 -50.5 10.5t-15.5 34.5q0 6 2 20l35 196h-535l-69 -391h250 l16 91q7 35 26.5 50t60.5 15q34 0 49.5 -10.5t15.5 -33.5q0 -13 -2 -21l-56 -318q-6 -35 -25.5 -50t-60.5 -15q-35 0 -50.5 10.5t-15.5 34.5q0 6 2 20l16 91h-250l-69 -388h232q28 0 40.5 -10t12.5 -34q0 -15 -2 -24q-6 -37 -23 -52.5t-51 -15.5h-514q-28 0 -41 10.5 t-13 34.5z" />
<glyph unicode="G" d="M121 460q0 194 81.5 366.5t227.5 277.5t332 105q95 0 163 -31.5t109 -87.5l9 54q6 35 25.5 50t61.5 15q35 0 50 -10.5t15 -34.5q0 -4 -2 -20l-51 -290q-6 -35 -25.5 -50t-60.5 -15q-35 0 -50.5 10.5t-15.5 34.5q0 6 2 20q3 18 3 35q0 79 -63 125.5t-181 46.5 q-145 0 -252.5 -88t-164 -225.5t-56.5 -282.5q0 -105 35.5 -181.5t102.5 -117t160 -40.5q175 0 309 57l40 227h-247q-28 0 -40.5 10t-12.5 34q0 15 2 24q7 37 24 52.5t51 15.5h429q28 0 40.5 -10t12.5 -34q0 -15 -2 -24q-7 -37 -24 -52.5t-51 -15.5h-32l-49 -276 q-5 -24 -17 -42t-31 -27q-178 -87 -413 -87q-134 0 -234.5 59.5t-155 168.5t-54.5 254z" />
<glyph unicode="H" d="M19 45q0 7 2 23q7 37 24 52.5t51 15.5h72l162 915h-72q-28 0 -40.5 10t-12.5 34q0 15 2 24q7 37 24 52.5t51 15.5h314q28 0 40.5 -10t12.5 -34q0 -15 -2 -24q-7 -37 -24 -52.5t-51 -15.5h-92l-66 -371h498l66 371h-92q-28 0 -40.5 10t-12.5 34q0 15 2 24q7 37 24 52.5 t51 15.5h314q28 0 40.5 -10t12.5 -34q0 -15 -2 -24q-7 -37 -24 -52.5t-51 -15.5h-72l-162 -915h72q28 0 40.5 -10t12.5 -34q0 -15 -2 -24q-6 -37 -23 -52.5t-51 -15.5h-314q-28 0 -41 10.5t-13 34.5q0 7 2 23q7 37 24 52.5t51 15.5h92l72 408h-498l-72 -408h92 q28 0 40.5 -10t12.5 -34q0 -15 -2 -24q-6 -37 -23 -52.5t-51 -15.5h-314q-28 0 -41 10.5t-13 34.5z" />
<glyph unicode="I" d="M149 45q0 7 2 23q7 37 24 52.5t51 15.5h266l162 915h-266q-28 0 -40.5 10t-12.5 34q0 15 2 24q7 37 24 52.5t51 15.5h662q28 0 40.5 -10t12.5 -34q0 -15 -2 -24q-7 -37 -24 -52.5t-51 -15.5h-246l-162 -915h286q28 0 40.5 -10t12.5 -34q0 -15 -2 -24q-6 -37 -23 -52.5 t-51 -15.5h-702q-28 0 -41 10.5t-13 34.5z" />
<glyph unicode="J" d="M75 167q0 5 2 19l49 279q7 35 26.5 50t60.5 15q34 0 49.5 -10.5t15.5 -33.5q0 -13 -2 -21l-46 -264q70 -75 217 -75q131 0 200.5 58t90.5 179l121 688h-341q-28 0 -40.5 10t-12.5 34q0 15 2 24q7 37 24 52.5t51 15.5h692q28 0 40.5 -10t12.5 -34q0 -15 -2 -24 q-7 -37 -24 -52.5t-51 -15.5h-201l-127 -718q-62 -355 -447 -355q-114 0 -206.5 43.5t-144.5 113.5q-9 12 -9 32z" />
<glyph unicode="K" d="M19 45q0 7 2 23q7 37 24 52.5t51 15.5h112l162 915h-112q-28 0 -40.5 10t-12.5 34q0 15 2 24q7 37 24 52.5t51 15.5h354q28 0 40.5 -10t12.5 -34q0 -15 -2 -24q-7 -37 -24 -52.5t-51 -15.5h-92l-73 -416l502 416h-63q-28 0 -40.5 10t-12.5 34q0 15 2 24q7 37 24 52.5 t51 15.5h324q28 0 40.5 -10t12.5 -34q0 -15 -2 -24q-7 -37 -24 -52.5t-51 -15.5h-52l-495 -405q8 1 24 1q61 0 105.5 -23.5t76.5 -76.5q24 -41 38.5 -91.5t29.5 -124.5q2 -11 11 -53t20 -70q13 -35 31.5 -53.5t45.5 -18.5h33q28 0 40.5 -10t12.5 -34q0 -15 -2 -24 q-6 -37 -23 -52.5t-51 -15.5h-77q-47 0 -85.5 33t-62.5 106q-13 38 -22.5 83.5t-11.5 54.5q-14 67 -24.5 105.5t-27.5 71.5q-18 34 -52.5 52t-82.5 18q-43 0 -85.5 -15t-77.5 -44l-35 -29l-53 -300h162q28 0 40.5 -10t12.5 -34q0 -15 -2 -24q-6 -37 -23 -52.5t-51 -15.5 h-424q-28 0 -41 10.5t-13 34.5z" />
<glyph unicode="L" d="M19 45q0 7 2 23q7 37 24 52.5t51 15.5h162l162 915h-162q-28 0 -40.5 10t-12.5 34q0 15 2 24q7 37 24 52.5t51 15.5h554q28 0 40.5 -10t12.5 -34q0 -15 -2 -24q-7 -37 -24 -52.5t-51 -15.5h-242l-162 -915h495l58 329q7 35 26.5 50t60.5 15q34 0 49.5 -10.5t15.5 -33.5 q0 -13 -2 -21l-70 -397q-6 -37 -23 -52.5t-51 -15.5h-894q-28 0 -41 10.5t-13 34.5z" />
<glyph unicode="M" d="M-31 45q0 7 2 23q7 37 24 52.5t51 15.5h54l187 915h-49q-28 0 -40.5 10t-12.5 34q0 15 2 24q7 37 24 52.5t51 15.5h205q24 0 36.5 -8t15.5 -25l115 -609l328 609q17 33 65 33h217q28 0 40.5 -10t12.5 -34q0 -15 -2 -24q-7 -37 -24 -52.5t-51 -15.5h-50l-136 -915h54 q28 0 40.5 -10t12.5 -34q0 -15 -2 -24q-6 -37 -23 -52.5t-51 -15.5h-314q-28 0 -41 10.5t-13 34.5q0 7 2 23q7 37 24 52.5t51 15.5h111l123 819l-305 -570q-19 -35 -43 -50t-60 -15t-55 15t-26 50l-104 570l-166 -819h111q28 0 40.5 -10t12.5 -34q0 -15 -2 -24 q-6 -37 -23 -52.5t-51 -15.5h-314q-28 0 -41 10.5t-13 34.5z" />
<glyph unicode="N" d="M19 45q0 7 2 23q7 37 24 52.5t51 15.5h67l162 915h-77q-28 0 -40.5 10t-12.5 34q0 15 2 24q7 37 24 52.5t51 15.5h224q42 0 52 -28l322 -861h4l133 753h-121q-28 0 -40.5 10t-12.5 34q0 15 2 24q7 37 24 52.5t51 15.5h324q28 0 40.5 -10t12.5 -34q0 -15 -2 -24 q-7 -37 -24 -52.5t-51 -15.5h-57l-179 -1014q-5 -27 -26 -43t-59 -16q-55 0 -75 55l-353 940h-4l-148 -837h141q28 0 40.5 -10t12.5 -34q0 -15 -2 -24q-6 -37 -23 -52.5t-51 -15.5h-354q-28 0 -41 10.5t-13 34.5z" />
<glyph unicode="O" d="M112 459q0 135 40 265.5t116 236.5q83 116 203.5 182t270.5 66q134 0 234.5 -59.5t154.5 -168.5t54 -253q0 -135 -40 -265.5t-116 -236.5q-83 -116 -203.5 -182t-270.5 -66q-134 0 -234.5 59.5t-154.5 168.5t-54 253zM269 465q0 -105 35.5 -181.5t102 -117t159.5 -40.5 q104 0 189 49t146 134q62 86 94.5 195t32.5 218q0 105 -35.5 181.5t-102 117t-159.5 40.5q-104 0 -189 -49t-146 -134q-62 -86 -94.5 -195t-32.5 -218z" />
<glyph unicode="P" d="M19 45q0 7 2 23q7 37 24 52.5t51 15.5h162l162 915h-162q-28 0 -40.5 10t-12.5 34q0 15 2 24q7 37 24 52.5t51 15.5h537q117 0 200.5 -39t126.5 -109.5t43 -163.5q0 -80 -26 -156t-79 -137q-61 -70 -155.5 -109.5t-222.5 -39.5h-245l-53 -297h240q28 0 40.5 -10t12.5 -34 q0 -15 -2 -24q-6 -37 -23 -52.5t-51 -15.5h-552q-28 0 -41 10.5t-13 34.5zM485 569h214q175 0 264 101q34 39 51 88.5t17 102.5q0 91 -63 140.5t-184 49.5h-214z" />
<glyph unicode="Q" d="M116 492q0 143 48.5 282.5t141.5 242.5q81 90 190.5 141t245.5 51q135 0 236 -57t156 -161.5t55 -244.5q0 -143 -48.5 -283t-141.5 -243q-81 -90 -190.5 -141t-245.5 -51q-19 0 -55 2l-148 -130q78 27 149 27q32 0 58 -4t69 -13q68 -15 106 -15q41 0 82.5 13t89.5 44 q7 5 18 5q15 0 29.5 -11.5t24.5 -29.5q13 -23 13 -46q0 -33 -26 -49q-66 -44 -120.5 -62t-106.5 -18q-29 0 -56 4.5t-70 13.5q-51 11 -85 16t-74 5q-108 0 -232 -49q-9 -3 -17 -3q-33 0 -61 39q-23 33 -23 59q0 19 13 32l221 209q-117 51 -181.5 161t-64.5 264zM273 500 q0 -154 80 -239t222 -85q98 0 177.5 39.5t138.5 109.5q68 81 104 190.5t36 221.5q0 153 -79.5 238.5t-220.5 85.5q-98 0 -178 -39.5t-139 -109.5q-68 -81 -104.5 -191t-36.5 -221z" />
<glyph unicode="R" d="M19 45q0 7 2 23q7 37 24 52.5t51 15.5h122l162 915h-122q-28 0 -40.5 10t-12.5 34q0 15 2 24q7 37 24 52.5t51 15.5h496q111 0 190 -35.5t120 -99t41 -146.5q0 -142 -92 -234.5t-241 -122.5q48 -23 78 -76q23 -40 37.5 -79.5t29.5 -94.5q17 -57 29 -91q14 -35 32 -53.5 t45 -18.5h28q28 0 40.5 -10t12.5 -34q0 -15 -2 -24q-7 -37 -24 -52.5t-51 -15.5h-62q-60 0 -96 31.5t-61 107.5q-17 51 -34 112q-16 59 -30 100t-35 79q-23 43 -62 64t-99 21h-137l-67 -379h130q28 0 40.5 -10t12.5 -34q0 -15 -2 -24q-6 -37 -23 -52.5t-51 -15.5h-402 q-28 0 -41 10.5t-13 34.5zM459 651h203q179 0 256 89q53 61 53 151q0 77 -59 118.5t-169 41.5h-213z" />
<glyph unicode="S" d="M93 23q0 6 2 20l53 300q6 35 25.5 50t60.5 15q44 0 51 -42q20 -116 99 -178t210 -62q97 0 165.5 32t103 86t34.5 117q0 46 -24 77t-68 54q-36 18 -82 31t-117 28q-76 17 -122 29t-87 31q-71 32 -110 82t-39 128q0 93 47.5 182t148 147.5t250.5 58.5q89 0 167 -36t126 -95 l12 66q6 35 25.5 50t61.5 15q35 0 50 -10.5t15 -34.5q0 -4 -2 -20l-40 -230q-6 -35 -25.5 -50t-61.5 -15q-37 0 -47 26q-33 91 -111 138.5t-189 47.5q-88 0 -148 -32t-89.5 -80.5t-29.5 -99.5q0 -39 25.5 -64.5t73.5 -44.5q46 -18 158 -41q90 -20 147.5 -36t106.5 -43 q66 -36 102 -90.5t36 -137.5q0 -102 -47.5 -196.5t-156 -156t-278.5 -61.5q-101 0 -182.5 38.5t-132.5 109.5l-15 -83q-6 -35 -25.5 -50t-60.5 -15q-35 0 -50.5 10.5t-15.5 34.5z" />
<glyph unicode="T" d="M180 722q0 6 2 20l67 377q7 37 24 52.5t51 15.5h858q28 0 40.5 -10t12.5 -34q0 -15 -2 -24l-67 -377q-6 -35 -25.5 -50t-60.5 -15q-35 0 -50.5 10.5t-15.5 34.5q0 6 2 20l55 309h-267l-162 -915h246q28 0 40.5 -10t12.5 -34q0 -15 -2 -24q-6 -37 -23 -52.5t-51 -15.5 h-622q-28 0 -41 10.5t-13 34.5q0 7 2 23q7 37 24 52.5t51 15.5h226l162 915h-267l-55 -309q-6 -35 -25.5 -50t-60.5 -15q-35 0 -50.5 10.5t-15.5 34.5z" />
<glyph unicode="U" d="M186 299q0 42 10 104l114 648h-62q-28 0 -40.5 10t-12.5 34q0 15 2 24q7 37 24 52.5t51 15.5h324q28 0 40.5 -10t12.5 -34q0 -15 -2 -24q-7 -37 -24 -52.5t-51 -15.5h-112l-113 -638q-9 -51 -9 -92q0 -103 56 -149t172 -46q139 0 215.5 67t103.5 220l113 638h-112 q-28 0 -40.5 10t-12.5 34q0 15 2 24q7 37 24 52.5t51 15.5h324q28 0 40.5 -10t12.5 -34q0 -15 -2 -24q-7 -37 -24 -52.5t-51 -15.5h-62l-118 -668q-37 -209 -156 -307t-319 -98q-173 0 -271 81.5t-98 239.5z" />
<glyph unicode="V" d="M135 1095q0 15 2 24q7 37 24 52.5t51 15.5h374q28 0 40.5 -10t12.5 -34q0 -15 -2 -24q-7 -37 -24 -52.5t-51 -15.5h-144l150 -884l465 884h-97q-28 0 -40.5 10t-12.5 34q0 15 2 24q7 37 24 52.5t51 15.5h334q28 0 40.5 -10t12.5 -34q0 -15 -2 -24q-7 -37 -24 -52.5 t-51 -15.5h-74l-537 -1008q-18 -35 -46.5 -50t-72.5 -15q-43 0 -66 15.5t-29 49.5l-178 1008h-79q-28 0 -40.5 10t-12.5 34z" />
<glyph unicode="W" d="M115 1095q0 15 2 24q7 37 24 52.5t51 15.5h344q28 0 40.5 -10t12.5 -34q0 -15 -2 -24q-7 -37 -24 -52.5t-51 -15.5h-146l-41 -797l289 584q24 47 81 47q32 0 47 -10t18 -30l84 -598l246 804h-124q-28 0 -40.5 10t-12.5 34q0 15 2 24q7 37 24 52.5t51 15.5h324 q28 0 40.5 -10t12.5 -34q0 -15 -2 -24q-7 -37 -24 -52.5t-51 -15.5h-50l-316 -1008q-12 -36 -35 -50.5t-62 -14.5q-83 0 -91 65l-82 581l-290 -581q-32 -65 -115 -65q-39 0 -56.5 15t-16.5 50l45 1008h-53q-28 0 -40.5 10t-12.5 34z" />
<glyph unicode="X" d="M-11 45q0 7 2 23q7 37 24 52.5t51 15.5h54l443 492l-228 423h-77q-28 0 -40.5 10t-12.5 34q0 15 2 24q7 37 24 52.5t51 15.5h334q28 0 40.5 -10t12.5 -34q0 -15 -2 -24q-7 -37 -24 -52.5t-51 -15.5h-85l165 -317l278 317h-64q-28 0 -40.5 10t-12.5 34q0 15 2 24 q7 37 24 52.5t51 15.5h314q28 0 40.5 -10t12.5 -34q0 -15 -2 -24q-7 -37 -24 -52.5t-51 -15.5h-57l-395 -443l254 -472h66q28 0 40.5 -10t12.5 -34q0 -15 -2 -24q-6 -37 -23 -52.5t-51 -15.5h-344q-28 0 -41 10.5t-13 34.5q0 7 2 23q7 37 24 52.5t51 15.5h105l-190 366 l-326 -366h87q28 0 40.5 -10t12.5 -34q0 -15 -2 -24q-6 -37 -23 -52.5t-51 -15.5h-334q-28 0 -41 10.5t-13 34.5z" />
<glyph unicode="Y" d="M185 1095q0 15 2 24q7 37 24 52.5t51 15.5h334q28 0 40.5 -10t12.5 -34q0 -15 -2 -24q-7 -37 -24 -52.5t-51 -15.5h-97l178 -409l324 409h-61q-28 0 -40.5 10t-12.5 34q0 15 2 24q7 37 24 52.5t51 15.5h304q28 0 40.5 -10t12.5 -34q0 -15 -2 -24q-7 -37 -24 -52.5 t-51 -15.5h-64l-452 -565l-62 -350h236q28 0 40.5 -10t12.5 -34q0 -15 -2 -24q-6 -37 -23 -52.5t-51 -15.5h-602q-28 0 -41 10.5t-13 34.5q0 7 2 23q7 37 24 52.5t51 15.5h216l64 363l-244 552h-74q-28 0 -40.5 10t-12.5 34z" />
<glyph unicode="Z" d="M116 45q0 7 2 23q5 23 22 43l795 940h-492l-44 -249q-6 -35 -25.5 -50t-61.5 -15q-35 0 -50 10.5t-15 34.5q0 4 2 20l56 317q7 37 24 52.5t51 15.5h736q28 0 40.5 -10t12.5 -34q0 -15 -2 -24q-5 -25 -17 -39l-800 -944h522l48 269q6 35 25.5 50t60.5 15q35 0 50.5 -10.5 t15.5 -34.5q0 -6 -2 -20l-60 -337q-6 -37 -23 -52.5t-51 -15.5h-766q-28 0 -41 10.5t-13 34.5z" />
<glyph unicode="[" d="M211 -289q0 15 2 24l277 1569q7 37 24 52.5t51 15.5h414q27 0 40 -11t13 -35q0 -11 -3 -26q-7 -39 -24.5 -55.5t-51.5 -16.5h-327l-249 -1417h327q27 0 40 -11t13 -35q0 -11 -3 -26q-7 -39 -24.5 -55.5t-51.5 -16.5h-414q-28 0 -40.5 10t-12.5 34z" />
<glyph unicode="\" d="M370 1339q0 24 26.5 39.5t58.5 15.5q27 0 44.5 -8.5t21.5 -23.5l378 -1653q1 -3 1 -9q0 -24 -27 -39.5t-59 -15.5q-27 0 -44 8.5t-21 23.5l-378 1653q-1 3 -1 9z" />
<glyph unicode="]" d="M239 -287q0 11 3 26q7 39 24.5 55.5t51.5 16.5h327l249 1417h-327q-27 0 -40 11t-13 35q0 11 3 26q7 39 24.5 55.5t51.5 16.5h414q28 0 40.5 -10t12.5 -34q0 -15 -2 -24l-277 -1569q-7 -37 -24 -52.5t-51 -15.5h-414q-27 0 -40 11t-13 35z" />
<glyph unicode="^" d="M260 554q0 13 10 27l412 591q14 19 30.5 28t44.5 9t41 -9t20 -28l204 -591q3 -7 3 -15q0 -18 -15.5 -33t-38.5 -23q-20 -7 -42 -7q-39 0 -47 24l-154 480l-320 -480q-8 -13 -24.5 -19t-36.5 -6q-18 0 -36 5q-22 6 -36.5 18.5t-14.5 28.5z" />
<glyph unicode="_" d="M-58 -354q0 12 3 32q6 35 22 50t47 15h1180q19 0 28 -9.5t9 -30.5q0 -12 -3 -28q-7 -38 -21 -53t-42 -15h-1183q-21 0 -30.5 8.5t-9.5 30.5z" />
<glyph unicode="`" d="M400 1237q0 28 25 72q19 35 35.5 50t32.5 15q14 0 33 -11l416 -230q23 -13 23 -40q0 -22 -13.5 -39t-33.5 -17q-4 0 -12 2l-481 163q-25 8 -25 35z" />
<glyph unicode="a" d="M141 366q0 137 58 271t173.5 221.5t278.5 87.5q93 0 166 -48t119 -132l19 103q6 36 22.5 50.5t55.5 14.5h2q33 0 47.5 -10.5t14.5 -33.5q0 -5 -2 -21l-104 -590q-4 -19 -4 -40q0 -47 23 -71t63 -24h5q28 0 40.5 -11t12.5 -36q0 -15 -2 -25q-8 -39 -25 -55.5t-51 -16.5 h-11q-80 0 -129 46.5t-53 131.5q-72 -99 -160 -149.5t-198 -50.5q-104 0 -186 47.5t-128.5 135.5t-46.5 205zM298 375q0 -114 59 -181.5t167 -67.5q100 0 181.5 60.5t128 156.5t46.5 198q0 121 -63.5 189t-171.5 68q-105 0 -184 -61t-121 -158.5t-42 -203.5z" />
<glyph unicode="b" d="M129 32q0 5 2 23l198 1121h-102q-28 0 -40.5 10t-12.5 34q0 15 2 24q7 37 24 52.5t51 15.5h189q28 0 40.5 -10t12.5 -34q0 -15 -2 -24l-80 -453q150 155 334 155q107 0 189.5 -47.5t128.5 -135t46 -205.5q0 -138 -57.5 -271.5t-174 -221t-282.5 -87.5q-99 0 -177.5 48.5 t-127.5 131.5l-19 -103q-6 -36 -23 -50.5t-58 -14.5q-34 0 -47.5 10t-13.5 32zM346 383q0 -121 69 -189t186 -68q107 0 187 61t122 158.5t42 203.5q0 114 -60.5 181.5t-172.5 67.5q-114 0 -198.5 -59t-129.5 -154.5t-45 -201.5z" />
<glyph unicode="c" d="M132 380q0 147 72 277.5t201.5 209.5t294.5 79q90 0 160.5 -36t110.5 -99l13 70q7 35 26 50t60 15q35 0 50.5 -10.5t15.5 -34.5q0 -6 -2 -20l-51 -290q-6 -35 -24.5 -50t-59.5 -15q-36 0 -51.5 11t-15.5 36q0 4 2 18q2 11 2 32q0 81 -63 128t-184 47q-112 0 -203 -56 t-143.5 -150t-52.5 -201q0 -78 32.5 -138t93.5 -93.5t145 -33.5q91 0 180 28.5t170 83.5q19 13 37 13q33 0 56 -40q14 -25 14 -45q0 -36 -39 -61q-93 -59 -207 -93t-227 -34q-126 0 -219.5 52t-143.5 143.5t-50 206.5z" />
<glyph unicode="d" d="M131 366q0 138 57.5 271.5t174 221t282.5 87.5q97 0 173.5 -45t124.5 -123l70 398h-162q-28 0 -40.5 10t-12.5 34q0 15 2 24q7 37 24 52.5t51 15.5h249q28 0 40.5 -10t12.5 -34q0 -15 -2 -24l-196 -1108h82q28 0 40.5 -10t12.5 -34q0 -15 -2 -24q-6 -37 -23 -52.5 t-51 -15.5h-159q-28 0 -41 10t-13 34q0 15 2 24l15 80q-157 -170 -347 -170q-107 0 -189.5 47.5t-128.5 135t-46 205.5zM288 375q0 -114 60.5 -181.5t172.5 -67.5q114 0 198.5 59t129.5 154.5t45 201.5q0 121 -69 189t-186 68q-107 0 -187 -61t-122 -158.5t-42 -203.5z" />
<glyph unicode="e" d="M152 354q0 164 72 299.5t202.5 214t296.5 78.5q109 0 190.5 -38t125.5 -104t44 -149q0 -220 -226 -244l-549 -57q4 -231 250 -231q96 0 195 25.5t180 66.5q16 7 25 7q38 0 56 -56q6 -21 6 -36q0 -23 -11.5 -38t-35.5 -26q-89 -39 -203.5 -63.5t-226.5 -24.5 q-124 0 -212 45.5t-133.5 130t-45.5 200.5zM323 492l503 58q55 6 77 30t22 70q0 66 -56 108.5t-161 42.5q-101 0 -180 -39.5t-131 -109t-74 -160.5z" />
<glyph unicode="f" d="M-104 -277q0 23 18 51q28 42 57 42q15 0 31 -11q92 -69 206 -69q82 0 131 45.5t65 140.5l138 786h-198q-28 0 -40.5 10.5t-12.5 34.5q0 5 2 23q7 37 24 52.5t51 15.5h198l22 123q30 166 134 258t270 92q134 0 257 -51q43 -19 43 -58q0 -14 -6 -34q-19 -55 -57 -55 q-10 0 -25 5q-117 47 -228 47q-202 0 -240 -217l-20 -110h346q28 0 40.5 -10t12.5 -34q0 -15 -2 -24q-6 -37 -23.5 -52.5t-51.5 -15.5h-346l-140 -799q-27 -153 -118 -236t-239 -83q-152 0 -272 86q-27 19 -27 47z" />
<glyph unicode="g" d="M81 -289q0 19 9 43q21 55 58 55q14 0 24 -5q73 -32 159 -49t170 -17q135 0 216.5 66t100.5 179l33 191q-74 -73 -156 -109.5t-177 -36.5q-108 0 -191 45.5t-129 130t-46 196.5q0 145 62.5 270t180 200.5t275.5 75.5q99 0 174 -47t121 -133l19 103q6 36 23 50.5t58 14.5 q34 0 47.5 -10t13.5 -32q0 -5 -2 -23l-161 -909q-32 -179 -154.5 -274.5t-323.5 -95.5t-368 70q-36 14 -36 51zM309 412q0 -108 61 -172t175 -64q118 0 201 56.5t125 144.5t42 179q0 114 -70.5 178t-188.5 64q-107 0 -185.5 -55.5t-119 -144t-40.5 -186.5z" />
<glyph unicode="h" d="M169 35q0 4 2 20l198 1121h-92q-28 0 -40.5 10t-12.5 34q0 15 2 24q7 37 24 52.5t51 15.5h179q28 0 40.5 -10t12.5 -34q0 -15 -2 -24l-87 -494q82 96 173.5 146t185.5 50q79 0 136.5 -32t88 -90.5t30.5 -136.5q0 -39 -7 -77l-84 -474h82q28 0 40.5 -10t12.5 -34 q0 -15 -2 -24q-6 -37 -23 -52.5t-51 -15.5h-169q-28 0 -41 10t-13 34q0 15 2 24l95 537q5 32 5 53q0 66 -33.5 103t-99.5 37q-84 0 -167.5 -53.5t-143.5 -144.5t-79 -198l-61 -347q-6 -35 -25.5 -50t-59.5 -15h-2q-35 0 -50 10.5t-15 34.5z" />
<glyph unicode="i" d="M245 833q0 5 2 23q7 37 24 52.5t51 15.5h340q28 0 40.5 -10t12.5 -34q0 -15 -2 -24l-96 -546q-7 -42 -7 -66q0 -63 32 -91.5t102 -28.5q57 0 113.5 18.5t118.5 57.5q15 9 30 9q16 0 30 -12t23 -36q8 -20 8 -40q0 -35 -38 -56q-153 -87 -300 -87q-129 0 -199 66.5 t-70 184.5q0 40 7 78l84 481h-253q-28 0 -40.5 10.5t-12.5 34.5zM576 1149q0 5 2 19l23 130q6 36 29 50.5t78 14.5q47 0 66 -10.5t19 -35.5q0 -5 -2 -19l-23 -130q-6 -36 -28.5 -50.5t-77.5 -14.5q-48 0 -67 10.5t-19 35.5z" />
<glyph unicode="j" d="M83 -250q0 21 17 51q26 44 58 44q18 0 33 -12q62 -44 131.5 -70.5t136.5 -26.5q98 0 147 53t69 167l146 832h-423q-28 0 -40.5 10.5t-12.5 34.5q0 5 2 23q7 37 24 52.5t51 15.5h510q28 0 40.5 -10t12.5 -34q0 -15 -2 -24l-160 -913q-31 -177 -121 -265t-259 -88 q-83 0 -172.5 31.5t-159.5 81.5q-28 20 -28 47zM846 1149q0 5 2 19l23 130q6 36 29 50.5t78 14.5q47 0 66 -10.5t19 -35.5q0 -5 -2 -19l-23 -130q-6 -36 -28.5 -50.5t-77.5 -14.5q-48 0 -67 10.5t-19 35.5z" />
<glyph unicode="k" d="M198 35q0 4 2 20l198 1121h-131q-28 0 -40.5 10t-12.5 34q0 15 2 24q7 37 24 52.5t51 15.5h218q28 0 40.5 -10t12.5 -34q0 -15 -2 -24l-132 -747l395 291h-54q-28 0 -40.5 10.5t-12.5 34.5q0 5 2 23q7 37 24 52.5t51 15.5h334q28 0 40.5 -10t12.5 -34q0 -15 -2 -24 q-6 -37 -23.5 -52.5t-51.5 -15.5h-55l-414 -302q18 3 34 3q78 0 137 -65q27 -29 44.5 -64t37.5 -88q16 -41 27 -64.5t26 -40.5q26 -31 65 -31h24q28 0 40.5 -10t12.5 -34q0 -15 -2 -24q-6 -37 -23 -52.5t-51 -15.5h-43q-75 0 -115 40q-33 33 -53.5 72t-42.5 98 q-18 46 -29.5 70.5t-28.5 44.5q-24 27 -57.5 40.5t-72.5 13.5q-37 0 -78.5 -12t-70.5 -33l-18 -13l-47 -266q-6 -35 -25.5 -50t-59.5 -15h-2q-35 0 -50 10.5t-15 34.5z" />
<glyph unicode="l" d="M274 1220q0 15 2 24q7 37 24 52.5t51 15.5h360q28 0 40.5 -10t12.5 -34q0 -15 -2 -24l-165 -934q-7 -44 -7 -67q0 -62 32.5 -90.5t101.5 -28.5q57 0 113.5 18.5t118.5 57.5q15 9 30 9q16 0 30 -12t23 -36q8 -20 8 -40q0 -35 -38 -56q-153 -87 -300 -87q-129 0 -199 66.5 t-70 184.5q0 40 7 78l153 869h-273q-28 0 -40.5 10t-12.5 34z" />
<glyph unicode="m" d="M74 833q0 5 2 23q7 37 24 52.5t51 15.5h149q28 0 40.5 -10t12.5 -34q0 -15 -2 -24l-17 -99q55 93 122.5 141t131.5 48q67 0 110.5 -47t47.5 -134q55 90 123.5 135.5t135.5 45.5q50 0 90.5 -24t64 -70.5t23.5 -111.5q0 -36 -7 -72l-94 -532h62q28 0 40.5 -10.5t12.5 -34.5 q0 -5 -2 -23q-6 -37 -23 -52.5t-51 -15.5h-149q-28 0 -41 10t-13 34q0 15 2 24l105 592q5 32 5 52q0 86 -76 86q-47 0 -95.5 -48t-87 -131t-55.5 -182l-67 -382q-6 -35 -25.5 -50t-59.5 -15h-2q-35 0 -50 10.5t-15 34.5q0 4 2 20l107 605q5 32 5 52q0 86 -76 86 q-47 0 -95.5 -48t-87 -131t-55.5 -182l-67 -382q-6 -35 -25.5 -50t-59.5 -15h-2q-35 0 -50 10.5t-15 34.5q0 4 2 20l129 733h-82q-28 0 -40.5 10.5t-12.5 34.5z" />
<glyph unicode="n" d="M155 833q0 5 2 23q7 37 24 52.5t51 15.5h179q28 0 40.5 -10t12.5 -34q0 -15 -2 -24l-21 -120q84 102 179 156t193 54q119 0 187 -70.5t68 -189.5q0 -38 -7 -76l-84 -474h82q28 0 40.5 -10t12.5 -34q0 -15 -2 -24q-6 -37 -23 -52.5t-51 -15.5h-169q-28 0 -41 10t-13 34 q0 15 2 24l95 537q5 32 5 54q0 66 -33 102.5t-100 36.5q-84 0 -167.5 -53.5t-143.5 -144.5t-79 -198l-61 -347q-6 -35 -25.5 -50t-59.5 -15h-2q-35 0 -50 10.5t-15 34.5q0 4 2 20l129 733h-102q-28 0 -40.5 10.5t-12.5 34.5z" />
<glyph unicode="o" d="M138 386q0 147 70 276t196 206.5t286 77.5q124 0 220 -52.5t149 -145.5t53 -210q0 -147 -70 -276t-196 -206.5t-286 -77.5q-124 0 -220 52.5t-149 145.5t-53 210zM295 394q0 -80 33 -140.5t96.5 -94t151.5 -33.5q108 0 195 56t135.5 149t48.5 199q0 80 -33 140.5 t-96.5 94t-151.5 33.5q-108 0 -195 -56t-135.5 -149t-48.5 -199z" />
<glyph unicode="p" d="M-92 -345q0 11 3 25q6 37 23 52.5t51 15.5h101l184 1040h-82q-28 0 -40.5 10t-12.5 34q0 15 2 24q6 37 23 52.5t51 15.5h159q28 0 41 -10t13 -34q0 -15 -2 -24l-15 -80q157 170 347 170q107 0 189.5 -47.5t128.5 -135t46 -205.5q0 -138 -57.5 -271.5t-174 -221 t-282.5 -87.5q-97 0 -173.5 45t-124.5 123l-70 -398h173q28 0 40.5 -10t12.5 -34q0 -15 -2 -24q-7 -37 -24 -52.5t-51 -15.5h-424q-27 0 -40 10t-13 33zM355 383q0 -121 69 -189t186 -68q107 0 187 61t122 158.5t42 203.5q0 114 -60.5 181.5t-172.5 67.5q-114 0 -198.5 -59 t-129.5 -154.5t-45 -201.5z" />
<glyph unicode="q" d="M146 366q0 138 57.5 271.5t174 221t282.5 87.5q99 0 177.5 -48.5t127.5 -131.5l19 103q6 36 23 50.5t58 14.5q34 0 47.5 -10t13.5 -32q0 -5 -2 -23l-198 -1121h102q28 0 40.5 -10t12.5 -34q0 -15 -2 -24q-7 -37 -24 -52.5t-51 -15.5h-424q-28 0 -40.5 10t-12.5 34 q0 15 2 24q7 37 24 52.5t51 15.5h172l68 385q-150 -155 -334 -155q-107 0 -189.5 47.5t-128.5 135t-46 205.5zM303 375q0 -114 60.5 -181.5t172.5 -67.5q114 0 198.5 59t129.5 154.5t45 201.5q0 121 -69 189t-186 68q-107 0 -187 -61t-122 -158.5t-42 -203.5z" />
<glyph unicode="r" d="M86 45q0 7 2 23q7 37 24 52.5t51 15.5h157l115 652h-127q-28 0 -40.5 10.5t-12.5 34.5q0 5 2 23q7 37 24 52.5t51 15.5h204q28 0 40.5 -10t12.5 -34q0 -15 -2 -24l-35 -202q98 135 218 213.5t229 78.5q75 0 136 -40q39 -25 39 -63q0 -24 -12 -45q-28 -54 -61 -54 q-13 0 -28 9q-40 26 -96 26q-91 0 -194.5 -66t-182 -174.5t-99.5 -228.5l-31 -174h337q28 0 40.5 -10t12.5 -34q0 -15 -2 -24q-6 -37 -23 -52.5t-51 -15.5h-644q-28 0 -41 10.5t-13 34.5z" />
<glyph unicode="s" d="M114 23q0 6 2 20l42 240q6 35 25.5 50t61.5 15q21 0 31.5 -9.5t15.5 -31.5q20 -96 95.5 -140t215.5 -44q98 0 158 27.5t85 66.5t25 76q0 35 -28 56t-80 33q-51 12 -159 24q-80 10 -126 17.5t-93 23.5q-74 25 -115 68t-41 114q0 85 45.5 157.5t137 116t222.5 43.5 q97 0 173 -29t124 -81l8 45q6 35 25.5 50t60.5 15q35 0 50.5 -10.5t15.5 -34.5q0 -6 -2 -20l-34 -190q-6 -35 -25.5 -50t-60.5 -15q-35 0 -44 26q-28 82 -104 115.5t-202 33.5q-75 0 -127 -20.5t-77.5 -54t-25.5 -71.5q0 -33 28 -52t81 -30q58 -13 152 -22q74 -9 123 -17.5 t97 -23.5q161 -53 161 -190q0 -77 -41.5 -155.5t-140.5 -132.5t-261 -54q-108 0 -184.5 30t-127.5 91l-10 -56q-6 -35 -25.5 -50t-60.5 -15q-35 0 -50.5 10.5t-15.5 34.5z" />
<glyph unicode="t" d="M181 753q0 5 2 23q7 37 24 52.5t51 15.5h203l53 300q6 35 25.5 50t61.5 15q35 0 50 -10.5t15 -34.5q0 -4 -2 -20l-53 -300h411q28 0 40.5 -10t12.5 -34q0 -15 -2 -24q-6 -37 -23.5 -52.5t-51.5 -15.5h-411l-64 -364q-9 -46 -9 -83q0 -70 34.5 -103.5t112.5 -33.5 q66 0 144.5 27.5t156.5 73.5q15 9 30 9q16 0 30 -12t23 -36q8 -20 8 -40q0 -35 -38 -56q-88 -50 -186 -81t-183 -31q-143 0 -213 66.5t-70 192.5q0 42 10 104l64 367h-203q-28 0 -40.5 10.5t-12.5 34.5z" />
<glyph unicode="u" d="M152 833q0 5 2 23q7 37 24 52.5t51 15.5h169q28 0 40.5 -10t12.5 -34q0 -15 -2 -24l-95 -537q-5 -32 -5 -54q0 -66 33 -102.5t100 -36.5q84 0 167.5 53.5t143.5 144.5t79 198l47 266h-142q-28 0 -40.5 10.5t-12.5 34.5q0 5 2 23q7 37 24 52.5t51 15.5h229q28 0 40.5 -10 t12.5 -34q0 -15 -2 -24l-127 -720h82q28 0 40.5 -10t12.5 -34q0 -15 -2 -24q-6 -37 -23 -52.5t-51 -15.5h-160q-28 0 -40.5 10t-12.5 34q0 15 2 24l21 120q-84 -102 -179 -156t-193 -54q-119 0 -187 70.5t-68 189.5q0 40 7 76l84 474h-82q-28 0 -40.5 10.5t-12.5 34.5z" />
<glyph unicode="v" d="M128 833q0 5 2 23q7 37 24 52.5t51 15.5h354q28 0 40.5 -10t12.5 -34q0 -15 -2 -24q-6 -37 -23.5 -52.5t-51.5 -15.5h-132l158 -652l391 652h-83q-28 0 -40.5 10.5t-12.5 34.5q0 5 2 23q7 37 24 52.5t51 15.5h314q28 0 40.5 -10t12.5 -34q0 -15 -2 -24 q-6 -37 -23.5 -52.5t-51.5 -15.5h-59l-454 -745q-21 -34 -50.5 -49.5t-78.5 -15.5q-48 0 -72.5 15.5t-32.5 49.5l-189 745h-66q-28 0 -40.5 10.5t-12.5 34.5z" />
<glyph unicode="w" d="M68 833q0 5 2 23q7 37 24 52.5t51 15.5h294q28 0 40.5 -10t12.5 -34q0 -15 -2 -24q-6 -37 -23.5 -52.5t-51.5 -15.5h-126l42 -582l249 464q25 47 84 47q33 0 49.5 -10t20.5 -30l83 -471l250 582h-98q-28 0 -40.5 10.5t-12.5 34.5q0 5 2 23q7 37 24 52.5t51 15.5h274 q28 0 40.5 -10t12.5 -34q0 -15 -2 -24q-6 -37 -23.5 -52.5t-51.5 -15.5h-21l-328 -745q-16 -36 -38 -50.5t-60 -14.5q-43 0 -65 15.5t-28 49.5l-76 434l-232 -434q-18 -34 -46 -49.5t-71 -15.5q-38 0 -54.5 14.5t-19.5 50.5l-62 745h-21q-28 0 -40.5 10.5t-12.5 34.5z" />
<glyph unicode="x" d="M9 45q0 7 2 23q7 37 24 52.5t51 15.5h52l387 343l-237 309h-77q-28 0 -40.5 10.5t-12.5 34.5q0 5 2 23q7 37 24 52.5t51 15.5h344q28 0 40.5 -10t12.5 -34q0 -15 -2 -24q-6 -37 -23.5 -52.5t-51.5 -15.5h-81l170 -227l249 227h-44q-28 0 -40.5 10.5t-12.5 34.5q0 5 2 23 q7 37 24 52.5t51 15.5h304q28 0 40.5 -10t12.5 -34q0 -15 -2 -24q-6 -37 -23.5 -52.5t-51.5 -15.5h-67l-355 -315l260 -337h57q28 0 40.5 -10t12.5 -34q0 -15 -2 -24q-6 -37 -23 -52.5t-51 -15.5h-344q-28 0 -41 10.5t-13 34.5q0 7 2 23q7 37 24 52.5t51 15.5h101l-192 254 l-281 -254h68q28 0 40.5 -10t12.5 -34q0 -15 -2 -24q-6 -37 -23 -52.5t-51 -15.5h-314q-28 0 -41 10.5t-13 34.5z" />
<glyph unicode="y" d="M-14 -343q0 42 16.5 62t45.5 22q96 5 158 33t122.5 95t155.5 209l-237 710h-66q-28 0 -40.5 10.5t-12.5 34.5q0 5 2 23q7 37 24 52.5t51 15.5h354q28 0 40.5 -10t12.5 -34q0 -15 -2 -24q-6 -37 -23.5 -52.5t-51.5 -15.5h-132l183 -562l368 562h-85q-28 0 -40.5 10.5 t-12.5 34.5q0 5 2 23q7 37 24 52.5t51 15.5h314q28 0 40.5 -10t12.5 -34q0 -15 -2 -24q-6 -37 -23.5 -52.5t-51.5 -15.5h-59l-556 -838q-90 -136 -163.5 -211t-154.5 -110t-193 -39h-4q-67 0 -67 67z" />
<glyph unicode="z" d="M127 45q0 7 2 23q5 29 22 45l701 675h-446l-26 -149q-6 -35 -25.5 -50t-60.5 -15q-35 0 -50.5 10.5t-15.5 34.5q0 6 2 20l38 217q7 37 24 52.5t51 15.5h716q28 0 40.5 -10t12.5 -34q0 -15 -2 -24q-4 -29 -23 -46l-700 -674h476l31 172q6 35 25.5 50t60.5 15 q35 0 50.5 -10.5t15.5 -34.5q0 -6 -2 -20l-43 -240q-7 -37 -23.5 -52.5t-50.5 -15.5h-746q-28 0 -41 10.5t-13 34.5z" />
<glyph unicode="{" d="M200 519q0 6 2 22q5 39 22.5 55.5t51.5 16.5q286 0 320 272l11 90q25 206 144.5 301.5t333.5 95.5q29 0 42.5 -12t13.5 -39q0 -5 -2 -21q-5 -39 -22 -55.5t-51 -16.5q-102 0 -166 -29.5t-99 -90.5t-49 -161l-10 -72q-18 -130 -87 -210t-204 -119l-1 -10q189 -70 189 -239 q0 -36 -10 -84l-24 -112q-12 -55 -12 -99q0 -97 59 -144t182 -47q28 0 40 -11t12 -37q0 -6 -2 -24q-5 -39 -22.5 -55.5t-51.5 -16.5q-176 0 -271.5 79.5t-95.5 231.5q0 62 16 132l21 93q12 53 12 94q0 87 -56 129.5t-181 42.5q-29 0 -42 11.5t-13 38.5z" />
<glyph unicode="|" d="M415 -310q0 4 2 20l285 1619q6 35 25.5 50t61.5 15q35 0 50 -10.5t15 -34.5q0 -4 -2 -20l-285 -1619q-6 -35 -25.5 -50t-61.5 -15q-35 0 -50 10.5t-15 34.5z" />
<glyph unicode="}" d="M108 -282q0 5 2 21q5 39 22 55.5t51 16.5q102 0 166 29.5t99.5 91t48.5 160.5l16 118q18 128 88 209.5t204 120.5l1 10q-181 70 -181 248q0 34 8 79l11 61q10 58 10 95q0 100 -57.5 147.5t-181.5 47.5q-28 0 -40 11t-12 37q0 6 2 24q5 39 22.5 55.5t51.5 16.5 q178 0 271 -80.5t93 -237.5q0 -60 -13 -125l-10 -52q-10 -55 -10 -91q0 -88 54 -130.5t177 -42.5q29 0 42 -11.5t13 -38.5q0 -6 -2 -22q-5 -39 -22.5 -55.5t-51.5 -16.5q-147 0 -226.5 -72.5t-95.5 -202.5l-16 -130q-25 -205 -145 -301t-333 -96q-29 0 -42.5 12t-13.5 39z " />
<glyph unicode="~" d="M181 543q0 14 7 25q47 76 115 121.5t146 45.5q58 0 108.5 -21t114.5 -61q58 -34 94 -50t75 -16q85 0 155 84q16 19 38 19t43 -17q32 -24 32 -52q0 -14 -7 -25q-47 -76 -115 -121.5t-146 -45.5q-58 0 -108 21t-116 61q-56 33 -93 49.5t-75 16.5q-85 0 -155 -84 q-16 -19 -38 -19t-43 17q-32 24 -32 52z" />
<glyph unicode="&#xa0;" />
<glyph unicode="&#xa1;" d="M366 -316q0 9 3 21l174 707q5 23 22 35.5t43 12.5t39 -12.5t11 -35.5l-77 -707q-4 -50 -50 -50h-130q-35 0 -35 29zM517 717l27 154q6 34 34.5 48.5t93.5 14.5q67 0 97.5 -15t24.5 -48l-27 -154q-6 -34 -35 -48.5t-94 -14.5q-67 0 -97 15t-24 48z" />
<glyph unicode="&#xa2;" d="M157 520q0 138 63.5 261.5t179 205t264.5 96.5l29 164q6 34 25.5 49.5t56.5 15.5q31 0 45.5 -11t14.5 -34q0 -6 -2 -20l-30 -169q63 -13 112.5 -46t80.5 -81l13 70q7 35 26 50t60 15q35 0 50.5 -10.5t15.5 -34.5q0 -6 -2 -20l-51 -290q-6 -35 -24.5 -50t-59.5 -15 q-36 0 -51.5 11t-15.5 36q0 4 2 18q2 11 2 31q0 69 -46.5 114.5t-136.5 57.5l-117 -663q143 18 275 107q20 13 37 13q33 0 56 -40q14 -25 14 -45q0 -36 -39 -61q-79 -51 -175 -83.5t-194 -41.5l-32 -180q-6 -34 -25.5 -49.5t-56.5 -15.5q-31 0 -45.5 11t-14.5 34q0 6 2 20 l32 183q-104 15 -180.5 69.5t-117 139.5t-40.5 188zM315 531q0 -103 54.5 -172t151.5 -87l116 658q-93 -18 -166.5 -76.5t-114.5 -143t-41 -179.5z" />
<glyph unicode="&#xa3;" d="M145 54q0 25 16 38q131 102 198 194t73 198h-144q-28 0 -40.5 10t-12.5 34q0 15 2 24q7 37 24 52.5t51 15.5h100q-4 14 -14 42q-19 56 -28.5 95t-9.5 82q0 89 46.5 174.5t135.5 140.5t209 55q91 0 173.5 -28t140.5 -76q14 -12 14 -35q0 -5 -2 -19l-23 -127 q-6 -35 -25.5 -50t-60.5 -15q-35 0 -50.5 10.5t-15.5 34.5q0 6 2 20l16 90q-70 47 -186 47q-69 0 -119 -34.5t-76 -87t-26 -105.5q0 -32 8 -62.5t24 -75.5q19 -58 24 -76h315q28 0 40.5 -10t12.5 -34q0 -15 -2 -24q-7 -37 -24 -52.5t-51 -15.5h-277q-13 -191 -194 -349 q68 23 129 23q31 0 57.5 -4.5t65.5 -14.5q35 -8 55.5 -12t43.5 -4q36 0 75 12.5t86 43.5q10 6 21 6q14 0 28 -10t24 -27q12 -22 12 -42q0 -32 -27 -50q-66 -43 -118.5 -60.5t-101.5 -17.5q-28 0 -54 4t-64 13q-42 10 -76.5 15t-73.5 5q-104 0 -230 -49q-9 -3 -17 -3 q-17 0 -33 10.5t-28 27.5q-18 26 -18 53z" />
<glyph unicode="&#xa4;" d="M98 210q0 23 27 45l156 130q-34 73 -34 160q0 83 27.5 160.5t78.5 139.5l-113 134q-19 22 -19 42q0 25 33 53q28 24 51 24t45 -27l111 -132q107 67 235 67q70 0 129 -19.5t105 -55.5l153 128q22 19 42 19q25 0 53 -33q24 -28 24 -51q0 -22 -27 -45l-156 -130 q34 -73 34 -160q0 -83 -27.5 -160.5t-78.5 -139.5l113 -134q19 -22 19 -42q0 -24 -33 -53q-28 -24 -51 -24q-22 0 -45 27l-111 132q-107 -67 -235 -67q-70 0 -129 19.5t-105 55.5l-153 -128q-22 -19 -42 -19q-24 0 -53 33q-24 29 -24 51zM394 552q0 -96 58.5 -154t161.5 -58 q87 0 153.5 44.5t102.5 116.5t36 151q0 96 -58.5 154t-161.5 58q-87 0 -153.5 -44.5t-102.5 -116.5t-36 -151z" />
<glyph unicode="&#xa5;" d="M175 419q0 5 2 23q7 37 24 52.5t51 15.5h299l-77 174h-211q-28 0 -40.5 10t-12.5 34q0 15 2 24q7 37 24 52.5t51 15.5h127l-102 231h-74q-28 0 -40.5 10t-12.5 34q0 15 2 24q7 37 24 52.5t51 15.5h334q28 0 40.5 -10t12.5 -34q0 -15 -2 -24q-7 -37 -24 -52.5t-51 -15.5 h-97l178 -409l324 409h-61q-28 0 -40.5 10t-12.5 34q0 15 2 24q7 37 24 52.5t51 15.5h304q28 0 40.5 -10t12.5 -34q0 -15 -2 -24q-7 -37 -24 -52.5t-51 -15.5h-64l-185 -231h118q28 0 40.5 -10t12.5 -34q0 -15 -2 -24q-7 -37 -24 -52.5t-51 -15.5h-203l-139 -174h291 q28 0 40.5 -10t12.5 -34q0 -15 -2 -24q-6 -37 -23.5 -52.5t-51.5 -15.5h-306l-42 -238h236q28 0 40.5 -10t12.5 -34q0 -15 -2 -24q-6 -37 -23 -52.5t-51 -15.5h-602q-28 0 -41 10.5t-13 34.5q0 7 2 23q7 37 24 52.5t51 15.5h216l42 238h-306q-28 0 -40.5 10.5t-12.5 34.5z " />
<glyph unicode="&#xa6;" d="M415 -310q0 4 2 20l106 599q6 35 25.5 50t60.5 15q35 0 50.5 -10.5t15.5 -34.5q0 -6 -2 -20l-106 -599q-6 -35 -25.5 -50t-61.5 -15q-35 0 -50 10.5t-15 34.5zM595 710q0 6 2 20l105 599q6 35 25.5 50t61.5 15q35 0 50 -10.5t15 -34.5q0 -4 -2 -20l-105 -599 q-6 -35 -25.5 -50t-60.5 -15q-35 0 -50.5 10.5t-15.5 34.5z" />
<glyph unicode="&#xa7;" d="M139 -186q0 15 2 24l38 217q6 35 25.5 50t61.5 15q35 0 50 -10.5t15 -34.5q0 -4 -2 -20l-26 -149h243q80 0 121.5 35t41.5 102q0 42 -23.5 78.5t-72.5 69.5l-262 182q-134 92 -134 221q0 25 4 45q11 64 53.5 110.5t125.5 97.5q-6 27 -6 57q0 23 5 53q19 108 97 169 t212 61h356q28 0 40.5 -10t12.5 -34q0 -15 -2 -24l-34 -197q-6 -35 -25.5 -50t-61.5 -15q-35 0 -50 10.5t-15 34.5q0 4 2 20l22 129h-243q-80 0 -121.5 -35t-41.5 -102q0 -42 23.5 -78.5t72.5 -69.5l262 -182q134 -92 134 -221q0 -25 -4 -45q-12 -65 -54.5 -111.5 t-124.5 -97.5q6 -27 6 -56q0 -23 -5 -53q-19 -108 -97 -169t-212 -61h-356q-28 0 -40.5 10t-12.5 34zM371 602q0 -31 17.5 -56t55.5 -51l262 -182q56 -39 92 -85q44 27 65.5 57t21.5 70q0 31 -17.5 56t-55.5 51l-262 182q-58 40 -93 85q-44 -27 -65 -57t-21 -70z" />
<glyph unicode="&#xa8;" d="M408 1178q0 37 20.5 70t54 52.5t70.5 19.5q47 0 77 -31t30 -76q0 -39 -20.5 -72t-53.5 -52t-70 -19q-47 0 -77.5 31t-30.5 77zM848 1178q0 37 20.5 70t54 52.5t70.5 19.5q47 0 77 -31t30 -76q0 -39 -20.5 -72t-53.5 -52t-70 -19q-47 0 -77.5 31t-30.5 77z" />
<glyph unicode="&#xa9;" d="M61 484q0 196 93 362.5t250 264.5t340 98q146 0 257.5 -66t172.5 -180.5t61 -257.5q0 -196 -92.5 -363t-249.5 -265.5t-340 -98.5q-146 0 -258 66t-173 181.5t-61 258.5zM182 487q0 -115 46 -203t131.5 -137t201.5 -49q148 0 275 80.5t202.5 219t75.5 304.5 q0 114 -45.5 202t-131 136.5t-201.5 48.5q-147 0 -274.5 -80t-203.5 -218t-76 -304zM344 526q0 81 28.5 163t83.5 140q49 53 115 80.5t143 27.5q45 0 89.5 -10.5t83.5 -29.5q36 -19 36 -48q0 -17 -10 -37q-19 -40 -49 -40q-14 0 -28 7q-34 17 -65 24.5t-69 7.5 q-46 0 -86.5 -19t-71.5 -57q-32 -39 -50 -92.5t-18 -107.5q0 -77 41 -118.5t108 -41.5q38 0 71.5 7.5t73.5 24.5q15 7 29 7t23.5 -10t16.5 -32q5 -18 5 -30q0 -18 -10.5 -30.5t-34.5 -22.5q-45 -19 -93.5 -29.5t-93.5 -10.5q-79 0 -140 33.5t-94.5 96.5t-33.5 147z" />
<glyph unicode="&#xaa;" d="M309 763q0 105 46.5 208t138.5 170.5t220 67.5q78 0 132.5 -33.5t83.5 -92.5l13 67q6 28 20 39t52 11q32 0 45 -8t13 -26q0 -4 -2 -16l-77 -436q-3 -16 -3 -30q0 -36 20 -54t55 -18h4q23 0 33 -10.5t10 -31.5q0 -7 -2 -23q-7 -33 -21.5 -48.5t-41.5 -15.5h-10 q-59 0 -100.5 30.5t-54.5 87.5q-61 -70 -129.5 -103t-154.5 -33q-83 0 -149 36.5t-103.5 104t-37.5 157.5zM452 770q0 -82 44.5 -127.5t122.5 -45.5q87 0 147.5 41t90.5 109.5t30 150.5q0 90 -47 134.5t-135 44.5q-74 0 -131.5 -43t-89.5 -113.5t-32 -150.5z" />
<glyph unicode="&#xab;" d="M172 593q0 17 12 27l346 314q12 12 29 12q27 0 61 -35q26 -27 26 -49q0 -19 -18 -35l-279 -249l218 -293q10 -13 10 -29q0 -27 -36 -52q-32 -22 -57 -22q-22 0 -36 19l-269 371q-7 11 -7 21zM652 573q0 17 12 27l366 334q12 12 29 12q27 0 61 -35q26 -27 26 -49 q0 -19 -18 -35l-299 -269l198 -273q10 -13 10 -29q0 -27 -36 -52q-32 -22 -57 -22q-22 0 -36 19l-249 351q-7 11 -7 21z" />
<glyph unicode="&#xac;" d="M205 753q0 15 2 24q6 37 23 52.5t51 15.5h812q28 0 41 -10.5t13 -34.5q0 -7 -2 -23l-70 -394q-6 -35 -25.5 -50t-60.5 -15q-35 0 -50.5 10.5t-15.5 34.5q0 6 2 20l58 326h-725q-28 0 -40.5 10t-12.5 34z" />
<glyph unicode="&#xad;" d="M209 418q0 15 2 24q7 37 24 52.5t51 15.5h672q28 0 40.5 -10t12.5 -34q0 -15 -2 -24q-7 -37 -24 -52.5t-51 -15.5h-672q-28 0 -40.5 10t-12.5 34z" />
<glyph unicode="&#xae;" d="M200 730q0 163 77.5 302t208.5 220.5t283 81.5q122 0 215 -55t143.5 -150.5t50.5 -214.5q0 -163 -77 -302.5t-207.5 -221.5t-283.5 -82q-122 0 -215 55t-144 151.5t-51 215.5zM301 732q0 -95 38 -168.5t109.5 -114.5t168.5 -41q124 0 229.5 67t168 182.5t62.5 254.5 q0 95 -38 168t-109.5 113.5t-167.5 40.5q-123 0 -229 -66.5t-169 -182t-63 -253.5zM459 585q0 5 2 21l76 432q4 28 19 40.5t44 12.5h147q54 0 95 -20.5t63 -57t22 -81.5q0 -70 -39.5 -121.5t-112.5 -74.5l76 -102q14 -19 14 -32q0 -19 -28 -38q-22 -15 -36 -15q-15 0 -30 20 l-104 149h-84l-19 -112q-5 -29 -19.5 -41.5t-43.5 -12.5q-22 0 -32 8t-10 25zM601 816h88q63 0 96 31t33 78q0 32 -22.5 50t-67.5 18h-96z" />
<glyph unicode="&#xaf;" d="M405 1154q0 15 2 24q7 37 24 52.5t51 15.5h562q28 0 40.5 -10t12.5 -34q0 -15 -2 -24q-7 -37 -24 -52.5t-51 -15.5h-562q-28 0 -40.5 10t-12.5 34z" />
<glyph unicode="&#xb0;" d="M337 894q0 82 40 154.5t112.5 116.5t163.5 44q69 0 125.5 -31t89.5 -86.5t33 -126.5q0 -84 -40 -156.5t-112 -116t-163 -43.5q-69 0 -126 31.5t-90 87t-33 126.5zM472 902q0 -52 33.5 -85t92.5 -33q48 0 86 24t60 63.5t22 84.5q0 52 -33.5 85t-91.5 33q-48 0 -86.5 -24 t-60.5 -64t-22 -84z" />
<glyph unicode="&#xb1;" d="M130 158q0 15 2 24q6 37 23.5 52.5t51.5 15.5h762q28 0 40.5 -10.5t12.5 -34.5q0 -5 -2 -23q-7 -37 -24 -52.5t-51 -15.5h-762q-28 0 -40.5 10t-12.5 34zM228 719q0 5 2 23q7 37 24 52.5t51 15.5h313l45 253q6 34 24 48.5t55 14.5q32 0 45.5 -10t13.5 -33q0 -4 -2 -20 l-45 -253h313q28 0 40.5 -10t12.5 -34q0 -15 -2 -24q-6 -37 -23.5 -52.5t-51.5 -15.5h-313l-44 -253q-6 -34 -24 -48.5t-55 -14.5q-32 0 -45.5 10t-13.5 33q0 4 2 20l44 253h-313q-28 0 -40.5 10.5t-12.5 34.5z" />
<glyph unicode="&#xb2;" d="M312 529q0 58 46 91l381 280q77 56 110.5 100t33.5 99q0 49 -34.5 77.5t-99.5 28.5q-42 0 -86 -10.5t-82 -28.5l-18 -103q-5 -26 -23 -38.5t-54 -12.5q-31 0 -45 9.5t-14 28.5q0 8 1 13l26 147q4 27 29 42q66 39 143 60.5t147 21.5q118 0 185.5 -59.5t67.5 -163.5 q0 -86 -51 -154.5t-165 -150.5l-274 -198h322l14 78q5 26 23 38.5t54 12.5q31 0 45 -9.5t14 -28.5q0 -8 -1 -13l-27 -150q-4 -26 -19.5 -39.5t-39.5 -13.5h-571q-38 0 -38 46z" />
<glyph unicode="&#xb3;" d="M332 566q0 18 13 43q24 44 50 44q8 0 20 -5q53 -25 111 -39.5t107 -14.5q100 0 156 38.5t56 108.5q0 54 -42.5 76.5t-122.5 22.5h-52q-35 0 -35 42q0 7 2 23q10 60 55 60h39q194 0 194 139q0 49 -37.5 75t-100.5 26q-88 0 -162 -29l-11 -63q-5 -26 -23 -38.5t-54 -12.5 q-31 0 -45 9.5t-14 28.5q0 8 1 13l20 110q5 29 28 42q63 34 136.5 51.5t142.5 17.5q124 0 193 -57t69 -156q0 -68 -39 -121.5t-109 -86.5q52 -22 80.5 -63.5t28.5 -98.5q0 -84 -41.5 -149t-122 -101t-195.5 -36q-76 0 -148 17.5t-129 49.5q-19 11 -19 34z" />
<glyph unicode="&#xb4;" d="M531 1093q0 27 23 40l416 230q19 11 33 11q16 0 32.5 -15t35.5 -50q25 -44 25 -72q0 -27 -25 -35l-481 -163q-8 -2 -12 -2q-14 0 -26 9.5t-17 24.5q-4 9 -4 22z" />
<glyph unicode="&#xb5;" d="M87 -353q0 4 2 20l212 1202q6 35 25.5 50t59.5 15h2q35 0 50 -10.5t15 -34.5q0 -4 -2 -20l-97 -550q-5 -30 -5 -53q0 -66 37.5 -103t115.5 -37q76 0 159.5 51t146.5 137.5t81 187.5l64 367q6 35 25.5 50t59.5 15h2q35 0 50 -10.5t15 -34.5q0 -4 -2 -20l-143 -814 q-6 -36 -22.5 -50.5t-55.5 -14.5h-2q-33 0 -47.5 10.5t-14.5 33.5q0 5 2 21l25 143q-78 -98 -175.5 -159t-194.5 -61q-53 0 -96.5 15t-74.5 43l-65 -369q-6 -35 -25.5 -50t-59.5 -15h-2q-35 0 -50 10.5t-15 34.5z" />
<glyph unicode="&#xb6;" d="M205 789q0 107 53.5 198t160 145.5t258.5 54.5h516q28 0 40.5 -10t12.5 -34q0 -15 -2 -24q-7 -37 -24 -52.5t-51 -15.5h-68l-246 -1396q-6 -35 -25.5 -50t-61.5 -15q-35 0 -50 10.5t-15 34.5q0 4 2 20l246 1396h-160l-246 -1396q-6 -35 -25.5 -50t-61.5 -15 q-35 0 -50 10.5t-15 34.5q0 4 2 20l149 847q-103 3 -179.5 38.5t-118 99.5t-41.5 149z" />
<glyph unicode="&#xb7;" d="M495 488l33 184q6 34 37 48.5t101 14.5q73 0 105.5 -15t26.5 -48l-33 -184q-6 -34 -37 -48.5t-101 -14.5q-73 0 -105.5 15t-26.5 48z" />
<glyph unicode="&#xb8;" d="M222 -392q0 21 10 38q9 17 21.5 27.5t26.5 10.5q7 0 11 -2q38 -15 88 -24.5t99 -9.5q58 0 87 22.5t29 58.5q0 55 -103 55l-35 -1q-29 0 -29 28q0 9 1 14l35 203h135l-25 -141q87 1 132.5 -39.5t45.5 -105.5q0 -34 -14 -73.5t-40 -66.5q-69 -74 -220 -74q-68 0 -130 12 t-108 36q-17 8 -17 32z" />
<glyph unicode="&#xb9;" d="M339 524q0 6 2 22q9 62 60 62h205l98 551l-185 -88q-19 -9 -33 -9q-25 0 -40 34q-8 19 -8 34q0 30 34 46l328 152q18 7 28 7q18 0 28 -11.5t6 -31.5l-121 -684h194q22 0 31.5 -10.5t9.5 -30.5q0 -6 -2 -22q-9 -62 -60 -62h-534q-22 0 -31.5 10.5t-9.5 30.5z" />
<glyph unicode="&#xba;" d="M318 778q0 108 52 207.5t148.5 161.5t223.5 62q93 0 166.5 -40.5t114.5 -112t41 -161.5q0 -106 -51.5 -205.5t-148 -162t-224.5 -62.5q-94 0 -167 40t-114 111.5t-41 161.5zM457 787q0 -86 53 -138t144 -52q74 0 136 38t98 104.5t36 147.5q0 86 -52.5 138t-143.5 52 q-82 0 -143.5 -42.5t-94.5 -109.5t-33 -138z" />
<glyph unicode="&#xbb;" d="M140 266q0 19 18 35l299 269l-198 273q-10 13 -10 29q0 27 36 52q32 22 57 22q23 0 36 -19l249 -351q7 -10 7 -21q0 -16 -12 -27l-366 -334q-12 -12 -29 -12q-27 0 -61 35q-26 27 -26 49zM640 266q0 19 18 35l279 249l-218 293q-11 14 -11 29q0 26 37 52q32 22 57 22 q23 0 36 -19l269 -371q7 -10 7 -21q0 -16 -12 -27l-346 -314q-12 -12 -29 -12q-27 0 -61 35q-26 27 -26 49z" />
<glyph unicode="&#xbc;" d="M38 718q0 4 2 18q8 52 50 52h171l81 459l-154 -73q-14 -7 -27 -7q-23 0 -34 28q-7 18 -7 28q0 26 29 39l274 127q13 5 23 5q15 0 23.5 -9t5.5 -26l-101 -571h162q34 0 34 -34q0 -4 -2 -18q-8 -52 -50 -52h-446q-34 0 -34 34zM84 244q0 24 20 35l1017 561q7 4 16 4 q25 0 40 -28q8 -13 8 -30q0 -25 -19 -35l-1017 -561q-7 -4 -16 -4q-25 0 -40 28q-9 15 -9 30zM585 18q0 25 5.5 37t18.5 26l383 378q19 19 36 27.5t38 8.5q29 0 49.5 -13t16.5 -33l-66 -373h92q34 0 34 -34t-13 -52.5t-39 -18.5h-92l-27 -153q-4 -20 -18.5 -30t-44.5 -10 q-58 0 -50 40l27 153h-314q-17 0 -26.5 12t-9.5 35zM737 76h216l53 266z" />
<glyph unicode="&#xbd;" d="M38 718q0 4 2 18q8 52 50 52h171l81 459l-154 -73q-14 -7 -27 -7q-23 0 -34 28q-7 18 -7 28q0 26 29 39l274 127q13 5 23 5q15 0 23.5 -9t5.5 -26l-101 -571h162q34 0 34 -34q0 -4 -2 -18q-8 -52 -50 -52h-446q-34 0 -34 34zM84 294q0 24 20 35l1017 561q7 4 16 4 q25 0 40 -28q8 -13 8 -30q0 -25 -19 -35l-1017 -561q-7 -4 -16 -4q-25 0 -40 28q-9 15 -9 30zM590 -178q0 48 38 76l318 234q64 47 92 83.5t28 82.5q0 41 -28.5 64.5t-83.5 23.5q-35 0 -71.5 -9t-68.5 -24l-15 -85q-4 -22 -18.5 -32.5t-45.5 -10.5q-26 0 -38 8t-12 24 q0 7 1 11l22 122q4 24 24 35q56 33 120 51t122 18q99 0 155.5 -50t56.5 -136q0 -72 -42.5 -129t-138.5 -126l-228 -165h268l12 65q4 22 19 32.5t45 10.5q26 0 38 -8t12 -24q0 -7 -1 -11l-23 -125q-8 -44 -49 -44h-477q-31 0 -31 38z" />
<glyph unicode="&#xbe;" d="M65 753q0 14 11 36q20 36 42 36q9 0 17 -4q44 -21 92.5 -33t89.5 -12q83 0 130 32.5t47 90.5q0 45 -36 64t-102 19h-44q-29 0 -29 35q0 5 2 19q4 24 14.5 37t31.5 13h32q162 0 162 116q0 41 -31 62.5t-84 21.5q-74 0 -135 -24l-9 -53q-4 -21 -19 -31.5t-46 -10.5 q-49 0 -49 31q0 7 1 11l17 92q3 23 23 35q53 28 114.5 43t118.5 15q103 0 161 -48t58 -130q0 -57 -32.5 -102t-91.5 -72q44 -18 67.5 -52.5t23.5 -82.5q0 -70 -34.5 -124t-102 -84t-163.5 -30q-64 0 -123.5 14.5t-107.5 41.5q-16 10 -16 28zM84 254q0 24 20 35l1017 561 q7 4 16 4q25 0 40 -28q8 -13 8 -30q0 -25 -19 -35l-1017 -561q-7 -4 -16 -4q-25 0 -40 28q-9 15 -9 30zM585 18q0 25 5.5 37t18.5 26l383 378q19 19 36 27.5t38 8.5q29 0 49.5 -13t16.5 -33l-66 -373h92q34 0 34 -34t-13 -52.5t-39 -18.5h-92l-27 -153q-4 -20 -18.5 -30 t-44.5 -10q-58 0 -50 40l27 153h-314q-17 0 -26.5 12t-9.5 35zM737 76h216l53 266z" />
<glyph unicode="&#xbf;" d="M156 -73q0 139 94.5 229t287.5 162l36 139q12 48 75 48q62 0 57 -48l-20 -198q-4 -38 -39 -51l-74 -28q-92 -35 -147 -67.5t-83 -75.5t-28 -103q0 -61 42.5 -96t123.5 -35q119 0 223 42l15 84q6 35 25.5 50t60.5 15q35 0 50.5 -10.5t15.5 -34.5q0 -6 -2 -20l-24 -132 q-4 -21 -12 -34.5t-23 -21.5q-165 -86 -344 -86q-98 0 -167.5 33.5t-106 95t-36.5 143.5zM569 745q0 8 1 12l20 114q6 34 33 48.5t87 14.5q56 0 83.5 -12.5t27.5 -39.5q0 -7 -1 -11l-20 -114q-6 -34 -33.5 -48.5t-87.5 -14.5q-56 0 -83 12t-27 39z" />
<glyph unicode="&#xc0;" d="M-51 45q0 7 2 23q7 37 24 52.5t51 15.5h53l493 915h-184q-28 0 -40.5 10t-12.5 34q0 15 2 24q7 37 24 52.5t51 15.5h364q40 0 61.5 -15.5t27.5 -49.5l179 -986h64q28 0 40.5 -10t12.5 -34q0 -15 -2 -24q-6 -37 -23 -52.5t-51 -15.5h-354q-28 0 -41 10.5t-13 34.5 q0 7 2 23q7 37 24 52.5t51 15.5h140l-40 238h-485l-125 -238h116q28 0 40.5 -10t12.5 -34q0 -15 -2 -24q-6 -37 -23 -52.5t-51 -15.5h-334q-28 0 -41 10.5t-13 34.5zM360 1507q0 28 25 72q19 35 35.5 50t32.5 15q14 0 33 -11l416 -230q23 -13 23 -40q0 -22 -13.5 -39 t-33.5 -17q-4 0 -12 2l-481 163q-25 8 -25 35zM440 510h392l-90 541h-19z" />
<glyph unicode="&#xc1;" d="M-51 45q0 7 2 23q7 37 24 52.5t51 15.5h53l493 915h-184q-28 0 -40.5 10t-12.5 34q0 15 2 24q7 37 24 52.5t51 15.5h364q40 0 61.5 -15.5t27.5 -49.5l179 -986h64q28 0 40.5 -10t12.5 -34q0 -15 -2 -24q-6 -37 -23 -52.5t-51 -15.5h-354q-28 0 -41 10.5t-13 34.5 q0 7 2 23q7 37 24 52.5t51 15.5h140l-40 238h-485l-125 -238h116q28 0 40.5 -10t12.5 -34q0 -15 -2 -24q-6 -37 -23 -52.5t-51 -15.5h-334q-28 0 -41 10.5t-13 34.5zM440 510h392l-90 541h-19zM497 1363q0 27 23 40l416 230q19 11 33 11q16 0 32.5 -15t35.5 -50 q25 -44 25 -72q0 -27 -25 -35l-481 -163q-8 -2 -12 -2q-14 0 -26 9.5t-17 24.5q-4 9 -4 22z" />
<glyph unicode="&#xc2;" d="M-51 45q0 7 2 23q7 37 24 52.5t51 15.5h53l493 915h-184q-28 0 -40.5 10t-12.5 34q0 15 2 24q7 37 24 52.5t51 15.5h364q40 0 61.5 -15.5t27.5 -49.5l179 -986h64q28 0 40.5 -10t12.5 -34q0 -15 -2 -24q-6 -37 -23 -52.5t-51 -15.5h-354q-28 0 -41 10.5t-13 34.5 q0 7 2 23q7 37 24 52.5t51 15.5h140l-40 238h-485l-125 -238h116q28 0 40.5 -10t12.5 -34q0 -15 -2 -24q-6 -37 -23 -52.5t-51 -15.5h-334q-28 0 -41 10.5t-13 34.5zM388 1357q0 23 20 39l308 232q26 18 58 18q33 0 52 -18l246 -232q11 -11 11 -29q0 -20 -11 -37 q-8 -12 -19 -19.5t-22 -7.5q-9 0 -18 6l-252 159l-306 -159q-12 -5 -20 -5q-13 0 -24 7.5t-17 19.5t-6 26zM440 510h392l-90 541h-19z" />
<glyph unicode="&#xc3;" d="M-51 45q0 7 2 23q7 37 24 52.5t51 15.5h53l493 915h-184q-28 0 -40.5 10t-12.5 34q0 15 2 24q7 37 24 52.5t51 15.5h364q40 0 61.5 -15.5t27.5 -49.5l179 -986h64q28 0 40.5 -10t12.5 -34q0 -15 -2 -24q-6 -37 -23 -52.5t-51 -15.5h-354q-28 0 -41 10.5t-13 34.5 q0 7 2 23q7 37 24 52.5t51 15.5h140l-40 238h-485l-125 -238h116q28 0 40.5 -10t12.5 -34q0 -15 -2 -24q-6 -37 -23 -52.5t-51 -15.5h-334q-28 0 -41 10.5t-13 34.5zM372 1429q0 24 17 37q109 91 200 91q34 0 63.5 -8t77.5 -25q45 -16 72 -23t56 -7q65 0 135 42q11 6 20 6 q23 0 42 -31q11 -18 11 -37q0 -24 -17 -37q-109 -91 -200 -91q-34 0 -63.5 8t-77.5 25q-45 16 -72 23t-56 7q-64 0 -135 -42q-10 -6 -20 -6q-23 0 -42 31q-11 18 -11 37zM440 510h392l-90 541h-19z" />
<glyph unicode="&#xc4;" d="M-51 45q0 7 2 23q7 37 24 52.5t51 15.5h53l493 915h-184q-28 0 -40.5 10t-12.5 34q0 15 2 24q7 37 24 52.5t51 15.5h364q40 0 61.5 -15.5t27.5 -49.5l179 -986h64q28 0 40.5 -10t12.5 -34q0 -15 -2 -24q-6 -37 -23 -52.5t-51 -15.5h-354q-28 0 -41 10.5t-13 34.5 q0 7 2 23q7 37 24 52.5t51 15.5h140l-40 238h-485l-125 -238h116q28 0 40.5 -10t12.5 -34q0 -15 -2 -24q-6 -37 -23 -52.5t-51 -15.5h-334q-28 0 -41 10.5t-13 34.5zM416 1448q0 37 20.5 70t54 52.5t70.5 19.5q47 0 77 -31t30 -76q0 -39 -20.5 -72t-53.5 -52t-70 -19 q-47 0 -77.5 31t-30.5 77zM440 510h392l-90 541h-19zM856 1448q0 37 20.5 70t54 52.5t70.5 19.5q47 0 77 -31t30 -76q0 -39 -20.5 -72t-53.5 -52t-70 -19q-47 0 -77.5 31t-30.5 77z" />
<glyph unicode="&#xc5;" d="M-51 45q0 7 2 23q7 37 24 52.5t51 15.5h53l493 915h-184q-28 0 -40.5 10t-12.5 34q0 15 2 24q7 37 24 52.5t51 15.5h364q40 0 61.5 -15.5t27.5 -49.5l179 -986h64q28 0 40.5 -10t12.5 -34q0 -15 -2 -24q-6 -37 -23 -52.5t-51 -15.5h-354q-28 0 -41 10.5t-13 34.5 q0 7 2 23q7 37 24 52.5t51 15.5h140l-40 238h-485l-125 -238h116q28 0 40.5 -10t12.5 -34q0 -15 -2 -24q-6 -37 -23 -52.5t-51 -15.5h-334q-28 0 -41 10.5t-13 34.5zM440 510h392l-90 541h-19zM512 1520q0 67 36 131.5t100 105t145 40.5q60 0 109 -29t77 -78.5t28 -107.5 q0 -69 -36 -133t-100 -104t-145 -40q-60 0 -109 29t-77 78.5t-28 107.5zM632 1528q0 -45 29.5 -74t75.5 -29q38 0 73 20.5t56.5 54.5t21.5 73q0 45 -30 74.5t-76 29.5q-38 0 -73 -20.5t-56 -55t-21 -73.5z" />
<glyph unicode="&#xc6;" d="M-61 45q0 7 2 23q7 37 24 52.5t51 15.5h50l437 915h-94q-28 0 -40.5 10t-12.5 34q0 15 2 24q7 37 24 52.5t51 15.5h769q28 0 40.5 -10t12.5 -34q0 -15 -2 -24l-45 -254q-6 -35 -25.5 -50t-60.5 -15q-35 0 -50.5 10.5t-15.5 34.5q0 6 2 20l33 186h-260l-65 -366h192 q28 0 40.5 -10t12.5 -34q0 -15 -2 -24q-7 -37 -24 -52.5t-51 -15.5h-192l-73 -413h272l41 229q6 35 25.5 50t60.5 15q35 0 50.5 -10.5t15.5 -34.5q0 -6 -2 -20l-53 -297q-6 -37 -23 -52.5t-51 -15.5h-446q-28 0 -41 10.5t-13 34.5q0 7 2 23l54 306h-221l-113 -238h83 q28 0 40.5 -10t12.5 -34q0 -15 -2 -24q-6 -37 -23 -52.5t-51 -15.5h-294q-28 0 -41 10.5t-13 34.5zM404 510h181l96 541h-20z" />
<glyph unicode="&#xc7;" d="M140 453q0 196 79 370t223 280t330 106q95 0 163.5 -34t108.5 -95l11 64q6 35 25.5 50t61.5 15q35 0 50 -10.5t15 -34.5q0 -4 -2 -20l-58 -330q-6 -35 -25.5 -50t-60.5 -15q-35 0 -50.5 10.5t-15.5 34.5q0 6 2 20q4 21 4 49q0 88 -60 143t-180 55q-138 0 -243.5 -86.5 t-162.5 -225t-57 -288.5q0 -158 76 -246.5t212 -88.5q97 0 191.5 30.5t178.5 85.5q14 10 31 10q35 0 58 -45q14 -28 14 -48q0 -30 -36 -53q-190 -113 -394 -126l-16 -93q87 1 132.5 -39.5t45.5 -105.5q0 -34 -14 -73.5t-40 -66.5q-69 -74 -220 -74q-68 0 -130 12t-108 36 q-17 8 -17 32q0 21 10 38q9 17 21.5 27.5t26.5 10.5q7 0 11 -2q38 -15 88 -24.5t99 -9.5q58 0 87 22.5t29 58.5q0 55 -103 55l-35 -1q-29 0 -29 28q0 9 1 14l27 159q-110 17 -190 79t-122.5 162t-42.5 228z" />
<glyph unicode="&#xc8;" d="M19 45q0 7 2 23q7 37 24 52.5t51 15.5h102l162 915h-102q-28 0 -40.5 10t-12.5 34q0 15 2 24q7 37 24 52.5t51 15.5h874q28 0 40.5 -10t12.5 -34q0 -15 -2 -24l-45 -254q-6 -35 -25.5 -50t-60.5 -15q-35 0 -50.5 10.5t-15.5 34.5q0 6 2 20l33 186h-535l-66 -371h250 l16 91q7 35 26.5 50t60.5 15q34 0 49.5 -10.5t15.5 -33.5q0 -13 -2 -21l-56 -318q-6 -35 -25.5 -50t-60.5 -15q-35 0 -50.5 10.5t-15.5 34.5q0 6 2 20l16 91h-250l-72 -408h555l41 229q6 35 25.5 50t60.5 15q35 0 50.5 -10.5t15.5 -34.5q0 -6 -2 -20l-53 -297 q-6 -37 -23 -52.5t-51 -15.5h-894q-28 0 -41 10.5t-13 34.5zM460 1507q0 28 25 72q19 35 35.5 50t32.5 15q14 0 33 -11l416 -230q23 -13 23 -40q0 -22 -13.5 -39t-33.5 -17q-4 0 -12 2l-481 163q-25 8 -25 35z" />
<glyph unicode="&#xc9;" d="M19 45q0 7 2 23q7 37 24 52.5t51 15.5h102l162 915h-102q-28 0 -40.5 10t-12.5 34q0 15 2 24q7 37 24 52.5t51 15.5h874q28 0 40.5 -10t12.5 -34q0 -15 -2 -24l-45 -254q-6 -35 -25.5 -50t-60.5 -15q-35 0 -50.5 10.5t-15.5 34.5q0 6 2 20l33 186h-535l-66 -371h250 l16 91q7 35 26.5 50t60.5 15q34 0 49.5 -10.5t15.5 -33.5q0 -13 -2 -21l-56 -318q-6 -35 -25.5 -50t-60.5 -15q-35 0 -50.5 10.5t-15.5 34.5q0 6 2 20l16 91h-250l-72 -408h555l41 229q6 35 25.5 50t60.5 15q35 0 50.5 -10.5t15.5 -34.5q0 -6 -2 -20l-53 -297 q-6 -37 -23 -52.5t-51 -15.5h-894q-28 0 -41 10.5t-13 34.5zM537 1363q0 27 23 40l416 230q19 11 33 11q16 0 32.5 -15t35.5 -50q25 -44 25 -72q0 -27 -25 -35l-481 -163q-8 -2 -12 -2q-14 0 -26 9.5t-17 24.5q-4 9 -4 22z" />
<glyph unicode="&#xca;" d="M19 45q0 7 2 23q7 37 24 52.5t51 15.5h102l162 915h-102q-28 0 -40.5 10t-12.5 34q0 15 2 24q7 37 24 52.5t51 15.5h874q28 0 40.5 -10t12.5 -34q0 -15 -2 -24l-45 -254q-6 -35 -25.5 -50t-60.5 -15q-35 0 -50.5 10.5t-15.5 34.5q0 6 2 20l33 186h-535l-66 -371h250 l16 91q7 35 26.5 50t60.5 15q34 0 49.5 -10.5t15.5 -33.5q0 -13 -2 -21l-56 -318q-6 -35 -25.5 -50t-60.5 -15q-35 0 -50.5 10.5t-15.5 34.5q0 6 2 20l16 91h-250l-72 -408h555l41 229q6 35 25.5 50t60.5 15q35 0 50.5 -10.5t15.5 -34.5q0 -6 -2 -20l-53 -297 q-6 -37 -23 -52.5t-51 -15.5h-894q-28 0 -41 10.5t-13 34.5zM438 1357q0 23 20 39l308 232q26 18 58 18q33 0 52 -18l246 -232q11 -11 11 -29q0 -20 -11 -37q-8 -12 -19 -19.5t-22 -7.5q-9 0 -18 6l-252 159l-306 -159q-12 -5 -20 -5q-13 0 -24 7.5t-17 19.5t-6 26z" />
<glyph unicode="&#xcb;" d="M19 45q0 7 2 23q7 37 24 52.5t51 15.5h102l162 915h-102q-28 0 -40.5 10t-12.5 34q0 15 2 24q7 37 24 52.5t51 15.5h874q28 0 40.5 -10t12.5 -34q0 -15 -2 -24l-45 -254q-6 -35 -25.5 -50t-60.5 -15q-35 0 -50.5 10.5t-15.5 34.5q0 6 2 20l33 186h-535l-66 -371h250 l16 91q7 35 26.5 50t60.5 15q34 0 49.5 -10.5t15.5 -33.5q0 -13 -2 -21l-56 -318q-6 -35 -25.5 -50t-60.5 -15q-35 0 -50.5 10.5t-15.5 34.5q0 6 2 20l16 91h-250l-72 -408h555l41 229q6 35 25.5 50t60.5 15q35 0 50.5 -10.5t15.5 -34.5q0 -6 -2 -20l-53 -297 q-6 -37 -23 -52.5t-51 -15.5h-894q-28 0 -41 10.5t-13 34.5zM456 1448q0 37 20.5 70t54 52.5t70.5 19.5q47 0 77 -31t30 -76q0 -39 -20.5 -72t-53.5 -52t-70 -19q-47 0 -77.5 31t-30.5 77zM896 1448q0 37 20.5 70t54 52.5t70.5 19.5q47 0 77 -31t30 -76q0 -39 -20.5 -72 t-53.5 -52t-70 -19q-47 0 -77.5 31t-30.5 77z" />
<glyph unicode="&#xcc;" d="M149 45q0 7 2 23q7 37 24 52.5t51 15.5h266l162 915h-266q-28 0 -40.5 10t-12.5 34q0 15 2 24q7 37 24 52.5t51 15.5h662q28 0 40.5 -10t12.5 -34q0 -15 -2 -24q-7 -37 -24 -52.5t-51 -15.5h-246l-162 -915h286q28 0 40.5 -10t12.5 -34q0 -15 -2 -24q-6 -37 -23 -52.5 t-51 -15.5h-702q-28 0 -41 10.5t-13 34.5zM450 1507q0 28 25 72q19 35 35.5 50t32.5 15q14 0 33 -11l416 -230q23 -13 23 -40q0 -22 -13.5 -39t-33.5 -17q-4 0 -12 2l-481 163q-25 8 -25 35z" />
<glyph unicode="&#xcd;" d="M149 45q0 7 2 23q7 37 24 52.5t51 15.5h266l162 915h-266q-28 0 -40.5 10t-12.5 34q0 15 2 24q7 37 24 52.5t51 15.5h662q28 0 40.5 -10t12.5 -34q0 -15 -2 -24q-7 -37 -24 -52.5t-51 -15.5h-246l-162 -915h286q28 0 40.5 -10t12.5 -34q0 -15 -2 -24q-6 -37 -23 -52.5 t-51 -15.5h-702q-28 0 -41 10.5t-13 34.5zM547 1363q0 27 23 40l416 230q19 11 33 11q16 0 32.5 -15t35.5 -50q25 -44 25 -72q0 -27 -25 -35l-481 -163q-8 -2 -12 -2q-14 0 -26 9.5t-17 24.5q-4 9 -4 22z" />
<glyph unicode="&#xce;" d="M149 45q0 7 2 23q7 37 24 52.5t51 15.5h266l162 915h-266q-28 0 -40.5 10t-12.5 34q0 15 2 24q7 37 24 52.5t51 15.5h662q28 0 40.5 -10t12.5 -34q0 -15 -2 -24q-7 -37 -24 -52.5t-51 -15.5h-246l-162 -915h286q28 0 40.5 -10t12.5 -34q0 -15 -2 -24q-6 -37 -23 -52.5 t-51 -15.5h-702q-28 0 -41 10.5t-13 34.5zM418 1357q0 23 20 39l308 232q26 18 58 18q33 0 52 -18l246 -232q11 -11 11 -29q0 -20 -11 -37q-8 -12 -19 -19.5t-22 -7.5q-9 0 -18 6l-252 159l-306 -159q-12 -5 -20 -5q-13 0 -24 7.5t-17 19.5t-6 26z" />
<glyph unicode="&#xcf;" d="M149 45q0 7 2 23q7 37 24 52.5t51 15.5h266l162 915h-266q-28 0 -40.5 10t-12.5 34q0 15 2 24q7 37 24 52.5t51 15.5h662q28 0 40.5 -10t12.5 -34q0 -15 -2 -24q-7 -37 -24 -52.5t-51 -15.5h-246l-162 -915h286q28 0 40.5 -10t12.5 -34q0 -15 -2 -24q-6 -37 -23 -52.5 t-51 -15.5h-702q-28 0 -41 10.5t-13 34.5zM436 1448q0 37 20.5 70t54 52.5t70.5 19.5q47 0 77 -31t30 -76q0 -39 -20.5 -72t-53.5 -52t-70 -19q-47 0 -77.5 31t-30.5 77zM876 1448q0 37 20.5 70t54 52.5t70.5 19.5q47 0 77 -31t30 -76q0 -39 -20.5 -72t-53.5 -52t-70 -19 q-47 0 -77.5 31t-30.5 77z" />
<glyph unicode="&#xd0;" d="M19 45q0 7 2 23q7 37 24 52.5t51 15.5h112l72 408h-142q-28 0 -40.5 10.5t-12.5 34.5q0 5 2 23q7 37 24 52.5t51 15.5h142l66 371h-112q-28 0 -40.5 10t-12.5 34q0 15 2 24q7 37 24 52.5t51 15.5h456q136 0 237 -56t155.5 -160.5t54.5 -246.5q0 -157 -63.5 -324.5 t-204.5 -283.5t-358 -116h-486q-28 0 -41 10.5t-13 34.5zM358 136h186q168 0 276.5 92t158 226.5t49.5 264.5q0 161 -84.5 246.5t-237.5 85.5h-186l-66 -371h190q28 0 40.5 -10t12.5 -34q0 -15 -2 -24q-6 -37 -23.5 -52.5t-51.5 -15.5h-190z" />
<glyph unicode="&#xd1;" d="M19 45q0 7 2 23q7 37 24 52.5t51 15.5h67l162 915h-77q-28 0 -40.5 10t-12.5 34q0 15 2 24q7 37 24 52.5t51 15.5h224q42 0 52 -28l322 -861h4l133 753h-121q-28 0 -40.5 10t-12.5 34q0 15 2 24q7 37 24 52.5t51 15.5h324q28 0 40.5 -10t12.5 -34q0 -15 -2 -24 q-7 -37 -24 -52.5t-51 -15.5h-57l-179 -1014q-5 -27 -26 -43t-59 -16q-55 0 -75 55l-353 940h-4l-148 -837h141q28 0 40.5 -10t12.5 -34q0 -15 -2 -24q-6 -37 -23 -52.5t-51 -15.5h-354q-28 0 -41 10.5t-13 34.5zM432 1429q0 24 17 37q109 91 200 91q34 0 63.5 -8t77.5 -25 q45 -16 72 -23t56 -7q65 0 135 42q11 6 20 6q23 0 42 -31q11 -18 11 -37q0 -24 -17 -37q-109 -91 -200 -91q-34 0 -63.5 8t-77.5 25q-45 16 -72 23t-56 7q-64 0 -135 -42q-10 -6 -20 -6q-23 0 -42 31q-11 18 -11 37z" />
<glyph unicode="&#xd2;" d="M112 459q0 135 40 265.5t116 236.5q83 116 203.5 182t270.5 66q134 0 234.5 -59.5t154.5 -168.5t54 -253q0 -135 -40 -265.5t-116 -236.5q-83 -116 -203.5 -182t-270.5 -66q-134 0 -234.5 59.5t-154.5 168.5t-54 253zM269 465q0 -105 35.5 -181.5t102 -117t159.5 -40.5 q104 0 189 49t146 134q62 86 94.5 195t32.5 218q0 105 -35.5 181.5t-102 117t-159.5 40.5q-104 0 -189 -49t-146 -134q-62 -86 -94.5 -195t-32.5 -218zM460 1507q0 28 25 72q19 35 35.5 50t32.5 15q14 0 33 -11l416 -230q23 -13 23 -40q0 -22 -13.5 -39t-33.5 -17 q-4 0 -12 2l-481 163q-25 8 -25 35z" />
<glyph unicode="&#xd3;" d="M112 459q0 135 40 265.5t116 236.5q83 116 203.5 182t270.5 66q134 0 234.5 -59.5t154.5 -168.5t54 -253q0 -135 -40 -265.5t-116 -236.5q-83 -116 -203.5 -182t-270.5 -66q-134 0 -234.5 59.5t-154.5 168.5t-54 253zM269 465q0 -105 35.5 -181.5t102 -117t159.5 -40.5 q104 0 189 49t146 134q62 86 94.5 195t32.5 218q0 105 -35.5 181.5t-102 117t-159.5 40.5q-104 0 -189 -49t-146 -134q-62 -86 -94.5 -195t-32.5 -218zM537 1363q0 27 23 40l416 230q19 11 33 11q16 0 32.5 -15t35.5 -50q25 -44 25 -72q0 -27 -25 -35l-481 -163 q-8 -2 -12 -2q-14 0 -26 9.5t-17 24.5q-4 9 -4 22z" />
<glyph unicode="&#xd4;" d="M112 459q0 135 40 265.5t116 236.5q83 116 203.5 182t270.5 66q134 0 234.5 -59.5t154.5 -168.5t54 -253q0 -135 -40 -265.5t-116 -236.5q-83 -116 -203.5 -182t-270.5 -66q-134 0 -234.5 59.5t-154.5 168.5t-54 253zM269 465q0 -105 35.5 -181.5t102 -117t159.5 -40.5 q104 0 189 49t146 134q62 86 94.5 195t32.5 218q0 105 -35.5 181.5t-102 117t-159.5 40.5q-104 0 -189 -49t-146 -134q-62 -86 -94.5 -195t-32.5 -218zM418 1357q0 23 20 39l308 232q26 18 58 18q33 0 52 -18l246 -232q11 -11 11 -29q0 -20 -11 -37q-8 -12 -19 -19.5 t-22 -7.5q-9 0 -18 6l-252 159l-306 -159q-12 -5 -20 -5q-13 0 -24 7.5t-17 19.5t-6 26z" />
<glyph unicode="&#xd5;" d="M112 459q0 135 40 265.5t116 236.5q83 116 203.5 182t270.5 66q134 0 234.5 -59.5t154.5 -168.5t54 -253q0 -135 -40 -265.5t-116 -236.5q-83 -116 -203.5 -182t-270.5 -66q-134 0 -234.5 59.5t-154.5 168.5t-54 253zM269 465q0 -105 35.5 -181.5t102 -117t159.5 -40.5 q104 0 189 49t146 134q62 86 94.5 195t32.5 218q0 105 -35.5 181.5t-102 117t-159.5 40.5q-104 0 -189 -49t-146 -134q-62 -86 -94.5 -195t-32.5 -218zM432 1429q0 24 17 37q109 91 200 91q34 0 63.5 -8t77.5 -25q45 -16 72 -23t56 -7q65 0 135 42q11 6 20 6q23 0 42 -31 q11 -18 11 -37q0 -24 -17 -37q-109 -91 -200 -91q-34 0 -63.5 8t-77.5 25q-45 16 -72 23t-56 7q-64 0 -135 -42q-10 -6 -20 -6q-23 0 -42 31q-11 18 -11 37z" />
<glyph unicode="&#xd6;" d="M112 459q0 135 40 265.5t116 236.5q83 116 203.5 182t270.5 66q134 0 234.5 -59.5t154.5 -168.5t54 -253q0 -135 -40 -265.5t-116 -236.5q-83 -116 -203.5 -182t-270.5 -66q-134 0 -234.5 59.5t-154.5 168.5t-54 253zM269 465q0 -105 35.5 -181.5t102 -117t159.5 -40.5 q104 0 189 49t146 134q62 86 94.5 195t32.5 218q0 105 -35.5 181.5t-102 117t-159.5 40.5q-104 0 -189 -49t-146 -134q-62 -86 -94.5 -195t-32.5 -218zM436 1448q0 37 20.5 70t54 52.5t70.5 19.5q47 0 77 -31t30 -76q0 -39 -20.5 -72t-53.5 -52t-70 -19q-47 0 -77.5 31 t-30.5 77zM876 1448q0 37 20.5 70t54 52.5t70.5 19.5q47 0 77 -31t30 -76q0 -39 -20.5 -72t-53.5 -52t-70 -19q-47 0 -77.5 31t-30.5 77z" />
<glyph unicode="&#xd7;" d="M218 285q0 22 25 43l302 262l-217 259q-18 21 -18 39q0 13 8.5 25.5t25.5 27.5q28 23 50 23q26 0 48 -27l212 -253l296 256q23 20 43 20q25 0 54 -31q26 -28 26 -50t-25 -43l-302 -261l218 -260q18 -21 18 -39q0 -13 -8.5 -25.5t-25.5 -27.5q-28 -23 -50 -23 q-25 0 -48 27l-213 253l-296 -256q-23 -20 -43 -20q-25 0 -54 31q-26 28 -26 50z" />
<glyph unicode="&#xd8;" d="M62 7q0 20 20 43l104 120q-74 119 -74 289q0 135 40 265.5t116 236.5q83 116 203.5 182t270.5 66q161 0 274 -86l83 96q29 32 58 32q23 0 47 -19q31 -25 31 -49q0 -18 -21 -44l-104 -120q75 -122 75 -291q0 -135 -40 -265.5t-116 -236.5q-83 -116 -203.5 -182t-270.5 -66 q-163 0 -275 87l-83 -95q-29 -32 -57 -32q-22 0 -46 19q-32 24 -32 50zM269 465q0 -94 29 -167l615 707q-75 56 -182 56q-104 0 -189 -49t-146 -134q-62 -86 -94.5 -195t-32.5 -218zM382 183q74 -57 184 -57q104 0 189 49t146 134q62 86 94.5 195t32.5 218q0 97 -30 169z " />
<glyph unicode="&#xd9;" d="M186 299q0 42 10 104l114 648h-62q-28 0 -40.5 10t-12.5 34q0 15 2 24q7 37 24 52.5t51 15.5h324q28 0 40.5 -10t12.5 -34q0 -15 -2 -24q-7 -37 -24 -52.5t-51 -15.5h-112l-113 -638q-9 -51 -9 -92q0 -103 56 -149t172 -46q139 0 215.5 67t103.5 220l113 638h-112 q-28 0 -40.5 10t-12.5 34q0 15 2 24q7 37 24 52.5t51 15.5h324q28 0 40.5 -10t12.5 -34q0 -15 -2 -24q-7 -37 -24 -52.5t-51 -15.5h-62l-118 -668q-37 -209 -156 -307t-319 -98q-173 0 -271 81.5t-98 239.5zM460 1507q0 28 25 72q19 35 35.5 50t32.5 15q14 0 33 -11 l416 -230q23 -13 23 -40q0 -22 -13.5 -39t-33.5 -17q-4 0 -12 2l-481 163q-25 8 -25 35z" />
<glyph unicode="&#xda;" d="M186 299q0 42 10 104l114 648h-62q-28 0 -40.5 10t-12.5 34q0 15 2 24q7 37 24 52.5t51 15.5h324q28 0 40.5 -10t12.5 -34q0 -15 -2 -24q-7 -37 -24 -52.5t-51 -15.5h-112l-113 -638q-9 -51 -9 -92q0 -103 56 -149t172 -46q139 0 215.5 67t103.5 220l113 638h-112 q-28 0 -40.5 10t-12.5 34q0 15 2 24q7 37 24 52.5t51 15.5h324q28 0 40.5 -10t12.5 -34q0 -15 -2 -24q-7 -37 -24 -52.5t-51 -15.5h-62l-118 -668q-37 -209 -156 -307t-319 -98q-173 0 -271 81.5t-98 239.5zM567 1363q0 27 23 40l416 230q19 11 33 11q16 0 32.5 -15 t35.5 -50q25 -44 25 -72q0 -27 -25 -35l-481 -163q-8 -2 -12 -2q-14 0 -26 9.5t-17 24.5q-4 9 -4 22z" />
<glyph unicode="&#xdb;" d="M186 299q0 42 10 104l114 648h-62q-28 0 -40.5 10t-12.5 34q0 15 2 24q7 37 24 52.5t51 15.5h324q28 0 40.5 -10t12.5 -34q0 -15 -2 -24q-7 -37 -24 -52.5t-51 -15.5h-112l-113 -638q-9 -51 -9 -92q0 -103 56 -149t172 -46q139 0 215.5 67t103.5 220l113 638h-112 q-28 0 -40.5 10t-12.5 34q0 15 2 24q7 37 24 52.5t51 15.5h324q28 0 40.5 -10t12.5 -34q0 -15 -2 -24q-7 -37 -24 -52.5t-51 -15.5h-62l-118 -668q-37 -209 -156 -307t-319 -98q-173 0 -271 81.5t-98 239.5zM428 1357q0 23 20 39l308 232q26 18 58 18q33 0 52 -18l246 -232 q11 -11 11 -29q0 -20 -11 -37q-8 -12 -19 -19.5t-22 -7.5q-9 0 -18 6l-252 159l-306 -159q-12 -5 -20 -5q-13 0 -24 7.5t-17 19.5t-6 26z" />
<glyph unicode="&#xdc;" d="M186 299q0 42 10 104l114 648h-62q-28 0 -40.5 10t-12.5 34q0 15 2 24q7 37 24 52.5t51 15.5h324q28 0 40.5 -10t12.5 -34q0 -15 -2 -24q-7 -37 -24 -52.5t-51 -15.5h-112l-113 -638q-9 -51 -9 -92q0 -103 56 -149t172 -46q139 0 215.5 67t103.5 220l113 638h-112 q-28 0 -40.5 10t-12.5 34q0 15 2 24q7 37 24 52.5t51 15.5h324q28 0 40.5 -10t12.5 -34q0 -15 -2 -24q-7 -37 -24 -52.5t-51 -15.5h-62l-118 -668q-37 -209 -156 -307t-319 -98q-173 0 -271 81.5t-98 239.5zM436 1448q0 37 20.5 70t54 52.5t70.5 19.5q47 0 77 -31t30 -76 q0 -39 -20.5 -72t-53.5 -52t-70 -19q-47 0 -77.5 31t-30.5 77zM876 1448q0 37 20.5 70t54 52.5t70.5 19.5q47 0 77 -31t30 -76q0 -39 -20.5 -72t-53.5 -52t-70 -19q-47 0 -77.5 31t-30.5 77z" />
<glyph unicode="&#xdd;" d="M185 1095q0 15 2 24q7 37 24 52.5t51 15.5h334q28 0 40.5 -10t12.5 -34q0 -15 -2 -24q-7 -37 -24 -52.5t-51 -15.5h-97l178 -409l324 409h-61q-28 0 -40.5 10t-12.5 34q0 15 2 24q7 37 24 52.5t51 15.5h304q28 0 40.5 -10t12.5 -34q0 -15 -2 -24q-7 -37 -24 -52.5 t-51 -15.5h-64l-452 -565l-62 -350h236q28 0 40.5 -10t12.5 -34q0 -15 -2 -24q-6 -37 -23 -52.5t-51 -15.5h-602q-28 0 -41 10.5t-13 34.5q0 7 2 23q7 37 24 52.5t51 15.5h216l64 363l-244 552h-74q-28 0 -40.5 10t-12.5 34zM571 1363q0 27 23 40l416 230q19 11 33 11 q16 0 32.5 -15t35.5 -50q25 -44 25 -72q0 -27 -25 -35l-481 -163q-8 -2 -12 -2q-14 0 -26 9.5t-17 24.5q-4 9 -4 22z" />
<glyph unicode="&#xde;" d="M59 45q0 7 2 23q7 37 24 52.5t51 15.5h146l162 915h-166q-28 0 -40.5 10t-12.5 34q0 15 2 24q7 37 24 52.5t51 15.5h522q28 0 40.5 -10t12.5 -34q0 -15 -2 -24q-7 -37 -24 -52.5t-51 -15.5h-206l-22 -124h221q103 0 174.5 -35.5t107.5 -97t36 -140.5q0 -68 -24 -137.5 t-75 -124.5q-112 -119 -314 -119h-241l-25 -137h226q28 0 40.5 -10t12.5 -34q0 -15 -2 -24q-6 -37 -23 -52.5t-51 -15.5h-522q-28 0 -41 10.5t-13 34.5zM481 409h210q134 0 204 75q30 33 44 73.5t14 83.5q0 69 -48.5 109.5t-146.5 40.5h-210z" />
<glyph unicode="&#xdf;" d="M172 35q0 4 2 20l157 888q19 111 75 195.5t144.5 131.5t202.5 47q108 0 183.5 -37.5t114 -102.5t38.5 -148q0 -111 -58.5 -196t-168.5 -138q84 -38 130 -109.5t46 -167.5q0 -98 -45.5 -199t-150.5 -171t-272 -70q-45 0 -61.5 12.5t-16.5 45.5q0 48 18 69t57 21 q111 0 182 44t102 111t31 141q0 95 -57 146t-159 51q-28 0 -40.5 11t-12.5 34q0 15 2 24q6 36 23.5 52t51.5 19q83 8 137.5 47t80 94t25.5 114q0 75 -50 116.5t-145 41.5q-102 0 -170.5 -64.5t-88.5 -175.5l-155 -877q-6 -35 -25.5 -50t-59.5 -15h-2q-35 0 -50 10.5 t-15 34.5z" />
<glyph unicode="&#xe0;" d="M141 366q0 137 58 271t173.5 221.5t278.5 87.5q93 0 166 -48t119 -132l19 103q6 36 22.5 50.5t55.5 14.5h2q33 0 47.5 -10.5t14.5 -33.5q0 -5 -2 -21l-104 -590q-4 -19 -4 -40q0 -47 23 -71t63 -24h5q28 0 40.5 -11t12.5 -36q0 -15 -2 -25q-8 -39 -25 -55.5t-51 -16.5 h-11q-80 0 -129 46.5t-53 131.5q-72 -99 -160 -149.5t-198 -50.5q-104 0 -186 47.5t-128.5 135.5t-46.5 205zM298 375q0 -114 59 -181.5t167 -67.5q100 0 181.5 60.5t128 156.5t46.5 198q0 121 -63.5 189t-171.5 68q-105 0 -184 -61t-121 -158.5t-42 -203.5zM412 1237 q0 28 25 72q19 35 35.5 50t32.5 15q14 0 33 -11l416 -230q23 -13 23 -40q0 -22 -13.5 -39t-33.5 -17q-4 0 -12 2l-481 163q-25 8 -25 35z" />
<glyph unicode="&#xe1;" d="M141 366q0 137 58 271t173.5 221.5t278.5 87.5q93 0 166 -48t119 -132l19 103q6 36 22.5 50.5t55.5 14.5h2q33 0 47.5 -10.5t14.5 -33.5q0 -5 -2 -21l-104 -590q-4 -19 -4 -40q0 -47 23 -71t63 -24h5q28 0 40.5 -11t12.5 -36q0 -15 -2 -25q-8 -39 -25 -55.5t-51 -16.5 h-11q-80 0 -129 46.5t-53 131.5q-72 -99 -160 -149.5t-198 -50.5q-104 0 -186 47.5t-128.5 135.5t-46.5 205zM298 375q0 -114 59 -181.5t167 -67.5q100 0 181.5 60.5t128 156.5t46.5 198q0 121 -63.5 189t-171.5 68q-105 0 -184 -61t-121 -158.5t-42 -203.5zM479 1093 q0 27 23 40l416 230q19 11 33 11q16 0 32.5 -15t35.5 -50q25 -44 25 -72q0 -27 -25 -35l-481 -163q-8 -2 -12 -2q-14 0 -26 9.5t-17 24.5q-4 9 -4 22z" />
<glyph unicode="&#xe2;" d="M141 366q0 137 58 271t173.5 221.5t278.5 87.5q93 0 166 -48t119 -132l19 103q6 36 22.5 50.5t55.5 14.5h2q33 0 47.5 -10.5t14.5 -33.5q0 -5 -2 -21l-104 -590q-4 -19 -4 -40q0 -47 23 -71t63 -24h5q28 0 40.5 -11t12.5 -36q0 -15 -2 -25q-8 -39 -25 -55.5t-51 -16.5 h-11q-80 0 -129 46.5t-53 131.5q-72 -99 -160 -149.5t-198 -50.5q-104 0 -186 47.5t-128.5 135.5t-46.5 205zM298 375q0 -114 59 -181.5t167 -67.5q100 0 181.5 60.5t128 156.5t46.5 198q0 121 -63.5 189t-171.5 68q-105 0 -184 -61t-121 -158.5t-42 -203.5zM370 1087 q0 23 20 39l308 232q26 18 58 18q33 0 52 -18l246 -232q11 -11 11 -29q0 -20 -11 -37q-8 -12 -19 -19.5t-22 -7.5q-9 0 -18 6l-252 159l-306 -159q-12 -5 -20 -5q-13 0 -24 7.5t-17 19.5t-6 26z" />
<glyph unicode="&#xe3;" d="M141 366q0 137 58 271t173.5 221.5t278.5 87.5q93 0 166 -48t119 -132l19 103q6 36 22.5 50.5t55.5 14.5h2q33 0 47.5 -10.5t14.5 -33.5q0 -5 -2 -21l-104 -590q-4 -19 -4 -40q0 -47 23 -71t63 -24h5q28 0 40.5 -11t12.5 -36q0 -15 -2 -25q-8 -39 -25 -55.5t-51 -16.5 h-11q-80 0 -129 46.5t-53 131.5q-72 -99 -160 -149.5t-198 -50.5q-104 0 -186 47.5t-128.5 135.5t-46.5 205zM298 375q0 -114 59 -181.5t167 -67.5q100 0 181.5 60.5t128 156.5t46.5 198q0 121 -63.5 189t-171.5 68q-105 0 -184 -61t-121 -158.5t-42 -203.5zM376 1169 q0 24 17 37q109 91 200 91q34 0 63.5 -8t77.5 -25q45 -16 72 -23t56 -7q65 0 135 42q11 6 20 6q23 0 42 -31q11 -18 11 -37q0 -24 -17 -37q-109 -91 -200 -91q-34 0 -63.5 8t-77.5 25q-45 16 -72 23t-56 7q-64 0 -135 -42q-10 -6 -20 -6q-23 0 -42 31q-11 18 -11 37z" />
<glyph unicode="&#xe4;" d="M141 366q0 137 58 271t173.5 221.5t278.5 87.5q93 0 166 -48t119 -132l19 103q6 36 22.5 50.5t55.5 14.5h2q33 0 47.5 -10.5t14.5 -33.5q0 -5 -2 -21l-104 -590q-4 -19 -4 -40q0 -47 23 -71t63 -24h5q28 0 40.5 -11t12.5 -36q0 -15 -2 -25q-8 -39 -25 -55.5t-51 -16.5 h-11q-80 0 -129 46.5t-53 131.5q-72 -99 -160 -149.5t-198 -50.5q-104 0 -186 47.5t-128.5 135.5t-46.5 205zM298 375q0 -114 59 -181.5t167 -67.5q100 0 181.5 60.5t128 156.5t46.5 198q0 121 -63.5 189t-171.5 68q-105 0 -184 -61t-121 -158.5t-42 -203.5zM378 1178 q0 37 20.5 70t54 52.5t70.5 19.5q47 0 77 -31t30 -76q0 -39 -20.5 -72t-53.5 -52t-70 -19q-47 0 -77.5 31t-30.5 77zM818 1178q0 37 20.5 70t54 52.5t70.5 19.5q47 0 77 -31t30 -76q0 -39 -20.5 -72t-53.5 -52t-70 -19q-47 0 -77.5 31t-30.5 77z" />
<glyph unicode="&#xe5;" d="M141 366q0 137 58 271t173.5 221.5t278.5 87.5q93 0 166 -48t119 -132l19 103q6 36 22.5 50.5t55.5 14.5h2q33 0 47.5 -10.5t14.5 -33.5q0 -5 -2 -21l-104 -590q-4 -19 -4 -40q0 -47 23 -71t63 -24h5q28 0 40.5 -11t12.5 -36q0 -15 -2 -25q-8 -39 -25 -55.5t-51 -16.5 h-11q-80 0 -129 46.5t-53 131.5q-72 -99 -160 -149.5t-198 -50.5q-104 0 -186 47.5t-128.5 135.5t-46.5 205zM298 375q0 -114 59 -181.5t167 -67.5q100 0 181.5 60.5t128 156.5t46.5 198q0 121 -63.5 189t-171.5 68q-105 0 -184 -61t-121 -158.5t-42 -203.5zM502 1251 q0 67 36 131.5t100 105t145 40.5q60 0 109 -29t77 -78.5t28 -107.5q0 -69 -36 -133t-100 -104t-145 -40q-60 0 -109 29t-77 78.5t-28 107.5zM622 1259q0 -45 29.5 -74t75.5 -29q38 0 73 20.5t56.5 54.5t21.5 73q0 45 -30 74.5t-76 29.5q-38 0 -73 -20.5t-56 -55t-21 -73.5z " />
<glyph unicode="&#xe6;" d="M44 195q0 98 50.5 182.5t141.5 132.5q132 70 335 70l4 22q9 50 9 87q0 56 -24.5 84t-80.5 28q-87 0 -193 -72q-19 -13 -38 -13q-29 0 -52 32q-16 24 -16 44q0 29 31 52q71 53 140.5 77.5t142.5 24.5q153 0 201 -116q49 57 111 86.5t133 29.5q124 0 183 -78t59 -221 q0 -67 -12 -145q-5 -33 -22.5 -47.5t-51.5 -14.5h-399q-12 -76 -12 -132q0 -185 120 -185q48 0 91 18.5t93 59.5q20 17 42 17q14 0 27.5 -8t22.5 -23q13 -20 13 -40q0 -34 -37 -63q-65 -53 -131 -79.5t-136 -26.5q-163 0 -219 144q-60 -67 -139.5 -105.5t-159.5 -38.5 q-68 0 -119.5 27t-79.5 76t-28 114zM197 209q0 -43 24.5 -66.5t67.5 -23.5q56 0 107 28.5t86 79t46 113.5l18 100q-147 0 -230 -42q-57 -29 -88 -79t-31 -110zM726 580h300q5 42 5 69q0 74 -25 113t-80 39q-71 0 -119.5 -52t-80.5 -169z" />
<glyph unicode="&#xe7;" d="M132 380q0 147 72 277.5t201.5 209.5t294.5 79q90 0 160.5 -36t110.5 -99l13 70q7 35 26 50t60 15q35 0 50.5 -10.5t15.5 -34.5q0 -6 -2 -20l-51 -290q-6 -35 -24.5 -50t-59.5 -15q-36 0 -51.5 11t-15.5 36q0 4 2 18q2 11 2 32q0 81 -63 128t-184 47q-112 0 -203 -56 t-143.5 -150t-52.5 -201q0 -78 32.5 -138t93.5 -93.5t145 -33.5q91 0 180 28.5t170 83.5q19 13 37 13q33 0 56 -40q14 -25 14 -45q0 -36 -39 -61q-80 -51 -176 -83.5t-193 -40.5l-17 -94q87 1 132.5 -39.5t45.5 -105.5q0 -34 -14 -73.5t-40 -66.5q-69 -74 -220 -74 q-68 0 -130 12t-108 36q-17 8 -17 32q0 21 10 38q9 17 21.5 27.5t26.5 10.5q7 0 11 -2q38 -15 88 -24.5t99 -9.5q58 0 87 22.5t29 58.5q0 55 -103 55l-35 -1q-29 0 -29 28q0 9 1 14l27 157q-106 14 -183.5 69t-118.5 140t-41 189z" />
<glyph unicode="&#xe8;" d="M152 354q0 164 72 299.5t202.5 214t296.5 78.5q109 0 190.5 -38t125.5 -104t44 -149q0 -220 -226 -244l-549 -57q4 -231 250 -231q96 0 195 25.5t180 66.5q16 7 25 7q38 0 56 -56q6 -21 6 -36q0 -23 -11.5 -38t-35.5 -26q-89 -39 -203.5 -63.5t-226.5 -24.5 q-124 0 -212 45.5t-133.5 130t-45.5 200.5zM323 492l503 58q55 6 77 30t22 70q0 66 -56 108.5t-161 42.5q-101 0 -180 -39.5t-131 -109t-74 -160.5zM412 1237q0 28 25 72q19 35 35.5 50t32.5 15q14 0 33 -11l416 -230q23 -13 23 -40q0 -22 -13.5 -39t-33.5 -17q-4 0 -12 2 l-481 163q-25 8 -25 35z" />
<glyph unicode="&#xe9;" d="M152 354q0 164 72 299.5t202.5 214t296.5 78.5q109 0 190.5 -38t125.5 -104t44 -149q0 -220 -226 -244l-549 -57q4 -231 250 -231q96 0 195 25.5t180 66.5q16 7 25 7q38 0 56 -56q6 -21 6 -36q0 -23 -11.5 -38t-35.5 -26q-89 -39 -203.5 -63.5t-226.5 -24.5 q-124 0 -212 45.5t-133.5 130t-45.5 200.5zM323 492l503 58q55 6 77 30t22 70q0 66 -56 108.5t-161 42.5q-101 0 -180 -39.5t-131 -109t-74 -160.5zM479 1093q0 27 23 40l416 230q19 11 33 11q16 0 32.5 -15t35.5 -50q25 -44 25 -72q0 -27 -25 -35l-481 -163q-8 -2 -12 -2 q-14 0 -26 9.5t-17 24.5q-4 9 -4 22z" />
<glyph unicode="&#xea;" d="M152 354q0 164 72 299.5t202.5 214t296.5 78.5q109 0 190.5 -38t125.5 -104t44 -149q0 -220 -226 -244l-549 -57q4 -231 250 -231q96 0 195 25.5t180 66.5q16 7 25 7q38 0 56 -56q6 -21 6 -36q0 -23 -11.5 -38t-35.5 -26q-89 -39 -203.5 -63.5t-226.5 -24.5 q-124 0 -212 45.5t-133.5 130t-45.5 200.5zM323 492l503 58q55 6 77 30t22 70q0 66 -56 108.5t-161 42.5q-101 0 -180 -39.5t-131 -109t-74 -160.5zM380 1087q0 23 20 39l308 232q26 18 58 18q33 0 52 -18l246 -232q11 -11 11 -29q0 -20 -11 -37q-8 -12 -19 -19.5t-22 -7.5 q-9 0 -18 6l-252 159l-306 -159q-12 -5 -20 -5q-13 0 -24 7.5t-17 19.5t-6 26z" />
<glyph unicode="&#xeb;" d="M152 354q0 164 72 299.5t202.5 214t296.5 78.5q109 0 190.5 -38t125.5 -104t44 -149q0 -220 -226 -244l-549 -57q4 -231 250 -231q96 0 195 25.5t180 66.5q16 7 25 7q38 0 56 -56q6 -21 6 -36q0 -23 -11.5 -38t-35.5 -26q-89 -39 -203.5 -63.5t-226.5 -24.5 q-124 0 -212 45.5t-133.5 130t-45.5 200.5zM323 492l503 58q55 6 77 30t22 70q0 66 -56 108.5t-161 42.5q-101 0 -180 -39.5t-131 -109t-74 -160.5zM388 1178q0 37 20.5 70t54 52.5t70.5 19.5q47 0 77 -31t30 -76q0 -39 -20.5 -72t-53.5 -52t-70 -19q-47 0 -77.5 31 t-30.5 77zM828 1178q0 37 20.5 70t54 52.5t70.5 19.5q47 0 77 -31t30 -76q0 -39 -20.5 -72t-53.5 -52t-70 -19q-47 0 -77.5 31t-30.5 77z" />
<glyph unicode="&#xec;" d="M245 833q0 5 2 23q7 37 24 52.5t51 15.5h340q28 0 40.5 -10t12.5 -34q0 -15 -2 -24l-96 -546q-7 -42 -7 -66q0 -63 32 -91.5t102 -28.5q57 0 113.5 18.5t118.5 57.5q15 9 30 9q16 0 30 -12t23 -36q8 -20 8 -40q0 -35 -38 -56q-153 -87 -300 -87q-129 0 -199 66.5 t-70 184.5q0 40 7 78l84 481h-253q-28 0 -40.5 10.5t-12.5 34.5zM252 1237q0 28 25 72q19 35 35.5 50t32.5 15q14 0 33 -11l416 -230q23 -13 23 -40q0 -22 -13.5 -39t-33.5 -17q-4 0 -12 2l-481 163q-25 8 -25 35z" />
<glyph unicode="&#xed;" d="M245 833q0 5 2 23q7 37 24 52.5t51 15.5h340q28 0 40.5 -10t12.5 -34q0 -15 -2 -24l-96 -546q-7 -42 -7 -66q0 -63 32 -91.5t102 -28.5q57 0 113.5 18.5t118.5 57.5q15 9 30 9q16 0 30 -12t23 -36q8 -20 8 -40q0 -35 -38 -56q-153 -87 -300 -87q-129 0 -199 66.5 t-70 184.5q0 40 7 78l84 481h-253q-28 0 -40.5 10.5t-12.5 34.5zM409 1093q0 27 23 40l416 230q19 11 33 11q16 0 32.5 -15t35.5 -50q25 -44 25 -72q0 -27 -25 -35l-481 -163q-8 -2 -12 -2q-14 0 -26 9.5t-17 24.5q-4 9 -4 22z" />
<glyph unicode="&#xee;" d="M245 833q0 5 2 23q7 37 24 52.5t51 15.5h340q28 0 40.5 -10t12.5 -34q0 -15 -2 -24l-96 -546q-7 -42 -7 -66q0 -63 32 -91.5t102 -28.5q57 0 113.5 18.5t118.5 57.5q15 9 30 9q16 0 30 -12t23 -36q8 -20 8 -40q0 -35 -38 -56q-153 -87 -300 -87q-129 0 -199 66.5 t-70 184.5q0 40 7 78l84 481h-253q-28 0 -40.5 10.5t-12.5 34.5zM270 1087q0 23 20 39l308 232q26 18 58 18q33 0 52 -18l246 -232q11 -11 11 -29q0 -20 -11 -37q-8 -12 -19 -19.5t-22 -7.5q-9 0 -18 6l-252 159l-306 -159q-12 -5 -20 -5q-13 0 -24 7.5t-17 19.5t-6 26z" />
<glyph unicode="&#xef;" d="M245 833q0 5 2 23q7 37 24 52.5t51 15.5h340q28 0 40.5 -10t12.5 -34q0 -15 -2 -24l-96 -546q-7 -42 -7 -66q0 -63 32 -91.5t102 -28.5q57 0 113.5 18.5t118.5 57.5q15 9 30 9q16 0 30 -12t23 -36q8 -20 8 -40q0 -35 -38 -56q-153 -87 -300 -87q-129 0 -199 66.5 t-70 184.5q0 40 7 78l84 481h-253q-28 0 -40.5 10.5t-12.5 34.5zM308 1178q0 37 20.5 70t54 52.5t70.5 19.5q47 0 77 -31t30 -76q0 -39 -20.5 -72t-53.5 -52t-70 -19q-47 0 -77.5 31t-30.5 77zM748 1178q0 37 20.5 70t54 52.5t70.5 19.5q47 0 77 -31t30 -76q0 -39 -20.5 -72 t-53.5 -52t-70 -19q-47 0 -77.5 31t-30.5 77z" />
<glyph unicode="&#xf0;" d="M142 363q0 140 67 259.5t192 191.5t289 72q67 0 128 -22t111 -61q-51 126 -165 232l-254 -89q-18 -6 -31 -6q-39 0 -54 48q-7 23 -7 34q0 36 47 52l171 60q-61 39 -103 61q-35 18 -35 48q0 20 15 45q26 45 58 45q18 0 35 -10q110 -58 200 -129l251 88q21 7 33 7 q19 0 31.5 -12t20.5 -37q6 -18 6 -33q0 -37 -46 -53l-185 -65q189 -213 189 -502q0 -86 -16 -175q-24 -134 -99.5 -232t-190 -150t-250.5 -52q-119 0 -212 49t-144.5 136.5t-51.5 199.5zM298 367q0 -111 71.5 -176t196.5 -65q112 0 197.5 52t132 137t46.5 181 q0 112 -71.5 177t-196.5 65q-109 0 -194.5 -50t-133.5 -135t-48 -186z" />
<glyph unicode="&#xf1;" d="M155 833q0 5 2 23q7 37 24 52.5t51 15.5h179q28 0 40.5 -10t12.5 -34q0 -15 -2 -24l-21 -120q84 102 179 156t193 54q119 0 187 -70.5t68 -189.5q0 -38 -7 -76l-84 -474h82q28 0 40.5 -10t12.5 -34q0 -15 -2 -24q-6 -37 -23 -52.5t-51 -15.5h-169q-28 0 -41 10t-13 34 q0 15 2 24l95 537q5 32 5 54q0 66 -33 102.5t-100 36.5q-84 0 -167.5 -53.5t-143.5 -144.5t-79 -198l-61 -347q-6 -35 -25.5 -50t-59.5 -15h-2q-35 0 -50 10.5t-15 34.5q0 4 2 20l129 733h-102q-28 0 -40.5 10.5t-12.5 34.5zM376 1169q0 24 17 37q109 91 200 91 q34 0 63.5 -8t77.5 -25q45 -16 72 -23t56 -7q65 0 135 42q11 6 20 6q23 0 42 -31q11 -18 11 -37q0 -24 -17 -37q-109 -91 -200 -91q-34 0 -63.5 8t-77.5 25q-45 16 -72 23t-56 7q-64 0 -135 -42q-10 -6 -20 -6q-23 0 -42 31q-11 18 -11 37z" />
<glyph unicode="&#xf2;" d="M138 386q0 147 70 276t196 206.5t286 77.5q124 0 220 -52.5t149 -145.5t53 -210q0 -147 -70 -276t-196 -206.5t-286 -77.5q-124 0 -220 52.5t-149 145.5t-53 210zM295 394q0 -80 33 -140.5t96.5 -94t151.5 -33.5q108 0 195 56t135.5 149t48.5 199q0 80 -33 140.5 t-96.5 94t-151.5 33.5q-108 0 -195 -56t-135.5 -149t-48.5 -199zM402 1237q0 28 25 72q19 35 35.5 50t32.5 15q14 0 33 -11l416 -230q23 -13 23 -40q0 -22 -13.5 -39t-33.5 -17q-4 0 -12 2l-481 163q-25 8 -25 35z" />
<glyph unicode="&#xf3;" d="M138 386q0 147 70 276t196 206.5t286 77.5q124 0 220 -52.5t149 -145.5t53 -210q0 -147 -70 -276t-196 -206.5t-286 -77.5q-124 0 -220 52.5t-149 145.5t-53 210zM295 394q0 -80 33 -140.5t96.5 -94t151.5 -33.5q108 0 195 56t135.5 149t48.5 199q0 80 -33 140.5 t-96.5 94t-151.5 33.5q-108 0 -195 -56t-135.5 -149t-48.5 -199zM489 1093q0 27 23 40l416 230q19 11 33 11q16 0 32.5 -15t35.5 -50q25 -44 25 -72q0 -27 -25 -35l-481 -163q-8 -2 -12 -2q-14 0 -26 9.5t-17 24.5q-4 9 -4 22z" />
<glyph unicode="&#xf4;" d="M138 386q0 147 70 276t196 206.5t286 77.5q124 0 220 -52.5t149 -145.5t53 -210q0 -147 -70 -276t-196 -206.5t-286 -77.5q-124 0 -220 52.5t-149 145.5t-53 210zM295 394q0 -80 33 -140.5t96.5 -94t151.5 -33.5q108 0 195 56t135.5 149t48.5 199q0 80 -33 140.5 t-96.5 94t-151.5 33.5q-108 0 -195 -56t-135.5 -149t-48.5 -199zM370 1087q0 23 20 39l308 232q26 18 58 18q33 0 52 -18l246 -232q11 -11 11 -29q0 -20 -11 -37q-8 -12 -19 -19.5t-22 -7.5q-9 0 -18 6l-252 159l-306 -159q-12 -5 -20 -5q-13 0 -24 7.5t-17 19.5t-6 26z" />
<glyph unicode="&#xf5;" d="M138 386q0 147 70 276t196 206.5t286 77.5q124 0 220 -52.5t149 -145.5t53 -210q0 -147 -70 -276t-196 -206.5t-286 -77.5q-124 0 -220 52.5t-149 145.5t-53 210zM295 394q0 -80 33 -140.5t96.5 -94t151.5 -33.5q108 0 195 56t135.5 149t48.5 199q0 80 -33 140.5 t-96.5 94t-151.5 33.5q-108 0 -195 -56t-135.5 -149t-48.5 -199zM381 1169q0 24 17 37q109 91 200 91q34 0 63.5 -8t77.5 -25q45 -16 72 -23t56 -7q65 0 135 42q11 6 20 6q23 0 42 -31q11 -18 11 -37q0 -24 -17 -37q-109 -91 -200 -91q-34 0 -63.5 8t-77.5 25q-45 16 -72 23 t-56 7q-64 0 -135 -42q-10 -6 -20 -6q-23 0 -42 31q-11 18 -11 37z" />
<glyph unicode="&#xf6;" d="M138 386q0 147 70 276t196 206.5t286 77.5q124 0 220 -52.5t149 -145.5t53 -210q0 -147 -70 -276t-196 -206.5t-286 -77.5q-124 0 -220 52.5t-149 145.5t-53 210zM295 394q0 -80 33 -140.5t96.5 -94t151.5 -33.5q108 0 195 56t135.5 149t48.5 199q0 80 -33 140.5 t-96.5 94t-151.5 33.5q-108 0 -195 -56t-135.5 -149t-48.5 -199zM388 1178q0 37 20.5 70t54 52.5t70.5 19.5q47 0 77 -31t30 -76q0 -39 -20.5 -72t-53.5 -52t-70 -19q-47 0 -77.5 31t-30.5 77zM828 1178q0 37 20.5 70t54 52.5t70.5 19.5q47 0 77 -31t30 -76q0 -39 -20.5 -72 t-53.5 -52t-70 -19q-47 0 -77.5 31t-30.5 77z" />
<glyph unicode="&#xf7;" d="M200 558q0 15 2 24q7 37 24 52.5t51 15.5h762q28 0 40.5 -10t12.5 -34q0 -15 -2 -24q-7 -37 -24 -52.5t-51 -15.5h-762q-28 0 -40.5 10t-12.5 34zM479 159q0 9 1 14l18 104q6 34 33 48.5t83 14.5q50 0 72.5 -11.5t22.5 -37.5q0 -9 -1 -14l-18 -104q-6 -34 -33.5 -48.5 t-83.5 -14.5q-50 0 -72 11.5t-22 37.5zM585 874q0 9 1 14l18 104q6 34 33 48.5t83 14.5q50 0 72.5 -11.5t22.5 -37.5q0 -9 -1 -14l-18 -104q-6 -34 -33.5 -48.5t-83.5 -14.5q-50 0 -72 11.5t-22 37.5z" />
<glyph unicode="&#xf8;" d="M26 34q0 24 29 47l130 107q-47 88 -47 198q0 147 70 276t196 206.5t286 77.5q86 0 159.5 -26t129.5 -75l119 98q26 22 51 22q27 0 52 -28q22 -27 22 -46q0 -23 -30 -49l-128 -106q47 -89 47 -198q0 -147 -70 -276t-196 -206.5t-286 -77.5q-87 0 -160.5 26t-129.5 75 l-119 -98q-26 -22 -51 -22q-26 0 -51 28q-23 26 -23 47zM295 394q0 -57 16 -101l547 451q-71 54 -184 54q-108 0 -195 -56t-135.5 -149t-48.5 -199zM392 180q71 -54 184 -54q108 0 195 56t135.5 149t48.5 199q0 57 -16 102z" />
<glyph unicode="&#xf9;" d="M152 833q0 5 2 23q7 37 24 52.5t51 15.5h169q28 0 40.5 -10t12.5 -34q0 -15 -2 -24l-95 -537q-5 -32 -5 -54q0 -66 33 -102.5t100 -36.5q84 0 167.5 53.5t143.5 144.5t79 198l47 266h-142q-28 0 -40.5 10.5t-12.5 34.5q0 5 2 23q7 37 24 52.5t51 15.5h229q28 0 40.5 -10 t12.5 -34q0 -15 -2 -24l-127 -720h82q28 0 40.5 -10t12.5 -34q0 -15 -2 -24q-6 -37 -23 -52.5t-51 -15.5h-160q-28 0 -40.5 10t-12.5 34q0 15 2 24l21 120q-84 -102 -179 -156t-193 -54q-119 0 -187 70.5t-68 189.5q0 40 7 76l84 474h-82q-28 0 -40.5 10.5t-12.5 34.5z M382 1237q0 28 25 72q19 35 35.5 50t32.5 15q14 0 33 -11l416 -230q23 -13 23 -40q0 -22 -13.5 -39t-33.5 -17q-4 0 -12 2l-481 163q-25 8 -25 35z" />
<glyph unicode="&#xfa;" d="M152 833q0 5 2 23q7 37 24 52.5t51 15.5h169q28 0 40.5 -10t12.5 -34q0 -15 -2 -24l-95 -537q-5 -32 -5 -54q0 -66 33 -102.5t100 -36.5q84 0 167.5 53.5t143.5 144.5t79 198l47 266h-142q-28 0 -40.5 10.5t-12.5 34.5q0 5 2 23q7 37 24 52.5t51 15.5h229q28 0 40.5 -10 t12.5 -34q0 -15 -2 -24l-127 -720h82q28 0 40.5 -10t12.5 -34q0 -15 -2 -24q-6 -37 -23 -52.5t-51 -15.5h-160q-28 0 -40.5 10t-12.5 34q0 15 2 24l21 120q-84 -102 -179 -156t-193 -54q-119 0 -187 70.5t-68 189.5q0 40 7 76l84 474h-82q-28 0 -40.5 10.5t-12.5 34.5z M499 1093q0 27 23 40l416 230q19 11 33 11q16 0 32.5 -15t35.5 -50q25 -44 25 -72q0 -27 -25 -35l-481 -163q-8 -2 -12 -2q-14 0 -26 9.5t-17 24.5q-4 9 -4 22z" />
<glyph unicode="&#xfb;" d="M152 833q0 5 2 23q7 37 24 52.5t51 15.5h169q28 0 40.5 -10t12.5 -34q0 -15 -2 -24l-95 -537q-5 -32 -5 -54q0 -66 33 -102.5t100 -36.5q84 0 167.5 53.5t143.5 144.5t79 198l47 266h-142q-28 0 -40.5 10.5t-12.5 34.5q0 5 2 23q7 37 24 52.5t51 15.5h229q28 0 40.5 -10 t12.5 -34q0 -15 -2 -24l-127 -720h82q28 0 40.5 -10t12.5 -34q0 -15 -2 -24q-6 -37 -23 -52.5t-51 -15.5h-160q-28 0 -40.5 10t-12.5 34q0 15 2 24l21 120q-84 -102 -179 -156t-193 -54q-119 0 -187 70.5t-68 189.5q0 40 7 76l84 474h-82q-28 0 -40.5 10.5t-12.5 34.5z M350 1087q0 23 20 39l308 232q26 18 58 18q33 0 52 -18l246 -232q11 -11 11 -29q0 -20 -11 -37q-8 -12 -19 -19.5t-22 -7.5q-9 0 -18 6l-252 159l-306 -159q-12 -5 -20 -5q-13 0 -24 7.5t-17 19.5t-6 26z" />
<glyph unicode="&#xfc;" d="M152 833q0 5 2 23q7 37 24 52.5t51 15.5h169q28 0 40.5 -10t12.5 -34q0 -15 -2 -24l-95 -537q-5 -32 -5 -54q0 -66 33 -102.5t100 -36.5q84 0 167.5 53.5t143.5 144.5t79 198l47 266h-142q-28 0 -40.5 10.5t-12.5 34.5q0 5 2 23q7 37 24 52.5t51 15.5h229q28 0 40.5 -10 t12.5 -34q0 -15 -2 -24l-127 -720h82q28 0 40.5 -10t12.5 -34q0 -15 -2 -24q-6 -37 -23 -52.5t-51 -15.5h-160q-28 0 -40.5 10t-12.5 34q0 15 2 24l21 120q-84 -102 -179 -156t-193 -54q-119 0 -187 70.5t-68 189.5q0 40 7 76l84 474h-82q-28 0 -40.5 10.5t-12.5 34.5z M358 1178q0 37 20.5 70t54 52.5t70.5 19.5q47 0 77 -31t30 -76q0 -39 -20.5 -72t-53.5 -52t-70 -19q-47 0 -77.5 31t-30.5 77zM798 1178q0 37 20.5 70t54 52.5t70.5 19.5q47 0 77 -31t30 -76q0 -39 -20.5 -72t-53.5 -52t-70 -19q-47 0 -77.5 31t-30.5 77z" />
<glyph unicode="&#xfd;" d="M-14 -343q0 42 16.5 62t45.5 22q96 5 158 33t122.5 95t155.5 209l-237 710h-66q-28 0 -40.5 10.5t-12.5 34.5q0 5 2 23q7 37 24 52.5t51 15.5h354q28 0 40.5 -10t12.5 -34q0 -15 -2 -24q-6 -37 -23.5 -52.5t-51.5 -15.5h-132l183 -562l368 562h-85q-28 0 -40.5 10.5 t-12.5 34.5q0 5 2 23q7 37 24 52.5t51 15.5h314q28 0 40.5 -10t12.5 -34q0 -15 -2 -24q-6 -37 -23.5 -52.5t-51.5 -15.5h-59l-556 -838q-90 -136 -163.5 -211t-154.5 -110t-193 -39q-71 -2 -71 67zM529 1093q0 27 23 40l416 230q19 11 33 11q16 0 32.5 -15t35.5 -50 q25 -44 25 -72q0 -27 -25 -35l-481 -163q-8 -2 -12 -2q-14 0 -26 9.5t-17 24.5q-4 9 -4 22z" />
<glyph unicode="&#xfe;" d="M-92 -345q0 11 3 25q6 37 23 52.5t51 15.5h101l253 1428h-82q-28 0 -40.5 10.5t-12.5 34.5q0 5 2 23q7 37 24 52.5t51 15.5h169q28 0 40.5 -10t12.5 -34q0 -15 -2 -24l-80 -454q150 156 333 156q107 0 189.5 -47.5t128.5 -135t46 -205.5q0 -138 -57.5 -271.5t-174 -221 t-282.5 -87.5q-97 0 -173.5 45t-124.5 123l-70 -398h173q28 0 40.5 -10t12.5 -34q0 -15 -2 -24q-7 -37 -24 -52.5t-51 -15.5h-424q-27 0 -40 10t-13 33zM355 383q0 -121 69 -189t186 -68q107 0 187 61t122 158.5t42 203.5q0 114 -60.5 181.5t-172.5 67.5q-114 0 -198.5 -59 t-129.5 -154.5t-45 -201.5z" />
<glyph unicode="&#xff;" d="M-14 -343q0 42 16.5 62t45.5 22q96 5 158 33t122.5 95t155.5 209l-237 710h-66q-28 0 -40.5 10.5t-12.5 34.5q0 5 2 23q7 37 24 52.5t51 15.5h354q28 0 40.5 -10t12.5 -34q0 -15 -2 -24q-6 -37 -23.5 -52.5t-51.5 -15.5h-132l183 -562l368 562h-85q-28 0 -40.5 10.5 t-12.5 34.5q0 5 2 23q7 37 24 52.5t51 15.5h314q28 0 40.5 -10t12.5 -34q0 -15 -2 -24q-6 -37 -23.5 -52.5t-51.5 -15.5h-59l-556 -838q-90 -136 -163.5 -211t-154.5 -110t-193 -39q-71 -2 -71 67zM388 1178q0 37 20.5 70t54 52.5t70.5 19.5q47 0 77 -31t30 -76 q0 -39 -20.5 -72t-53.5 -52t-70 -19q-47 0 -77.5 31t-30.5 77zM828 1178q0 37 20.5 70t54 52.5t70.5 19.5q47 0 77 -31t30 -76q0 -39 -20.5 -72t-53.5 -52t-70 -19q-47 0 -77.5 31t-30.5 77z" />
<glyph unicode="&#x152;" d="M84 454q0 131 40.5 266.5t121.5 241.5q79 105 193.5 165t263.5 60h499q28 0 40.5 -10t12.5 -34q0 -15 -2 -24l-45 -254q-6 -35 -25.5 -50t-60.5 -15q-35 0 -50.5 10.5t-15.5 34.5q0 6 2 20l33 186h-260l-65 -366h192q28 0 40.5 -10t12.5 -34q0 -15 -2 -24 q-7 -37 -24 -52.5t-51 -15.5h-192l-73 -413h272l41 229q6 35 25.5 50t60.5 15q35 0 50.5 -10.5t15.5 -34.5q0 -6 -2 -20l-53 -297q-6 -37 -23 -52.5t-51 -15.5h-491q-132 0 -229 54.5t-149 157t-52 242.5zM242 461q0 -153 73 -236.5t204 -88.5l162 914q-103 -3 -183.5 -50.5 t-136.5 -128.5q-59 -84 -89 -193t-30 -217z" />
<glyph unicode="&#x153;" d="M66 299q0 105 29 234t78 220q105 193 295 193q156 0 207 -140q55 71 122.5 105.5t141.5 34.5q124 0 183 -78t59 -221q0 -67 -12 -145q-5 -33 -22.5 -47.5t-51.5 -14.5h-399q-12 -76 -12 -132q0 -185 120 -185q48 0 91 18.5t93 59.5q20 17 42 17q14 0 27.5 -8t22.5 -23 q13 -20 13 -40q0 -34 -37 -63q-65 -53 -131 -79.5t-136 -26.5q-159 0 -216 138q-100 -138 -255 -138q-124 0 -188 83t-64 238zM221 294q0 -86 28 -127t85 -41q52 0 92 34.5t70 107.5q28 67 48 174.5t20 187.5q0 86 -27.5 127t-84.5 41q-105 0 -163 -142q-28 -67 -48 -174.5 t-20 -187.5zM726 580h300q5 42 5 69q0 74 -25 113t-80 39q-71 0 -119.5 -52t-80.5 -169z" />
<glyph unicode="&#x178;" d="M185 1095q0 15 2 24q7 37 24 52.5t51 15.5h334q28 0 40.5 -10t12.5 -34q0 -15 -2 -24q-7 -37 -24 -52.5t-51 -15.5h-97l178 -409l324 409h-61q-28 0 -40.5 10t-12.5 34q0 15 2 24q7 37 24 52.5t51 15.5h304q28 0 40.5 -10t12.5 -34q0 -15 -2 -24q-7 -37 -24 -52.5 t-51 -15.5h-64l-452 -565l-62 -350h236q28 0 40.5 -10t12.5 -34q0 -15 -2 -24q-6 -37 -23 -52.5t-51 -15.5h-602q-28 0 -41 10.5t-13 34.5q0 7 2 23q7 37 24 52.5t51 15.5h216l64 363l-244 552h-74q-28 0 -40.5 10t-12.5 34zM436 1448q0 37 20.5 70t54 52.5t70.5 19.5 q47 0 77 -31t30 -76q0 -39 -20.5 -72t-53.5 -52t-70 -19q-47 0 -77.5 31t-30.5 77zM876 1448q0 37 20.5 70t54 52.5t70.5 19.5q47 0 77 -31t30 -76q0 -39 -20.5 -72t-53.5 -52t-70 -19q-47 0 -77.5 31t-30.5 77z" />
<glyph unicode="&#x2c6;" d="M390 1087q0 23 20 39l308 232q26 18 58 18q33 0 52 -18l246 -232q11 -11 11 -29q0 -20 -11 -37q-8 -12 -19 -19.5t-22 -7.5q-9 0 -18 6l-252 159l-306 -159q-12 -5 -20 -5q-13 0 -24 7.5t-17 19.5t-6 26z" />
<glyph unicode="&#x2dc;" d="M406 1169q0 24 17 37q109 91 200 91q34 0 63.5 -8t77.5 -25q45 -16 72 -23t56 -7q65 0 135 42q11 6 20 6q23 0 42 -31q11 -18 11 -37q0 -24 -17 -37q-109 -91 -200 -91q-34 0 -63.5 8t-77.5 25q-45 16 -72 23t-56 7q-64 0 -135 -42q-10 -6 -20 -6q-23 0 -42 31 q-11 18 -11 37z" />
<glyph unicode="&#x2000;" horiz-adv-x="898" />
<glyph unicode="&#x2001;" horiz-adv-x="1797" />
<glyph unicode="&#x2002;" horiz-adv-x="898" />
<glyph unicode="&#x2003;" horiz-adv-x="1797" />
<glyph unicode="&#x2004;" horiz-adv-x="599" />
<glyph unicode="&#x2005;" horiz-adv-x="449" />
<glyph unicode="&#x2006;" horiz-adv-x="299" />
<glyph unicode="&#x2007;" horiz-adv-x="299" />
<glyph unicode="&#x2008;" horiz-adv-x="224" />
<glyph unicode="&#x2009;" horiz-adv-x="359" />
<glyph unicode="&#x200a;" horiz-adv-x="99" />
<glyph unicode="&#x2010;" d="M200 558q0 15 2 24q7 37 24 52.5t51 15.5h762q28 0 40.5 -10t12.5 -34q0 -15 -2 -24q-7 -37 -24 -52.5t-51 -15.5h-762q-28 0 -40.5 10t-12.5 34z" />
<glyph unicode="&#x2011;" d="M200 558q0 15 2 24q7 37 24 52.5t51 15.5h762q28 0 40.5 -10t12.5 -34q0 -15 -2 -24q-7 -37 -24 -52.5t-51 -15.5h-762q-28 0 -40.5 10t-12.5 34z" />
<glyph unicode="&#x2012;" d="M200 558q0 15 2 24q7 37 24 52.5t51 15.5h762q28 0 40.5 -10t12.5 -34q0 -15 -2 -24q-7 -37 -24 -52.5t-51 -15.5h-762q-28 0 -40.5 10t-12.5 34z" />
<glyph unicode="&#x2013;" d="M200 558q0 15 2 24q7 37 24 52.5t51 15.5h762q28 0 40.5 -10t12.5 -34q0 -15 -2 -24q-7 -37 -24 -52.5t-51 -15.5h-762q-28 0 -40.5 10t-12.5 34z" />
<glyph unicode="&#x2014;" d="M0 558q0 15 2 24q7 37 24 52.5t51 15.5h1162q28 0 40.5 -10t12.5 -34q0 -15 -2 -24q-7 -37 -24 -52.5t-51 -15.5h-1162q-28 0 -40.5 10t-12.5 34z" />
<glyph unicode="&#x2018;" d="M500 780q0 14 10 31l275 457q24 39 92 39q59 0 59 -38q0 -10 -5 -25l-163 -454q-6 -18 -20.5 -28t-35.5 -10h-181q-15 0 -23 7.5t-8 20.5z" />
<glyph unicode="&#x2019;" d="M505 752q0 10 5 25l163 454q6 18 20.5 28t35.5 10h181q15 0 23 -7.5t8 -20.5q0 -14 -10 -31l-275 -457q-24 -39 -92 -39q-59 0 -59 38z" />
<glyph unicode="&#x201a;" d="M333 -223q0 10 5 25l163 454q6 18 20.5 28t35.5 10h181q15 0 23 -7.5t8 -20.5q0 -14 -10 -31l-275 -457q-24 -39 -92 -39q-59 0 -59 38z" />
<glyph unicode="&#x201c;" d="M255 780q0 14 10 31l275 457q24 39 92 39q59 0 59 -38q0 -10 -5 -25l-163 -454q-6 -18 -20.5 -28t-35.5 -10h-181q-15 0 -23 7.5t-8 20.5zM745 780q0 14 10 31l275 457q24 39 92 39q59 0 59 -38q0 -10 -5 -25l-163 -454q-6 -18 -20.5 -28t-35.5 -10h-181q-15 0 -23 7.5 t-8 20.5z" />
<glyph unicode="&#x201d;" d="M260 752q0 10 5 25l163 454q6 18 20.5 28t35.5 10h181q15 0 23 -7.5t8 -20.5q0 -14 -10 -31l-275 -457q-24 -39 -92 -39q-59 0 -59 38zM750 752q0 10 5 25l163 454q6 18 20.5 28t35.5 10h181q15 0 23 -7.5t8 -20.5q0 -14 -10 -31l-275 -457q-24 -39 -92 -39q-59 0 -59 38 z" />
<glyph unicode="&#x201e;" d="M88 -223q0 10 5 25l163 454q6 18 20.5 28t35.5 10h181q15 0 23 -7.5t8 -20.5q0 -14 -10 -31l-275 -457q-24 -39 -92 -39q-59 0 -59 38zM578 -223q0 10 5 25l163 454q6 18 20.5 28t35.5 10h181q15 0 23 -7.5t8 -20.5q0 -14 -10 -31l-275 -457q-24 -39 -92 -39 q-59 0 -59 38z" />
<glyph unicode="&#x2022;" d="M391 439q0 9 1 14l53 302q9 53 63.5 75.5t175.5 22.5q116 0 171 -20t55 -64q0 -9 -1 -14l-53 -302q-9 -53 -63.5 -75.5t-175.5 -22.5q-116 0 -171 20t-55 64z" />
<glyph unicode="&#x2026;" d="M47 43l23 134q5 29 29.5 41t79.5 12q57 0 81.5 -12.5t19.5 -40.5l-23 -134q-5 -29 -29.5 -41t-79.5 -12q-57 0 -81.5 12.5t-19.5 40.5zM447 43l23 134q5 29 29.5 41t79.5 12q57 0 81.5 -12.5t19.5 -40.5l-23 -134q-5 -29 -29.5 -41t-79.5 -12q-57 0 -81.5 12.5 t-19.5 40.5zM847 43l23 134q5 29 29.5 41t79.5 12q57 0 81.5 -12.5t19.5 -40.5l-23 -134q-5 -29 -29.5 -41t-79.5 -12q-57 0 -81.5 12.5t-19.5 40.5z" />
<glyph unicode="&#x202f;" horiz-adv-x="359" />
<glyph unicode="&#x2039;" d="M422 583q0 17 12 27l356 324q12 12 29 12q27 0 61 -35q26 -27 26 -49q0 -19 -18 -35l-289 -259l208 -283q11 -14 11 -29q0 -26 -37 -52q-32 -22 -57 -22q-22 0 -36 19l-259 361q-7 11 -7 21z" />
<glyph unicode="&#x203a;" d="M380 266q0 19 18 35l289 259l-208 283q-11 14 -11 29q0 26 37 52q32 22 57 22q23 0 36 -19l259 -361q7 -10 7 -21q0 -16 -12 -27l-356 -324q-12 -12 -29 -12q-27 0 -61 35q-26 27 -26 49z" />
<glyph unicode="&#x205f;" horiz-adv-x="449" />
<glyph unicode="&#x20ac;" d="M85 419q0 5 2 23q7 37 24 52.5t51 15.5h79q8 86 30 174h-78q-28 0 -40.5 10t-12.5 34q0 15 2 24q7 37 24 52.5t51 15.5h97q74 184 203 286.5t296 102.5q84 0 148.5 -34t102.5 -93l11 62q6 35 25.5 50t61.5 15q35 0 50 -10.5t15 -34.5q0 -4 -2 -20l-58 -330 q-6 -35 -25.5 -50t-60.5 -15q-35 0 -50.5 10.5t-15.5 34.5q0 6 2 20q4 23 4 49q0 87 -56 142.5t-164 55.5q-102 0 -184.5 -63t-137.5 -178h290q28 0 40.5 -10t12.5 -34q0 -15 -2 -24q-7 -37 -24 -52.5t-51 -15.5h-315q-21 -77 -32 -174h316q28 0 40.5 -10t12.5 -34 q0 -15 -2 -24q-6 -37 -23.5 -52.5t-51.5 -15.5h-294q10 -120 68 -184t162 -64q177 0 350 116q14 10 31 10q35 0 58 -45q14 -28 14 -48q0 -30 -36 -53q-207 -128 -433 -128q-169 0 -264.5 105.5t-106.5 290.5h-101q-28 0 -40.5 10.5t-12.5 34.5z" />
<glyph unicode="&#x2122;" d="M208 1232q0 6 2 20q6 33 23 46.5t51 13.5h382q28 0 41 -9t13 -31q0 -4 -2 -20q-6 -33 -22.5 -46t-50.5 -13h-129l-67 -380q-6 -35 -23 -50t-51 -15q-28 0 -40 10t-12 32q0 14 2 23l67 380h-129q-29 0 -42 9t-13 30zM734 784q0 14 4 29l108 444q8 35 25.5 50t51.5 15 q25 0 38.5 -6t17.5 -20l89 -299l195 299q16 26 68 26q35 0 50 -15.5t11 -49.5l-48 -444q-4 -35 -19.5 -50t-49.5 -15q-29 0 -40.5 11t-11.5 35q0 12 1 19l28 259l-127 -192q-33 -48 -79 -48q-23 0 -40.5 12.5t-24.5 35.5l-60 192l-63 -259q-8 -35 -24.5 -50t-50.5 -15 q-26 0 -37.5 8.5t-11.5 27.5z" />
<glyph unicode="&#x25fc;" horiz-adv-x="925" d="M0 0v925h925v-925h-925z" />
</font>
</defs>
</svg>
