<?xml version="1.0" standalone="no"?>
<!DOCTYPE svg PUBLIC "-//W3C//DTD SVG 1.1//EN" "http://www.w3.org/Graphics/SVG/1.1/DTD/svg11.dtd" >
<svg xmlns="http://www.w3.org/2000/svg" xmlns:xlink="http://www.w3.org/1999/xlink" version="1.1">
<metadata></metadata>
<defs>
<font id="courier_primebold" horiz-adv-x="1228" >
<font-face units-per-em="2048" ascent="1638" descent="-410" />
<missing-glyph horiz-adv-x="500" />
<glyph horiz-adv-x="0" />
<glyph unicode="&#xd;" />
<glyph unicode=" " />
<glyph unicode="!" d="M458 1219q-2 26 8 38t33 12h230q23 0 33 -12t8 -38l-57 -657q-5 -58 -99 -58t-99 58zM459 53v214q0 34 36.5 48.5t118.5 14.5t118.5 -14.5t36.5 -48.5v-214q0 -34 -36.5 -48.5t-118.5 -14.5t-118.5 14.5t-36.5 48.5z" />
<glyph unicode="&#x22;" d="M177 1231q0 38 42 38h250q48 0 41 -50l-73 -480q-5 -33 -26 -50.5t-67 -17.5t-67 17.5t-26 50.5l-73 480q-1 4 -1 12zM717 1231q0 38 42 38h250q48 0 41 -50l-73 -480q-5 -33 -26 -50.5t-67 -17.5t-67 17.5t-26 50.5l-73 480q-1 4 -1 12z" />
<glyph unicode="#" d="M50 369q0 47 6.5 71t19.5 33t37 9h159l60 233h-129q-24 0 -37 8.5t-19.5 32.5t-6.5 71t6.5 71t19.5 33t37 9h188l61 236q4 16 25.5 24.5t51.5 8.5q45 0 81.5 -16t36.5 -42q0 -6 -1 -9l-53 -202h222l61 236q4 16 25.5 24.5t51.5 8.5q45 0 81.5 -16t36.5 -42q0 -6 -1 -9 l-53 -202h98q24 0 37 -9t19.5 -33t6.5 -71t-6.5 -71t-19.5 -32.5t-37 -8.5h-156l-61 -233h127q24 0 37 -9t19.5 -33t6.5 -71t-6.5 -71t-19.5 -32.5t-37 -8.5h-185l-64 -246q-4 -16 -25.5 -24.5t-51.5 -8.5q-45 0 -81.5 16t-36.5 42q0 6 1 9l55 212h-221l-64 -246 q-4 -16 -25.5 -24.5t-51.5 -8.5q-45 0 -81.5 16t-36.5 42q0 6 1 9l55 212h-100q-24 0 -37 8.5t-19.5 32.5t-6.5 71zM474 482h222l60 233h-221z" />
<glyph unicode="$" d="M164 800q0 86 45.5 150t125 99t180.5 37v163q0 35 19 49t74 14t74 -14t19 -49v-191q49 -18 93 -45v10q0 34 24.5 48.5t87.5 14.5q64 0 91 -14.5t27 -48.5v-211q0 -34 -21.5 -48.5t-70.5 -14.5q-53 0 -73 21q-64 68 -158 97v-146q122 -14 199 -46q80 -33 125 -92t45 -156 q0 -91 -43 -159t-126 -107t-200 -43v-180q0 -35 -19 -49t-74 -14t-74 14t-19 49v204q-52 17 -101 47v-8q0 -34 -29 -48.5t-93 -14.5t-91 14.5t-27 48.5v223q0 33 23.5 48t72.5 15q61 0 83 -28q59 -75 162 -104v161q-65 10 -117.5 25t-95.5 39q-138 76 -138 240zM422 809 q0 -32 36 -51q21 -11 57 -16v142q-44 -6 -68.5 -26t-24.5 -49zM701 320q111 12 111 81q0 33 -42 54q-28 12 -69 18v-153z" />
<glyph unicode="%" d="M50 935q0 74 37 137t100 100t137 37t137 -37t100 -100t37 -137t-37 -137t-100 -100t-137 -37t-137 37t-100 100t-37 137zM85 209q0 17 23 40l877 834q20 20 39 20q14 0 31.5 -11.5t42.5 -37.5q44 -45 44 -73q0 -19 -22 -41l-877 -834q-23 -21 -40 -21q-14 0 -31.5 11.5 t-41.5 37.5q-45 48 -45 75zM237 935q0 -36 25.5 -61.5t61.5 -25.5t61.5 25.5t25.5 61.5t-25.5 61.5t-61.5 25.5t-61.5 -25.5t-25.5 -61.5zM630 252q0 74 37 137t100 100t137 37t137 -37t100 -100t37 -137t-37 -137t-100 -100t-137 -37t-137 37t-100 100t-37 137zM817 252 q0 -36 25.5 -61.5t61.5 -25.5t61.5 25.5t25.5 61.5t-25.5 61.5t-61.5 25.5t-61.5 -25.5t-25.5 -61.5z" />
<glyph unicode="&#x26;" d="M107 320q0 95 45 168.5t135 133.5q-85 120 -85 244q0 99 46 177t132 122t203 44q155 0 329 -96q22 -12 32.5 -26.5t10.5 -35.5v-197q0 -34 -29 -48.5t-93 -14.5q-62 0 -85 14t-23 49v102q-72 36 -143 36q-56 0 -91 -36t-35 -95q0 -48 28 -94.5t80 -100.5l181 -189 q27 65 47 126q7 20 19 31t33 11h220q24 0 37 -8t19.5 -30t6.5 -64t-6.5 -64t-19.5 -30.5t-37 -8.5h-91q-27 -77 -57 -141l91 -94h77q24 0 37 -8.5t19.5 -30.5t6.5 -64t-6.5 -64t-19.5 -30t-37 -8h-171q-40 0 -72 33l-65 67q-129 -122 -320 -122q-105 0 -184 43.5t-122 121 t-43 177.5zM355 330q0 -57 33 -91t88 -34q78 0 141 61l-195 203q-34 -31 -50.5 -64.5t-16.5 -74.5z" />
<glyph unicode="'" d="M447 1231q0 38 42 38h250q48 0 41 -50l-73 -480q-5 -33 -26 -50.5t-67 -17.5t-67 17.5t-26 50.5l-73 480q-1 4 -1 12z" />
<glyph unicode="(" d="M257 519q0 205 72 372t187.5 286t254.5 198q14 8 28 8q23 0 47.5 -18.5t44.5 -49.5q36 -54 36 -95q0 -27 -18 -39q-200 -125 -302 -286.5t-102 -375.5t102 -375.5t302 -286.5q18 -12 18 -39q0 -41 -36 -95q-20 -31 -44.5 -49.5t-47.5 -18.5q-14 0 -28 8 q-139 79 -254.5 198t-187.5 286t-72 372z" />
<glyph unicode=")" d="M301 -182q0 27 18 39q200 125 302 286.5t102 375.5t-102 375.5t-302 286.5q-18 12 -18 39q0 41 36 95q20 31 44.5 49.5t47.5 18.5q14 0 28 -8q139 -79 254.5 -198t187.5 -286t72 -372t-72 -372t-187.5 -286t-254.5 -198q-14 -8 -28 -8q-23 0 -47.5 18.5t-44.5 49.5 q-36 54 -36 95z" />
<glyph unicode="*" d="M189 859q0 20 8 47q14 43 41.5 65t61.5 22t66 -20l179 -108l-47 204q-4 15 -4 32q0 47 31.5 77.5t88.5 30.5t88.5 -30.5t31.5 -77.5q0 -17 -4 -32l-47 -204l179 108q32 20 66 20t61.5 -22t41.5 -65q8 -27 8 -47q0 -45 -29 -73t-76 -33l-208 -19l158 -137 q21 -19 32.5 -41.5t11.5 -45.5q0 -54 -55 -95q-38 -28 -77 -28q-32 0 -58.5 19.5t-40.5 53.5l-83 193l-83 -193q-14 -34 -40.5 -53.5t-58.5 -19.5q-39 0 -77 28q-55 41 -55 95q0 23 11.5 45.5t32.5 41.5l158 137l-208 19q-47 5 -76 33t-29 73z" />
<glyph unicode="+" d="M170 582q0 47 6.5 71t19.5 33t37 9h268v268q0 24 9 37t33 19.5t71 6.5t71 -6.5t32.5 -19.5t8.5 -37v-268h269q24 0 37 -9t19.5 -33t6.5 -71t-6.5 -71t-19.5 -32.5t-37 -8.5h-269v-269q0 -24 -8.5 -37t-32.5 -19.5t-71 -6.5t-71 6.5t-33 19.5t-9 37v269h-268 q-24 0 -37 8.5t-19.5 32.5t-6.5 71z" />
<glyph unicode="," d="M353 -241q0 9 1 13l100 542q4 19 17.5 29.5t34.5 10.5h243q17 0 26 -9t9 -24t-7 -30l-237 -537q-20 -48 -106 -48q-38 0 -59.5 14t-21.5 39z" />
<glyph unicode="-" d="M170 582q0 47 6.5 71t19.5 33t37 9h762q24 0 37 -9t19.5 -33t6.5 -71t-6.5 -71t-19.5 -32.5t-37 -8.5h-762q-24 0 -37 8.5t-19.5 32.5t-6.5 71z" />
<glyph unicode="." d="M449 53v254q0 34 39 48.5t126 14.5t126 -14.5t39 -48.5v-254q0 -34 -39 -48.5t-126 -14.5t-126 14.5t-39 48.5z" />
<glyph unicode="/" d="M159 -282q0 11 4 20l666 1618q18 43 82 43q67 0 112.5 -22t45.5 -56q0 -11 -4 -20l-666 -1618q-18 -43 -82 -43q-67 0 -112.5 22t-45.5 56z" />
<glyph unicode="0" d="M133 593q0 180 58 319.5t167 218t256 78.5t256 -78.5t167 -218t58 -319.5t-58 -319.5t-167 -217.5t-256 -78t-256 78t-167 217.5t-58 319.5zM401 593q0 -192 54.5 -290t158.5 -98t158.5 98t54.5 290t-54.5 290.5t-158.5 98.5t-158.5 -98.5t-54.5 -290.5z" />
<glyph unicode="1" d="M186 898q0 21 9.5 35t29.5 25l422 238q28 16 57 16t47 -16t18 -48v-943h236q24 0 37 -8.5t19.5 -30.5t6.5 -64t-6.5 -64t-19.5 -30t-37 -8h-732q-24 0 -37 8t-19.5 30t-6.5 64t6.5 64t19.5 30.5t37 8.5h246v674l-209 -119q-18 -10 -32 -10q-19 0 -36.5 18t-35.5 57 q-20 44 -20 73z" />
<glyph unicode="2" d="M158 103q0 40 5 60t19 33l429 413q83 80 114.5 129t31.5 101q0 69 -40 111t-116 42q-87 0 -173 -42v-140q0 -35 -23 -49t-85 -14q-64 0 -93 14.5t-29 48.5v237q0 41 43 64q89 49 181 73.5t178 24.5q131 0 223.5 -45.5t140 -127.5t47.5 -192q0 -101 -45.5 -186 t-144.5 -180l-273 -263h282v92q0 35 23 49t85 14q64 0 93 -14.5t29 -48.5v-242q0 -34 -15 -49.5t-50 -15.5h-774q-24 0 -37 8.5t-19.5 30.5t-6.5 64z" />
<glyph unicode="3" d="M183 119q0 27 17 72q34 84 76 84q8 0 20 -5q65 -31 134 -48t134 -17q106 0 160 39.5t54 113.5q0 72 -43 108.5t-127 36.5h-103q-35 0 -49 22.5t-14 84.5t14 85t49 23h76q89 0 132.5 33t43.5 103q0 68 -42 103t-124 35q-75 0 -153 -23v-79q0 -35 -23 -49t-85 -14 q-64 0 -93 14.5t-29 48.5v187q0 45 49 64q79 32 164.5 50t168.5 18q202 0 311.5 -87.5t109.5 -252.5q0 -171 -141 -245q83 -38 129.5 -105.5t46.5 -162.5q0 -187 -127 -282.5t-355 -95.5q-198 0 -343 77q-38 19 -38 64z" />
<glyph unicode="4" d="M120 472q0 65 19 89l470 579q27 34 62.5 51.5t86.5 17.5q58 0 81.5 -23t23.5 -67v-544h172q24 0 37 -8.5t19.5 -30.5t6.5 -64t-6.5 -64t-19.5 -30t-37 -8h-172v-165h142q24 0 37 -8.5t19.5 -30.5t6.5 -64t-6.5 -64t-19.5 -30t-37 -8h-562q-24 0 -37 8t-19.5 30t-6.5 64 t6.5 64t19.5 30.5t37 8.5h170v165h-430q-24 0 -37 8t-19.5 30t-6.5 64zM403 575h219l16 292z" />
<glyph unicode="5" d="M176 131q0 27 17 72q34 84 76 84q8 0 20 -5q154 -77 285 -77q92 0 148 48t56 133q0 81 -45.5 127t-128.5 46q-94 0 -192 -36q-42 -16 -82 -16q-64 0 -90.5 15t-24.5 50l33 550q2 35 16.5 50t48.5 15h608q35 0 49 -23t14 -85t-14 -84.5t-49 -22.5h-442l-14 -223 q96 37 192 37q124 0 211.5 -50.5t132.5 -141t45 -208.5q0 -201 -125.5 -304.5t-346.5 -103.5q-95 0 -188.5 23.5t-171.5 65.5q-38 21 -38 64z" />
<glyph unicode="6" d="M160 512q0 211 93.5 363.5t276.5 238t447 95.5q26 1 40.5 -25t19.5 -82q2 -17 2 -45q0 -87 -41 -90q-184 -9 -304.5 -47t-187 -110t-86.5 -186q54 60 121 88.5t154 28.5q111 0 198 -47.5t136 -132.5t49 -195q0 -112 -57.5 -200.5t-159.5 -138t-230 -49.5q-126 0 -223 51 t-162 147q-41 61 -63.5 148t-22.5 188zM440 371q0 -46 22.5 -85t66 -62t101.5 -23q86 0 138 44.5t52 119.5q0 77 -48.5 120.5t-133.5 43.5q-58 0 -103 -20t-70 -56t-25 -82z" />
<glyph unicode="7" d="M188 780v342q0 35 15.5 50t49.5 15h764q24 0 37 -8.5t19.5 -30.5t6.5 -64q0 -49 -9 -72l-417 -988q-10 -23 -34.5 -34.5t-58.5 -11.5q-29 0 -57 7q-45 10 -73.5 32.5t-28.5 52.5q0 12 6 27l376 875h-366v-192q0 -35 -23 -49t-85 -14q-64 0 -93 14.5t-29 48.5z" />
<glyph unicode="8" d="M171 335q0 108 53 178.5t149 105.5q-77 34 -120 97t-43 155q0 93 49 170.5t141 122.5t214 45t214 -45t141 -122.5t49 -170.5q0 -92 -43 -154.5t-120 -97.5q95 -35 148.5 -106t53.5 -178q0 -110 -55.5 -190.5t-155.5 -123.5t-232 -43t-232 43t-155.5 123.5t-55.5 190.5z M436 356q0 -74 46 -117t132 -43t132 43t46 117t-46 118t-132 44t-132 -44t-46 -118zM459 851q0 -63 41 -101t114 -38t114 38t41 101t-42 101.5t-113 38.5t-113 -38.5t-42 -101.5z" />
<glyph unicode="9" d="M150 821q0 112 57.5 200.5t159.5 138t230 49.5q126 0 223 -51t162 -147q41 -61 63.5 -148t22.5 -188q0 -326 -183.5 -504t-573.5 -193q-26 -1 -40.5 25t-19.5 82q-2 17 -2 45q0 87 41 90q182 9 289.5 46.5t160.5 108.5t68 188q-54 -60 -121 -88.5t-154 -28.5 q-111 0 -198 47.5t-136 132.5t-49 195zM408 822q0 -77 48.5 -120.5t133.5 -43.5q58 0 103 20t70 56t25 82t-22.5 85t-66 62t-101.5 23q-86 0 -138 -44.5t-52 -119.5z" />
<glyph unicode=":" d="M449 53v214q0 34 39 48.5t126 14.5t126 -14.5t39 -48.5v-214q0 -34 -39 -48.5t-126 -14.5t-126 14.5t-39 48.5zM449 657v214q0 34 39 48.5t126 14.5t126 -14.5t39 -48.5v-214q0 -34 -39 -48.5t-126 -14.5t-126 14.5t-39 48.5z" />
<glyph unicode=";" d="M373 -241q0 9 1 13l100 542q4 19 17.5 29.5t34.5 10.5h243q17 0 26 -9t9 -24t-7 -30l-237 -537q-20 -48 -106 -48q-38 0 -59.5 14t-21.5 39zM449 657v214q0 34 39 48.5t126 14.5t126 -14.5t39 -48.5v-214q0 -34 -39 -48.5t-126 -14.5t-126 14.5t-39 48.5z" />
<glyph unicode="&#x3c;" d="M120 583q0 41 10.5 61t35.5 33l780 402q20 10 33 10q20 0 38 -18t39 -60q26 -52 26 -83q0 -34 -36 -53l-585 -292l585 -292q36 -19 36 -53q0 -31 -26 -83q-21 -42 -39 -60t-38 -18q-13 0 -33 10l-780 402q-25 13 -35.5 33t-10.5 61z" />
<glyph unicode="=" d="M170 353q0 47 6.5 71t19.5 33t37 9h762q24 0 37 -9t19.5 -33t6.5 -71t-6.5 -71t-19.5 -32.5t-37 -8.5h-762q-24 0 -37 8.5t-19.5 32.5t-6.5 71zM170 811q0 47 6.5 71t19.5 33t37 9h762q24 0 37 -9t19.5 -33t6.5 -71t-6.5 -71t-19.5 -32.5t-37 -8.5h-762q-24 0 -37 8.5 t-19.5 32.5t-6.5 71z" />
<glyph unicode="&#x3e;" d="M146 238q0 34 36 53l585 292l-585 292q-36 19 -36 53q0 31 26 83q21 42 39 60t38 18q13 0 33 -10l780 -402q25 -13 35.5 -33t10.5 -61t-10.5 -61t-35.5 -33l-780 -402q-20 -10 -33 -10q-20 0 -38 18t-39 60q-26 52 -26 83z" />
<glyph unicode="?" d="M208 930v190q0 41 41 61q186 88 351 88q193 0 295.5 -94t102.5 -261q0 -139 -75.5 -218.5t-231.5 -122.5l-6 -86q-2 -25 -24 -36.5t-77 -11.5t-77 11.5t-24 36.5l-12 209q-2 44 31 51l103 20q72 14 107 49.5t35 97.5q0 68 -39.5 103t-116.5 35q-75 0 -153 -30v-92 q0 -35 -23 -49t-85 -14q-64 0 -93 14.5t-29 48.5zM439 53v174q0 34 34 48.5t111 14.5t111 -14.5t34 -48.5v-174q0 -34 -34 -48.5t-111 -14.5t-111 14.5t-34 48.5z" />
<glyph unicode="@" d="M33 389q0 192 81.5 349.5t225 248.5t320.5 91q157 0 276.5 -70t185 -194.5t65.5 -282.5q0 -127 -39.5 -219.5t-109 -141t-157.5 -48.5q-69 0 -114.5 38t-62.5 101q-77 -144 -197 -144q-84 0 -135 63t-51 177q0 103 44 206.5t117 170t156 66.5q91 0 128 -115l33 69 q5 9 29 9q19 0 40 -6q26 -7 41 -17.5t11 -23.5l-72 -312q-8 -32 -8 -53q0 -36 16 -54.5t41 -18.5q38 0 68 31t47.5 88.5t17.5 133.5q0 118 -45 207t-130 138t-200 49q-133 0 -237.5 -71.5t-163 -194.5t-58.5 -270q0 -116 42.5 -204t124.5 -136.5t197 -48.5q136 0 258 40 q8 3 14 3q14 0 24 -13.5t19 -46.5q7 -27 7 -44t-6 -26t-18 -14q-53 -23 -133.5 -37.5t-162.5 -14.5q-163 0 -282.5 66.5t-183 188.5t-63.5 287zM496 379q0 -47 18 -72.5t48 -25.5q34 0 68.5 44.5t57 107t22.5 108.5q0 102 -66 102q-31 0 -66 -39.5t-58.5 -101t-23.5 -123.5z " />
<glyph unicode="A" d="M-10 103q0 42 6.5 64t19.5 30t37 8h84l253 777h-167q-24 0 -37 8.5t-19.5 30.5t-6.5 64t6.5 64t19.5 30t37 8h474q40 0 65 -15.5t36 -49.5l290 -917h87q24 0 37 -8t19.5 -30t6.5 -64t-6.5 -64t-19.5 -30.5t-37 -8.5h-424q-24 0 -37 8.5t-19.5 30.5t-6.5 64t6.5 64 t19.5 30t37 8h86l-45 145h-364l-45 -145h74q24 0 37 -8t19.5 -30t6.5 -64t-6.5 -64t-19.5 -30.5t-37 -8.5h-404q-24 0 -37 8.5t-19.5 30.5t-6.5 64zM486 555h249l-120 427h-6z" />
<glyph unicode="B" d="M70 102q0 42 6.5 64t19.5 30.5t37 8.5h107v777h-107q-24 0 -37 8t-19.5 30t-6.5 64t6.5 64t19.5 30.5t37 8.5h521q209 0 309.5 -85.5t100.5 -237.5q0 -82 -40.5 -140.5t-113.5 -93.5q229 -62 229 -286q0 -169 -111 -256.5t-318 -87.5h-577q-24 0 -37 8t-19.5 30t-6.5 64z M490 215h192q194 0 194 139q0 74 -47.5 109.5t-146.5 35.5h-192v-284zM490 714h142q90 0 134 32t44 98q0 67 -42.5 97.5t-135.5 30.5h-142v-258z" />
<glyph unicode="C" d="M103 594q0 186 67 325.5t185.5 214.5t268.5 75q175 0 260 -126v63q0 34 29 48.5t93 14.5q62 0 85 -14t23 -49v-384q0 -34 -30.5 -48.5t-101.5 -14.5q-47 0 -72.5 6.5t-35.5 19.5t-10 37q0 100 -54.5 160t-155.5 60q-139 0 -211 -100t-72 -288q0 -186 76.5 -287.5 t216.5 -101.5q87 0 167 23.5t174 71.5q16 8 30 8q47 0 78 -83q14 -38 14 -68q0 -51 -46 -73q-214 -106 -427 -106q-164 0 -289 75t-193.5 214.5t-68.5 326.5z" />
<glyph unicode="D" d="M60 102q0 42 6.5 64t19.5 30.5t37 8.5h97v777h-97q-24 0 -37 8t-19.5 30t-6.5 64t6.5 64t19.5 30.5t37 8.5h471q175 0 301 -69t193 -202.5t67 -321.5t-67 -321.5t-193 -203t-301 -69.5h-471q-24 0 -37 8t-19.5 30t-6.5 64zM470 215h104q155 0 234 96.5t79 282.5t-79 282 t-234 96h-104v-757z" />
<glyph unicode="E" d="M60 102q0 42 6.5 64t19.5 30.5t37 8.5h97v777h-97q-24 0 -37 8t-19.5 30t-6.5 64t6.5 64t19.5 30.5t37 8.5h912q35 0 50 -15t15 -50v-302q0 -34 -29 -48.5t-93 -14.5q-62 0 -85 14t-23 49v152h-400v-253h244q35 0 49 -23t14 -85t-14 -84.5t-49 -22.5h-244v-289h410v202 q0 34 29.5 48.5t96.5 14.5q66 0 90 -14t24 -49v-352q0 -34 -15 -49.5t-50 -15.5h-932q-24 0 -37 8t-19.5 30t-6.5 64z" />
<glyph unicode="F" d="M60 102q0 42 6.5 64t19.5 30.5t37 8.5h127v777h-127q-24 0 -37 8t-19.5 30t-6.5 64t6.5 64t19.5 30.5t37 8.5h932q35 0 50 -15t15 -50v-302q0 -34 -29 -48.5t-93 -14.5q-62 0 -85 14t-23 49v152h-390v-305h304q35 0 49 -23t14 -85t-14 -84.5t-49 -22.5h-304v-247h217 q24 0 37 -8.5t19.5 -30.5t6.5 -64t-6.5 -64t-19.5 -30t-37 -8h-594q-24 0 -37 8t-19.5 30t-6.5 64z" />
<glyph unicode="G" d="M73 594q0 186 67 325.5t185.5 214.5t268.5 75q176 0 260 -118v55q0 34 29 48.5t93 14.5q62 0 85 -14t23 -49v-344q0 -34 -30.5 -48.5t-101.5 -14.5q-47 0 -72.5 6.5t-35.5 19.5t-10 37q0 86 -52 133t-158 47q-139 0 -211 -100t-72 -288q0 -186 76.5 -287.5t216.5 -101.5 q111 0 210 30v167h-193q-24 0 -37 8t-19.5 30t-6.5 64t6.5 64t19.5 30.5t37 8.5h474q24 0 37 -8.5t19.5 -30.5t6.5 -64t-6.5 -64t-19.5 -30t-37 -8h-31v-259q0 -24 -9.5 -42t-26.5 -27q-93 -48 -204 -72t-230 -24q-164 0 -289 75t-193.5 214.5t-68.5 326.5z" />
<glyph unicode="H" d="M50 102q0 42 6.5 64t19.5 30.5t37 8.5h57v777h-57q-24 0 -37 8t-19.5 30t-6.5 64t6.5 64t19.5 30.5t37 8.5h374q24 0 37 -8.5t19.5 -30.5t6.5 -64t-7 -64t-19.5 -30t-36.5 -8h-67v-263h388v263h-67q-24 0 -37 8t-19.5 30t-6.5 64t6.5 64t19.5 30.5t37 8.5h374 q24 0 37 -8.5t19.5 -30.5t6.5 -64t-7 -64t-19.5 -30t-36.5 -8h-57v-777h57q24 0 37 -8.5t19.5 -30.5t6.5 -64t-7 -64t-19.5 -30t-36.5 -8h-374q-24 0 -37 8t-19.5 30t-6.5 64t6.5 64t19.5 30.5t37 8.5h67v299h-388v-299h67q24 0 37 -8.5t19.5 -30.5t6.5 -64t-7 -64 t-19.5 -30t-36.5 -8h-374q-24 0 -37 8t-19.5 30t-6.5 64z" />
<glyph unicode="I" d="M170 102q0 42 6.5 64t19.5 30.5t37 8.5h256v777h-236q-24 0 -37 8t-19.5 30t-6.5 64t6.5 64t19.5 30.5t37 8.5h722q24 0 37 -8.5t19.5 -30.5t6.5 -64t-6.5 -64t-19.5 -30t-37 -8h-236v-777h256q24 0 37 -8.5t19.5 -30.5t6.5 -64t-6.5 -64t-19.5 -30t-37 -8h-762 q-24 0 -37 8t-19.5 30t-6.5 64z" />
<glyph unicode="J" d="M99 175v324q0 34 30.5 48.5t101.5 14.5q47 0 72.5 -6.5t35.5 -19.5t10 -37v-260q69 -34 166 -34q82 0 123 43.5t41 134.5v599h-306q-24 0 -37 8t-19.5 30t-6.5 64t6.5 64t19.5 30.5t37 8.5h742q24 0 37 -8.5t19.5 -30.5t6.5 -64t-6.5 -64t-19.5 -30t-37 -8h-186v-619 q0 -192 -108 -288.5t-317 -96.5q-234 0 -389 147q-16 16 -16 50z" />
<glyph unicode="K" d="M50 102q0 42 6.5 64t19.5 30.5t37 8.5h107v777h-107q-24 0 -37 8t-19.5 30t-6.5 64t6.5 64t19.5 30.5t37 8.5h404q24 0 37 -8.5t19.5 -30.5t6.5 -64t-6.5 -64t-19.5 -30t-37 -8h-47v-320l324 320h-53q-24 0 -37 8t-19.5 30t-6.5 64t6.5 64t19.5 30.5t37 8.5h389 q24 0 37 -8.5t19.5 -30.5t6.5 -64t-6.5 -64t-19.5 -30t-37 -8h-43l-350 -341q56 -3 102 -30.5t80 -75.5q23 -33 42 -68.5t43 -86.5q36 -74 50 -98q22 -37 46 -57t55 -20h10q24 0 37 -8.5t19.5 -30.5t6.5 -64t-6.5 -64t-19.5 -30t-37 -8h-139q-61 0 -103.5 37.5t-78.5 104.5 q-23 43 -48 100q-18 38 -37 76t-35 63q-26 39 -58 61.5t-66 22.5q-44 0 -79 -34l-51 -50v-176h115q24 0 37 -8.5t19.5 -30.5t6.5 -64t-6.5 -64t-19.5 -30t-37 -8h-472q-24 0 -37 8t-19.5 30t-6.5 64z" />
<glyph unicode="L" d="M60 102q0 42 6.5 64t19.5 30.5t37 8.5h146v777h-146q-24 0 -37 8t-19.5 30t-6.5 64t6.5 64t19.5 30.5t37 8.5h614q24 0 37 -8.5t19.5 -30.5t6.5 -64t-6.5 -64t-19.5 -30t-37 -8h-218v-767h351v312q0 34 30.5 48.5t101.5 14.5q47 0 72.5 -6.5t35.5 -19.5t10 -37v-462 q0 -34 -15 -49.5t-50 -15.5h-932q-24 0 -37 8t-19.5 30t-6.5 64z" />
<glyph unicode="M" d="M10 102q0 42 6.5 64t19.5 30.5t37 8.5h59l15 777h-54q-24 0 -37 8t-19.5 30t-6.5 64t6.5 64t19.5 30.5t37 8.5h284q21 0 34.5 -7t19.5 -24l183 -491l182 491q6 17 19.5 24t34.5 7h285q24 0 37 -8.5t19.5 -30.5t6.5 -64t-6.5 -64t-19.5 -30t-37 -8h-54l14 -777h60 q24 0 37 -8.5t19.5 -30.5t6.5 -64t-6.5 -64t-19.5 -30t-37 -8h-374q-24 0 -37 8t-19.5 30t-6.5 64t6.5 64t19.5 30.5t37 8.5h92l-6 592l-151 -408q-13 -35 -36 -49.5t-65 -14.5q-43 0 -66 14.5t-37 49.5l-152 405l-6 -589h93q24 0 37 -8.5t19.5 -30.5t6.5 -64t-6.5 -64 t-19.5 -30t-37 -8h-374q-24 0 -37 8t-19.5 30t-6.5 64z" />
<glyph unicode="N" d="M50 102q0 42 6.5 64t19.5 30.5t37 8.5h67v777h-67q-24 0 -37 8t-19.5 30t-6.5 64t6.5 64t19.5 30.5t37 8.5h264q40 0 56 -27l415 -687h4v509h-92q-24 0 -37 8t-19.5 30t-6.5 64t6.5 64t19.5 30.5t37 8.5h375q24 0 37 -8.5t19.5 -30.5t6.5 -64t-6.5 -64t-19.5 -30t-37 -8 h-57v-938q0 -33 -25 -49.5t-85 -16.5q-46 0 -68.5 12.5t-39.5 40.5l-450 745h-4v-571h111q24 0 37 -8.5t19.5 -30.5t6.5 -64t-6.5 -64t-19.5 -30t-37 -8h-404q-24 0 -37 8t-19.5 30t-6.5 64z" />
<glyph unicode="O" d="M63 594q0 187 68.5 326.5t193.5 214t289 74.5t289 -74.5t193.5 -214t68.5 -326.5t-68.5 -326.5t-193.5 -214.5t-289 -75t-289 75t-193.5 214.5t-68.5 326.5zM331 594q0 -188 72 -288.5t211 -100.5t211 100.5t72 288.5t-72 288t-211 100t-211 -100t-72 -288z" />
<glyph unicode="P" d="M60 102q0 42 6.5 64t19.5 30.5t37 8.5h147v777h-147q-24 0 -37 8t-19.5 30t-6.5 64t6.5 64t19.5 30.5t37 8.5h547q230 0 348.5 -103.5t118.5 -298.5t-118.5 -299t-348.5 -104h-150v-177h217q24 0 37 -8.5t19.5 -30.5t6.5 -64t-6.5 -64t-19.5 -30t-37 -8h-614q-24 0 -37 8 t-19.5 30t-6.5 64zM520 597h119q119 0 179.5 46t60.5 142t-60.5 141.5t-179.5 45.5h-119v-375z" />
<glyph unicode="Q" d="M63 634q0 173 68.5 303t193.5 201t289 71t289 -71t193.5 -201t68.5 -303t-68.5 -303.5t-193.5 -201.5t-289 -71q-25 0 -45 2l-106 -106q78 29 156 29q31 0 65.5 -4.5t65.5 -10.5q28 -5 57.5 -9.5t55.5 -4.5q78 0 153 40q12 6 25 6q22 0 43.5 -18t36.5 -49q19 -38 19 -69 q0 -42 -35 -68q-57 -42 -111.5 -59.5t-111.5 -17.5q-36 0 -73.5 5.5t-88.5 15.5q-65 12 -106.5 17.5t-87.5 5.5q-118 0 -229 -47q-6 -3 -14 -3q-19 0 -40 18t-36 46q-22 39 -22 74q0 30 17 47l188 200q-153 61 -240 201t-87 335zM331 634q0 -166 72.5 -257.5t210.5 -91.5 t210.5 91.5t72.5 257.5t-72.5 257t-210.5 91t-210.5 -91t-72.5 -257z" />
<glyph unicode="R" d="M60 102q0 42 6.5 64t19.5 30.5t37 8.5h107v777h-107q-24 0 -37 8t-19.5 30t-6.5 64t6.5 64t19.5 30.5t37 8.5h527q211 0 324 -93t113 -270q0 -231 -248 -291q54 -21 86 -62q21 -27 38.5 -56.5t40.5 -74.5q24 -48 37 -69q20 -33 40 -49.5t45 -16.5h19q24 0 37 -8.5 t19.5 -30.5t6.5 -64t-6.5 -64t-19.5 -30t-37 -8h-97q-79 0 -128 32t-90 107q-20 35 -48 96q-20 46 -38 79.5t-40 65.5q-31 43 -69 62t-91 19h-64v-256h97q24 0 37 -8.5t19.5 -30.5t6.5 -64t-6.5 -64t-19.5 -30t-37 -8h-454q-24 0 -37 8t-19.5 30t-6.5 64zM480 676h149 q102 0 151 36.5t49 111.5t-49 111.5t-151 36.5h-149v-296z" />
<glyph unicode="S" d="M149 846q0 106 49 188.5t137.5 128.5t202.5 46q80 0 148 -26t118 -74v37q0 34 24.5 48.5t87.5 14.5q64 0 91 -14.5t27 -48.5v-274q0 -34 -21.5 -48.5t-70.5 -14.5q-33 0 -52 8t-30 24q-47 74 -121 114.5t-171 40.5q-73 0 -114.5 -37t-41.5 -96q0 -29 18 -47.5t52 -32.5 q44 -17 151 -35q104 -20 170 -37.5t124 -53.5q160 -97 160 -313q0 -110 -46.5 -192t-139.5 -128t-229 -46q-167 0 -283 101v-38q0 -34 -24.5 -48.5t-87.5 -14.5q-64 0 -91 14.5t-27 48.5v334q0 34 21.5 48.5t70.5 14.5q35 0 55.5 -9t31.5 -31q54 -103 129 -155t175 -52 q88 0 134 36t46 100q0 40 -20.5 67.5t-59.5 46.5q-32 16 -70.5 26t-113.5 26q-86 18 -142 33t-105 41q-76 40 -119 106.5t-43 172.5z" />
<glyph unicode="T" d="M98 700v422q0 35 15.5 50t49.5 15h902q35 0 50 -15t15 -50v-422q0 -33 -27.5 -48t-84.5 -15q-55 0 -76.5 14.5t-21.5 48.5v272h-181v-767h216q24 0 37 -8.5t19.5 -30.5t6.5 -64t-6.5 -64t-19.5 -30t-37 -8h-682q-24 0 -37 8t-19.5 30t-6.5 64t6.5 64t19.5 30.5t37 8.5 h216v767h-181v-272q0 -33 -27.5 -48t-84.5 -15q-55 0 -76.5 14.5t-21.5 48.5z" />
<glyph unicode="U" d="M50 1084q0 42 6.5 64t19.5 30.5t37 8.5h374q24 0 37 -8.5t19.5 -30.5t6.5 -64t-6.5 -64t-19.5 -30t-37 -8h-77v-549q0 -115 55 -171.5t149 -56.5t149 56.5t55 171.5v549h-77q-24 0 -37 8t-19.5 30t-6.5 64t6.5 64t19.5 30.5t37 8.5h374q24 0 37 -8.5t19.5 -30.5t6.5 -64 t-6.5 -64t-19.5 -30t-37 -8h-47v-569q0 -138 -55 -236t-157 -148.5t-242 -50.5t-242 50.5t-157 148.5t-55 236v569h-47q-24 0 -37 8t-19.5 30t-6.5 64z" />
<glyph unicode="V" d="M-10 1084q0 42 6.5 64t19.5 30.5t37 8.5h434q24 0 37 -8.5t19.5 -30.5t6.5 -64t-6.5 -64t-19.5 -30t-37 -8h-89l215 -613l229 613h-71q-24 0 -37 8t-19.5 30t-6.5 64t6.5 64t19.5 30.5t37 8.5h404q24 0 37 -8.5t19.5 -30.5t6.5 -64t-6.5 -64t-19.5 -30t-37 -8h-68 l-363 -939q-14 -36 -43 -50.5t-90 -14.5t-89.5 15t-41.5 50l-350 939h-77q-24 0 -37 8t-19.5 30t-6.5 64z" />
<glyph unicode="W" d="M-20 1084q0 42 6.5 64t19.5 30.5t37 8.5h394q24 0 37 -8.5t19.5 -30.5t6.5 -64t-6.5 -64t-19.5 -30t-37 -8h-117l53 -584l146 428q7 23 27 35t67 12q50 0 72 -9.5t28 -30.5l147 -435l54 584h-103q-24 0 -37 8t-19.5 30t-6.5 64t6.5 64t19.5 30.5t37 8.5h374q24 0 37 -8.5 t19.5 -30.5t6.5 -64t-6.5 -64t-19.5 -30t-37 -8h-56l-101 -939q-3 -25 -14 -39t-36 -20t-71 -6q-66 0 -95.5 15t-41.5 50l-160 471l-162 -471q-12 -35 -42 -50t-97 -15q-46 0 -70.5 6t-35 20t-13.5 39l-97 939h-50q-24 0 -37 8t-19.5 30t-6.5 64z" />
<glyph unicode="X" d="M30 102q0 42 6.5 64t19.5 30.5t37 8.5h62l291 410l-263 367h-60q-24 0 -37 8t-19.5 30t-6.5 64t6.5 64t19.5 30.5t37 8.5h394q24 0 37 -8.5t19.5 -30.5t6.5 -64t-6.5 -64t-19.5 -30t-37 -8h-43l146 -209l145 209h-24q-24 0 -37 8t-19.5 30t-6.5 64t6.5 64t19.5 30.5 t37 8.5h364q24 0 37 -8.5t19.5 -30.5t6.5 -64t-6.5 -64t-19.5 -30t-37 -8h-56l-266 -378l291 -399h61q24 0 37 -8.5t19.5 -30.5t6.5 -64t-6.5 -64t-19.5 -30t-37 -8h-404q-24 0 -37 8t-19.5 30t-6.5 64t6.5 64t19.5 30.5t37 8.5h52l-173 244l-171 -244h38q24 0 37 -8.5 t19.5 -30.5t6.5 -64t-6.5 -64t-19.5 -30t-37 -8h-384q-24 0 -37 8t-19.5 30t-6.5 64z" />
<glyph unicode="Y" d="M40 1084q0 42 6.5 64t19.5 30.5t37 8.5h394q24 0 37 -8.5t19.5 -30.5t6.5 -64t-6.5 -64t-19.5 -30t-37 -8h-67l186 -292l188 292h-53q-24 0 -37 8t-19.5 30t-6.5 64t6.5 64t19.5 30.5t37 8.5h374q24 0 37 -8.5t19.5 -30.5t6.5 -64t-6.5 -64t-19.5 -30t-37 -8h-44 l-342 -523v-254h196q24 0 37 -8.5t19.5 -30.5t6.5 -64t-6.5 -64t-19.5 -30t-37 -8h-642q-24 0 -37 8t-19.5 30t-6.5 64t6.5 64t19.5 30.5t37 8.5h196v255l-340 522h-46q-24 0 -37 8t-19.5 30t-6.5 64z" />
<glyph unicode="Z" d="M138 102q0 66 20 93l574 777h-334v-202q0 -34 -29 -48.5t-93 -14.5q-62 0 -85 14t-23 49v352q0 35 15.5 50t49.5 15h784q24 0 37 -8.5t19.5 -30.5t6.5 -64q0 -61 -23 -92l-574 -777h367v222q0 34 29 48.5t93 14.5q62 0 85 -14t23 -49v-372q0 -34 -15 -49.5t-50 -15.5 h-814q-24 0 -37 8t-19.5 30t-6.5 64z" />
<glyph unicode="[" d="M290 -270v1579q0 34 14.5 48.5t48.5 14.5h510q35 0 49 -23.5t14 -89.5t-14 -89t-49 -23h-323v-1255h323q35 0 49 -23.5t14 -89.5t-14 -89t-49 -23h-510q-34 0 -48.5 14.5t-14.5 48.5z" />
<glyph unicode="\" d="M159 1321q0 34 45.5 56t112.5 22q64 0 82 -43l666 -1618q4 -9 4 -20q0 -34 -45.5 -56t-112.5 -22q-64 0 -82 43l-666 1618q-4 9 -4 20z" />
<glyph unicode="]" d="M302 -221q0 66 14 89.5t49 23.5h323v1255h-323q-35 0 -49 23t-14 89t14 89.5t49 23.5h510q34 0 48.5 -14.5t14.5 -48.5v-1579q0 -34 -14.5 -48.5t-48.5 -14.5h-510q-35 0 -49 23t-14 89z" />
<glyph unicode="^" d="M193 544q0 8 5 18l318 610q9 19 32 28t66 9q42 0 65.5 -9t32.5 -28l318 -610q5 -10 5 -18q0 -23 -27 -40.5t-68 -27.5q-34 -8 -62 -8q-29 0 -49.5 7.5t-27.5 21.5l-187 390l-187 -390q-7 -14 -27.5 -21.5t-49.5 -7.5q-28 0 -62 8q-41 10 -68 27.5t-27 40.5z" />
<glyph unicode="_" d="M-38 -401q0 48 3 72t10 32.5t20 8.5h1238q13 0 20 -8.5t10 -32.5t3 -72t-3 -71.5t-10 -32t-20 -8.5h-1238q-13 0 -20 8.5t-10 32t-3 71.5z" />
<glyph unicode="`" d="M276 1276q0 39 40 93q57 75 103 75q17 0 33 -11l347 -255q21 -15 21 -43t-22 -63q-32 -51 -68 -51q-12 0 -23 6l-407 205q-24 12 -24 44z" />
<glyph unicode="a" d="M110 295q0 140 99 217t277 77q133 0 283 -30v29q0 67 -42 99t-148 32q-59 0 -131.5 -14.5t-143.5 -38.5q-17 -5 -29 -5q-25 0 -44.5 18.5t-35.5 62.5q-15 44 -15 72q0 51 46 68q89 32 189 48t188 16q220 0 318 -95t98 -272v-289q0 -40 17 -62.5t49 -22.5h31q24 0 37 -8.5 t19.5 -30.5t6.5 -64t-6.5 -64t-19.5 -30t-37 -8h-112q-62 0 -109.5 25.5t-72.5 80.5q-79 -61 -167 -94.5t-181 -33.5q-113 0 -195 38.5t-125.5 110t-43.5 168.5zM368 285q0 -47 35.5 -71.5t102.5 -24.5q69 0 136.5 27.5t126.5 75.5v64q-132 27 -258 27q-70 0 -106.5 -25 t-36.5 -73z" />
<glyph unicode="b" d="M27 1209q0 42 6.5 64t19.5 30.5t37 8.5h284q34 0 48.5 -14.5t14.5 -48.5v-421q51 57 118 87.5t145 30.5q131 0 229 -64t150 -174t52 -246t-52 -246t-150 -174t-229 -64q-95 0 -173 44.5t-130 124.5v-84q0 -34 -14.5 -48.5t-48.5 -14.5h-224q-24 0 -37 8.5t-19.5 30.5 t-6.5 64t6.5 64t19.5 30t37 8h77v902h-97q-24 0 -37 8t-19.5 30t-6.5 64zM430 462q0 -80 31 -138.5t83 -88.5t116 -30q62 0 108 31.5t70.5 89.5t24.5 136t-24.5 136t-70.5 89.5t-108 31.5q-64 0 -116 -30t-83 -88.5t-31 -138.5z" />
<glyph unicode="c" d="M127 462q0 140 63 250.5t171.5 172t242.5 61.5q162 0 229 -117v54q0 34 29 48.5t93 14.5q62 0 85 -14t23 -49v-321q0 -34 -30.5 -48.5t-101.5 -14.5q-47 0 -72.5 6.5t-35.5 19.5t-10 37q0 42 -20.5 78t-61 57.5t-97.5 21.5q-72 0 -126 -31.5t-83.5 -90t-29.5 -135.5 t29.5 -135.5t83.5 -90t126 -31.5q77 0 157.5 25t156.5 69q18 10 33 10q45 0 79 -79q18 -43 18 -73q0 -45 -43 -69q-93 -52 -195.5 -81t-205.5 -29q-152 0 -267 62t-177.5 172t-62.5 250z" />
<glyph unicode="d" d="M97 462q0 136 52 246t150 174t229 64q78 0 145 -30.5t118 -87.5v279h-147q-24 0 -37 8t-19.5 30t-6.5 64t6.5 64t19.5 30.5t37 8.5h334q34 0 48.5 -14.5t14.5 -48.5v-1044h87q24 0 37 -8t19.5 -30t6.5 -64t-6.5 -64t-19.5 -30.5t-37 -8.5h-234q-34 0 -48.5 14.5 t-14.5 48.5v84q-52 -80 -130 -124.5t-173 -44.5q-131 0 -229 64t-150 174t-52 246zM365 462q0 -78 24.5 -136t70.5 -89.5t108 -31.5q64 0 116 30t83 88.5t31 138.5t-31 138.5t-83 88.5t-116 30q-62 0 -108 -31.5t-70.5 -89.5t-24.5 -136z" />
<glyph unicode="e" d="M131 462q0 140 60 250t173 172t264 62q152 0 259 -65.5t161.5 -182t54.5 -266.5q0 -34 -14.5 -48t-48.5 -14h-642q19 -80 81.5 -122.5t158.5 -42.5q155 0 336 55q12 4 24 4q22 0 38 -20t29 -68q10 -37 10 -63t-11.5 -40.5t-37.5 -23.5q-100 -33 -204 -52t-204 -19 q-152 0 -262 62t-167.5 171.5t-57.5 250.5zM402 565h440q-17 73 -72.5 113.5t-141.5 40.5q-183 0 -226 -154z" />
<glyph unicode="f" d="M167 102q0 42 6.5 64t19.5 30.5t37 8.5h183v444h-183q-35 0 -49 22.5t-14 84.5t14 85t49 23h183v73q0 186 91.5 283t265.5 97q152 0 304 -57q25 -9 37.5 -25.5t12.5 -44.5q0 -26 -10 -62q-12 -44 -29.5 -63t-41.5 -19q-12 0 -29 5q-127 39 -222 39q-129 0 -129 -166v-60 h311q35 0 49 -23t14 -85t-14 -84.5t-49 -22.5h-311v-444h281q24 0 37 -8.5t19.5 -30.5t6.5 -64t-6.5 -64t-19.5 -30t-37 -8h-714q-24 0 -37 8t-19.5 30t-6.5 64z" />
<glyph unicode="g" d="M97 477q0 135 53 241.5t151 167t227 60.5q95 0 173 -40t130 -115v70q0 34 14.5 48.5t48.5 14.5h234q24 0 37 -8.5t19.5 -30.5t6.5 -64t-6.5 -64t-19.5 -30t-37 -8h-87v-718q0 -196 -117.5 -303.5t-351.5 -107.5q-86 0 -188 16.5t-195 45.5q-48 15 -48 69q0 24 13 70 q15 47 33.5 68t43.5 21q13 0 24 -4q191 -59 307 -59q121 0 175 50.5t54 153.5v102q-51 -55 -118 -85t-145 -30q-129 0 -227 60.5t-151 167t-53 241.5zM365 477q0 -115 55 -178.5t148 -63.5q64 0 116.5 27.5t83 82t30.5 132.5t-30.5 132.5t-83 82t-116.5 27.5 q-93 0 -148 -63.5t-55 -178.5z" />
<glyph unicode="h" d="M47 1209q0 42 6.5 64t19.5 30.5t37 8.5h284q34 0 48.5 -14.5t14.5 -48.5v-486q120 183 290 183q91 0 159.5 -40t105.5 -113.5t37 -172.5v-415h77q24 0 37 -8.5t19.5 -30.5t6.5 -64t-6.5 -64t-19.5 -30t-37 -8h-374q-24 0 -37 8t-19.5 30t-6.5 64t6.5 64t19.5 30.5t37 8.5 h47v356q0 78 -27 118t-90 40q-58 0 -110 -48.5t-83.5 -129.5t-31.5 -173v-163h47q24 0 37 -8.5t19.5 -30.5t6.5 -64t-6.5 -64t-19.5 -30t-37 -8h-374q-24 0 -37 8t-19.5 30t-6.5 64t6.5 64t19.5 30.5t37 8.5h77v902h-97q-24 0 -37 8t-19.5 30t-6.5 64z" />
<glyph unicode="i" d="M167 102q0 42 6.5 64t19.5 30.5t37 8.5h273v514h-213q-24 0 -37 8t-19.5 30t-6.5 64t6.5 64t19.5 30.5t37 8.5h400q34 0 48.5 -14.5t14.5 -48.5v-656h281q24 0 37 -8.5t19.5 -30.5t6.5 -64t-6.5 -64t-19.5 -30t-37 -8h-804q-24 0 -37 8t-19.5 30t-6.5 64zM503 1136v164 q0 35 26 49t96 14q71 0 99.5 -14.5t28.5 -48.5v-164q0 -34 -26.5 -48.5t-96.5 -14.5t-98.5 14.5t-28.5 48.5z" />
<glyph unicode="j" d="M159 -248q0 28 18 70t37 61.5t44 19.5q14 0 35 -8q82 -37 143.5 -57.5t107.5 -20.5q129 0 129 166v736h-383q-24 0 -37 8t-19.5 30t-6.5 64t6.5 64t19.5 30.5t37 8.5h570q34 0 48.5 -14.5t14.5 -48.5v-891q0 -186 -91.5 -283t-265.5 -97q-86 0 -178.5 24.5t-183.5 70.5 q-45 22 -45 67zM673 1136v164q0 35 26 49t96 14q71 0 99.5 -14.5t28.5 -48.5v-164q0 -34 -26.5 -48.5t-96.5 -14.5t-98.5 14.5t-28.5 48.5z" />
<glyph unicode="k" d="M57 1209q0 42 6.5 64t19.5 30.5t37 8.5h284q34 0 48.5 -14.5t14.5 -48.5v-722l260 212h-50q-35 0 -49 19t-14 73q0 55 14 74t49 19h414q35 0 49 -19t14 -74q0 -54 -14 -73t-49 -19h-40l-249 -201l243 -333h61q35 0 49 -21t14 -82q0 -42 -6.5 -64t-19.5 -30t-37 -8h-171 q-50 0 -78 40l-252 350l-138 -105v-80h87q24 0 37 -8.5t19.5 -30.5t6.5 -64t-6.5 -64t-19.5 -30t-37 -8h-414q-24 0 -37 8t-19.5 30t-6.5 64t6.5 64t19.5 30.5t37 8.5h77v902h-97q-24 0 -37 8t-19.5 30t-6.5 64z" />
<glyph unicode="l" d="M157 102q0 42 6.5 64t19.5 30.5t37 8.5h273v902h-233q-24 0 -37 8t-19.5 30t-6.5 64t6.5 64t19.5 30.5t37 8.5h420q34 0 48.5 -14.5t14.5 -48.5v-1044h281q24 0 37 -8.5t19.5 -30.5t6.5 -64t-6.5 -64t-19.5 -30t-37 -8h-804q-24 0 -37 8t-19.5 30t-6.5 64z" />
<glyph unicode="m" d="M-14 821q0 42 6.5 64t19.5 30.5t37 8.5h174q34 0 48.5 -14.5t14.5 -48.5v-144q47 113 110.5 171t139.5 58q148 0 191 -203q46 100 107 151.5t132 51.5q92 0 145 -75t53 -228v-580q0 -34 -14.5 -48.5t-48.5 -14.5h-124q-34 0 -48.5 14.5t-14.5 48.5v523q0 53 -12.5 78 t-39.5 25q-47 0 -74.5 -73t-27.5 -213v-340q0 -34 -14.5 -48.5t-48.5 -14.5h-124q-34 0 -48.5 14.5t-14.5 48.5v523q0 53 -12.5 78t-39.5 25q-47 0 -74.5 -73t-27.5 -213v-340q0 -34 -14.5 -48.5t-48.5 -14.5h-124q-34 0 -48.5 14.5t-14.5 48.5v656h-57q-24 0 -37 8 t-19.5 30t-6.5 64z" />
<glyph unicode="n" d="M57 821q0 42 6.5 64t19.5 30.5t37 8.5h244q34 0 48.5 -14.5t14.5 -48.5v-145q132 230 330 230q91 0 159.5 -40t105.5 -113.5t37 -172.5v-415h77q24 0 37 -8.5t19.5 -30.5t6.5 -64t-6.5 -64t-19.5 -30t-37 -8h-374q-24 0 -37 8t-19.5 30t-6.5 64t6.5 64t19.5 30.5t37 8.5 h47v356q0 78 -27 118t-90 40q-58 0 -110 -48.5t-83.5 -129.5t-31.5 -173v-163h47q24 0 37 -8.5t19.5 -30.5t6.5 -64t-6.5 -64t-19.5 -30t-37 -8h-374q-24 0 -37 8t-19.5 30t-6.5 64t6.5 64t19.5 30.5t37 8.5h77v514h-97q-24 0 -37 8t-19.5 30t-6.5 64z" />
<glyph unicode="o" d="M111 462q0 140 61.5 250t175.5 172t266 62t266 -62t175.5 -172t61.5 -250t-61.5 -250t-175.5 -172t-266 -62t-266 62t-175.5 172t-61.5 250zM379 462q0 -78 28.5 -136t81.5 -89.5t125 -31.5t125 31.5t81.5 89.5t28.5 136t-28.5 136t-81.5 89.5t-125 31.5t-125 -31.5 t-81.5 -89.5t-28.5 -136z" />
<glyph unicode="p" d="M37 -286q0 42 6.5 64t19.5 30.5t37 8.5h87v902h-87q-24 0 -37 8t-19.5 30t-6.5 64t6.5 64t19.5 30.5t37 8.5h234q34 0 48.5 -14.5t14.5 -48.5v-84q52 80 130 124.5t173 44.5q131 0 229 -64t150 -174t52 -246t-52 -246t-150 -174t-229 -64q-78 0 -145 30.5t-118 87.5v-279 h167q24 0 37 -8t19.5 -30t6.5 -64t-6.5 -64t-19.5 -30.5t-37 -8.5h-504q-24 0 -37 8t-19.5 30t-6.5 64zM430 462q0 -80 31 -138.5t83 -88.5t116 -30q62 0 108 31.5t70.5 89.5t24.5 136t-24.5 136t-70.5 89.5t-108 31.5q-64 0 -116 -30t-83 -88.5t-31 -138.5z" />
<glyph unicode="q" d="M97 462q0 136 52 246t150 174t229 64q95 0 173 -44.5t130 -124.5v84q0 34 14.5 48.5t48.5 14.5h234q24 0 37 -8.5t19.5 -30.5t6.5 -64t-6.5 -64t-19.5 -30t-37 -8h-87v-902h87q24 0 37 -8.5t19.5 -30.5t6.5 -64t-6.5 -64t-19.5 -30t-37 -8h-504q-24 0 -37 8.5t-19.5 30.5 t-6.5 64t6.5 64t19.5 30t37 8h167v279q-51 -57 -118 -87.5t-145 -30.5q-131 0 -229 64t-150 174t-52 246zM365 462q0 -78 24.5 -136t70.5 -89.5t108 -31.5q64 0 116 30t83 88.5t31 138.5t-31 138.5t-83 88.5t-116 30q-62 0 -108 -31.5t-70.5 -89.5t-24.5 -136z" />
<glyph unicode="r" d="M127 102q0 42 6.5 64t19.5 30.5t37 8.5h147v514h-117q-24 0 -37 8t-19.5 30t-6.5 64t6.5 64t19.5 30.5t37 8.5h274q34 0 48.5 -14.5t14.5 -48.5v-217q75 145 172.5 223.5t197.5 78.5q85 0 160 -56q44 -32 44 -84q0 -33 -18 -78t-40.5 -68t-47.5 -23q-14 0 -30 8 q-56 31 -116 31q-77 0 -144 -49t-107.5 -135t-40.5 -192v-95h287q24 0 37 -8.5t19.5 -30.5t6.5 -64t-6.5 -64t-19.5 -30t-37 -8h-684q-24 0 -37 8t-19.5 30t-6.5 64z" />
<glyph unicode="s" d="M164 660q0 87 47 152t129.5 99.5t185.5 34.5q151 0 268 -73v10q0 34 24.5 48.5t87.5 14.5q64 0 91 -14.5t27 -48.5v-211q0 -34 -21.5 -48.5t-70.5 -14.5q-53 0 -73 21q-59 63 -135 89.5t-176 26.5q-59 0 -92.5 -21t-33.5 -56q0 -42 74 -60q39 -10 133 -19 q93 -11 154.5 -22t116.5 -33q80 -33 125 -92t45 -156q0 -95 -46.5 -164.5t-136 -107t-215.5 -37.5q-139 0 -258 71v-8q0 -34 -29 -48.5t-93 -14.5t-91 14.5t-27 48.5v223q0 33 23.5 48t72.5 15q61 0 83 -28q50 -63 128 -92t171 -29q160 0 160 83q0 25 -22.5 40t-66.5 25 q-25 5 -116 18q-101 12 -173.5 27.5t-131.5 48.5q-138 76 -138 240z" />
<glyph unicode="t" d="M97 756q0 62 14 85t49 23h193v282q0 34 30.5 48.5t101.5 14.5q47 0 72.5 -6.5t35.5 -19.5t10 -37v-282h371q35 0 49 -23t14 -85t-14 -84.5t-49 -22.5h-371v-278q0 -166 129 -166q46 0 107.5 20.5t143.5 57.5q22 9 35 9q21 0 39 -17.5t34 -57.5q18 -45 18 -73 q0 -22 -10.5 -36.5t-31.5 -25.5q-206 -104 -357 -104q-174 0 -265.5 97t-91.5 283v291h-193q-35 0 -49 22.5t-14 84.5z" />
<glyph unicode="u" d="M50 822q0 42 6.5 64t19.5 30t37 8h264q34 0 48.5 -14.5t14.5 -48.5v-498q0 -78 27 -118t90 -40q58 0 110 48.5t83.5 129.5t31.5 173v163h-107q-24 0 -37 8.5t-19.5 30.5t-6.5 64t6.5 64t19.5 30t37 8h294q34 0 48.5 -14.5t14.5 -48.5v-656h77q24 0 37 -8t19.5 -30 t6.5 -64t-6.5 -64t-19.5 -30.5t-37 -8.5h-224q-34 0 -48.5 14.5t-14.5 48.5v145q-132 -230 -330 -230q-91 0 -159.5 40t-105.5 113.5t-37 172.5v415h-77q-24 0 -37 8.5t-19.5 30.5t-6.5 64z" />
<glyph unicode="v" d="M40 821q0 42 6.5 64t19.5 30.5t37 8.5h404q24 0 37 -8.5t19.5 -30.5t6.5 -64t-6.5 -64t-19.5 -30t-37 -8h-67l177 -441l179 441h-55q-24 0 -37 8t-19.5 30t-6.5 64t6.5 64t19.5 30.5t37 8.5h384q24 0 37 -8.5t19.5 -30.5t6.5 -64t-6.5 -64t-19.5 -30t-37 -8h-68 l-293 -676q-15 -35 -49 -50t-104 -15t-103 15t-48 50l-291 676h-66q-24 0 -37 8t-19.5 30t-6.5 64z" />
<glyph unicode="w" d="M-20 821q0 42 6.5 64t19.5 30.5t37 8.5h344q24 0 37 -8.5t19.5 -30.5t6.5 -64t-6.5 -64t-19.5 -30t-37 -8h-85l75 -388l138 339q11 28 33 42.5t63 14.5q43 0 64.5 -12t32.5 -38l137 -346l78 388h-72q-24 0 -37 8t-19.5 30t-6.5 64t6.5 64t19.5 30.5t37 8.5h334 q24 0 37 -8.5t19.5 -30.5t6.5 -64t-6.5 -64t-19.5 -30t-37 -8h-41l-146 -676q-8 -36 -34.5 -50.5t-86.5 -14.5q-58 0 -86 15t-41 50l-140 355l-142 -355q-14 -35 -42 -50t-87 -15q-60 0 -85.5 14.5t-33.5 50.5l-143 676h-34q-24 0 -37 8t-19.5 30t-6.5 64z" />
<glyph unicode="x" d="M70 102q0 42 6.5 64t19.5 30.5t37 8.5h54l254 264l-246 250h-52q-24 0 -37 8t-19.5 30t-6.5 64t6.5 64t19.5 30.5t37 8.5h374q24 0 37 -8.5t19.5 -30.5t6.5 -64t-6.5 -64t-19.5 -30t-37 -8h-13l128 -131l121 131h-22q-24 0 -37 8t-19.5 30t-6.5 64t6.5 64t19.5 30.5 t37 8.5h354q24 0 37 -8.5t19.5 -30.5t6.5 -64t-6.5 -64t-19.5 -30t-37 -8h-59l-241 -251l259 -263h51q24 0 37 -8.5t19.5 -30.5t6.5 -64t-6.5 -64t-19.5 -30t-37 -8h-384q-24 0 -37 8t-19.5 30t-6.5 64t6.5 64t19.5 30.5t37 8.5h14l-131 134l-124 -134h17q24 0 37 -8.5 t19.5 -30.5t6.5 -64t-6.5 -64t-19.5 -30t-37 -8h-354q-24 0 -37 8t-19.5 30t-6.5 64z" />
<glyph unicode="y" d="M40 821q0 42 6.5 64t19.5 30.5t37 8.5h404q24 0 37 -8.5t19.5 -30.5t6.5 -64t-6.5 -64t-19.5 -30t-37 -8h-60l174 -380l174 380h-54q-24 0 -37 8t-19.5 30t-6.5 64t6.5 64t19.5 30.5t37 8.5h384q24 0 37 -8.5t19.5 -30.5t6.5 -64t-6.5 -64t-19.5 -30t-37 -8h-64 l-383 -776q-70 -141 -133.5 -214.5t-145 -104t-210.5 -34.5q-36 -1 -54.5 27t-18.5 102q0 51 13.5 73t38.5 24q79 5 128.5 30t90 79.5t97.5 164.5l-306 629h-75q-24 0 -37 8t-19.5 30t-6.5 64z" />
<glyph unicode="z" d="M138 102q0 27 7 45t25 37l523 535h-305v-114q0 -35 -26 -49t-96 -14q-47 0 -70 6t-30.5 19t-7.5 38v254q0 35 15.5 50t49.5 15h794q24 0 37 -8t19.5 -30t6.5 -64q0 -27 -7 -45t-25 -37l-523 -535h325v124q0 35 26 49t96 14q47 0 70 -6t30.5 -19t7.5 -38v-264 q0 -34 -15 -49.5t-50 -15.5h-814q-24 0 -37 8t-19.5 30t-6.5 64z" />
<glyph unicode="{" d="M165 542q0 44 6.5 66.5t19.5 31t37 8.5q112 0 169.5 46t57.5 131q0 16 -1 25l-10 109q-3 30 -3 58q0 181 121 268t373 87q35 0 49 -21.5t14 -83.5q0 -46 -6 -69t-19.5 -31t-37.5 -8q-98 0 -151.5 -21.5t-73 -67t-15.5 -123.5l5 -97l1 -26q0 -105 -54 -173.5t-177 -103.5 v-10q123 -34 178.5 -103t55.5 -171q0 -20 -1 -30l-9 -131q-1 -12 -1 -36q0 -67 23 -107t76 -59.5t143 -19.5q24 0 37.5 -7.5t19.5 -30.5t6 -69q0 -62 -14 -84t-49 -22q-251 0 -372 88.5t-121 274.5q0 29 3 60l13 143q1 8 1 24q0 85 -59.5 131.5t-171.5 46.5q-24 0 -37 8.5 t-19.5 31.5t-6.5 67z" />
<glyph unicode="|" d="M489 -292v1623q0 33 33 48t99 15q64 0 91 -14.5t27 -48.5v-1623q0 -33 -33 -48t-99 -15q-64 0 -91 14.5t-27 48.5z" />
<glyph unicode="}" d="M230 -227q0 46 6 69t19.5 30.5t37.5 7.5q90 0 143 19.5t76 59.5t23 107q0 24 -1 36l-9 131q-1 10 -1 30q0 102 55.5 171t178.5 103v10q-131 37 -183.5 112t-46.5 191l5 97q1 10 1 28q0 67 -22.5 106.5t-74.5 58.5t-144 19q-24 0 -37.5 8t-19.5 31t-6 69q0 62 14 83.5 t49 21.5q252 0 373 -87t121 -268q0 -28 -3 -58l-10 -109q-1 -9 -1 -25q0 -85 57.5 -131t169.5 -46q24 0 37 -8.5t19.5 -31t6.5 -66.5t-6.5 -67t-19.5 -31.5t-37 -8.5q-112 0 -171.5 -46.5t-59.5 -131.5q0 -16 1 -24l13 -143q3 -31 3 -60q0 -186 -121 -274.5t-372 -88.5 q-35 0 -49 22t-14 84z" />
<glyph unicode="~" d="M129 552q0 17 13 38q59 87 128.5 131t159.5 44q53 0 100 -17.5t113 -51.5q53 -28 90 -42.5t73 -14.5q39 0 69.5 16t62.5 50q18 19 40 19q33 0 74 -37q47 -41 47 -78q0 -17 -13 -38q-59 -87 -128.5 -131t-159.5 -44q-54 0 -102.5 18t-112.5 52q-54 28 -90 42t-71 14 q-39 0 -69.5 -16t-62.5 -50q-18 -19 -40 -19q-33 0 -74 37q-47 41 -47 78z" />
<glyph unicode="&#xa0;" />
<glyph unicode="&#xa1;" d="M458 -295l57 657q5 58 99 58t99 -58l57 -657q2 -26 -8 -38t-33 -12h-230q-23 0 -33 12t-8 38zM459 657v214q0 34 36.5 48.5t118.5 14.5t118.5 -14.5t36.5 -48.5v-214q0 -34 -36.5 -48.5t-118.5 -14.5t-118.5 14.5t-36.5 48.5z" />
<glyph unicode="&#xa2;" d="M127 602q0 126 51 228.5t141.5 167.5t205.5 82v169q0 35 19 49t74 14t74 -14t19 -49v-179q79 -27 122 -101v54q0 34 29 48.5t93 14.5q62 0 85 -14t23 -49v-321q0 -34 -30.5 -48.5t-101.5 -14.5q-47 0 -72.5 6.5t-35.5 19.5t-10 37q0 48 -26.5 87.5t-75.5 56.5v-495 q118 19 237 88q18 10 33 10q45 0 79 -79q18 -43 18 -73q0 -45 -43 -69q-156 -87 -324 -106v-184q0 -35 -19 -49t-74 -14t-74 14t-19 49v189q-122 21 -211.5 86.5t-138 166t-48.5 222.5zM395 602q0 -83 34.5 -144t95.5 -90v468q-61 -29 -95.5 -90t-34.5 -144z" />
<glyph unicode="&#xa3;" d="M150 537q0 47 6.5 71t19.5 33t37 9h95q-32 61 -49.5 110t-17.5 107q0 98 45 175.5t130.5 122t203.5 44.5q162 0 335 -89q46 -24 46 -63v-207q0 -34 -29 -48.5t-93 -14.5q-62 0 -85 14t-23 49v111q-64 31 -143 31q-62 0 -97.5 -36.5t-35.5 -97.5q0 -43 15 -79.5t45 -88.5 q4 -8 10 -17.5t12 -22.5h288q24 0 37 -9t19.5 -33t6.5 -71t-6.5 -71t-19.5 -32.5t-37 -8.5h-241q-8 -59 -37 -112t-78 -106q75 28 141 28q39 0 88 -9q54 -8 80 -8q66 0 133 33q7 4 16 4q20 0 40.5 -20t34.5 -51q19 -40 19 -77t-21 -51q-59 -44 -113 -62t-109 -18 q-31 0 -62 4.5t-74 12.5q-51 10 -88.5 15t-78.5 5q-114 0 -228 -47q-4 -2 -12 -2q-19 0 -39.5 20t-36.5 50q-21 44 -21 77q0 35 21 50q89 70 130.5 128t45.5 136h-162q-24 0 -37 8.5t-19.5 32.5t-6.5 71z" />
<glyph unicode="&#xa4;" d="M102 232q0 18 21 39l131 131q-50 91 -50 200q0 110 50 202l-130 130q-21 21 -21 39q0 15 13 35t43 49q30 30 50 43.5t35 13.5q18 0 39 -21l133 -133q89 46 198 46t198 -46l133 133q21 21 39 21q15 0 35 -13.5t50 -43.5q30 -29 43 -49t13 -35q0 -18 -21 -39l-130 -130 q50 -92 50 -202q0 -109 -50 -200l131 -131q21 -21 21 -39q0 -15 -13.5 -35t-43.5 -50q-29 -30 -49 -43t-35 -13q-18 0 -39 21l-133 133q-91 -47 -199 -47t-199 47l-133 -133q-21 -21 -39 -21q-15 0 -35 13t-49 43q-30 30 -43.5 50t-13.5 35zM426 602q0 -54 23.5 -97 t66.5 -67t98 -24t98 24t66.5 67t23.5 97t-23.5 97t-66.5 67t-98 24t-98 -24t-66.5 -67t-23.5 -97z" />
<glyph unicode="&#xa5;" d="M40 1084q0 42 6.5 64t19.5 30.5t37 8.5h394q24 0 37 -8.5t19.5 -30.5t6.5 -64t-6.5 -64t-19.5 -30t-37 -8h-67l186 -292l188 292h-53q-24 0 -37 8t-19.5 30t-6.5 64t6.5 64t19.5 30.5t37 8.5h374q24 0 37 -8.5t19.5 -30.5t6.5 -64t-6.5 -64t-19.5 -30t-37 -8h-44 l-93 -142h57q35 0 49 -19t14 -74q0 -54 -14 -73t-49 -19h-178l-94 -143h252q35 0 49 -19t14 -74q0 -54 -14 -73t-49 -19h-286v-122h196q24 0 37 -8.5t19.5 -30.5t6.5 -64t-6.5 -64t-19.5 -30t-37 -8h-642q-24 0 -37 8t-19.5 30t-6.5 64t6.5 64t19.5 30.5t37 8.5h196v122 h-286q-35 0 -49 19t-14 73q0 55 14 74t49 19h252l-93 143h-179q-35 0 -49 19t-14 73q0 55 14 74t49 19h58l-92 142h-46q-24 0 -37 8t-19.5 30t-6.5 64z" />
<glyph unicode="&#xa6;" d="M489 -292v623q0 33 33 48t99 15q64 0 91 -14.5t27 -48.5v-623q0 -33 -33 -48t-99 -15q-64 0 -91 14.5t-27 48.5zM489 708v623q0 33 33 48t99 15q64 0 91 -14.5t27 -48.5v-623q0 -33 -33 -48t-99 -15q-64 0 -91 14.5t-27 48.5z" />
<glyph unicode="&#xa7;" d="M159 583q0 140 113 233q-14 48 -14 100q0 81 35 142t102.5 95t163.5 34h394q35 0 50 -15t15 -50v-262q0 -34 -29 -48.5t-93 -14.5q-62 0 -85 14t-23 49v132h-193q-43 0 -66 -18.5t-23 -53.5q0 -69 86 -111l291 -145q90 -45 138 -119t48 -171q0 -139 -114 -234 q15 -45 15 -99q0 -81 -35 -142t-102.5 -95t-163.5 -34h-394q-34 0 -49.5 15t-15.5 50v262q0 34 29 48.5t93 14.5q62 0 85 -14t23 -49v-132h193q43 0 66 18.5t23 53.5q0 69 -86 111l-291 145q-90 45 -138 119t-48 171zM407 592q0 -39 24 -69t76 -56l265 -132q21 -11 36 -20 q13 22 13 50q0 39 -24 69t-76 56l-265 132q-13 6 -37 20q-12 -22 -12 -50z" />
<glyph unicode="&#xa8;" d="M269 1136v164q0 35 26 49t96 14q71 0 99.5 -14.5t28.5 -48.5v-164q0 -34 -26.5 -48.5t-96.5 -14.5t-98.5 14.5t-28.5 48.5zM709 1136v164q0 35 26 49t96 14q71 0 99.5 -14.5t28.5 -48.5v-164q0 -34 -26.5 -48.5t-96.5 -14.5t-98.5 14.5t-28.5 48.5z" />
<glyph unicode="&#xa9;" d="M28 594q0 173 75.5 313.5t209 221t300.5 80.5t300.5 -80.5t209 -221t75.5 -313.5t-75.5 -314t-209 -221.5t-300.5 -80.5t-300.5 80.5t-209 221.5t-75.5 314zM181 594q0 -131 53.5 -236.5t151.5 -166t227 -60.5t227 60.5t151.5 166t53.5 236.5t-53.5 236.5t-151.5 165.5 t-227 60t-227 -60t-151.5 -165.5t-53.5 -236.5zM307 593q0 106 42.5 183.5t118 119t171.5 41.5q47 0 95.5 -11t90.5 -32q18 -9 26.5 -21t8.5 -29q0 -21 -12 -53q-12 -31 -23.5 -45t-28.5 -14q-10 0 -19 4q-80 28 -138 28q-71 0 -112.5 -45t-41.5 -126t41.5 -126t112.5 -45 q58 0 138 28q9 4 19 4q17 0 28.5 -14t23.5 -45t12 -53q0 -17 -8.5 -29t-26.5 -21q-42 -21 -90.5 -32t-95.5 -11q-96 0 -171.5 41.5t-118 119t-42.5 183.5z" />
<glyph unicode="&#xaa;" d="M229 709q0 107 76 166.5t213 59.5q99 0 217 -23v22q0 50 -34 75.5t-115 25.5q-83 0 -208 -41q-11 -4 -22 -4q-21 0 -36 17t-27 53q-10 28 -10 47q0 36 35 49q70 26 147.5 39.5t142.5 13.5q169 0 244.5 -73t75.5 -209v-222q0 -31 13 -48t37 -17h24q27 0 38 -16t11 -64 q0 -47 -10.5 -62.5t-38.5 -15.5h-86q-102 0 -140 81q-61 -47 -129 -72.5t-139 -25.5q-131 0 -205 65.5t-74 178.5zM427 701q0 -36 27.5 -55t78.5 -19q53 0 105 21.5t97 57.5v50q-101 20 -198 20q-54 0 -82 -19.5t-28 -55.5z" />
<glyph unicode="&#xab;" d="M94 536q0 15 9 25l279 366q15 19 40 19q35 0 92 -39q65 -44 65 -86q0 -18 -14 -35l-209 -250l209 -251q14 -17 14 -35q0 -42 -65 -86q-57 -39 -92 -39q-25 0 -40 19l-279 366q-9 12 -9 26zM614 536q0 15 9 25l279 366q15 19 40 19q35 0 92 -39q65 -44 65 -86 q0 -18 -14 -35l-209 -250l209 -251q14 -17 14 -35q0 -42 -65 -86q-57 -39 -92 -39q-25 0 -40 19l-279 366q-9 12 -9 26z" />
<glyph unicode="&#xac;" d="M120 738q0 45 6.5 67.5t19.5 31t37 8.5h850q35 0 50 -15t15 -50v-472q0 -34 -30.5 -48.5t-101.5 -14.5q-47 0 -72.5 6.5t-35.5 19.5t-10 37v322h-665q-24 0 -37 8.5t-19.5 31.5t-6.5 68z" />
<glyph unicode="&#xad;" d="M200 438q0 47 6.5 71t19.5 33t37 9h702q24 0 37 -9t19.5 -33t6.5 -71t-6.5 -71t-19.5 -32.5t-37 -8.5h-702q-24 0 -37 8.5t-19.5 32.5t-6.5 71z" />
<glyph unicode="&#xae;" d="M125 822q0 144 63 261t174.5 184t250.5 67t250.5 -67t174.5 -184t63 -261t-63 -261.5t-174.5 -185t-250.5 -67.5t-250.5 67.5t-174.5 185t-63 261.5zM253 822q0 -110 44.5 -198t126.5 -138t189 -50t189 50t126.5 138t44.5 198q0 109 -44.5 196.5t-126.5 137.5t-189 50 t-189 -50t-126.5 -137.5t-44.5 -196.5zM407 606v432q0 29 12.5 41t40.5 12h196q60 0 106 -27.5t71 -74t25 -100.5q0 -56 -26 -98.5t-75 -65.5l64 -73q17 -20 17 -36q0 -22 -37 -48q-34 -23 -53 -23q-20 0 -38 23l-99 128h-62v-90q0 -31 -14 -42.5t-57 -11.5t-57 11.5 t-14 42.5zM549 825h82q37 0 58 17t21 47q0 29 -19 46.5t-52 17.5h-90v-128z" />
<glyph unicode="&#xaf;" d="M280 1172q0 42 6.5 64t19.5 30.5t37 8.5h542q24 0 37 -8.5t19.5 -30.5t6.5 -64t-6.5 -64t-19.5 -30t-37 -8h-542q-24 0 -37 8t-19.5 30t-6.5 64z" />
<glyph unicode="&#xb0;" d="M220 887q0 87 43.5 161t117.5 117.5t161 43.5t161 -43.5t117.5 -117.5t43.5 -161t-43.5 -161t-117.5 -117.5t-161 -43.5t-161 43.5t-117.5 117.5t-43.5 161zM431 887q0 -46 32.5 -78.5t78.5 -32.5t78.5 32.5t32.5 78.5t-32.5 78.5t-78.5 32.5t-78.5 -32.5t-32.5 -78.5z " />
<glyph unicode="&#xb1;" d="M170 112q0 47 6.5 71t19.5 33t37 9h762q24 0 37 -9t19.5 -33t6.5 -71t-6.5 -71t-19.5 -32.5t-37 -8.5h-762q-24 0 -37 8.5t-19.5 32.5t-6.5 71zM170 732q0 47 6.5 71t19.5 33t37 9h268v218q0 24 9 37t33 19.5t71 6.5t71 -6.5t32.5 -19.5t8.5 -37v-218h269q24 0 37 -9 t19.5 -33t6.5 -71t-6.5 -71t-19.5 -32.5t-37 -8.5h-269v-219q0 -24 -8.5 -37t-32.5 -19.5t-71 -6.5t-71 6.5t-33 19.5t-9 37v219h-268q-24 0 -37 8.5t-19.5 32.5t-6.5 71z" />
<glyph unicode="&#xb2;" d="M279 583q0 55 28 76l327 253q56 42 82 75.5t26 70.5q0 48 -31 75.5t-86 27.5q-34 0 -68.5 -6.5t-63.5 -19.5v-88q0 -25 -18 -36.5t-68 -11.5q-52 0 -75.5 12t-23.5 36v173q0 28 31 45q64 34 144.5 51.5t157.5 17.5q97 0 165 -33.5t103 -93.5t35 -140q0 -78 -47 -141.5 t-139 -129.5l-198 -143h238v46q0 25 18 36.5t68 11.5q52 0 75.5 -12t23.5 -36v-170q0 -25 -10.5 -35.5t-35.5 -10.5h-605q-25 0 -39 24.5t-14 75.5z" />
<glyph unicode="&#xb3;" d="M280 573q0 23 10 50q12 34 28 51.5t32 17.5q8 0 12 -2q55 -23 116.5 -37.5t115.5 -14.5q148 0 148 86q0 43 -27 65t-80 22h-93q-24 0 -36 20t-12 66t12 66t36 20h74q62 0 93 23t31 68q0 41 -34 64t-99 23q-66 0 -136 -26v-58q0 -25 -18 -36.5t-68 -11.5q-52 0 -75.5 12 t-23.5 36v153q0 32 31 45q64 28 144 43.5t161 15.5q154 0 237 -66t83 -184t-122 -177q64 -24 99 -72t35 -117q0 -125 -91.5 -189t-259.5 -64q-74 0 -153 15t-136 39q-34 14 -34 54z" />
<glyph unicode="&#xb4;" d="M408 1135q0 28 21 43l347 255q16 11 33 11q46 0 103 -75q40 -54 40 -93q0 -32 -24 -44l-407 -205q-10 -6 -23 -6q-36 0 -68 51q-22 35 -22 63z" />
<glyph unicode="&#xb5;" d="M184 -325v1186q0 34 14.5 48.5t48.5 14.5h124q34 0 48.5 -14.5t14.5 -48.5v-488q0 -158 137 -158q57 0 111.5 40t89 107.5t34.5 143.5v355q0 34 14.5 48.5t48.5 14.5h124q34 0 48.5 -14.5t14.5 -48.5v-798q0 -34 -14.5 -48.5t-48.5 -14.5h-84q-34 0 -48.5 14.5 t-14.5 48.5v115q-66 -94 -153 -147t-187 -53q-34 0 -72 10v-313q0 -34 -14.5 -48.5t-48.5 -14.5h-124q-34 0 -48.5 14.5t-14.5 48.5z" />
<glyph unicode="&#xb6;" d="M101 809q0 117 53 202.5t147.5 130.5t217.5 45h556q24 0 37 -8.5t19.5 -30.5t6.5 -64t-6.5 -64t-19.5 -30t-37 -8h-66v-1329q0 -33 -27.5 -48t-84.5 -15q-55 0 -76.5 14.5t-21.5 48.5v1329h-160v-1329q0 -33 -27.5 -48t-84.5 -15q-55 0 -76.5 14.5t-21.5 48.5v787 q-99 15 -173 63.5t-114.5 126.5t-40.5 179z" />
<glyph unicode="&#xb7;" d="M449 453v254q0 34 39 48.5t126 14.5t126 -14.5t39 -48.5v-254q0 -34 -39 -48.5t-126 -14.5t-126 14.5t-39 48.5z" />
<glyph unicode="&#xb8;" d="M351 -391q0 19 10 45q24 64 54 64q4 0 12 -2q82 -29 161 -29q49 0 72.5 12.5t23.5 38.5t-24 36.5t-67 10.5l-23 -1q-8 -1 -24 -1q-37 0 -37 41v204h185v-111q107 0 161.5 -52.5t54.5 -137.5q0 -96 -71.5 -147.5t-207.5 -51.5q-147 0 -256 42q-24 10 -24 39z" />
<glyph unicode="&#xb9;" d="M293 1130q0 32 33 48l308 148q18 8 37 8q27 0 46.5 -15.5t19.5 -43.5v-622h181q28 0 40 -20t12 -65t-12 -65t-40 -20h-564q-28 0 -39.5 19.5t-11.5 65.5q0 45 12 65t39 20h188v441l-139 -72q-17 -9 -31 -9q-36 0 -63 59q-16 35 -16 58z" />
<glyph unicode="&#xba;" d="M224 837q0 107 48.5 191.5t137 132.5t204.5 48q117 0 205.5 -48t136.5 -132.5t48 -191.5t-48 -191.5t-136.5 -132.5t-205.5 -48q-116 0 -204.5 48t-137 132.5t-48.5 191.5zM430 837q0 -90 50.5 -143.5t133.5 -53.5q84 0 134 53.5t50 143.5t-50 144t-134 54 q-83 0 -133.5 -54t-50.5 -144z" />
<glyph unicode="&#xbb;" d="M129 250q0 18 14 35l209 251l-209 250q-14 17 -14 35q0 42 65 86q57 39 92 39q25 0 40 -19l279 -366q9 -10 9 -25q0 -14 -9 -26l-279 -366q-15 -19 -40 -19q-35 0 -92 39q-65 44 -65 86zM649 250q0 18 14 35l209 251l-209 250q-14 17 -14 35q0 42 65 86q57 39 92 39 q25 0 40 -19l279 -366q9 -10 9 -25q0 -14 -9 -26l-279 -366q-15 -19 -40 -19q-35 0 -92 39q-65 44 -65 86z" />
<glyph unicode="&#xbc;" d="M-20 1224q0 28 27 41l257 123q14 7 32 7q23 0 38.5 -13t15.5 -36v-520h152q23 0 33 -17t10 -54t-10 -54t-33 -17h-471q-24 0 -33.5 16.5t-9.5 54.5t10 54.5t33 16.5h157v368l-116 -60q-13 -7 -26 -7q-30 0 -53 49q-13 27 -13 48zM85 288q0 19 20 31l937 521q12 5 20 5 q27 0 56 -45q24 -36 24 -58q0 -19 -20 -31l-937 -521q-12 -5 -20 -5q-27 0 -56 45q-24 36 -24 58zM627 40q0 15 3 24.5t11 20.5l310 378q14 18 35.5 27t56.5 9q45 0 67.5 -12.5t22.5 -34.5v-371h75q22 0 32.5 -17t10.5 -54t-10 -53.5t-33 -16.5h-75v-118q0 -21 -15.5 -30.5 t-57.5 -9.5q-48 0 -69 10t-21 30v118h-290q-19 0 -36 32.5t-17 67.5zM820 81h150l5 199z" />
<glyph unicode="&#xbd;" d="M-20 1224q0 28 27 41l257 123q14 7 32 7q23 0 38.5 -13t15.5 -36v-520h152q23 0 33 -17t10 -54t-10 -54t-33 -17h-471q-24 0 -33.5 16.5t-9.5 54.5t10 54.5t33 16.5h157v368l-116 -60q-13 -7 -26 -7q-30 0 -53 49q-13 27 -13 48zM85 338q0 19 20 31l937 521q12 5 20 5 q27 0 56 -45q24 -36 24 -58q0 -19 -20 -31l-937 -521q-12 -5 -20 -5q-27 0 -56 45q-24 36 -24 58zM659 -133q0 45 23 63l273 212q48 35 69.5 62.5t21.5 58.5q0 40 -26 63t-72 23q-62 0 -110 -21v-74q0 -21 -15.5 -30.5t-56.5 -9.5q-43 0 -63 10t-20 30v145q0 23 26 37 q54 28 120.5 43t131.5 15q121 0 187 -61t66 -162q0 -65 -39.5 -118t-115.5 -108l-165 -120h198v39q0 21 15.5 30.5t56.5 9.5q43 0 63 -10t20 -30v-142q0 -21 -9 -30t-30 -9h-505q-44 0 -44 84z" />
<glyph unicode="&#xbe;" d="M-10 759q0 17 9 41q10 28 23.5 43t27.5 15q3 0 9 -2q47 -19 98.5 -31t95.5 -12q124 0 124 72q0 35 -23 53.5t-67 18.5h-77q-20 0 -30.5 17t-10.5 55t10.5 55t30.5 17h61q104 0 104 76q0 34 -28.5 53t-82.5 19q-56 0 -114 -21v-49q0 -21 -15 -30.5t-57 -9.5q-82 0 -82 40 v128q0 26 26 38q53 23 119.5 36t134.5 13q129 0 198.5 -55.5t69.5 -153.5q0 -99 -102 -148q53 -20 82.5 -60t29.5 -97q0 -105 -76.5 -158.5t-216.5 -53.5q-61 0 -127.5 12.5t-114.5 32.5q-29 13 -29 46zM85 298q0 19 20 31l937 521q12 5 20 5q27 0 56 -45q24 -36 24 -58 q0 -19 -20 -31l-937 -521q-12 -5 -20 -5q-27 0 -56 45q-24 36 -24 58zM627 40q0 15 3 24.5t11 20.5l310 378q14 18 35.5 27t56.5 9q45 0 67.5 -12.5t22.5 -34.5v-371h75q22 0 32.5 -17t10.5 -54t-10 -53.5t-33 -16.5h-75v-118q0 -21 -15.5 -30.5t-57.5 -9.5q-48 0 -69 10 t-21 30v118h-290q-19 0 -36 32.5t-17 67.5zM820 81h150l5 199z" />
<glyph unicode="&#xbf;" d="M230 10q0 139 75.5 218.5t231.5 122.5l6 86q2 25 24 36.5t77 11.5t77 -11.5t24 -36.5l12 -209q2 -44 -31 -51l-103 -20q-72 -14 -107 -49.5t-35 -97.5q0 -68 39.5 -103t116.5 -35q75 0 153 30v92q0 35 23 49t85 14q64 0 93 -14.5t29 -48.5v-190q0 -41 -41 -61 q-186 -88 -351 -88q-193 0 -295.5 94t-102.5 261zM499 697v174q0 34 34 48.5t111 14.5t111 -14.5t34 -48.5v-174q0 -34 -34 -48.5t-111 -14.5t-111 14.5t-34 48.5z" />
<glyph unicode="&#xc0;" d="M-10 103q0 42 6.5 64t19.5 30t37 8h84l253 777h-167q-24 0 -37 8.5t-19.5 30.5t-6.5 64t6.5 64t19.5 30t37 8h474q40 0 65 -15.5t36 -49.5l290 -917h87q24 0 37 -8t19.5 -30t6.5 -64t-6.5 -64t-19.5 -30.5t-37 -8.5h-424q-24 0 -37 8.5t-19.5 30.5t-6.5 64t6.5 64 t19.5 30t37 8h86l-45 145h-364l-45 -145h74q24 0 37 -8t19.5 -30t6.5 -64t-6.5 -64t-19.5 -30.5t-37 -8.5h-404q-24 0 -37 8.5t-19.5 30.5t-6.5 64zM238 1546q0 39 40 93q57 75 103 75q17 0 33 -11l347 -255q21 -15 21 -43t-22 -63q-32 -51 -68 -51q-12 0 -23 6l-407 205 q-24 12 -24 44zM486 555h249l-120 427h-6z" />
<glyph unicode="&#xc1;" d="M-10 103q0 42 6.5 64t19.5 30t37 8h84l253 777h-167q-24 0 -37 8.5t-19.5 30.5t-6.5 64t6.5 64t19.5 30t37 8h474q40 0 65 -15.5t36 -49.5l290 -917h87q24 0 37 -8t19.5 -30t6.5 -64t-6.5 -64t-19.5 -30.5t-37 -8.5h-424q-24 0 -37 8.5t-19.5 30.5t-6.5 64t6.5 64 t19.5 30t37 8h86l-45 145h-364l-45 -145h74q24 0 37 -8t19.5 -30t6.5 -64t-6.5 -64t-19.5 -30.5t-37 -8.5h-404q-24 0 -37 8.5t-19.5 30.5t-6.5 64zM346 1405q0 28 21 43l347 255q16 11 33 11q46 0 103 -75q40 -54 40 -93q0 -32 -24 -44l-407 -205q-10 -6 -23 -6 q-36 0 -68 51q-22 35 -22 63zM486 555h249l-120 427h-6z" />
<glyph unicode="&#xc2;" d="M-10 103q0 42 6.5 64t19.5 30t37 8h84l253 777h-167q-24 0 -37 8.5t-19.5 30.5t-6.5 64t6.5 64t19.5 30t37 8h474q40 0 65 -15.5t36 -49.5l290 -917h87q24 0 37 -8t19.5 -30t6.5 -64t-6.5 -64t-19.5 -30.5t-37 -8.5h-424q-24 0 -37 8.5t-19.5 30.5t-6.5 64t6.5 64 t19.5 30t37 8h86l-45 145h-364l-45 -145h74q24 0 37 -8t19.5 -30t6.5 -64t-6.5 -64t-19.5 -30.5t-37 -8.5h-404q-24 0 -37 8.5t-19.5 30.5t-6.5 64zM236 1390q0 23 22 42l265 225q14 12 29.5 17.5t41.5 5.5t41.5 -5.5t29.5 -17.5l265 -225q22 -19 22 -42q0 -25 -25 -60 q-30 -43 -60 -43q-16 0 -33 11l-240 138l-240 -138q-17 -11 -33 -11q-30 0 -60 43q-25 35 -25 60zM486 555h249l-120 427h-6z" />
<glyph unicode="&#xc3;" d="M-10 103q0 42 6.5 64t19.5 30t37 8h84l253 777h-167q-24 0 -37 8.5t-19.5 30.5t-6.5 64t6.5 64t19.5 30t37 8h474q40 0 65 -15.5t36 -49.5l290 -917h87q24 0 37 -8t19.5 -30t6.5 -64t-6.5 -64t-19.5 -30.5t-37 -8.5h-424q-24 0 -37 8.5t-19.5 30.5t-6.5 64t6.5 64 t19.5 30t37 8h86l-45 145h-364l-45 -145h74q24 0 37 -8t19.5 -30t6.5 -64t-6.5 -64t-19.5 -30.5t-37 -8.5h-404q-24 0 -37 8.5t-19.5 30.5t-6.5 64zM187 1446q0 20 10 34q51 76 115 118.5t133 42.5q40 0 73 -12t77 -34q36 -18 58.5 -26.5t46.5 -8.5q61 0 129 72q14 14 30 14 q29 0 66 -40q36 -40 36 -76q0 -20 -10 -34q-51 -76 -115 -118.5t-133 -42.5q-40 0 -73 12t-77 34q-36 18 -58.5 26.5t-46.5 8.5q-61 0 -129 -72q-14 -14 -30 -14q-29 0 -66 40q-36 40 -36 76zM486 555h249l-120 427h-6z" />
<glyph unicode="&#xc4;" d="M-10 103q0 42 6.5 64t19.5 30t37 8h84l253 777h-167q-24 0 -37 8.5t-19.5 30.5t-6.5 64t6.5 64t19.5 30t37 8h474q40 0 65 -15.5t36 -49.5l290 -917h87q24 0 37 -8t19.5 -30t6.5 -64t-6.5 -64t-19.5 -30.5t-37 -8.5h-424q-24 0 -37 8.5t-19.5 30.5t-6.5 64t6.5 64 t19.5 30t37 8h86l-45 145h-364l-45 -145h74q24 0 37 -8t19.5 -30t6.5 -64t-6.5 -64t-19.5 -30.5t-37 -8.5h-404q-24 0 -37 8.5t-19.5 30.5t-6.5 64zM249 1406v164q0 35 26 49t96 14q71 0 99.5 -14.5t28.5 -48.5v-164q0 -34 -26.5 -48.5t-96.5 -14.5t-98.5 14.5t-28.5 48.5z M486 555h249l-120 427h-6zM689 1406v164q0 35 26 49t96 14q71 0 99.5 -14.5t28.5 -48.5v-164q0 -34 -26.5 -48.5t-96.5 -14.5t-98.5 14.5t-28.5 48.5z" />
<glyph unicode="&#xc5;" d="M-10 103q0 42 6.5 64t19.5 30t37 8h84l253 777h-167q-24 0 -37 8.5t-19.5 30.5t-6.5 64t6.5 64t19.5 30t37 8h474q40 0 65 -15.5t36 -49.5l290 -917h87q24 0 37 -8t19.5 -30t6.5 -64t-6.5 -64t-19.5 -30.5t-37 -8.5h-424q-24 0 -37 8.5t-19.5 30.5t-6.5 64t6.5 64 t19.5 30t37 8h86l-45 145h-364l-45 -145h74q24 0 37 -8t19.5 -30t6.5 -64t-6.5 -64t-19.5 -30.5t-37 -8.5h-404q-24 0 -37 8.5t-19.5 30.5t-6.5 64zM332 1565q0 74 34 134t94 94t134 34t134 -34t94 -94t34 -134t-34 -134t-94 -94t-134 -34t-134 34t-94 94t-34 134zM486 555 h249l-120 427h-6zM502 1565q0 -42 25 -67t67 -25t67 25t25 67t-25 67t-67 25t-67 -25t-25 -67z" />
<glyph unicode="&#xc6;" d="M-30 102q0 42 6.5 64t19.5 30.5t37 8.5h53l199 777h-102q-24 0 -37 8t-19.5 30t-6.5 64t6.5 64t19.5 30.5t37 8.5h912q35 0 50 -15t15 -50v-272q0 -34 -26 -48.5t-86 -14.5q-58 0 -78 14t-20 49v132h-170v-253h114q35 0 49 -23t14 -85t-14 -84.5t-49 -22.5h-114v-309h180 v182q0 34 26.5 48.5t89.5 14.5q42 0 64.5 -6.5t31 -19.5t8.5 -37v-322q0 -34 -15 -49.5t-50 -15.5h-500q-34 0 -49.5 15.5t-15.5 49.5v265h-202l-32 -125h41q24 0 37 -8.5t19.5 -30.5t6.5 -64t-6.5 -64t-19.5 -30t-37 -8h-324q-24 0 -37 8t-19.5 30t-6.5 64zM400 545h150 v437h-47z" />
<glyph unicode="&#xc7;" d="M103 594q0 186 67 325.5t185.5 214.5t268.5 75q175 0 260 -126v63q0 34 29 48.5t93 14.5q62 0 85 -14t23 -49v-384q0 -34 -30.5 -48.5t-101.5 -14.5q-47 0 -72.5 6.5t-35.5 19.5t-10 37q0 100 -54.5 160t-155.5 60q-139 0 -211 -100t-72 -288q0 -186 76.5 -287.5 t216.5 -101.5q87 0 167 23.5t174 71.5q16 8 30 8q47 0 78 -83q14 -38 14 -68q0 -51 -46 -73q-176 -88 -357 -103v-64q107 0 161.5 -52.5t54.5 -137.5q0 -96 -71.5 -147.5t-207.5 -51.5q-147 0 -256 42q-24 10 -24 39q0 19 10 45q24 64 54 64q4 0 12 -2q82 -29 161 -29 q49 0 72.5 12.5t23.5 38.5t-24 36.5t-67 10.5l-23 -1q-8 -1 -24 -1q-37 0 -37 41v164q-132 24 -230.5 104.5t-152 208.5t-53.5 293z" />
<glyph unicode="&#xc8;" d="M60 102q0 42 6.5 64t19.5 30.5t37 8.5h97v777h-97q-24 0 -37 8t-19.5 30t-6.5 64t6.5 64t19.5 30.5t37 8.5h912q35 0 50 -15t15 -50v-302q0 -34 -29 -48.5t-93 -14.5q-62 0 -85 14t-23 49v152h-400v-253h244q35 0 49 -23t14 -85t-14 -84.5t-49 -22.5h-244v-289h410v202 q0 34 29.5 48.5t96.5 14.5q66 0 90 -14t24 -49v-352q0 -34 -15 -49.5t-50 -15.5h-932q-24 0 -37 8t-19.5 30t-6.5 64zM308 1546q0 39 40 93q57 75 103 75q17 0 33 -11l347 -255q21 -15 21 -43t-22 -63q-32 -51 -68 -51q-12 0 -23 6l-407 205q-24 12 -24 44z" />
<glyph unicode="&#xc9;" d="M60 102q0 42 6.5 64t19.5 30.5t37 8.5h97v777h-97q-24 0 -37 8t-19.5 30t-6.5 64t6.5 64t19.5 30.5t37 8.5h912q35 0 50 -15t15 -50v-302q0 -34 -29 -48.5t-93 -14.5q-62 0 -85 14t-23 49v152h-400v-253h244q35 0 49 -23t14 -85t-14 -84.5t-49 -22.5h-244v-289h410v202 q0 34 29.5 48.5t96.5 14.5q66 0 90 -14t24 -49v-352q0 -34 -15 -49.5t-50 -15.5h-932q-24 0 -37 8t-19.5 30t-6.5 64zM376 1405q0 28 21 43l347 255q16 11 33 11q46 0 103 -75q40 -54 40 -93q0 -32 -24 -44l-407 -205q-10 -6 -23 -6q-36 0 -68 51q-22 35 -22 63z" />
<glyph unicode="&#xca;" d="M60 102q0 42 6.5 64t19.5 30.5t37 8.5h97v777h-97q-24 0 -37 8t-19.5 30t-6.5 64t6.5 64t19.5 30.5t37 8.5h912q35 0 50 -15t15 -50v-302q0 -34 -29 -48.5t-93 -14.5q-62 0 -85 14t-23 49v152h-400v-253h244q35 0 49 -23t14 -85t-14 -84.5t-49 -22.5h-244v-289h410v202 q0 34 29.5 48.5t96.5 14.5q66 0 90 -14t24 -49v-352q0 -34 -15 -49.5t-50 -15.5h-932q-24 0 -37 8t-19.5 30t-6.5 64zM286 1390q0 23 22 42l265 225q14 12 29.5 17.5t41.5 5.5t41.5 -5.5t29.5 -17.5l265 -225q22 -19 22 -42q0 -25 -25 -60q-30 -43 -60 -43q-16 0 -33 11 l-240 138l-240 -138q-17 -11 -33 -11q-30 0 -60 43q-25 35 -25 60z" />
<glyph unicode="&#xcb;" d="M60 102q0 42 6.5 64t19.5 30.5t37 8.5h97v777h-97q-24 0 -37 8t-19.5 30t-6.5 64t6.5 64t19.5 30.5t37 8.5h912q35 0 50 -15t15 -50v-302q0 -34 -29 -48.5t-93 -14.5q-62 0 -85 14t-23 49v152h-400v-253h244q35 0 49 -23t14 -85t-14 -84.5t-49 -22.5h-244v-289h410v202 q0 34 29.5 48.5t96.5 14.5q66 0 90 -14t24 -49v-352q0 -34 -15 -49.5t-50 -15.5h-932q-24 0 -37 8t-19.5 30t-6.5 64zM299 1406v164q0 35 26 49t96 14q71 0 99.5 -14.5t28.5 -48.5v-164q0 -34 -26.5 -48.5t-96.5 -14.5t-98.5 14.5t-28.5 48.5zM739 1406v164q0 35 26 49 t96 14q71 0 99.5 -14.5t28.5 -48.5v-164q0 -34 -26.5 -48.5t-96.5 -14.5t-98.5 14.5t-28.5 48.5z" />
<glyph unicode="&#xcc;" d="M170 102q0 42 6.5 64t19.5 30.5t37 8.5h256v777h-236q-24 0 -37 8t-19.5 30t-6.5 64t6.5 64t19.5 30.5t37 8.5h722q24 0 37 -8.5t19.5 -30.5t6.5 -64t-6.5 -64t-19.5 -30t-37 -8h-236v-777h256q24 0 37 -8.5t19.5 -30.5t6.5 -64t-6.5 -64t-19.5 -30t-37 -8h-762 q-24 0 -37 8t-19.5 30t-6.5 64zM276 1546q0 39 40 93q57 75 103 75q17 0 33 -11l347 -255q21 -15 21 -43t-22 -63q-32 -51 -68 -51q-12 0 -23 6l-407 205q-24 12 -24 44z" />
<glyph unicode="&#xcd;" d="M170 102q0 42 6.5 64t19.5 30.5t37 8.5h256v777h-236q-24 0 -37 8t-19.5 30t-6.5 64t6.5 64t19.5 30.5t37 8.5h722q24 0 37 -8.5t19.5 -30.5t6.5 -64t-6.5 -64t-19.5 -30t-37 -8h-236v-777h256q24 0 37 -8.5t19.5 -30.5t6.5 -64t-6.5 -64t-19.5 -30t-37 -8h-762 q-24 0 -37 8t-19.5 30t-6.5 64zM408 1405q0 28 21 43l347 255q16 11 33 11q46 0 103 -75q40 -54 40 -93q0 -32 -24 -44l-407 -205q-10 -6 -23 -6q-36 0 -68 51q-22 35 -22 63z" />
<glyph unicode="&#xce;" d="M170 102q0 42 6.5 64t19.5 30.5t37 8.5h256v777h-236q-24 0 -37 8t-19.5 30t-6.5 64t6.5 64t19.5 30.5t37 8.5h722q24 0 37 -8.5t19.5 -30.5t6.5 -64t-6.5 -64t-19.5 -30t-37 -8h-236v-777h256q24 0 37 -8.5t19.5 -30.5t6.5 -64t-6.5 -64t-19.5 -30t-37 -8h-762 q-24 0 -37 8t-19.5 30t-6.5 64zM256 1390q0 23 22 42l265 225q14 12 29.5 17.5t41.5 5.5t41.5 -5.5t29.5 -17.5l265 -225q22 -19 22 -42q0 -25 -25 -60q-30 -43 -60 -43q-16 0 -33 11l-240 138l-240 -138q-17 -11 -33 -11q-30 0 -60 43q-25 35 -25 60z" />
<glyph unicode="&#xcf;" d="M170 102q0 42 6.5 64t19.5 30.5t37 8.5h256v777h-236q-24 0 -37 8t-19.5 30t-6.5 64t6.5 64t19.5 30.5t37 8.5h722q24 0 37 -8.5t19.5 -30.5t6.5 -64t-6.5 -64t-19.5 -30t-37 -8h-236v-777h256q24 0 37 -8.5t19.5 -30.5t6.5 -64t-6.5 -64t-19.5 -30t-37 -8h-762 q-24 0 -37 8t-19.5 30t-6.5 64zM269 1406v164q0 35 26 49t96 14q71 0 99.5 -14.5t28.5 -48.5v-164q0 -34 -26.5 -48.5t-96.5 -14.5t-98.5 14.5t-28.5 48.5zM709 1406v164q0 35 26 49t96 14q71 0 99.5 -14.5t28.5 -48.5v-164q0 -34 -26.5 -48.5t-96.5 -14.5t-98.5 14.5 t-28.5 48.5z" />
<glyph unicode="&#xd0;" d="M40 606q0 47 6.5 71t19.5 33t37 9h117v263h-97q-24 0 -37 8t-19.5 30t-6.5 64t6.5 64t19.5 30.5t37 8.5h471q175 0 301 -69t193 -202.5t67 -321.5t-67 -321.5t-193 -203t-301 -69.5h-471q-24 0 -37 8t-19.5 30t-6.5 64t6.5 64t19.5 30.5t37 8.5h97v289h-117 q-24 0 -37 8.5t-19.5 32.5t-6.5 71zM470 215h104q155 0 234 96.5t79 282.5t-79 282t-234 96h-104v-253h135q24 0 37 -9t19.5 -33t6.5 -71t-6.5 -71t-19.5 -32.5t-37 -8.5h-135v-279z" />
<glyph unicode="&#xd1;" d="M50 102q0 42 6.5 64t19.5 30.5t37 8.5h67v777h-67q-24 0 -37 8t-19.5 30t-6.5 64t6.5 64t19.5 30.5t37 8.5h264q40 0 56 -27l415 -687h4v509h-92q-24 0 -37 8t-19.5 30t-6.5 64t6.5 64t19.5 30.5t37 8.5h375q24 0 37 -8.5t19.5 -30.5t6.5 -64t-6.5 -64t-19.5 -30t-37 -8 h-57v-938q0 -33 -25 -49.5t-85 -16.5q-46 0 -68.5 12.5t-39.5 40.5l-450 745h-4v-571h111q24 0 37 -8.5t19.5 -30.5t6.5 -64t-6.5 -64t-19.5 -30t-37 -8h-404q-24 0 -37 8t-19.5 30t-6.5 64zM227 1446q0 20 10 34q51 76 115 118.5t133 42.5q40 0 73 -12t77 -34 q36 -18 58.5 -26.5t46.5 -8.5q61 0 129 72q14 14 30 14q29 0 66 -40q36 -40 36 -76q0 -20 -10 -34q-51 -76 -115 -118.5t-133 -42.5q-40 0 -73 12t-77 34q-36 18 -58.5 26.5t-46.5 8.5q-61 0 -129 -72q-14 -14 -30 -14q-29 0 -66 40q-36 40 -36 76z" />
<glyph unicode="&#xd2;" d="M63 594q0 187 68.5 326.5t193.5 214t289 74.5t289 -74.5t193.5 -214t68.5 -326.5t-68.5 -326.5t-193.5 -214.5t-289 -75t-289 75t-193.5 214.5t-68.5 326.5zM298 1546q0 39 40 93q57 75 103 75q17 0 33 -11l347 -255q21 -15 21 -43t-22 -63q-32 -51 -68 -51q-12 0 -23 6 l-407 205q-24 12 -24 44zM331 594q0 -188 72 -288.5t211 -100.5t211 100.5t72 288.5t-72 288t-211 100t-211 -100t-72 -288z" />
<glyph unicode="&#xd3;" d="M63 594q0 187 68.5 326.5t193.5 214t289 74.5t289 -74.5t193.5 -214t68.5 -326.5t-68.5 -326.5t-193.5 -214.5t-289 -75t-289 75t-193.5 214.5t-68.5 326.5zM331 594q0 -188 72 -288.5t211 -100.5t211 100.5t72 288.5t-72 288t-211 100t-211 -100t-72 -288zM386 1405 q0 28 21 43l347 255q16 11 33 11q46 0 103 -75q40 -54 40 -93q0 -32 -24 -44l-407 -205q-10 -6 -23 -6q-36 0 -68 51q-22 35 -22 63z" />
<glyph unicode="&#xd4;" d="M63 594q0 187 68.5 326.5t193.5 214t289 74.5t289 -74.5t193.5 -214t68.5 -326.5t-68.5 -326.5t-193.5 -214.5t-289 -75t-289 75t-193.5 214.5t-68.5 326.5zM256 1390q0 23 22 42l265 225q14 12 29.5 17.5t41.5 5.5t41.5 -5.5t29.5 -17.5l265 -225q22 -19 22 -42 q0 -25 -25 -60q-30 -43 -60 -43q-16 0 -33 11l-240 138l-240 -138q-17 -11 -33 -11q-30 0 -60 43q-25 35 -25 60zM331 594q0 -188 72 -288.5t211 -100.5t211 100.5t72 288.5t-72 288t-211 100t-211 -100t-72 -288z" />
<glyph unicode="&#xd5;" d="M63 594q0 187 68.5 326.5t193.5 214t289 74.5t289 -74.5t193.5 -214t68.5 -326.5t-68.5 -326.5t-193.5 -214.5t-289 -75t-289 75t-193.5 214.5t-68.5 326.5zM227 1446q0 20 10 34q51 76 115 118.5t133 42.5q40 0 73 -12t77 -34q36 -18 58.5 -26.5t46.5 -8.5q61 0 129 72 q14 14 30 14q29 0 66 -40q36 -40 36 -76q0 -20 -10 -34q-51 -76 -115 -118.5t-133 -42.5q-40 0 -73 12t-77 34q-36 18 -58.5 26.5t-46.5 8.5q-61 0 -129 -72q-14 -14 -30 -14q-29 0 -66 40q-36 40 -36 76zM331 594q0 -188 72 -288.5t211 -100.5t211 100.5t72 288.5t-72 288 t-211 100t-211 -100t-72 -288z" />
<glyph unicode="&#xd6;" d="M63 594q0 187 68.5 326.5t193.5 214t289 74.5t289 -74.5t193.5 -214t68.5 -326.5t-68.5 -326.5t-193.5 -214.5t-289 -75t-289 75t-193.5 214.5t-68.5 326.5zM269 1406v164q0 35 26 49t96 14q71 0 99.5 -14.5t28.5 -48.5v-164q0 -34 -26.5 -48.5t-96.5 -14.5t-98.5 14.5 t-28.5 48.5zM331 594q0 -188 72 -288.5t211 -100.5t211 100.5t72 288.5t-72 288t-211 100t-211 -100t-72 -288zM709 1406v164q0 35 26 49t96 14q71 0 99.5 -14.5t28.5 -48.5v-164q0 -34 -26.5 -48.5t-96.5 -14.5t-98.5 14.5t-28.5 48.5z" />
<glyph unicode="&#xd7;" d="M214 323q0 18 21 39l220 220l-220 220q-20 20 -20 39q0 16 12.5 35.5t42.5 49.5t50 43t35 13q18 0 39 -21l220 -220l220 220q21 21 39 21q15 0 35 -13t50 -43t42.5 -49.5t12.5 -35.5q0 -19 -20 -39l-220 -220l220 -220q21 -21 21 -39q0 -15 -13 -35t-43 -50t-49.5 -42.5 t-35.5 -12.5q-19 0 -39 20l-220 220l-220 -220q-20 -20 -39 -20q-16 0 -35.5 12.5t-49.5 42.5t-43 50t-13 35z" />
<glyph unicode="&#xd8;" d="M63 594q0 187 68.5 326.5t193.5 214t289 74.5q151 0 272 -65l75 106q20 29 43 29t69 -31q29 -20 42 -36t13 -32t-15 -37l-83 -118q66 -81 100.5 -190t34.5 -241q0 -187 -68.5 -326.5t-193.5 -214.5t-289 -75q-151 0 -272 65l-74 -106q-20 -29 -44 -29t-68 31 q-29 20 -42.5 36t-13.5 32q0 15 15 37l83 119q-65 80 -100 189t-35 242zM331 594q0 -115 28 -202l391 557q-57 33 -136 33q-139 0 -211 -100t-72 -288zM478 237q58 -32 136 -32q139 0 211 100.5t72 288.5q0 118 -28 201z" />
<glyph unicode="&#xd9;" d="M50 1084q0 42 6.5 64t19.5 30.5t37 8.5h374q24 0 37 -8.5t19.5 -30.5t6.5 -64t-6.5 -64t-19.5 -30t-37 -8h-77v-549q0 -115 55 -171.5t149 -56.5t149 56.5t55 171.5v549h-77q-24 0 -37 8t-19.5 30t-6.5 64t6.5 64t19.5 30.5t37 8.5h374q24 0 37 -8.5t19.5 -30.5t6.5 -64 t-6.5 -64t-19.5 -30t-37 -8h-47v-569q0 -138 -55 -236t-157 -148.5t-242 -50.5t-242 50.5t-157 148.5t-55 236v569h-47q-24 0 -37 8t-19.5 30t-6.5 64zM276 1546q0 39 40 93q57 75 103 75q17 0 33 -11l347 -255q21 -15 21 -43t-22 -63q-32 -51 -68 -51q-12 0 -23 6l-407 205 q-24 12 -24 44z" />
<glyph unicode="&#xda;" d="M50 1084q0 42 6.5 64t19.5 30.5t37 8.5h374q24 0 37 -8.5t19.5 -30.5t6.5 -64t-6.5 -64t-19.5 -30t-37 -8h-77v-549q0 -115 55 -171.5t149 -56.5t149 56.5t55 171.5v549h-77q-24 0 -37 8t-19.5 30t-6.5 64t6.5 64t19.5 30.5t37 8.5h374q24 0 37 -8.5t19.5 -30.5t6.5 -64 t-6.5 -64t-19.5 -30t-37 -8h-47v-569q0 -138 -55 -236t-157 -148.5t-242 -50.5t-242 50.5t-157 148.5t-55 236v569h-47q-24 0 -37 8t-19.5 30t-6.5 64zM408 1405q0 28 21 43l347 255q16 11 33 11q46 0 103 -75q40 -54 40 -93q0 -32 -24 -44l-407 -205q-10 -6 -23 -6 q-36 0 -68 51q-22 35 -22 63z" />
<glyph unicode="&#xdb;" d="M50 1084q0 42 6.5 64t19.5 30.5t37 8.5h374q24 0 37 -8.5t19.5 -30.5t6.5 -64t-6.5 -64t-19.5 -30t-37 -8h-77v-549q0 -115 55 -171.5t149 -56.5t149 56.5t55 171.5v549h-77q-24 0 -37 8t-19.5 30t-6.5 64t6.5 64t19.5 30.5t37 8.5h374q24 0 37 -8.5t19.5 -30.5t6.5 -64 t-6.5 -64t-19.5 -30t-37 -8h-47v-569q0 -138 -55 -236t-157 -148.5t-242 -50.5t-242 50.5t-157 148.5t-55 236v569h-47q-24 0 -37 8t-19.5 30t-6.5 64zM256 1390q0 23 22 42l265 225q14 12 29.5 17.5t41.5 5.5t41.5 -5.5t29.5 -17.5l265 -225q22 -19 22 -42q0 -25 -25 -60 q-30 -43 -60 -43q-16 0 -33 11l-240 138l-240 -138q-17 -11 -33 -11q-30 0 -60 43q-25 35 -25 60z" />
<glyph unicode="&#xdc;" d="M50 1084q0 42 6.5 64t19.5 30.5t37 8.5h374q24 0 37 -8.5t19.5 -30.5t6.5 -64t-6.5 -64t-19.5 -30t-37 -8h-77v-549q0 -115 55 -171.5t149 -56.5t149 56.5t55 171.5v549h-77q-24 0 -37 8t-19.5 30t-6.5 64t6.5 64t19.5 30.5t37 8.5h374q24 0 37 -8.5t19.5 -30.5t6.5 -64 t-6.5 -64t-19.5 -30t-37 -8h-47v-569q0 -138 -55 -236t-157 -148.5t-242 -50.5t-242 50.5t-157 148.5t-55 236v569h-47q-24 0 -37 8t-19.5 30t-6.5 64zM269 1406v164q0 35 26 49t96 14q71 0 99.5 -14.5t28.5 -48.5v-164q0 -34 -26.5 -48.5t-96.5 -14.5t-98.5 14.5 t-28.5 48.5zM709 1406v164q0 35 26 49t96 14q71 0 99.5 -14.5t28.5 -48.5v-164q0 -34 -26.5 -48.5t-96.5 -14.5t-98.5 14.5t-28.5 48.5z" />
<glyph unicode="&#xdd;" d="M40 1084q0 42 6.5 64t19.5 30.5t37 8.5h394q24 0 37 -8.5t19.5 -30.5t6.5 -64t-6.5 -64t-19.5 -30t-37 -8h-67l186 -292l188 292h-53q-24 0 -37 8t-19.5 30t-6.5 64t6.5 64t19.5 30.5t37 8.5h374q24 0 37 -8.5t19.5 -30.5t6.5 -64t-6.5 -64t-19.5 -30t-37 -8h-44 l-342 -523v-254h196q24 0 37 -8.5t19.5 -30.5t6.5 -64t-6.5 -64t-19.5 -30t-37 -8h-642q-24 0 -37 8t-19.5 30t-6.5 64t6.5 64t19.5 30.5t37 8.5h196v255l-340 522h-46q-24 0 -37 8t-19.5 30t-6.5 64zM408 1405q0 28 21 43l347 255q16 11 33 11q46 0 103 -75q40 -54 40 -93 q0 -32 -24 -44l-407 -205q-10 -6 -23 -6q-36 0 -68 51q-22 35 -22 63z" />
<glyph unicode="&#xde;" d="M120 102q0 42 6.5 64t19.5 30.5t37 8.5h147v777h-147q-24 0 -37 8t-19.5 30t-6.5 64t6.5 64t19.5 30.5t37 8.5h584q24 0 37 -8.5t19.5 -30.5t6.5 -64t-6.5 -64t-19.5 -30t-37 -8h-187v-96h140q183 0 275 -76.5t92 -215.5t-92 -216t-275 -77h-140v-96h187q24 0 37 -8.5 t19.5 -30.5t6.5 -64t-6.5 -64t-19.5 -30t-37 -8h-584q-24 0 -37 8t-19.5 30t-6.5 64zM580 496h109q73 0 106.5 23t33.5 75q0 51 -33.5 74t-106.5 23h-109v-195z" />
<glyph unicode="&#xdf;" d="M22 102q0 42 6.5 64t19.5 30.5t37 8.5h123v672q0 134 49 233t142 153t224 54q129 0 221 -47t139.5 -131t47.5 -193q0 -94 -38.5 -159.5t-117.5 -108.5q103 -39 159 -118.5t56 -192.5q0 -127 -54.5 -214.5t-153.5 -131t-233 -43.5q-40 0 -58.5 25.5t-18.5 87.5 q0 65 12 89.5t45 24.5q193 0 193 182q0 78 -47.5 120t-132.5 42q-34 0 -48.5 24.5t-14.5 87.5q0 62 14 86t49 27q141 14 141 162q0 69 -39.5 111.5t-118.5 42.5q-81 0 -124 -55t-43 -161v-811q0 -34 -14.5 -48.5t-48.5 -14.5h-310q-24 0 -37 8t-19.5 30t-6.5 64z" />
<glyph unicode="&#xe0;" d="M110 295q0 140 99 217t277 77q133 0 283 -30v29q0 67 -42 99t-148 32q-59 0 -131.5 -14.5t-143.5 -38.5q-17 -5 -29 -5q-25 0 -44.5 18.5t-35.5 62.5q-15 44 -15 72q0 51 46 68q89 32 189 48t188 16q220 0 318 -95t98 -272v-289q0 -40 17 -62.5t49 -22.5h31q24 0 37 -8.5 t19.5 -30.5t6.5 -64t-6.5 -64t-19.5 -30t-37 -8h-112q-62 0 -109.5 25.5t-72.5 80.5q-79 -61 -167 -94.5t-181 -33.5q-113 0 -195 38.5t-125.5 110t-43.5 168.5zM338 1276q0 39 40 93q57 75 103 75q17 0 33 -11l347 -255q21 -15 21 -43t-22 -63q-32 -51 -68 -51q-12 0 -23 6 l-407 205q-24 12 -24 44zM368 285q0 -47 35.5 -71.5t102.5 -24.5q69 0 136.5 27.5t126.5 75.5v64q-132 27 -258 27q-70 0 -106.5 -25t-36.5 -73z" />
<glyph unicode="&#xe1;" d="M110 295q0 140 99 217t277 77q133 0 283 -30v29q0 67 -42 99t-148 32q-59 0 -131.5 -14.5t-143.5 -38.5q-17 -5 -29 -5q-25 0 -44.5 18.5t-35.5 62.5q-15 44 -15 72q0 51 46 68q89 32 189 48t188 16q220 0 318 -95t98 -272v-289q0 -40 17 -62.5t49 -22.5h31q24 0 37 -8.5 t19.5 -30.5t6.5 -64t-6.5 -64t-19.5 -30t-37 -8h-112q-62 0 -109.5 25.5t-72.5 80.5q-79 -61 -167 -94.5t-181 -33.5q-113 0 -195 38.5t-125.5 110t-43.5 168.5zM346 1135q0 28 21 43l347 255q16 11 33 11q46 0 103 -75q40 -54 40 -93q0 -32 -24 -44l-407 -205 q-10 -6 -23 -6q-36 0 -68 51q-22 35 -22 63zM368 285q0 -47 35.5 -71.5t102.5 -24.5q69 0 136.5 27.5t126.5 75.5v64q-132 27 -258 27q-70 0 -106.5 -25t-36.5 -73z" />
<glyph unicode="&#xe2;" d="M110 295q0 140 99 217t277 77q133 0 283 -30v29q0 67 -42 99t-148 32q-59 0 -131.5 -14.5t-143.5 -38.5q-17 -5 -29 -5q-25 0 -44.5 18.5t-35.5 62.5q-15 44 -15 72q0 51 46 68q89 32 189 48t188 16q220 0 318 -95t98 -272v-289q0 -40 17 -62.5t49 -22.5h31q24 0 37 -8.5 t19.5 -30.5t6.5 -64t-6.5 -64t-19.5 -30t-37 -8h-112q-62 0 -109.5 25.5t-72.5 80.5q-79 -61 -167 -94.5t-181 -33.5q-113 0 -195 38.5t-125.5 110t-43.5 168.5zM256 1120q0 23 22 42l265 225q14 12 29.5 17.5t41.5 5.5t41.5 -5.5t29.5 -17.5l265 -225q22 -19 22 -42 q0 -25 -25 -60q-30 -43 -60 -43q-16 0 -33 11l-240 138l-240 -138q-17 -11 -33 -11q-30 0 -60 43q-25 35 -25 60zM368 285q0 -47 35.5 -71.5t102.5 -24.5q69 0 136.5 27.5t126.5 75.5v64q-132 27 -258 27q-70 0 -106.5 -25t-36.5 -73z" />
<glyph unicode="&#xe3;" d="M110 295q0 140 99 217t277 77q133 0 283 -30v29q0 67 -42 99t-148 32q-59 0 -131.5 -14.5t-143.5 -38.5q-17 -5 -29 -5q-25 0 -44.5 18.5t-35.5 62.5q-15 44 -15 72q0 51 46 68q89 32 189 48t188 16q220 0 318 -95t98 -272v-289q0 -40 17 -62.5t49 -22.5h31q24 0 37 -8.5 t19.5 -30.5t6.5 -64t-6.5 -64t-19.5 -30t-37 -8h-112q-62 0 -109.5 25.5t-72.5 80.5q-79 -61 -167 -94.5t-181 -33.5q-113 0 -195 38.5t-125.5 110t-43.5 168.5zM227 1176q0 20 10 34q51 76 115 118.5t133 42.5q40 0 73 -12t77 -34q36 -18 58.5 -26.5t46.5 -8.5q61 0 129 72 q14 14 30 14q29 0 66 -40q36 -40 36 -76q0 -20 -10 -34q-51 -76 -115 -118.5t-133 -42.5q-40 0 -73 12t-77 34q-36 18 -58.5 26.5t-46.5 8.5q-61 0 -129 -72q-14 -14 -30 -14q-29 0 -66 40q-36 40 -36 76zM368 285q0 -47 35.5 -71.5t102.5 -24.5q69 0 136.5 27.5t126.5 75.5 v64q-132 27 -258 27q-70 0 -106.5 -25t-36.5 -73z" />
<glyph unicode="&#xe4;" d="M110 295q0 140 99 217t277 77q133 0 283 -30v29q0 67 -42 99t-148 32q-59 0 -131.5 -14.5t-143.5 -38.5q-17 -5 -29 -5q-25 0 -44.5 18.5t-35.5 62.5q-15 44 -15 72q0 51 46 68q89 32 189 48t188 16q220 0 318 -95t98 -272v-289q0 -40 17 -62.5t49 -22.5h31q24 0 37 -8.5 t19.5 -30.5t6.5 -64t-6.5 -64t-19.5 -30t-37 -8h-112q-62 0 -109.5 25.5t-72.5 80.5q-79 -61 -167 -94.5t-181 -33.5q-113 0 -195 38.5t-125.5 110t-43.5 168.5zM269 1136v164q0 35 26 49t96 14q71 0 99.5 -14.5t28.5 -48.5v-164q0 -34 -26.5 -48.5t-96.5 -14.5t-98.5 14.5 t-28.5 48.5zM368 285q0 -47 35.5 -71.5t102.5 -24.5q69 0 136.5 27.5t126.5 75.5v64q-132 27 -258 27q-70 0 -106.5 -25t-36.5 -73zM709 1136v164q0 35 26 49t96 14q71 0 99.5 -14.5t28.5 -48.5v-164q0 -34 -26.5 -48.5t-96.5 -14.5t-98.5 14.5t-28.5 48.5z" />
<glyph unicode="&#xe5;" d="M110 295q0 140 99 217t277 77q133 0 283 -30v29q0 67 -42 99t-148 32q-59 0 -131.5 -14.5t-143.5 -38.5q-17 -5 -29 -5q-25 0 -44.5 18.5t-35.5 62.5q-15 44 -15 72q0 51 46 68q89 32 189 48t188 16q220 0 318 -95t98 -272v-289q0 -40 17 -62.5t49 -22.5h31q24 0 37 -8.5 t19.5 -30.5t6.5 -64t-6.5 -64t-19.5 -30t-37 -8h-112q-62 0 -109.5 25.5t-72.5 80.5q-79 -61 -167 -94.5t-181 -33.5q-113 0 -195 38.5t-125.5 110t-43.5 168.5zM359 1306q0 74 34 134t94 94t134 34t134 -34t94 -94t34 -134t-34 -134t-94 -94t-134 -34t-134 34t-94 94 t-34 134zM368 285q0 -47 35.5 -71.5t102.5 -24.5q69 0 136.5 27.5t126.5 75.5v64q-132 27 -258 27q-70 0 -106.5 -25t-36.5 -73zM529 1306q0 -42 25 -67t67 -25t67 25t25 67t-25 67t-67 25t-67 -25t-25 -67z" />
<glyph unicode="&#xe6;" d="M32 275q0 163 109.5 237.5t277.5 74.5q40 0 90 -5v6q0 64 -36 97.5t-108 33.5q-43 0 -85 -13.5t-91 -38.5q-16 -8 -30 -8q-44 0 -81 79q-18 39 -18 68q0 42 36 62q65 38 141.5 58t155.5 20q160 0 241 -94q83 94 224 94q130 0 203.5 -64t102.5 -176.5t29 -273.5 q0 -34 -14.5 -48t-48.5 -14h-406q21 -165 134 -165q55 0 105 11.5t113 38.5q15 6 28 6q24 0 41 -21t31 -61t14 -65q0 -46 -45 -65q-164 -71 -302 -71q-157 0 -240 124q-94 -124 -268 -124q-90 0 -158.5 35.5t-106.5 102.5t-38 159zM260 285q0 -45 25 -70.5t73 -25.5 q70 0 110.5 47.5t40.5 121.5v32q-50 2 -71 2q-88 0 -133 -23t-45 -84zM724 565h244q-5 74 -32.5 114t-77.5 40q-60 0 -91.5 -37.5t-42.5 -116.5z" />
<glyph unicode="&#xe7;" d="M127 462q0 140 63 250.5t171.5 172t242.5 61.5q162 0 229 -117v54q0 34 29 48.5t93 14.5q62 0 85 -14t23 -49v-321q0 -34 -30.5 -48.5t-101.5 -14.5q-47 0 -72.5 6.5t-35.5 19.5t-10 37q0 42 -20.5 78t-61 57.5t-97.5 21.5q-72 0 -126 -31.5t-83.5 -90t-29.5 -135.5 t29.5 -135.5t83.5 -90t126 -31.5q77 0 157.5 25t156.5 69q18 10 33 10q45 0 79 -79q18 -43 18 -73q0 -45 -43 -69q-79 -44 -166 -72t-175 -35v-64q107 0 161.5 -52.5t54.5 -137.5q0 -96 -71.5 -147.5t-207.5 -51.5q-147 0 -256 42q-24 10 -24 39q0 19 10 45q24 64 54 64 q4 0 12 -2q82 -29 161 -29q49 0 72.5 12.5t23.5 38.5t-24 36.5t-67 10.5l-23 -1q-8 -1 -24 -1q-37 0 -37 41v166q-117 24 -203 90t-132.5 164.5t-46.5 217.5z" />
<glyph unicode="&#xe8;" d="M131 462q0 140 60 250t173 172t264 62q152 0 259 -65.5t161.5 -182t54.5 -266.5q0 -34 -14.5 -48t-48.5 -14h-642q19 -80 81.5 -122.5t158.5 -42.5q155 0 336 55q12 4 24 4q22 0 38 -20t29 -68q10 -37 10 -63t-11.5 -40.5t-37.5 -23.5q-100 -33 -204 -52t-204 -19 q-152 0 -262 62t-167.5 171.5t-57.5 250.5zM328 1276q0 39 40 93q57 75 103 75q17 0 33 -11l347 -255q21 -15 21 -43t-22 -63q-32 -51 -68 -51q-12 0 -23 6l-407 205q-24 12 -24 44zM402 565h440q-17 73 -72.5 113.5t-141.5 40.5q-183 0 -226 -154z" />
<glyph unicode="&#xe9;" d="M131 462q0 140 60 250t173 172t264 62q152 0 259 -65.5t161.5 -182t54.5 -266.5q0 -34 -14.5 -48t-48.5 -14h-642q19 -80 81.5 -122.5t158.5 -42.5q155 0 336 55q12 4 24 4q22 0 38 -20t29 -68q10 -37 10 -63t-11.5 -40.5t-37.5 -23.5q-100 -33 -204 -52t-204 -19 q-152 0 -262 62t-167.5 171.5t-57.5 250.5zM376 1135q0 28 21 43l347 255q16 11 33 11q46 0 103 -75q40 -54 40 -93q0 -32 -24 -44l-407 -205q-10 -6 -23 -6q-36 0 -68 51q-22 35 -22 63zM402 565h440q-17 73 -72.5 113.5t-141.5 40.5q-183 0 -226 -154z" />
<glyph unicode="&#xea;" d="M131 462q0 140 60 250t173 172t264 62q152 0 259 -65.5t161.5 -182t54.5 -266.5q0 -34 -14.5 -48t-48.5 -14h-642q19 -80 81.5 -122.5t158.5 -42.5q155 0 336 55q12 4 24 4q22 0 38 -20t29 -68q10 -37 10 -63t-11.5 -40.5t-37.5 -23.5q-100 -33 -204 -52t-204 -19 q-152 0 -262 62t-167.5 171.5t-57.5 250.5zM266 1120q0 23 22 42l265 225q14 12 29.5 17.5t41.5 5.5t41.5 -5.5t29.5 -17.5l265 -225q22 -19 22 -42q0 -25 -25 -60q-30 -43 -60 -43q-16 0 -33 11l-240 138l-240 -138q-17 -11 -33 -11q-30 0 -60 43q-25 35 -25 60zM402 565 h440q-17 73 -72.5 113.5t-141.5 40.5q-183 0 -226 -154z" />
<glyph unicode="&#xeb;" d="M131 462q0 140 60 250t173 172t264 62q152 0 259 -65.5t161.5 -182t54.5 -266.5q0 -34 -14.5 -48t-48.5 -14h-642q19 -80 81.5 -122.5t158.5 -42.5q155 0 336 55q12 4 24 4q22 0 38 -20t29 -68q10 -37 10 -63t-11.5 -40.5t-37.5 -23.5q-100 -33 -204 -52t-204 -19 q-152 0 -262 62t-167.5 171.5t-57.5 250.5zM269 1136v164q0 35 26 49t96 14q71 0 99.5 -14.5t28.5 -48.5v-164q0 -34 -26.5 -48.5t-96.5 -14.5t-98.5 14.5t-28.5 48.5zM402 565h440q-17 73 -72.5 113.5t-141.5 40.5q-183 0 -226 -154zM709 1136v164q0 35 26 49t96 14 q71 0 99.5 -14.5t28.5 -48.5v-164q0 -34 -26.5 -48.5t-96.5 -14.5t-98.5 14.5t-28.5 48.5z" />
<glyph unicode="&#xec;" d="M167 102q0 42 6.5 64t19.5 30.5t37 8.5h273v514h-213q-24 0 -37 8t-19.5 30t-6.5 64t6.5 64t19.5 30.5t37 8.5h400q34 0 48.5 -14.5t14.5 -48.5v-656h281q24 0 37 -8.5t19.5 -30.5t6.5 -64t-6.5 -64t-19.5 -30t-37 -8h-804q-24 0 -37 8t-19.5 30t-6.5 64zM238 1276 q0 39 40 93q57 75 103 75q17 0 33 -11l347 -255q21 -15 21 -43t-22 -63q-32 -51 -68 -51q-12 0 -23 6l-407 205q-24 12 -24 44z" />
<glyph unicode="&#xed;" d="M167 102q0 42 6.5 64t19.5 30.5t37 8.5h273v514h-213q-24 0 -37 8t-19.5 30t-6.5 64t6.5 64t19.5 30.5t37 8.5h400q34 0 48.5 -14.5t14.5 -48.5v-656h281q24 0 37 -8.5t19.5 -30.5t6.5 -64t-6.5 -64t-19.5 -30t-37 -8h-804q-24 0 -37 8t-19.5 30t-6.5 64zM346 1135 q0 28 21 43l347 255q16 11 33 11q46 0 103 -75q40 -54 40 -93q0 -32 -24 -44l-407 -205q-10 -6 -23 -6q-36 0 -68 51q-22 35 -22 63z" />
<glyph unicode="&#xee;" d="M167 102q0 42 6.5 64t19.5 30.5t37 8.5h273v514h-213q-24 0 -37 8t-19.5 30t-6.5 64t6.5 64t19.5 30.5t37 8.5h400q34 0 48.5 -14.5t14.5 -48.5v-656h281q24 0 37 -8.5t19.5 -30.5t6.5 -64t-6.5 -64t-19.5 -30t-37 -8h-804q-24 0 -37 8t-19.5 30t-6.5 64zM256 1120 q0 23 22 42l265 225q14 12 29.5 17.5t41.5 5.5t41.5 -5.5t29.5 -17.5l265 -225q22 -19 22 -42q0 -25 -25 -60q-30 -43 -60 -43q-16 0 -33 11l-240 138l-240 -138q-17 -11 -33 -11q-30 0 -60 43q-25 35 -25 60z" />
<glyph unicode="&#xef;" d="M167 102q0 42 6.5 64t19.5 30.5t37 8.5h273v514h-213q-24 0 -37 8t-19.5 30t-6.5 64t6.5 64t19.5 30.5t37 8.5h400q34 0 48.5 -14.5t14.5 -48.5v-656h281q24 0 37 -8.5t19.5 -30.5t6.5 -64t-6.5 -64t-19.5 -30t-37 -8h-804q-24 0 -37 8t-19.5 30t-6.5 64zM269 1136v164 q0 35 26 49t96 14q71 0 99.5 -14.5t28.5 -48.5v-164q0 -34 -26.5 -48.5t-96.5 -14.5t-98.5 14.5t-28.5 48.5zM709 1136v164q0 35 26 49t96 14q71 0 99.5 -14.5t28.5 -48.5v-164q0 -34 -26.5 -48.5t-96.5 -14.5t-98.5 14.5t-28.5 48.5z" />
<glyph unicode="&#xf0;" d="M122 422q0 129 57.5 230t162.5 157.5t242 56.5q107 0 190 -50q-59 90 -154 168l-153 -81q-20 -11 -34 -11q-17 0 -32 14.5t-33 48.5q-23 44 -23 66q0 15 8.5 26t26.5 20l65 35l-67 35q-31 16 -31 46q0 34 38 94q25 39 46 56t43 17q16 0 36 -10q97 -49 181 -108l150 80 q19 10 34 10q17 0 32 -14.5t33 -48.5q22 -43 22 -65q0 -15 -8.5 -26t-25.5 -20l-84 -45q130 -132 196 -294t66 -347q0 -148 -60.5 -257.5t-171.5 -168t-260 -58.5q-147 0 -258.5 56.5t-172.5 157.5t-61 230zM390 422q0 -101 61 -159t163 -58t163 58t61 159t-61 159t-163 58 t-163 -58t-61 -159z" />
<glyph unicode="&#xf1;" d="M57 821q0 42 6.5 64t19.5 30.5t37 8.5h244q34 0 48.5 -14.5t14.5 -48.5v-145q132 230 330 230q91 0 159.5 -40t105.5 -113.5t37 -172.5v-415h77q24 0 37 -8.5t19.5 -30.5t6.5 -64t-6.5 -64t-19.5 -30t-37 -8h-374q-24 0 -37 8t-19.5 30t-6.5 64t6.5 64t19.5 30.5t37 8.5 h47v356q0 78 -27 118t-90 40q-58 0 -110 -48.5t-83.5 -129.5t-31.5 -173v-163h47q24 0 37 -8.5t19.5 -30.5t6.5 -64t-6.5 -64t-19.5 -30t-37 -8h-374q-24 0 -37 8t-19.5 30t-6.5 64t6.5 64t19.5 30.5t37 8.5h77v514h-97q-24 0 -37 8t-19.5 30t-6.5 64zM227 1176q0 20 10 34 q51 76 115 118.5t133 42.5q40 0 73 -12t77 -34q36 -18 58.5 -26.5t46.5 -8.5q61 0 129 72q14 14 30 14q29 0 66 -40q36 -40 36 -76q0 -20 -10 -34q-51 -76 -115 -118.5t-133 -42.5q-40 0 -73 12t-77 34q-36 18 -58.5 26.5t-46.5 8.5q-61 0 -129 -72q-14 -14 -30 -14 q-29 0 -66 40q-36 40 -36 76z" />
<glyph unicode="&#xf2;" d="M111 462q0 140 61.5 250t175.5 172t266 62t266 -62t175.5 -172t61.5 -250t-61.5 -250t-175.5 -172t-266 -62t-266 62t-175.5 172t-61.5 250zM298 1276q0 39 40 93q57 75 103 75q17 0 33 -11l347 -255q21 -15 21 -43t-22 -63q-32 -51 -68 -51q-12 0 -23 6l-407 205 q-24 12 -24 44zM379 462q0 -78 28.5 -136t81.5 -89.5t125 -31.5t125 31.5t81.5 89.5t28.5 136t-28.5 136t-81.5 89.5t-125 31.5t-125 -31.5t-81.5 -89.5t-28.5 -136z" />
<glyph unicode="&#xf3;" d="M111 462q0 140 61.5 250t175.5 172t266 62t266 -62t175.5 -172t61.5 -250t-61.5 -250t-175.5 -172t-266 -62t-266 62t-175.5 172t-61.5 250zM379 462q0 -78 28.5 -136t81.5 -89.5t125 -31.5t125 31.5t81.5 89.5t28.5 136t-28.5 136t-81.5 89.5t-125 31.5t-125 -31.5 t-81.5 -89.5t-28.5 -136zM386 1135q0 28 21 43l347 255q16 11 33 11q46 0 103 -75q40 -54 40 -93q0 -32 -24 -44l-407 -205q-10 -6 -23 -6q-36 0 -68 51q-22 35 -22 63z" />
<glyph unicode="&#xf4;" d="M111 462q0 140 61.5 250t175.5 172t266 62t266 -62t175.5 -172t61.5 -250t-61.5 -250t-175.5 -172t-266 -62t-266 62t-175.5 172t-61.5 250zM256 1120q0 23 22 42l265 225q14 12 29.5 17.5t41.5 5.5t41.5 -5.5t29.5 -17.5l265 -225q22 -19 22 -42q0 -25 -25 -60 q-30 -43 -60 -43q-16 0 -33 11l-240 138l-240 -138q-17 -11 -33 -11q-30 0 -60 43q-25 35 -25 60zM379 462q0 -78 28.5 -136t81.5 -89.5t125 -31.5t125 31.5t81.5 89.5t28.5 136t-28.5 136t-81.5 89.5t-125 31.5t-125 -31.5t-81.5 -89.5t-28.5 -136z" />
<glyph unicode="&#xf5;" d="M111 462q0 140 61.5 250t175.5 172t266 62t266 -62t175.5 -172t61.5 -250t-61.5 -250t-175.5 -172t-266 -62t-266 62t-175.5 172t-61.5 250zM227 1176q0 20 10 34q51 76 115 118.5t133 42.5q40 0 73 -12t77 -34q36 -18 58.5 -26.5t46.5 -8.5q61 0 129 72q14 14 30 14 q29 0 66 -40q36 -40 36 -76q0 -20 -10 -34q-51 -76 -115 -118.5t-133 -42.5q-40 0 -73 12t-77 34q-36 18 -58.5 26.5t-46.5 8.5q-61 0 -129 -72q-14 -14 -30 -14q-29 0 -66 40q-36 40 -36 76zM379 462q0 -78 28.5 -136t81.5 -89.5t125 -31.5t125 31.5t81.5 89.5t28.5 136 t-28.5 136t-81.5 89.5t-125 31.5t-125 -31.5t-81.5 -89.5t-28.5 -136z" />
<glyph unicode="&#xf6;" d="M111 462q0 140 61.5 250t175.5 172t266 62t266 -62t175.5 -172t61.5 -250t-61.5 -250t-175.5 -172t-266 -62t-266 62t-175.5 172t-61.5 250zM269 1136v164q0 35 26 49t96 14q71 0 99.5 -14.5t28.5 -48.5v-164q0 -34 -26.5 -48.5t-96.5 -14.5t-98.5 14.5t-28.5 48.5z M379 462q0 -78 28.5 -136t81.5 -89.5t125 -31.5t125 31.5t81.5 89.5t28.5 136t-28.5 136t-81.5 89.5t-125 31.5t-125 -31.5t-81.5 -89.5t-28.5 -136zM709 1136v164q0 35 26 49t96 14q71 0 99.5 -14.5t28.5 -48.5v-164q0 -34 -26.5 -48.5t-96.5 -14.5t-98.5 14.5t-28.5 48.5z " />
<glyph unicode="&#xf7;" d="M170 582q0 47 6.5 71t19.5 33t37 9h762q24 0 37 -9t19.5 -33t6.5 -71t-6.5 -71t-19.5 -32.5t-37 -8.5h-762q-24 0 -37 8.5t-19.5 32.5t-6.5 71zM489 133v144q0 34 29.5 48.5t95.5 14.5t95.5 -14.5t29.5 -48.5v-144q0 -34 -29.5 -48.5t-95.5 -14.5t-95.5 14.5t-29.5 48.5z M489 888v144q0 34 29.5 48.5t95.5 14.5t95.5 -14.5t29.5 -48.5v-144q0 -34 -29.5 -48.5t-95.5 -14.5t-95.5 14.5t-29.5 48.5z" />
<glyph unicode="&#xf8;" d="M83 29q0 18 21 41l96 99q-89 123 -89 293q0 140 61.5 250t175.5 172t266 62q157 0 275 -67l101 104q21 23 42 23q26 0 69 -42q44 -43 44 -69q0 -18 -21 -41l-96 -99q89 -123 89 -293q0 -140 -61.5 -250t-175.5 -172t-266 -62q-157 0 -275 67l-101 -104q-21 -23 -42 -23 q-26 0 -69 42q-44 43 -44 69zM379 462q0 -55 13 -95l323 333q-47 19 -101 19q-72 0 -125 -31.5t-81.5 -89.5t-28.5 -136zM513 224q48 -19 101 -19q72 0 125 31.5t81.5 89.5t28.5 136q0 55 -13 95z" />
<glyph unicode="&#xf9;" d="M50 822q0 42 6.5 64t19.5 30t37 8h264q34 0 48.5 -14.5t14.5 -48.5v-498q0 -78 27 -118t90 -40q58 0 110 48.5t83.5 129.5t31.5 173v163h-107q-24 0 -37 8.5t-19.5 30.5t-6.5 64t6.5 64t19.5 30t37 8h294q34 0 48.5 -14.5t14.5 -48.5v-656h77q24 0 37 -8t19.5 -30 t6.5 -64t-6.5 -64t-19.5 -30.5t-37 -8.5h-224q-34 0 -48.5 14.5t-14.5 48.5v145q-132 -230 -330 -230q-91 0 -159.5 40t-105.5 113.5t-37 172.5v415h-77q-24 0 -37 8.5t-19.5 30.5t-6.5 64zM288 1276q0 39 40 93q57 75 103 75q17 0 33 -11l347 -255q21 -15 21 -43t-22 -63 q-32 -51 -68 -51q-12 0 -23 6l-407 205q-24 12 -24 44z" />
<glyph unicode="&#xfa;" d="M50 822q0 42 6.5 64t19.5 30t37 8h264q34 0 48.5 -14.5t14.5 -48.5v-498q0 -78 27 -118t90 -40q58 0 110 48.5t83.5 129.5t31.5 173v163h-107q-24 0 -37 8.5t-19.5 30.5t-6.5 64t6.5 64t19.5 30t37 8h294q34 0 48.5 -14.5t14.5 -48.5v-656h77q24 0 37 -8t19.5 -30 t6.5 -64t-6.5 -64t-19.5 -30.5t-37 -8.5h-224q-34 0 -48.5 14.5t-14.5 48.5v145q-132 -230 -330 -230q-91 0 -159.5 40t-105.5 113.5t-37 172.5v415h-77q-24 0 -37 8.5t-19.5 30.5t-6.5 64zM406 1135q0 28 21 43l347 255q16 11 33 11q46 0 103 -75q40 -54 40 -93 q0 -32 -24 -44l-407 -205q-10 -6 -23 -6q-36 0 -68 51q-22 35 -22 63z" />
<glyph unicode="&#xfb;" d="M50 822q0 42 6.5 64t19.5 30t37 8h264q34 0 48.5 -14.5t14.5 -48.5v-498q0 -78 27 -118t90 -40q58 0 110 48.5t83.5 129.5t31.5 173v163h-107q-24 0 -37 8.5t-19.5 30.5t-6.5 64t6.5 64t19.5 30t37 8h294q34 0 48.5 -14.5t14.5 -48.5v-656h77q24 0 37 -8t19.5 -30 t6.5 -64t-6.5 -64t-19.5 -30.5t-37 -8.5h-224q-34 0 -48.5 14.5t-14.5 48.5v145q-132 -230 -330 -230q-91 0 -159.5 40t-105.5 113.5t-37 172.5v415h-77q-24 0 -37 8.5t-19.5 30.5t-6.5 64zM246 1120q0 23 22 42l265 225q14 12 29.5 17.5t41.5 5.5t41.5 -5.5t29.5 -17.5 l265 -225q22 -19 22 -42q0 -25 -25 -60q-30 -43 -60 -43q-16 0 -33 11l-240 138l-240 -138q-17 -11 -33 -11q-30 0 -60 43q-25 35 -25 60z" />
<glyph unicode="&#xfc;" d="M50 822q0 42 6.5 64t19.5 30t37 8h264q34 0 48.5 -14.5t14.5 -48.5v-498q0 -78 27 -118t90 -40q58 0 110 48.5t83.5 129.5t31.5 173v163h-107q-24 0 -37 8.5t-19.5 30.5t-6.5 64t6.5 64t19.5 30t37 8h294q34 0 48.5 -14.5t14.5 -48.5v-656h77q24 0 37 -8t19.5 -30 t6.5 -64t-6.5 -64t-19.5 -30.5t-37 -8.5h-224q-34 0 -48.5 14.5t-14.5 48.5v145q-132 -230 -330 -230q-91 0 -159.5 40t-105.5 113.5t-37 172.5v415h-77q-24 0 -37 8.5t-19.5 30.5t-6.5 64zM249 1136v164q0 35 26 49t96 14q71 0 99.5 -14.5t28.5 -48.5v-164 q0 -34 -26.5 -48.5t-96.5 -14.5t-98.5 14.5t-28.5 48.5zM689 1136v164q0 35 26 49t96 14q71 0 99.5 -14.5t28.5 -48.5v-164q0 -34 -26.5 -48.5t-96.5 -14.5t-98.5 14.5t-28.5 48.5z" />
<glyph unicode="&#xfd;" d="M40 821q0 42 6.5 64t19.5 30.5t37 8.5h404q24 0 37 -8.5t19.5 -30.5t6.5 -64t-6.5 -64t-19.5 -30t-37 -8h-60l174 -380l174 380h-54q-24 0 -37 8t-19.5 30t-6.5 64t6.5 64t19.5 30.5t37 8.5h384q24 0 37 -8.5t19.5 -30.5t6.5 -64t-6.5 -64t-19.5 -30t-37 -8h-64 l-383 -776q-70 -141 -133.5 -214.5t-145 -104t-210.5 -34.5q-36 -1 -54.5 27t-18.5 102q0 51 13.5 73t38.5 24q79 5 128.5 30t90 79.5t97.5 164.5l-306 629h-75q-24 0 -37 8t-19.5 30t-6.5 64zM408 1135q0 28 21 43l347 255q16 11 33 11q46 0 103 -75q40 -54 40 -93 q0 -32 -24 -44l-407 -205q-10 -6 -23 -6q-36 0 -68 51q-22 35 -22 63z" />
<glyph unicode="&#xfe;" d="M37 -286q0 42 6.5 64t19.5 30.5t37 8.5h87v1290h-87q-24 0 -37 8t-19.5 30t-6.5 64t6.5 64t19.5 30.5t37 8.5h274q34 0 48.5 -14.5t14.5 -48.5v-421q51 57 118 87.5t145 30.5q131 0 229 -64t150 -174t52 -246t-52 -246t-150 -174t-229 -64q-78 0 -145 30.5t-118 87.5 v-279h167q24 0 37 -8t19.5 -30t6.5 -64t-6.5 -64t-19.5 -30.5t-37 -8.5h-504q-24 0 -37 8t-19.5 30t-6.5 64zM430 462q0 -80 31 -138.5t83 -88.5t116 -30q62 0 108 31.5t70.5 89.5t24.5 136t-24.5 136t-70.5 89.5t-108 31.5q-64 0 -116 -30t-83 -88.5t-31 -138.5z" />
<glyph unicode="&#xff;" d="M40 821q0 42 6.5 64t19.5 30.5t37 8.5h404q24 0 37 -8.5t19.5 -30.5t6.5 -64t-6.5 -64t-19.5 -30t-37 -8h-60l174 -380l174 380h-54q-24 0 -37 8t-19.5 30t-6.5 64t6.5 64t19.5 30.5t37 8.5h384q24 0 37 -8.5t19.5 -30.5t6.5 -64t-6.5 -64t-19.5 -30t-37 -8h-64 l-383 -776q-70 -141 -133.5 -214.5t-145 -104t-210.5 -34.5q-36 -1 -54.5 27t-18.5 102q0 51 13.5 73t38.5 24q79 5 128.5 30t90 79.5t97.5 164.5l-306 629h-75q-24 0 -37 8t-19.5 30t-6.5 64zM269 1136v164q0 35 26 49t96 14q71 0 99.5 -14.5t28.5 -48.5v-164 q0 -34 -26.5 -48.5t-96.5 -14.5t-98.5 14.5t-28.5 48.5zM709 1136v164q0 35 26 49t96 14q71 0 99.5 -14.5t28.5 -48.5v-164q0 -34 -26.5 -48.5t-96.5 -14.5t-98.5 14.5t-28.5 48.5z" />
<glyph unicode="&#x152;" d="M63 594q0 188 63.5 321.5t183 202.5t284.5 69h491q35 0 50 -15t15 -50v-272q0 -34 -26 -48.5t-86 -14.5q-58 0 -78 14t-20 49v132h-170v-253h114q35 0 49 -23t14 -85t-14 -84.5t-49 -22.5h-114v-309h180v182q0 34 26.5 48.5t89.5 14.5q42 0 64.5 -6.5t31 -19.5t8.5 -37 v-322q0 -34 -15 -49.5t-50 -15.5h-511q-165 0 -284.5 69.5t-183 203t-63.5 321.5zM303 594q0 -120 30 -203t83.5 -126.5t123.5 -49.5v757q-108 -9 -172.5 -104.5t-64.5 -273.5z" />
<glyph unicode="&#x153;" d="M27 462q0 224 86 354t271 130q75 0 135.5 -28.5t100.5 -81.5q45 52 106 81t132 29q182 0 258.5 -135.5t76.5 -378.5q0 -34 -14.5 -48t-48.5 -14h-406q24 -165 154 -165q49 0 95.5 12.5t102.5 37.5q15 6 27 6q24 0 41.5 -21t31.5 -61q13 -36 13 -64q0 -24 -10.5 -39.5 t-33.5 -26.5q-155 -71 -282 -71q-80 0 -143 28t-104 78q-40 -50 -99 -78t-133 -28q-185 0 -271 130t-86 354zM265 462q0 -134 27.5 -195.5t91.5 -61.5t91.5 61.5t27.5 195.5t-27.5 195.5t-91.5 61.5t-91.5 -61.5t-27.5 -195.5zM724 565h244q-2 73 -30 113.5t-80 40.5 q-112 0 -134 -154z" />
<glyph unicode="&#x178;" d="M40 1084q0 42 6.5 64t19.5 30.5t37 8.5h394q24 0 37 -8.5t19.5 -30.5t6.5 -64t-6.5 -64t-19.5 -30t-37 -8h-67l186 -292l188 292h-53q-24 0 -37 8t-19.5 30t-6.5 64t6.5 64t19.5 30.5t37 8.5h374q24 0 37 -8.5t19.5 -30.5t6.5 -64t-6.5 -64t-19.5 -30t-37 -8h-44 l-342 -523v-254h196q24 0 37 -8.5t19.5 -30.5t6.5 -64t-6.5 -64t-19.5 -30t-37 -8h-642q-24 0 -37 8t-19.5 30t-6.5 64t6.5 64t19.5 30.5t37 8.5h196v255l-340 522h-46q-24 0 -37 8t-19.5 30t-6.5 64zM269 1406v164q0 35 26 49t96 14q71 0 99.5 -14.5t28.5 -48.5v-164 q0 -34 -26.5 -48.5t-96.5 -14.5t-98.5 14.5t-28.5 48.5zM709 1406v164q0 35 26 49t96 14q71 0 99.5 -14.5t28.5 -48.5v-164q0 -34 -26.5 -48.5t-96.5 -14.5t-98.5 14.5t-28.5 48.5z" />
<glyph unicode="&#x2c6;" d="M256 1120q0 23 22 42l265 225q14 12 29.5 17.5t41.5 5.5t41.5 -5.5t29.5 -17.5l265 -225q22 -19 22 -42q0 -25 -25 -60q-30 -43 -60 -43q-16 0 -33 11l-240 138l-240 -138q-17 -11 -33 -11q-30 0 -60 43q-25 35 -25 60z" />
<glyph unicode="&#x2dc;" d="M227 1176q0 20 10 34q51 76 115 118.5t133 42.5q40 0 73 -12t77 -34q36 -18 58.5 -26.5t46.5 -8.5q61 0 129 72q14 14 30 14q29 0 66 -40q36 -40 36 -76q0 -20 -10 -34q-51 -76 -115 -118.5t-133 -42.5q-40 0 -73 12t-77 34q-36 18 -58.5 26.5t-46.5 8.5q-61 0 -129 -72 q-14 -14 -30 -14q-29 0 -66 40q-36 40 -36 76z" />
<glyph unicode="&#x2000;" horiz-adv-x="913" />
<glyph unicode="&#x2001;" horiz-adv-x="1827" />
<glyph unicode="&#x2002;" horiz-adv-x="913" />
<glyph unicode="&#x2003;" horiz-adv-x="1827" />
<glyph unicode="&#x2004;" horiz-adv-x="609" />
<glyph unicode="&#x2005;" horiz-adv-x="456" />
<glyph unicode="&#x2006;" horiz-adv-x="304" />
<glyph unicode="&#x2007;" horiz-adv-x="304" />
<glyph unicode="&#x2008;" horiz-adv-x="228" />
<glyph unicode="&#x2009;" horiz-adv-x="365" />
<glyph unicode="&#x200a;" horiz-adv-x="101" />
<glyph unicode="&#x2010;" d="M170 582q0 47 6.5 71t19.5 33t37 9h762q24 0 37 -9t19.5 -33t6.5 -71t-6.5 -71t-19.5 -32.5t-37 -8.5h-762q-24 0 -37 8.5t-19.5 32.5t-6.5 71z" />
<glyph unicode="&#x2011;" d="M170 582q0 47 6.5 71t19.5 33t37 9h762q24 0 37 -9t19.5 -33t6.5 -71t-6.5 -71t-19.5 -32.5t-37 -8.5h-762q-24 0 -37 8.5t-19.5 32.5t-6.5 71z" />
<glyph unicode="&#x2012;" d="M170 582q0 47 6.5 71t19.5 33t37 9h762q24 0 37 -9t19.5 -33t6.5 -71t-6.5 -71t-19.5 -32.5t-37 -8.5h-762q-24 0 -37 8.5t-19.5 32.5t-6.5 71z" />
<glyph unicode="&#x2013;" d="M170 582q0 47 6.5 71t19.5 33t37 9h762q24 0 37 -9t19.5 -33t6.5 -71t-6.5 -71t-19.5 -32.5t-37 -8.5h-762q-24 0 -37 8.5t-19.5 32.5t-6.5 71z" />
<glyph unicode="&#x2014;" d="M-30 582q0 47 6.5 71t19.5 33t37 9h1162q24 0 37 -9t19.5 -33t6.5 -71t-6.5 -71t-19.5 -32.5t-37 -8.5h-1162q-24 0 -37 8.5t-19.5 32.5t-6.5 71z" />
<glyph unicode="&#x2018;" d="M379 742q0 15 7 30l207 467q16 37 46 52.5t80 15.5q43 0 63 -14t20 -46q0 -11 -3 -26l-90 -472q-4 -19 -17.5 -29.5t-34.5 -10.5h-243q-17 0 -26 9t-9 24z" />
<glyph unicode="&#x2019;" d="M411 731q0 11 3 26l90 472q4 19 17.5 29.5t34.5 10.5h243q17 0 26 -9t9 -24t-7 -30l-207 -467q-16 -37 -46 -52.5t-80 -15.5q-43 0 -63 14t-20 46z" />
<glyph unicode="&#x201a;" d="M411 -234q0 11 3 26l90 472q4 19 17.5 29.5t34.5 10.5h243q17 0 26 -9t9 -24t-7 -30l-207 -467q-16 -37 -46 -52.5t-80 -15.5q-43 0 -63 14t-20 46z" />
<glyph unicode="&#x201c;" d="M99 742q0 15 7 30l207 467q16 37 46 52.5t80 15.5q43 0 63 -14t20 -46q0 -11 -3 -26l-90 -472q-4 -19 -17.5 -29.5t-34.5 -10.5h-243q-17 0 -26 9t-9 24zM659 742q0 15 7 30l207 467q16 37 46 52.5t80 15.5q43 0 63 -14t20 -46q0 -11 -3 -26l-90 -472q-4 -19 -17.5 -29.5 t-34.5 -10.5h-243q-17 0 -26 9t-9 24z" />
<glyph unicode="&#x201d;" d="M131 731q0 11 3 26l90 472q4 19 17.5 29.5t34.5 10.5h243q17 0 26 -9t9 -24t-7 -30l-207 -467q-16 -37 -46 -52.5t-80 -15.5q-43 0 -63 14t-20 46zM691 731q0 11 3 26l90 472q4 19 17.5 29.5t34.5 10.5h243q17 0 26 -9t9 -24t-7 -30l-207 -467q-16 -37 -46 -52.5 t-80 -15.5q-43 0 -63 14t-20 46z" />
<glyph unicode="&#x201e;" d="M131 -234q0 11 3 26l90 472q4 19 17.5 29.5t34.5 10.5h243q17 0 26 -9t9 -24t-7 -30l-207 -467q-16 -37 -46 -52.5t-80 -15.5q-43 0 -63 14t-20 46zM691 -234q0 11 3 26l90 472q4 19 17.5 29.5t34.5 10.5h243q17 0 26 -9t9 -24t-7 -30l-207 -467q-16 -37 -46 -52.5 t-80 -15.5q-43 0 -63 14t-20 46z" />
<glyph unicode="&#x2022;" d="M359 418v332q0 58 60 83t195 25t195 -25t60 -83v-332q0 -58 -60 -83t-195 -25t-195 25t-60 83z" />
<glyph unicode="&#x2026;" d="M89 53v174q0 34 29.5 48.5t95.5 14.5t95.5 -14.5t29.5 -48.5v-174q0 -34 -29.5 -48.5t-95.5 -14.5t-95.5 14.5t-29.5 48.5zM489 53v174q0 34 29.5 48.5t95.5 14.5t95.5 -14.5t29.5 -48.5v-174q0 -34 -29.5 -48.5t-95.5 -14.5t-95.5 14.5t-29.5 48.5zM889 53v174 q0 34 29.5 48.5t95.5 14.5t95.5 -14.5t29.5 -48.5v-174q0 -34 -29.5 -48.5t-95.5 -14.5t-95.5 14.5t-29.5 48.5z" />
<glyph unicode="&#x202f;" horiz-adv-x="365" />
<glyph unicode="&#x2039;" d="M354 536q0 15 9 25l279 366q15 19 40 19q35 0 92 -39q65 -44 65 -86q0 -18 -14 -35l-209 -250l209 -251q14 -17 14 -35q0 -42 -65 -86q-57 -39 -92 -39q-25 0 -40 19l-279 366q-9 12 -9 26z" />
<glyph unicode="&#x203a;" d="M389 250q0 18 14 35l209 251l-209 250q-14 17 -14 35q0 42 65 86q57 39 92 39q25 0 40 -19l279 -366q9 -10 9 -25q0 -14 -9 -26l-279 -366q-15 -19 -40 -19q-35 0 -92 39q-65 44 -65 86z" />
<glyph unicode="&#x205f;" horiz-adv-x="456" />
<glyph unicode="&#x20ac;" d="M60 429q0 55 14 74t49 19h67q-3 36 -3 71q0 36 3 72h-67q-35 0 -49 19t-14 73q0 55 14 74t49 19h92q48 170 160 264.5t269 94.5q85 0 147.5 -32.5t102.5 -92.5v62q0 34 29 48.5t93 14.5q62 0 85 -14t23 -49v-384q0 -34 -30.5 -48.5t-101.5 -14.5q-47 0 -72.5 6.5 t-35.5 19.5t-10 37q0 99 -53 159.5t-147 60.5q-71 0 -117 -33t-71 -99h189q35 0 49 -19t14 -74q0 -54 -14 -73t-49 -19h-218q-3 -33 -3 -66q0 -42 4 -77h217q35 0 49 -19t14 -74q0 -54 -14 -73t-49 -19h-185q55 -132 194 -132q81 0 159.5 24t171.5 71q16 8 30 8q47 0 78 -83 q14 -38 14 -68q0 -51 -46 -73q-104 -52 -211 -79t-206 -27q-173 0 -291 93.5t-167 265.5h-93q-35 0 -49 19t-14 73z" />
<glyph unicode="&#x2122;" d="M50 1234q0 47 14 62.5t49 15.5h402q35 0 49 -15.5t14 -62.5t-13.5 -62t-49.5 -15h-121v-344q0 -36 -16 -50.5t-64 -14.5t-64 14.5t-16 50.5v344h-121q-36 0 -49.5 15t-13.5 62zM629 813l30 444q2 35 21 50t64 15q33 0 49 -6.5t25 -22.5l140 -256l140 256q9 16 25 22.5 t49 6.5q45 0 64 -15t21 -50l30 -444q2 -36 -13 -50.5t-60 -14.5t-63 15t-20 50l-10 217l-91 -165q-12 -23 -31.5 -35t-40.5 -12t-40.5 12t-31.5 35l-92 165l-9 -217q-2 -35 -20 -50t-63 -15t-60 14.5t-13 50.5z" />
<glyph unicode="&#x25fc;" horiz-adv-x="925" d="M0 0v925h925v-925h-925z" />
<glyph unicode="&#xfb01;" d="M-20 786q0 41 6.5 62t19.5 28.5t37 7.5h147v73q0 186 91.5 283t265.5 97q149 0 304 -57q25 -9 37.5 -25.5t12.5 -44.5q0 -26 -10 -62q-12 -44 -29.5 -63t-41.5 -19q-12 0 -29 5q-127 39 -222 39q-129 0 -129 -166v-60h528q34 0 48.5 -14t14.5 -47v-618h134q24 0 37 -8.5 t19.5 -30.5t6.5 -64t-6.5 -64t-19.5 -30t-37 -8h-521q-24 0 -37 8t-19.5 30t-6.5 64t6.5 64t19.5 30.5t37 8.5h137v476h-341v-590q0 -38 -6.5 -57.5t-20.5 -26.5t-39 -7h-118q-25 0 -39 7t-20.5 26.5t-6.5 57.5v590h-147q-35 0 -49 21.5t-14 83.5z" />
<glyph unicode="&#xfb02;" d="M5 786q0 41 6.5 62t19.5 28.5t37 7.5h117v73q0 115 46.5 201t132.5 132.5t202 46.5q127 0 224 -24.5t188 -60.5q29 -11 42 -31.5t13 -54.5v-961h127q24 0 37 -8.5t19.5 -30.5t6.5 -64t-6.5 -64t-19.5 -30t-37 -8h-512q-24 0 -37 8t-19.5 30t-6.5 64t6.5 64t19.5 30.5 t37 8.5h135v870q-92 35 -201 35q-75 0 -111 -40t-36 -126v-60h166q24 0 37 -7.5t19.5 -28.5t6.5 -62q0 -62 -14 -83.5t-49 -21.5h-166v-590q0 -38 -6.5 -57.5t-20.5 -26.5t-39 -7h-118q-25 0 -39 7t-20.5 26.5t-6.5 57.5v590h-117q-35 0 -49 21.5t-14 83.5z" />
</font>
</defs>
</svg>
