<?xml version="1.0" standalone="no"?>
<!DOCTYPE svg PUBLIC "-//W3C//DTD SVG 1.1//EN" "http://www.w3.org/Graphics/SVG/1.1/DTD/svg11.dtd" >
<svg xmlns="http://www.w3.org/2000/svg" xmlns:xlink="http://www.w3.org/1999/xlink" version="1.1">
<metadata></metadata>
<defs>
<font id="courier_primebold_italic" horiz-adv-x="1228" >
<font-face units-per-em="2048" ascent="1638" descent="-410" />
<missing-glyph horiz-adv-x="500" />
<glyph unicode="&#xfb01;" d="M-281 -303q0 27 34 86q24 43 41 60.5t35 17.5q15 0 38 -13q28 -15 63.5 -25.5t58.5 -10.5q59 0 96 37.5t51 118.5l122 701h-183q-26 0 -38 11.5t-12 39.5q0 21 6 52q11 59 29 80.5t53 21.5h183l11 63q33 189 132.5 284.5t271.5 95.5q149 0 294 -57q47 -18 47 -65 q0 -26 -15 -68q-16 -44 -36 -62.5t-44 -18.5q-12 0 -29 5q-62 20 -113.5 29.5t-101.5 9.5q-63 0 -104 -40.5t-55 -125.5l-8 -50h487q28 0 41 -10t13 -32q0 -5 -2 -21l-79 -450q-5 -32 -5 -53q0 -103 89 -103q34 0 72 17q14 7 27 7q18 0 33 -16.5t32 -53.5q23 -51 23 -77 q0 -23 -14 -37.5t-44 -28.5q-86 -38 -181 -38q-87 0 -152 31.5t-101 92t-36 144.5q0 71 9 122l47 301h-297l-124 -714q-32 -185 -129 -277.5t-267 -92.5q-66 0 -128 17t-110 49q-16 10 -23.5 21t-7.5 25z" />
<glyph unicode="&#xfb02;" d="M-287 -303q0 27 34 86q24 42 40.5 60t34.5 18q13 0 30 -9q32 -17 67.5 -28.5t64.5 -11.5q59 0 96 37.5t51 118.5l122 701h-133q-26 0 -38 11.5t-12 39.5q0 21 6 52q11 59 29 80.5t53 21.5h133l11 63q35 187 139 283.5t271 96.5q102 0 198.5 -22.5t170.5 -54.5 q56 -24 56 -92q0 -21 -4 -41l-132 -746q-5 -32 -5 -65q0 -43 24.5 -67t60.5 -24q46 0 86 21q17 9 32 9q40 0 72 -72q17 -38 17 -66q0 -21 -10.5 -36t-31.5 -27q-98 -56 -215 -56q-89 0 -153.5 32.5t-99 93t-34.5 142.5q0 71 9 122l123 701q-77 21 -156 21q-69 0 -112 -42.5 t-59 -123.5l-8 -50h142q37 0 51.5 -10t14.5 -40q0 -20 -6 -52q-7 -43 -17.5 -65t-29 -30t-51.5 -8h-142l-124 -714q-32 -185 -129 -277.5t-267 -92.5q-64 0 -132.5 20.5t-114.5 52.5q-12 8 -17.5 17t-5.5 22z" />
<glyph horiz-adv-x="0" />
<glyph unicode="&#xd;" />
<glyph unicode=" " />
<glyph unicode="!" d="M408 53l38 214q6 34 42.5 48.5t117.5 14.5q83 0 119.5 -15t30.5 -48l-38 -214q-6 -34 -42.5 -48.5t-117.5 -14.5q-83 0 -119.5 15t-30.5 48zM544 562l59 657q4 50 50 50h230q35 0 35 -29q0 -9 -3 -21l-173 -657q-15 -58 -109 -58t-89 58z" />
<glyph unicode="&#x22;" d="M301 739l30 480q3 50 50 50h234q35 0 35 -29q0 -9 -3 -21l-140 -480q-9 -33 -36.5 -50.5t-78.5 -17.5q-52 0 -72.5 17.5t-18.5 50.5zM841 739l30 480q3 50 50 50h234q35 0 35 -29q0 -9 -3 -21l-140 -480q-9 -33 -36.5 -50.5t-78.5 -17.5q-52 0 -72.5 17.5t-18.5 50.5z " />
<glyph unicode="#" d="M38 308q0 26 7 61q8 47 19 71t25.5 33t38.5 9h156l100 233h-125q-26 0 -38 10.5t-12 40.5q0 26 7 61q8 47 19 71t25.5 33t38.5 9h182l102 236q14 33 83 33q48 0 81 -14.5t33 -38.5q0 -6 -3 -14l-87 -202h215l102 236q14 33 83 33q48 0 81 -14.5t33 -38.5q0 -6 -3 -14 l-87 -202h97q26 0 38 -11t12 -41q0 -26 -7 -61q-8 -47 -18.5 -71t-25.5 -32.5t-39 -8.5h-154l-100 -233h123q26 0 38 -11t12 -41q0 -26 -7 -61q-8 -47 -18.5 -71t-25.5 -32.5t-39 -8.5h-180l-106 -246q-14 -33 -83 -33q-48 0 -81 14.5t-33 38.5q0 7 3 14l91 212h-215 l-106 -246q-14 -33 -83 -33q-48 0 -81 14.5t-33 38.5q0 7 3 14l91 212h-99q-26 0 -38 10.5t-12 40.5zM493 482h215l100 233h-215z" />
<glyph unicode="$" d="M135 168q0 8 1 13l39 223q6 33 32 48t75 15q61 0 78 -28q47 -75 144 -104l30 171q-60 12 -107 27t-85 38q-109 65 -109 189q0 93 46.5 166t137 115.5t219.5 44.5l29 163q6 35 27.5 49t76.5 14q47 0 65.5 -10t18.5 -34q0 -5 -2 -19l-35 -195q42 -16 85 -46l3 15 q7 34 33.5 48.5t89.5 14.5q57 0 82.5 -11.5t25.5 -38.5q0 -8 -1 -13l-37 -211q-6 -34 -30 -48.5t-73 -14.5q-54 0 -69 21q-54 70 -142 96l-27 -154q65 -10 117.5 -25t93.5 -38q109 -63 109 -184q0 -90 -42.5 -166.5t-137.5 -126t-244 -54.5l-32 -180q-6 -35 -28 -49t-77 -14 q-46 0 -64.5 10t-18.5 34q0 5 2 19l36 207q-45 17 -92 49l-2 -13q-5 -33 -37 -48t-96 -15q-57 0 -82.5 11.5t-25.5 38.5zM493 800q0 -24 20 -38.5t62 -22.5l25 145q-45 -6 -76 -28t-31 -56zM687 320q59 4 93 28.5t34 60.5q0 26 -23.5 43t-76.5 25z" />
<glyph unicode="%" d="M51 201q0 13 7.5 24t22.5 24l1024 834q25 20 43 20q14 0 29 -11.5t36 -37.5q33 -42 33 -66q0 -13 -7.5 -24t-23.5 -24l-1024 -834q-26 -21 -43 -21q-15 0 -30 11.5t-35 37.5q-32 42 -32 67zM110 908q0 84 37.5 152.5t106.5 108.5t158 40q75 0 132.5 -31.5t88.5 -87.5 t31 -128q0 -84 -37.5 -152.5t-106.5 -108.5t-158 -40q-75 0 -132.5 31.5t-88.5 87.5t-31 128zM292 921q0 -36 22.5 -58.5t61.5 -22.5q46 0 76 31t30 78q0 36 -22.5 58.5t-61.5 22.5q-46 0 -76 -31t-30 -78zM631 225q0 84 37.5 152.5t106.5 108.5t158 40q75 0 132.5 -31.5 t88.5 -87.5t31 -128q0 -84 -37.5 -152.5t-106.5 -108.5t-158 -40q-75 0 -132.5 31.5t-88.5 87.5t-31 128zM813 238q0 -36 22.5 -58.5t61.5 -22.5q46 0 76 31t30 78q0 36 -22.5 58.5t-61.5 22.5q-46 0 -76 -31t-30 -78z" />
<glyph unicode="&#x26;" d="M90 269q0 226 239 366q-48 94 -48 184q0 96 49 185.5t147.5 147t238.5 57.5q79 0 161.5 -25t157.5 -75q18 -12 26.5 -24t8.5 -28q0 -7 -1 -11l-34 -192q-6 -34 -37.5 -48.5t-95.5 -14.5q-55 0 -77 11t-22 36q0 4 2 16l19 107q-64 31 -138 31q-44 0 -78.5 -21.5t-54 -59.5 t-19.5 -84q0 -77 67 -161l154 -196q34 58 73 133q20 42 59 42h220q27 0 39 -10.5t12 -39.5q0 -20 -6 -52q-7 -42 -17.5 -64t-25 -30.5t-38.5 -8.5h-81q-46 -87 -91 -154l64 -81h87q26 0 38 -10.5t12 -39.5q0 -20 -6 -53q-7 -42 -17 -64t-24.5 -30t-38.5 -8h-161 q-41 0 -67 33l-51 65q-147 -120 -333 -120q-93 0 -164 37.5t-109.5 103.5t-38.5 150zM340 301q0 -44 27 -70t75 -26q81 0 158 66l-159 203q-101 -76 -101 -173z" />
<glyph unicode="'" d="M571 739l30 480q3 50 50 50h234q35 0 35 -29q0 -9 -3 -21l-140 -480q-9 -33 -36.5 -50.5t-78.5 -17.5q-52 0 -72.5 17.5t-18.5 50.5z" />
<glyph unicode="(" d="M266 361q0 207 77.5 396.5t229 347.5t370.5 270q14 6 25 6q26 0 50 -22.5t41 -56.5q22 -44 22 -86t-24 -55q-267 -145 -406 -338t-139 -457q0 -163 70 -291t212 -228q13 -9 13 -30q0 -20 -12 -46t-31 -51q-22 -28 -48 -46t-49 -18q-15 0 -26 7q-103 65 -188 165.5 t-136 236t-51 296.5z" />
<glyph unicode=")" d="M189 -178q0 42 24 55q267 145 406 338t139 457q0 163 -70 291t-212 228q-13 9 -13 30q0 20 12 46t31 51q22 28 48 46t49 18q15 0 26 -7q103 -65 188 -165.5t136 -236t51 -296.5q0 -207 -77.5 -396.5t-229 -347.5t-370.5 -270q-13 -6 -25 -6q-26 0 -50 22.5t-41 56.5 q-22 44 -22 86z" />
<glyph unicode="*" d="M273 850q0 28 13 61q17 43 48.5 65t68.5 22q35 0 64 -20l160 -108l-11 205q-3 58 31 96t100 38q51 0 79.5 -27.5t28.5 -69.5q0 -26 -10 -50l-82 -203l192 105q37 20 68 20q33 0 57.5 -21.5t34.5 -63.5q4 -16 4 -35q0 -49 -34 -80t-89 -36l-212 -19l140 -142 q33 -35 33 -78q0 -29 -17 -55t-53 -45q-41 -22 -76 -22q-33 0 -55.5 19t-32.5 54l-58 198l-111 -192q-19 -34 -47.5 -52.5t-60.5 -18.5q-41 0 -77 30q-43 36 -43 82q0 27 15 53t43 47l175 132l-193 18q-43 4 -68 28t-25 65z" />
<glyph unicode="+" d="M195 521q0 26 7 61q8 47 19 71t25.5 33t38.5 9h268l47 268q4 24 15 37t36.5 19.5t72.5 6.5q59 0 81 -10t22 -34q0 -5 -2 -19l-47 -268h269q26 0 38 -11t12 -41q0 -26 -7 -61q-8 -47 -18.5 -71t-25.5 -32.5t-39 -8.5h-269l-47 -269q-4 -24 -15 -37t-36 -19.5t-72 -6.5 q-59 0 -81.5 10t-22.5 35q0 4 2 18l47 269h-268q-26 0 -38 10.5t-12 40.5z" />
<glyph unicode="," d="M248 -247q0 5 4 19l187 542q7 19 22.5 29.5t36.5 10.5h245q16 0 25 -8t9 -22q0 -16 -11 -33l-325 -537q-29 -48 -115 -48q-36 0 -57 12t-21 35z" />
<glyph unicode="-" d="M195 521q0 26 7 61q8 47 19 71t25.5 33t38.5 9h762q26 0 38 -11t12 -41q0 -26 -7 -61q-8 -47 -18.5 -71t-25.5 -32.5t-39 -8.5h-762q-26 0 -38 10.5t-12 40.5z" />
<glyph unicode="." d="M388 53l45 254q6 34 44 48.5t124 14.5q89 0 128.5 -15t33.5 -48l-45 -254q-6 -34 -44 -48.5t-124 -14.5q-88 0 -128 15t-34 48z" />
<glyph unicode="/" d="M48 -274q0 14 9 31l927 1608q19 34 88 34q57 0 104 -24t47 -62q0 -16 -10 -32l-927 -1608q-19 -33 -86 -33q-56 0 -104 24.5t-48 61.5z" />
<glyph unicode="0" d="M155 447q0 180 64 355.5t196.5 291t326.5 115.5q125 0 215.5 -59t137.5 -165t47 -245q0 -180 -64 -355.5t-196.5 -291t-326.5 -115.5q-125 0 -215.5 59t-137.5 165t-47 245zM419 439q0 -116 41 -175t120 -59q99 0 166 85.5t99.5 211.5t32.5 246q0 116 -41 175t-120 59 q-99 0 -166 -85.5t-99.5 -211.5t-32.5 -246z" />
<glyph unicode="1" d="M172 51q0 25 5 51q11 61 29 82t53 21h226l115 651l-208 -108q-18 -9 -33 -9q-42 0 -75 79q-18 42 -18 70q0 40 42 62l480 246q29 16 60 16q24 0 39 -12.5t15 -36.5q0 -10 -1 -15l-166 -943h256q26 0 38 -10.5t12 -39.5q0 -20 -6 -53q-7 -42 -17 -64t-24.5 -30t-38.5 -8 h-732q-27 0 -39 11t-12 40z" />
<glyph unicode="2" d="M100 51q0 21 6 52q7 41 17 65.5t25 37.5l502 413q70 57 108.5 96t58 78t19.5 85q0 53 -34 83.5t-97 30.5q-88 0 -180 -42l-25 -140q-6 -35 -31.5 -49t-87.5 -14q-58 0 -85 12t-27 39q0 8 1 12l44 247q7 41 54 64q177 88 365 88q115 0 195.5 -39t122 -108.5t41.5 -160.5 q0 -88 -28.5 -157t-82 -129t-146.5 -137l-320 -263h282l17 92q6 35 31.5 49t87.5 14q58 0 85 -12t27 -39q0 -8 -1 -12l-43 -242q-6 -35 -24 -50t-52 -15h-774q-27 0 -39 11t-12 40z" />
<glyph unicode="3" d="M151 108q0 32 22 83q19 43 40 63.5t40 20.5q10 0 20 -5q127 -65 267 -65q123 0 178.5 54.5t55.5 131.5q0 55 -37.5 83.5t-110.5 28.5h-103q-26 0 -38 11.5t-12 41.5q0 21 6 54q11 62 29 85t53 23h76q106 0 154.5 44t48.5 113q0 61 -36 89t-109 28q-74 0 -157 -23l-14 -79 q-6 -35 -31.5 -49t-87.5 -14q-58 0 -85 12t-27 39q0 8 1 12l35 197q9 45 61 64q152 58 333 58q178 0 276 -78t98 -219q0 -99 -47.5 -177t-141.5 -123q62 -32 96.5 -88.5t34.5 -131.5q0 -106 -51 -200t-164 -154t-290 -60q-214 0 -354 77q-29 15 -29 53z" />
<glyph unicode="4" d="M127 420q0 21 6 52q6 35 15.5 61t20.5 38l573 579q31 31 69 45t90 14q49 0 70 -16.5t21 -49.5q0 -6 -2 -24l-96 -544h172q27 0 39 -11t12 -40q0 -20 -6 -52q-7 -42 -17.5 -64t-25 -30t-38.5 -8h-172l-29 -165h142q26 0 38 -10.5t12 -39.5q0 -20 -6 -53q-7 -42 -17 -64 t-24.5 -30t-38.5 -8h-562q-27 0 -39 11t-12 40q0 25 5 51q11 61 29 82t53 21h170l29 165h-430q-27 0 -39 10.5t-12 39.5zM434 575h219l67 292z" />
<glyph unicode="5" d="M145 121q0 33 23 82q38 85 79 85q10 0 21 -6q65 -36 135 -56.5t137 -20.5q77 0 131.5 31t81.5 80t27 102q0 69 -38 105t-110 36q-80 0 -174 -36q-24 -9 -42 -13t-37 -4q-62 0 -98.5 14t-36.5 41q0 7 1 11l130 550q8 35 25.5 50t51.5 15h608q26 0 38 -12t12 -42 q0 -21 -6 -54q-11 -62 -29 -84.5t-53 -22.5h-442l-53 -223q52 19 96 28t92 9q107 0 182 -42.5t113 -118t38 -173.5q0 -134 -54.5 -241t-172 -170t-297.5 -63q-93 0 -182.5 23.5t-166.5 65.5q-30 17 -30 54z" />
<glyph unicode="6" d="M177 418q0 221 99 400t300 285t494 106q26 0 38.5 -27.5t12.5 -85.5q0 -64 -14.5 -96t-38.5 -33q-182 -4 -303 -41t-193.5 -108.5t-110.5 -183.5q63 53 131.5 80t152.5 27q98 0 172.5 -42t115 -117t40.5 -172q0 -112 -59 -211t-168.5 -160t-253.5 -61q-142 0 -235 56.5 t-136.5 155.5t-43.5 228zM432 340q0 -60 43 -99.5t120 -39.5q68 0 118.5 27t77 71.5t26.5 96.5q0 64 -41 98.5t-116 34.5q-69 0 -120.5 -26t-79.5 -69t-28 -94z" />
<glyph unicode="7" d="M254 768q0 8 1 12l60 342q6 34 24 49.5t53 15.5h764q27 0 39 -11t12 -40q0 -20 -6 -52q-9 -50 -22 -72l-576 -988q-27 -46 -110 -46q-57 0 -103 24.5t-46 61.5q0 16 10 33l516 875h-351l-34 -192q-6 -35 -32 -49t-88 -14q-58 0 -84.5 12t-26.5 39z" />
<glyph unicode="8" d="M158 286q0 127 66 214.5t191 124.5q-60 32 -92 84t-32 123q0 96 54 182.5t159.5 140.5t252.5 54q109 0 187 -40.5t118 -108.5t40 -150q0 -111 -56.5 -186.5t-152.5 -110.5q74 -34 114.5 -93t40.5 -141q0 -102 -52 -193.5t-166 -149.5t-290 -58q-117 0 -203 38 t-132.5 107.5t-46.5 162.5zM425 321q0 -58 39 -91.5t114 -33.5q70 0 117 28t69.5 72.5t22.5 94.5q0 59 -38.5 93t-113.5 34q-69 0 -116.5 -28.5t-70.5 -73.5t-23 -95zM536 822q0 -51 34.5 -80.5t98.5 -29.5q59 0 100 24.5t61.5 62.5t20.5 79q0 52 -35.5 82.5t-97.5 30.5 q-56 0 -97 -23.5t-63 -62t-22 -83.5z" />
<glyph unicode="9" d="M205 89q0 66 14 97.5t39 33.5q178 9 293 46t184.5 106t109.5 181q-71 -54 -141 -80.5t-153 -26.5q-98 0 -172.5 42t-115 117t-40.5 172q0 112 59 211t168.5 160t253.5 61q142 0 235 -56.5t136.5 -155.5t43.5 -228q0 -216 -91.5 -391.5t-285 -283t-485.5 -116.5 q-27 -1 -39.5 26.5t-12.5 84.5zM479 791q0 -64 41 -98.5t116 -34.5q69 0 120.5 26t79.5 69t28 94q0 60 -43 99.5t-120 39.5q-68 0 -118.5 -27t-77 -71.5t-26.5 -96.5z" />
<glyph unicode=":" d="M388 53l38 214q6 34 44 48.5t124 14.5q89 0 128.5 -15t33.5 -48l-38 -214q-6 -34 -44 -48.5t-124 -14.5q-88 0 -128 15t-34 48zM494 657l38 214q6 34 44 48.5t124 14.5q89 0 128.5 -15t33.5 -48l-38 -214q-6 -34 -44 -48.5t-124 -14.5q-88 0 -128 15t-34 48z" />
<glyph unicode=";" d="M288 -247q0 5 4 19l187 542q7 19 22.5 29.5t36.5 10.5h245q16 0 25 -8t9 -22q0 -16 -11 -33l-325 -537q-29 -48 -115 -48q-36 0 -57 12t-21 35zM494 657l38 214q6 34 44 48.5t124 14.5q89 0 128.5 -15t33.5 -48l-38 -214q-6 -34 -44 -48.5t-124 -14.5q-88 0 -128 15 t-34 48z" />
<glyph unicode="&#x3c;" d="M148 547q0 8 4 36q7 41 21 61t42 33l845 399q20 9 34 9q20 0 36.5 -18t33.5 -60q18 -46 18 -74q0 -43 -43 -63l-648 -297l521 -285q31 -17 31 -47q0 -34 -32 -87q-25 -42 -45 -60.5t-40 -18.5q-15 0 -30 9l-714 405q-17 10 -25.5 23t-8.5 35z" />
<glyph unicode="=" d="M155 292q0 26 7 61q8 47 18.5 71t25.5 33t39 9h762q26 0 37.5 -11t11.5 -42q0 -22 -6 -60q-8 -47 -18.5 -71t-25.5 -32.5t-39 -8.5h-762q-26 0 -38 10.5t-12 40.5zM236 750q0 26 7 61q8 47 18.5 71t25 33t38.5 9h762q26 0 38 -11.5t12 -42.5q0 -21 -6 -59 q-8 -47 -18.5 -71t-25.5 -32.5t-39 -8.5h-762q-26 0 -38 10.5t-12 40.5z" />
<glyph unicode="&#x3e;" d="M110 233q0 43 43 63l648 297l-521 285q-31 17 -31 47q0 34 32 87q25 42 45 60.5t40 18.5q15 0 30 -9l714 -405q17 -10 25.5 -23t8.5 -35q0 -8 -4 -36q-7 -41 -21 -61t-42 -33l-845 -399q-19 -9 -34 -9q-20 0 -36.5 18t-33.5 60q-18 47 -18 74z" />
<glyph unicode="?" d="M301 918q0 8 1 12l35 200q8 43 52 61q183 78 340 78q117 0 200.5 -38.5t126.5 -109t43 -164.5q0 -143 -88 -240t-284 -139l-24 -91q-6 -25 -30.5 -36.5t-79.5 -11.5t-74.5 11.5t-17.5 36.5l17 208q3 44 39 51l113 20q85 15 129 55t44 105q0 58 -35 92t-103 34 q-79 0 -158 -30l-15 -92q-5 -35 -31 -49t-88 -14q-58 0 -85 12t-27 39zM388 53l31 174q6 34 40 48.5t110 14.5q78 0 112 -15t28 -48l-31 -174q-6 -34 -40 -48.5t-110 -14.5q-78 0 -112 15t-28 48z" />
<glyph unicode="@" d="M24 285q0 190 94.5 374t265 301.5t386.5 117.5q137 0 238 -58t154.5 -160.5t53.5 -232.5q0 -134 -47 -250t-132 -185.5t-195 -69.5q-69 0 -108 38t-44 101q-104 -144 -223 -144q-71 0 -114.5 50t-43.5 136q0 104 59.5 221.5t151.5 196.5t185 79q50 0 77 -31t34 -84l45 69 q8 13 34 13q15 0 38 -6q21 -6 33 -15.5t12 -20.5q0 -3 -2 -9l-127 -312q-18 -45 -18 -74q0 -24 12 -38t33 -14q50 0 93 51.5t68 132t25 162.5q0 140 -82 220.5t-232 80.5q-158 0 -287 -95.5t-202.5 -242.5t-73.5 -292q0 -137 78.5 -216t226.5 -79q142 0 265 40q5 2 13 2 q28 0 37 -61q3 -17 3 -29q0 -41 -28 -53q-58 -23 -140.5 -37.5t-164.5 -14.5q-141 0 -243 54.5t-155 153t-53 230.5zM489 348q0 -32 14 -49.5t38 -17.5q35 0 82.5 51t81.5 122t34 126q0 63 -52 63q-37 0 -84 -50t-80.5 -120t-33.5 -125z" />
<glyph unicode="A" d="M-67 52q0 16 5 51q7 42 17.5 64t25 30t38.5 8h80l390 777h-163q-27 0 -39 11t-12 40q0 21 6 52q7 42 17.5 64t25 30t38.5 8h470q40 0 62 -15.5t27 -49.5l129 -917h91q27 0 39 -10.5t12 -39.5q0 -20 -6 -52q-7 -42 -17.5 -64t-25 -30.5t-38.5 -8.5h-424q-27 0 -39 11 t-12 40q0 21 6 52q7 42 17.5 64t25 30t38.5 8h90l-20 145h-364l-70 -145h70q27 0 39 -10.5t12 -39.5q0 -20 -6 -52q-7 -42 -17.5 -64t-25 -30.5t-38.5 -8.5h-404q-27 0 -38.5 11t-11.5 41zM517 555h249l-44 427h-6z" />
<glyph unicode="B" d="M12 51q0 25 5 51q11 61 29 82t53 21h107l137 777h-107q-27 0 -39 10.5t-12 39.5q0 21 6 52q7 42 17.5 64t25 30.5t38.5 8.5h501q186 0 281 -76t95 -208q0 -94 -51.5 -165.5t-147.5 -112.5q86 -26 134 -87t48 -154q0 -111 -53.5 -197.5t-164 -136.5t-274.5 -50h-577 q-27 0 -39 11t-12 40zM458 215h192q116 0 168.5 45t52.5 116q0 64 -42 93.5t-130 29.5h-192zM546 714h142q105 0 154 41t49 110q0 58 -38 82.5t-120 24.5h-142z" />
<glyph unicode="C" d="M128 471q0 181 73 351.5t216 278.5t340 108q90 0 153 -35.5t93 -95.5l13 68q7 34 38 48.5t95 14.5q55 0 77 -11t22 -36q0 -4 -2 -16l-68 -384q-6 -34 -39 -48.5t-104 -14.5q-61 0 -85 11t-24 36q0 4 2 16q5 32 5 54q0 77 -45 121.5t-131 44.5q-130 0 -211.5 -82.5 t-116.5 -199t-35 -225.5q0 -130 60.5 -200t175.5 -70q86 0 166.5 24t185.5 73q14 7 30 7q46 0 70 -84q11 -41 11 -66q0 -28 -12 -46t-36 -29q-232 -106 -445 -106q-142 0 -249 60.5t-165 172t-58 260.5z" />
<glyph unicode="D" d="M2 51q0 25 5 51q11 61 29 82t53 21h97l137 777h-97q-27 0 -39 10.5t-12 39.5q0 21 6 52q7 42 17.5 64t25 30.5t38.5 8.5h451q151 0 260 -56t167 -161.5t58 -251.5q0 -158 -57.5 -321t-203.5 -280t-393 -117h-491q-27 0 -39 11t-12 40zM438 215h104q138 0 225.5 75 t126 188t38.5 234q0 129 -64.5 194.5t-192.5 65.5h-104z" />
<glyph unicode="E" d="M2 51q0 25 5 51q11 61 29 82t53 21h97l137 777h-97q-27 0 -39 10.5t-12 39.5q0 21 6 52q7 42 17.5 64t25 30.5t38.5 8.5h912q29 0 42 -10.5t13 -33.5q0 -5 -2 -21l-53 -302q-6 -34 -37.5 -48.5t-95.5 -14.5q-55 0 -77 11t-22 36q0 4 2 16l27 152h-400l-45 -253h244 q26 0 38 -12t12 -42q0 -21 -6 -54q-11 -62 -29 -84.5t-53 -22.5h-244l-51 -289h410l36 202q6 34 38 48.5t99 14.5q58 0 81.5 -11t23.5 -36q0 -4 -2 -16l-62 -352q-6 -35 -24 -50t-52 -15h-932q-27 0 -39 11t-12 40z" />
<glyph unicode="F" d="M2 51q0 25 5 51q11 61 29 82t53 21h127l137 777h-127q-27 0 -39 10.5t-12 39.5q0 21 6 52q7 42 17.5 64t25 30.5t38.5 8.5h932q29 0 42 -10.5t13 -33.5q0 -5 -2 -21l-53 -302q-6 -34 -37.5 -48.5t-95.5 -14.5q-55 0 -77 11t-22 36q0 4 2 16l27 152h-390l-54 -305h304 q26 0 38 -12t12 -42q0 -21 -6 -54q-11 -62 -29 -84.5t-53 -22.5h-304l-43 -247h217q26 0 38 -10.5t12 -39.5q0 -20 -6 -53q-7 -42 -17 -64t-24.5 -30t-38.5 -8h-594q-27 0 -39 11t-12 40z" />
<glyph unicode="G" d="M98 471q0 181 73 351.5t216 278.5t340 108q90 0 154 -33t94 -90l11 60q6 34 37.5 48.5t95.5 14.5q55 0 77 -11t22 -36q0 -4 -2 -16l-61 -344q-6 -34 -39 -48.5t-104 -14.5q-61 0 -85 11t-24 36q0 4 2 16q4 20 4 42q0 67 -45 102.5t-137 35.5q-130 0 -211.5 -82.5 t-116.5 -199t-35 -225.5q0 -130 60.5 -200t175.5 -70q110 0 215 30l29 167h-193q-27 0 -39 10.5t-12 39.5q0 21 6 52q11 61 29 82t53 21h474q26 0 38 -10.5t12 -39.5q0 -20 -6 -53q-7 -42 -17.5 -64t-25 -30t-38.5 -8h-31l-47 -269q-5 -24 -17.5 -42.5t-30.5 -26.5 q-189 -86 -429 -86q-142 0 -249 60.5t-165 172t-58 260.5z" />
<glyph unicode="H" d="M-8 51q0 25 5 51q11 61 29 82t53 21h57l137 777h-57q-27 0 -39 10.5t-12 39.5q0 21 6 52q7 42 17.5 64t25 30.5t38.5 8.5h374q27 0 39 -11t12 -40q0 -20 -6 -52q-7 -42 -17.5 -64t-25 -30t-38.5 -8h-67l-47 -263h388l47 263h-67q-27 0 -39 10.5t-12 39.5q0 21 6 52 q7 42 17.5 64t25 30.5t38.5 8.5h374q27 0 39 -11t12 -40q0 -20 -6 -52q-7 -42 -17.5 -64t-25 -30t-38.5 -8h-57l-137 -777h57q26 0 38 -10.5t12 -39.5q0 -20 -6 -53q-7 -42 -17 -64t-24.5 -30t-38.5 -8h-374q-27 0 -39 11t-12 40q0 25 5 51q11 61 29 82t53 21h67l52 299 h-388l-52 -299h67q26 0 38 -10.5t12 -39.5q0 -20 -6 -53q-7 -42 -17 -64t-24.5 -30t-38.5 -8h-374q-27 0 -39 11t-12 40z" />
<glyph unicode="I" d="M132 51q0 25 5 51q11 61 29 82t53 21h236l137 777h-256q-27 0 -39 10.5t-12 39.5q0 21 6 52q7 42 17.5 64t25 30.5t38.5 8.5h742q27 0 39 -11t12 -40q0 -20 -6 -52q-7 -42 -17.5 -64t-25 -30t-38.5 -8h-236l-137 -777h256q26 0 38 -10.5t12 -39.5q0 -20 -6 -53 q-7 -42 -17 -64t-24.5 -30t-38.5 -8h-742q-27 0 -39 11t-12 40z" />
<glyph unicode="J" d="M59 165q0 6 2 20l55 314q6 34 39.5 48.5t104.5 14.5q60 0 84 -11t24 -36q0 -4 -2 -16l-44 -255q63 -39 159 -39q82 0 130.5 43.5t64.5 134.5l106 599h-316q-27 0 -39 10.5t-12 39.5q0 21 6 52q7 42 17.5 64t25 30.5t38.5 8.5h742q27 0 39 -11t12 -40q0 -20 -6 -52 q-7 -42 -17.5 -64t-25 -30t-38.5 -8h-176l-111 -629q-34 -193 -148.5 -284t-322.5 -91q-116 0 -216.5 41.5t-164.5 115.5q-10 11 -10 30z" />
<glyph unicode="K" d="M-8 51q0 25 5 51q11 61 29 82t53 21h107l137 777h-107q-27 0 -39 10.5t-12 39.5q0 21 6 52q7 42 17.5 64t25 30.5t38.5 8.5h404q27 0 39 -11t12 -40q0 -20 -6 -52q-7 -42 -17.5 -64t-25 -30t-38.5 -8h-47l-55 -310l369 310h-43q-27 0 -39 10.5t-12 39.5q0 21 6 52 q7 42 17.5 64t25 30.5t38.5 8.5h389q27 0 39 -11t12 -40q0 -20 -6 -52q-7 -42 -17.5 -64t-25 -30t-38.5 -8h-33l-410 -341q53 -3 87 -29t61 -77q17 -32 29 -67t28 -88q24 -76 33 -98q15 -37 36 -57t52 -20h15q26 0 38 -10.5t12 -39.5q0 -20 -6 -53q-7 -42 -17 -64t-24.5 -30 t-38.5 -8h-129q-62 0 -100 38.5t-61 103.5q-16 46 -33 108q-2 8 -15.5 54t-28.5 78q-19 40 -46 61.5t-61 21.5q-45 0 -85 -34l-71 -60l-29 -166h115q26 0 38 -10.5t12 -39.5q0 -20 -6 -53q-7 -42 -17 -64t-24.5 -30t-38.5 -8h-472q-27 0 -39 11t-12 40z" />
<glyph unicode="L" d="M2 51q0 25 5 51q11 61 29 82t53 21h146l137 777h-146q-27 0 -39 10.5t-12 39.5q0 21 6 52q7 42 17.5 64t25 30.5t38.5 8.5h614q27 0 39 -11t12 -40q0 -20 -6 -52q-7 -42 -17.5 -64t-25 -30t-38.5 -8h-218l-136 -767h351l55 312q6 34 39.5 48.5t104.5 14.5q60 0 84 -11 t24 -36q0 -4 -2 -16l-81 -462q-6 -35 -24 -50t-52 -15h-932q-27 0 -39 11t-12 40z" />
<glyph unicode="M" d="M-48 51q0 25 5 51q11 61 29 82t53 21h59l152 777h-54q-27 0 -39 10.5t-12 39.5q0 21 6 52q7 42 17.5 64t25 30.5t38.5 8.5h274q21 0 32.5 -7t15.5 -24l97 -491l268 491q9 17 23.5 24t36.5 7h295q27 0 39 -11t12 -40q0 -20 -6 -52q-7 -42 -17.5 -64t-25 -30t-38.5 -8h-54 l-123 -777h60q26 0 38 -10.5t12 -39.5q0 -20 -6 -53q-7 -42 -17 -64t-24.5 -30t-38.5 -8h-374q-27 0 -39 11t-12 40q0 25 5 51q11 61 29 82t53 21h92l98 592l-223 -408q-20 -35 -45 -49.5t-67 -14.5q-43 0 -64 15t-28 49l-80 405l-110 -589h93q26 0 38 -10.5t12 -39.5 q0 -20 -6 -53q-7 -42 -17 -64t-24.5 -30t-38.5 -8h-374q-27 0 -39 11t-12 40z" />
<glyph unicode="N" d="M-8 51q0 25 5 51q11 61 29 82t53 21h67l137 777h-67q-27 0 -39 10.5t-12 39.5q0 21 6 52q7 42 17.5 64t25 30.5t38.5 8.5h264q40 0 51 -27l290 -707h4l94 529h-92q-27 0 -39 10.5t-12 39.5q0 21 6 52q7 42 17.5 64t25 30.5t38.5 8.5h375q27 0 39 -11t12 -40q0 -20 -6 -52 q-7 -42 -17.5 -64t-25 -30t-38.5 -8h-57l-166 -938q-6 -33 -33.5 -49.5t-87.5 -16.5q-46 0 -67 12.5t-32 40.5l-315 765h-4l-104 -591h111q26 0 38 -10.5t12 -39.5q0 -20 -6 -53q-7 -42 -17 -64t-24.5 -30t-38.5 -8h-404q-27 0 -39 11t-12 40z" />
<glyph unicode="O" d="M88 471q0 123 38 254t109 231q86 123 214.5 188t287.5 65q142 0 249 -60.5t165 -172t58 -260.5q0 -123 -38 -254t-109 -231q-86 -123 -214.5 -188t-287.5 -65q-142 0 -249 60.5t-165 172t-58 260.5zM353 467q0 -127 57 -194.5t170 -67.5q159 0 255 133q52 73 80.5 178.5 t28.5 203.5q0 127 -57 194.5t-170 67.5q-159 0 -255 -133q-52 -73 -80.5 -178.5t-28.5 -203.5z" />
<glyph unicode="P" d="M2 51q0 25 5 51q11 61 29 82t53 21h147l137 777h-147q-27 0 -39 10.5t-12 39.5q0 21 6 52q7 42 17.5 64t25 30.5t38.5 8.5h537q200 0 305 -87t105 -243q0 -88 -28 -176t-85 -152q-131 -147 -419 -147h-160l-31 -177h217q26 0 38 -10.5t12 -39.5q0 -20 -6 -53 q-7 -42 -17 -64t-24.5 -30t-38.5 -8h-614q-27 0 -39 11t-12 40zM555 597h119q152 0 221 75q27 29 41.5 71.5t14.5 85.5q0 143 -211 143h-119z" />
<glyph unicode="Q" d="M90 -159q0 36 24 57l233 200q-118 50 -184 164t-66 267q0 129 45 257t131 224q87 97 208 148t266 51q142 0 247.5 -58t162.5 -164.5t57 -248.5q0 -129 -45 -257t-131 -224q-87 -97 -208 -148t-266 -51q-25 0 -45 2l-123 -106q83 29 159 29q31 0 56 -3.5t68 -11.5 q36 -7 59 -10.5t48 -3.5q77 0 158 40q12 6 25 6q24 0 45.5 -18.5t34.5 -47.5t13 -56q0 -53 -43 -82q-65 -42 -122.5 -59.5t-115.5 -17.5q-36 0 -72.5 5.5t-85.5 15.5q-63 12 -103.5 17.5t-86.5 5.5q-115 0 -237 -47q-8 -3 -14 -3q-20 0 -41 18.5t-35 47.5q-16 32 -16 62z M362 529q0 -118 58.5 -181t173.5 -63q151 0 244 110q53 63 82 157.5t29 185.5q0 117 -58.5 180.5t-173.5 63.5q-151 0 -244 -110q-53 -63 -82 -157.5t-29 -185.5z" />
<glyph unicode="R" d="M2 51q0 25 5 51q11 61 29 82t53 21h107l137 777h-107q-27 0 -39 10.5t-12 39.5q0 21 6 52q7 42 17.5 64t25 30.5t38.5 8.5h517q185 0 286 -78.5t101 -220.5q0 -283 -313 -355q46 -19 75 -69q27 -47 58 -133q22 -56 23 -60q14 -33 31 -49.5t42 -16.5h19q27 0 39 -11 t12 -40q0 -20 -6 -52q-7 -42 -17.5 -64t-25 -30t-38.5 -8h-87q-78 0 -120.5 32t-72.5 107q-13 31 -31 97q-15 51 -25.5 82.5t-27.5 61.5q-23 42 -58 61.5t-88 19.5h-64l-45 -256h97q26 0 38 -10.5t12 -39.5q0 -20 -6 -53q-7 -42 -17 -64t-24.5 -30t-38.5 -8h-454 q-27 0 -39 11t-12 40zM529 676h149q128 0 183 58q21 23 33.5 56.5t12.5 66.5q0 58 -43.5 86.5t-133.5 28.5h-149z" />
<glyph unicode="S" d="M95 28q0 8 1 13l59 334q6 34 30 48.5t73 14.5q35 0 54 -9t26 -31q36 -103 101.5 -155t165.5 -52q74 0 120 24.5t66 60.5t20 75q0 36 -21 60.5t-61 42.5q-28 13 -62 22.5t-90 23.5q-96 24 -157.5 45.5t-107.5 58.5q-87 69 -87 189q0 114 55.5 209t157 151t233.5 56 q80 0 147.5 -28t109.5 -77l8 42q7 34 33.5 48.5t89.5 14.5q57 0 82.5 -11.5t25.5 -38.5q0 -8 -1 -13l-49 -274q-6 -34 -30 -48.5t-73 -14.5q-33 0 -50.5 8t-25.5 24q-34 74 -101 114.5t-164 40.5q-58 0 -98.5 -23t-61 -57t-20.5 -67q0 -26 17 -43t51 -31q23 -9 59 -18 t73 -17q94 -20 160.5 -41.5t118.5 -59.5q109 -80 109 -226q0 -117 -48 -215.5t-154 -159t-271 -60.5q-82 0 -154 28t-121 78l-7 -43q-5 -34 -32.5 -48.5t-90.5 -14.5q-57 0 -82.5 11.5t-25.5 38.5z" />
<glyph unicode="T" d="M149 683q0 5 2 17l74 422q6 34 24 49.5t53 15.5h902q29 0 42 -10.5t13 -33.5q0 -5 -2 -21l-74 -422q-6 -33 -36 -48t-87 -15q-49 0 -69 10.5t-20 35.5q0 5 2 17l48 272h-181l-135 -767h226q26 0 38 -10.5t12 -39.5q0 -20 -6 -53q-7 -42 -17 -64t-24.5 -30t-38.5 -8h-682 q-27 0 -39 11t-12 40q0 25 5 51q11 61 29 82t53 21h206l135 767h-181l-48 -272q-6 -33 -36 -48t-87 -15q-49 0 -69 10.5t-20 35.5z" />
<glyph unicode="U" d="M157 338q0 46 9 95l97 549h-47q-27 0 -39 10.5t-12 39.5q0 21 6 52q7 42 17.5 64t25 30.5t38.5 8.5h374q27 0 39 -11t12 -40q0 -20 -6 -52q-7 -42 -17.5 -64t-25 -30t-38.5 -8h-77l-97 -549q-6 -34 -6 -63q0 -83 45 -124t125 -41q94 0 159 56.5t85 171.5l97 549h-77 q-27 0 -39 10.5t-12 39.5q0 21 6 52q7 42 17.5 64t25 30.5t38.5 8.5h374q27 0 39 -11t12 -40q0 -20 -6 -52q-7 -42 -17.5 -64t-25 -30t-38.5 -8h-47l-103 -579q-37 -209 -167 -317t-341 -108q-123 0 -214 43.5t-140 124.5t-49 192z" />
<glyph unicode="V" d="M105 1032q0 21 6 52q7 42 17.5 64t25 30.5t38.5 8.5h426q27 0 39 -11t12 -40q0 -20 -6 -52q-7 -42 -17.5 -64t-25 -30t-38.5 -8h-89l107 -613l337 613h-71q-27 0 -39 10.5t-12 39.5q0 21 6 52q7 42 17.5 64t25 30.5t38.5 8.5h412q27 0 39 -11t12 -40q0 -20 -6 -52 q-7 -42 -17.5 -64t-25 -30t-38.5 -8h-68l-529 -939q-20 -36 -51.5 -50.5t-92.5 -14.5t-87 15t-33 50l-184 939h-77q-27 0 -39 10.5t-12 39.5z" />
<glyph unicode="W" d="M95 1032q0 21 6 52q7 42 17.5 64t25 30.5t38.5 8.5h384q27 0 39 -11t12 -40q0 -20 -6 -52q-7 -42 -17.5 -64t-25 -30t-38.5 -8h-118l-46 -574l218 418q12 23 33.5 35t68.5 12q49 0 69.5 -9.5t23.5 -30.5l70 -425l159 574h-104q-27 0 -39 10.5t-12 39.5q0 21 6 52 q7 42 17.5 64t25 30.5t38.5 8.5h384q27 0 39 -11t12 -40q0 -20 -6 -52q-7 -42 -17.5 -64t-25 -30t-38.5 -8h-55l-268 -939q-7 -25 -20.5 -39t-39.5 -20t-72 -6q-66 0 -93 15t-33 50l-77 471l-245 -471q-19 -36 -51 -50.5t-99 -14.5q-46 0 -69.5 6t-32 20t-6.5 39l68 939h-49 q-27 0 -39 10.5t-12 39.5z" />
<glyph unicode="X" d="M-28 51q0 25 5 51q11 61 29 82t53 21h62l372 420l-195 357h-72q-27 0 -39 10.5t-12 39.5q0 21 6 52q7 42 17.5 64t25 30.5t38.5 8.5h388q27 0 39 -11t12 -40q0 -20 -6 -52q-7 -42 -17.5 -64t-25 -30t-38.5 -8h-41l107 -204l178 204h-20q-27 0 -39 10.5t-12 39.5 q0 21 6 52q7 42 17.5 64t25 30.5t38.5 8.5h370q27 0 39 -11t12 -40q0 -20 -6 -52q-7 -42 -17.5 -64t-25 -30t-38.5 -8h-56l-339 -385l217 -392h71q26 0 38 -10.5t12 -39.5q0 -20 -6 -53q-7 -42 -17 -64t-24.5 -30t-38.5 -8h-396q-27 0 -39 11t-12 40q0 25 5 51q11 61 29 82 t53 21h44l-126 237l-208 -237h36q26 0 38 -10.5t12 -39.5q0 -20 -6 -53q-7 -42 -17 -64t-24.5 -30t-38.5 -8h-392q-27 0 -39 11t-12 40z" />
<glyph unicode="Y" d="M155 1032q0 21 6 52q7 42 17.5 64t25 30.5t38.5 8.5h384q27 0 39 -11t12 -40q0 -20 -6 -52q-7 -42 -17.5 -64t-25 -30t-38.5 -8h-67l134 -292l239 292h-52q-27 0 -39 10.5t-12 39.5q0 21 6 52q7 42 17.5 64t25 30.5t38.5 8.5h384q27 0 39 -11t12 -40q0 -20 -6 -52 q-7 -42 -17.5 -64t-25 -30t-38.5 -8h-45l-433 -522l-45 -255h206q26 0 38 -10.5t12 -39.5q0 -20 -6 -53q-7 -42 -17 -64t-24.5 -30t-38.5 -8h-642q-27 0 -39 11t-12 40q0 25 5 51q11 61 29 82t53 21h186l46 262l-245 515h-50q-27 0 -39 10.5t-12 39.5z" />
<glyph unicode="Z" d="M90 51q0 25 5 51q11 64 37 93l681 777h-324l-36 -202q-6 -34 -37.5 -48.5t-95.5 -14.5q-55 0 -77 11t-22 36q0 4 2 16l62 352q6 34 24 49.5t53 15.5h784q27 0 39 -11t12 -40q0 -20 -6 -52q-11 -58 -40 -92l-681 -777h357l40 222q5 33 37 48t96 15q55 0 76.5 -11t21.5 -37 q0 -9 -1 -15l-66 -372q-6 -35 -24 -50t-52 -15h-814q-27 0 -39 11t-12 40z" />
<glyph unicode="[" d="M170 -291q0 5 2 21l279 1579q6 34 23 48.5t51 14.5h510q26 0 37.5 -11.5t11.5 -42.5q0 -23 -6 -59q-11 -63 -30 -87.5t-53 -24.5h-323l-221 -1255h323q26 0 37.5 -11t11.5 -42q0 -23 -6 -59q-11 -67 -29 -90t-54 -23h-510q-28 0 -41 10t-13 32z" />
<glyph unicode="\" d="M322 1325q0 34 43.5 54t114.5 20q59 0 69 -43l397 -1629q2 -8 2 -13q0 -34 -43.5 -54t-114.5 -20q-59 0 -69 43l-397 1629q-2 8 -2 13z" />
<glyph unicode="]" d="M187 -280q0 22 6 60q10 62 29 87t54 25h323l221 1255h-323q-26 0 -37.5 11t-11.5 42q0 23 6 59q11 67 29 90t54 23h510q28 0 41 -10t13 -32q0 -5 -2 -21l-279 -1579q-6 -34 -23 -48.5t-51 -14.5h-510q-26 0 -37.5 11.5t-11.5 41.5z" />
<glyph unicode="^" d="M219 539q0 10 8 23l425 610q13 19 37.5 28t67.5 9q42 0 63.5 -9t27.5 -28l211 -610q2 -8 2 -12q0 -24 -27 -43.5t-67 -29.5q-33 -9 -67 -9q-28 0 -46.5 7.5t-22.5 21.5l-121 390l-253 -390q-18 -29 -84 -29q-24 0 -54 5q-43 9 -71.5 26.5t-28.5 39.5z" />
<glyph unicode="_" d="M-86 -466q0 20 8 65q9 50 18.5 73.5t25 31.5t45.5 8h1166q30 0 42.5 -11t12.5 -42q0 -16 -7 -60q-9 -48 -19 -71.5t-25 -32t-42 -8.5h-1163q-35 0 -48.5 9t-13.5 38z" />
<glyph unicode="`" d="M387 1204q0 36 26 97q44 99 93 99q13 0 27 -8l408 -247q13 -8 20.5 -21t7.5 -27q0 -12 -5 -25q-7 -19 -20.5 -30t-31.5 -11q-10 0 -16 2l-480 125q-29 8 -29 46z" />
<glyph unicode="a" d="M106 380q0 134 58 264.5t173 216t277 85.5q91 0 164.5 -44.5t110.5 -119.5l13 79q5 34 22.5 48.5t51.5 14.5h94q28 0 41 -10t13 -32q0 -5 -2 -21l-90 -511q-4 -21 -4 -42q0 -83 82 -83h5q26 0 37.5 -11t11.5 -42q0 -23 -6 -59q-11 -67 -29 -90t-54 -23h-24 q-84 0 -142 32.5t-81 100.5q-149 -155 -364 -155q-108 0 -189 51t-125 142t-44 209zM372 391q0 -85 42.5 -135t120.5 -50q85 0 149 47t97.5 120.5t33.5 148.5q0 92 -53 144t-137 52q-85 0 -142 -51t-84 -126.5t-27 -149.5z" />
<glyph unicode="b" d="M114 36q0 5 2 17l186 1054h-97q-27 0 -39 10.5t-12 39.5q0 21 6 52q7 42 17.5 64t25 30.5t38.5 8.5h284q28 0 41 -10t13 -32q0 -5 -2 -21l-74 -416q129 113 273 113q109 0 191 -51t126 -142t44 -209q0 -134 -58 -264.5t-174 -216t-279 -85.5q-95 0 -170 47t-113 127 l-17 -99q-6 -33 -36 -48t-87 -15q-49 0 -69 10.5t-20 35.5zM425 402q0 -93 53 -145t138 -52t142.5 52t85 128.5t27.5 147.5q0 87 -43.5 136.5t-121.5 49.5q-86 0 -149.5 -47t-97.5 -120.5t-34 -149.5z" />
<glyph unicode="c" d="M134 389q0 137 64.5 265.5t188.5 210t293 81.5q82 0 143.5 -31.5t84.5 -90.5l10 59q6 34 37.5 48.5t95.5 14.5q55 0 77 -11t22 -36q0 -4 -2 -16l-56 -321q-6 -34 -39.5 -48.5t-104.5 -14.5q-60 0 -84 11t-24 36q0 4 2 16q2 9 2 28q0 56 -39.5 92.5t-114.5 36.5 q-93 0 -158.5 -47.5t-98.5 -120.5t-33 -149q0 -92 53 -144.5t147 -52.5q77 0 161.5 25t168.5 69q17 9 31 9q43 0 74 -83q15 -42 15 -71q0 -25 -11 -42t-34 -29q-100 -49 -213.5 -77t-216.5 -28q-134 0 -234 53t-153.5 146.5t-53.5 211.5z" />
<glyph unicode="d" d="M103 380q0 134 58 264.5t174 216t279 85.5q78 0 143.5 -32.5t108.5 -89.5l50 283h-147q-27 0 -39 10.5t-12 39.5q0 21 6 52q7 42 17.5 64t25 30.5t38.5 8.5h334q28 0 41 -10t13 -32q0 -5 -2 -21l-184 -1044h87q27 0 39 -10.5t12 -39.5q0 -20 -6 -52q-7 -42 -17.5 -64 t-25 -30.5t-38.5 -8.5h-234q-28 0 -41 10t-13 32q0 5 2 21l13 75q-150 -160 -321 -160q-109 0 -191 51t-126 142t-44 209zM369 391q0 -87 43.5 -136.5t121.5 -49.5q86 0 149.5 47t97.5 120.5t34 149.5q0 93 -53 145t-138 52t-142.5 -52t-85 -128.5t-27.5 -147.5z" />
<glyph unicode="e" d="M137 379q0 156 69 285t200 205.5t308 76.5q116 0 204 -39.5t136.5 -110.5t48.5 -162q0 -114 -62.5 -180.5t-188.5 -79.5l-453 -45q15 -61 62 -92.5t123 -31.5q174 0 365 55q12 4 25 4q23 0 36 -19.5t23 -68.5q6 -31 6 -54q0 -31 -13 -47.5t-42 -25.5 q-108 -34 -221.5 -52.5t-218.5 -18.5q-127 0 -219 51.5t-140 142.5t-48 207zM412 516l349 35q42 4 60 24t18 49q0 40 -37.5 67.5t-113.5 27.5q-216 0 -276 -203z" />
<glyph unicode="f" d="M-98 -265q0 30 28 78q42 72 85 72q17 0 34 -11q51 -34 91.5 -48t89.5 -14q59 0 95.5 37.5t51.5 118.5l120 681h-183q-26 0 -38 11.5t-12 41.5q0 21 6 54q11 62 29 85t53 23h183l13 73q33 189 132.5 284.5t271.5 95.5q152 0 294 -57q47 -18 47 -65q0 -26 -15 -68 q-16 -44 -36 -62.5t-44 -18.5q-12 0 -29 5q-62 20 -113.5 29.5t-101.5 9.5q-129 0 -159 -166l-10 -60h311q26 0 38 -12t12 -42q0 -21 -6 -54q-11 -62 -29 -84.5t-53 -22.5h-311l-122 -694q-33 -185 -129 -277.5t-264 -92.5q-88 0 -156 21.5t-143 74.5q-31 22 -31 54z" />
<glyph unicode="g" d="M65 -285q0 27 18 75q19 48 39 68.5t43 20.5q11 0 26 -5q71 -26 148 -41.5t140 -15.5q123 0 187.5 51t82.5 153l18 102q-60 -55 -130 -85t-143 -30q-112 0 -194.5 50t-126 138t-43.5 199q0 135 58 262t173.5 208t277.5 81q96 0 169 -39.5t117 -115.5l14 80q6 33 36 48 t87 15q49 0 69 -10.5t20 -35.5q0 -5 -2 -17l-153 -870q-35 -198 -164.5 -304.5t-362.5 -106.5q-79 0 -173 17.5t-189 51.5q-21 8 -31.5 21t-10.5 35zM397 412q0 -85 44 -131t123 -46q88 0 150.5 43.5t94.5 112t32 143.5q0 90 -53.5 137.5t-138.5 47.5q-82 0 -139 -46 t-85 -116.5t-28 -144.5z" />
<glyph unicode="h" d="M146 42q0 5 2 21l184 1044h-97q-27 0 -39 10.5t-12 39.5q0 21 6 52q7 42 17.5 64t25 30.5t38.5 8.5h284q28 0 41 -10t13 -32q0 -5 -2 -21l-84 -475q148 172 310 172q79 0 137 -34t89.5 -95t31.5 -141q0 -32 -7 -76l-69 -395h77q26 0 38 -10.5t12 -39.5q0 -20 -6 -53 q-7 -42 -17 -64t-24.5 -30t-38.5 -8h-264q-28 0 -41 10t-13 32q0 5 2 21l87 498q6 32 6 58q0 49 -22.5 74.5t-72.5 25.5q-58 0 -120 -55.5t-109.5 -144t-63.5 -181.5l-47 -275q-6 -34 -23 -48.5t-51 -14.5h-124q-28 0 -41 10t-13 32z" />
<glyph unicode="i" d="M255 769q0 21 6 52q7 42 17.5 64t25 30.5t38.5 8.5h380q28 0 41 -10t13 -32q0 -5 -2 -21l-88 -500q-5 -32 -5 -53q0 -53 24.5 -78t72.5 -25q49 0 94.5 14t108.5 48q20 11 36 11q22 0 39 -18t34 -56q21 -47 21 -70q0 -36 -41 -60q-94 -53 -170 -74.5t-164 -21.5 q-146 0 -226.5 77t-80.5 217q0 45 9 96l61 351h-193q-27 0 -39 10.5t-12 39.5zM575 1143q0 8 1 13l29 164q6 35 34.5 49t98.5 14q63 0 90.5 -12t27.5 -38q0 -8 -1 -13l-29 -164q-6 -35 -35 -49t-99 -14q-64 0 -90.5 11.5t-26.5 38.5z" />
<glyph unicode="j" d="M61 -255q0 30 27 82q22 41 42.5 58.5t41.5 17.5q14 0 32 -8q76 -37 133.5 -57.5t103.5 -20.5q130 0 159 166l129 736h-383q-27 0 -39 10.5t-12 39.5q0 21 6 52q7 42 17.5 64t25 30.5t38.5 8.5h570q28 0 41 -10t13 -32q0 -5 -2 -21l-159 -901q-33 -188 -131 -279t-271 -91 q-84 0 -172.5 26.5t-173.5 73.5q-36 20 -36 55zM805 1143q0 8 1 13l29 164q6 35 34.5 49t98.5 14q63 0 90.5 -12t27.5 -38q0 -8 -1 -13l-29 -164q-6 -35 -35 -49t-99 -14q-64 0 -90.5 11.5t-26.5 38.5z" />
<glyph unicode="k" d="M156 42q0 5 2 21l184 1044h-97q-27 0 -39 10.5t-12 39.5q0 21 6 52q7 42 17.5 64t25 30.5t38.5 8.5h284q28 0 41 -10t13 -32q0 -5 -2 -21l-126 -714l289 204h-43q-28 0 -40 10.5t-12 38.5q0 15 5 43q9 55 26.5 74t52.5 19h414q27 0 39.5 -11t12.5 -39q0 -15 -5 -43 q-9 -54 -26.5 -73t-52.5 -19h-30l-430 -290q27 5 48 5q51 0 93 -26q35 -21 54.5 -51t40.5 -75q2 -4 10 -20.5t15.5 -29t15.5 -20.5q24 -27 65 -27h29q26 0 38 -10.5t12 -39.5q0 -20 -6 -53q-7 -42 -17 -64t-24.5 -30t-38.5 -8h-117q-68 0 -116 47q-23 22 -38.5 49t-34.5 67 q-22 46 -37 70.5t-38 42.5q-35 28 -87 28q-28 0 -56.5 -8.5t-51.5 -25.5l-7 -5l-35 -202q-6 -34 -23 -48.5t-51 -14.5h-124q-28 0 -41 10t-13 32z" />
<glyph unicode="l" d="M254 1157q0 21 6 52q7 42 17.5 64t25 30.5t38.5 8.5h420q28 0 41 -10t13 -32q0 -5 -2 -21l-157 -888q-5 -32 -5 -53q0 -53 24.5 -78t72.5 -25q49 0 94.5 14t108.5 48q20 11 36 11q22 0 39 -18t34 -56q21 -47 21 -70q0 -36 -41 -60q-94 -53 -170 -74.5t-164 -21.5 q-146 0 -226.5 77t-80.5 217q0 45 9 96l130 739h-233q-27 0 -39 10.5t-12 39.5z" />
<glyph unicode="m" d="M45 42q0 5 2 21l115 656h-57q-27 0 -39 10.5t-12 39.5q0 21 6 52q7 42 17.5 64t25 30.5t38.5 8.5h174q28 0 41 -10t13 -32q0 -5 -2 -21l-25 -144q63 113 134 171t146 58q76 0 114.5 -52t45.5 -151q55 99 126.5 151t143.5 52q75 0 119 -53.5t44 -156.5q0 -49 -10 -103 l-100 -570q-6 -34 -23 -48.5t-51 -14.5h-124q-28 0 -41 10t-13 32q0 5 2 21l92 523q5 32 5 49q0 54 -39 54q-47 0 -87.5 -73t-64.5 -213l-60 -340q-6 -34 -23 -48.5t-51 -14.5h-124q-28 0 -41 10t-13 32q0 5 2 21l92 523q5 32 5 49q0 54 -39 54q-47 0 -87.5 -73t-64.5 -213 l-60 -340q-6 -34 -23 -48.5t-51 -14.5h-124q-28 0 -41 10t-13 32z" />
<glyph unicode="n" d="M115 769q0 21 6 52q7 42 17.5 64t25 30.5t38.5 8.5h244q28 0 41 -10t13 -32q0 -5 -2 -21l-25 -145q86 119 175 174.5t185 55.5q79 0 137 -34t89.5 -95.5t31.5 -141.5q0 -31 -7 -75l-69 -395h77q26 0 38 -10.5t12 -39.5q0 -20 -6 -53q-7 -42 -17 -64t-24.5 -30t-38.5 -8 h-264q-28 0 -41 10t-13 32q0 5 2 21l87 498q6 33 6 60q0 48 -22.5 73t-72.5 25q-58 0 -120 -55.5t-109.5 -144t-63.5 -181.5l-47 -275q-6 -34 -23 -48.5t-51 -14.5h-124q-28 0 -41 10t-13 32q0 5 2 21l115 656h-97q-27 0 -39 10.5t-12 39.5z" />
<glyph unicode="o" d="M113 388q0 138 66 266t198.5 210t322.5 82q133 0 232 -53t151.5 -146.5t52.5 -210.5q0 -134 -64 -262.5t-196.5 -212t-325.5 -83.5q-134 0 -233 53t-151.5 146t-52.5 211zM380 401q0 -91 53.5 -143.5t146.5 -52.5q88 0 153.5 44.5t100.5 117t35 155.5q0 91 -53 144 t-146 53q-88 0 -154 -44.5t-101 -117.5t-35 -156z" />
<glyph unicode="p" d="M-79 -338q0 20 6 52q7 42 17 64t24.5 30.5t38.5 8.5h87l159 902h-87q-27 0 -39 10.5t-12 39.5q0 21 6 52q7 42 17.5 64t25 30.5t38.5 8.5h234q28 0 41 -10t13 -32q0 -5 -2 -21l-13 -75q150 160 321 160q109 0 191 -51t126 -142t44 -209q0 -134 -58 -264.5t-174 -216 t-279 -85.5q-78 0 -143.5 32.5t-108.5 89.5l-50 -283h167q27 0 39 -11t12 -40q0 -21 -6 -52q-7 -42 -17.5 -64t-25 -30t-38.5 -8h-504q-26 0 -38 10.5t-12 39.5zM445 402q0 -93 53 -145t138 -52t142.5 52t85 128.5t27.5 147.5q0 87 -43.5 136.5t-121.5 49.5 q-86 0 -149.5 -47t-97.5 -120.5t-34 -149.5z" />
<glyph unicode="q" d="M128 380q0 134 58 264.5t174 216t279 85.5q95 0 170 -47t113 -127l17 99q6 33 36 48t87 15q49 0 69 -10.5t20 -35.5q0 -5 -2 -17l-186 -1054h87q27 0 39 -11t12 -40q0 -21 -6 -52q-7 -42 -17.5 -64t-25 -30t-38.5 -8h-504q-27 0 -39 10.5t-12 39.5q0 20 6 52 q7 42 17.5 64t25 30.5t38.5 8.5h167l49 274q-129 -113 -273 -113q-109 0 -191 51t-126 142t-44 209zM394 391q0 -87 43.5 -136.5t121.5 -49.5q86 0 149.5 47t97.5 120.5t34 149.5q0 93 -53 145t-138 52t-142.5 -52t-85 -128.5t-27.5 -147.5z" />
<glyph unicode="r" d="M69 51q0 25 5 51q11 61 29 82t53 21h147l90 514h-117q-27 0 -39 10.5t-12 39.5q0 21 6 52q7 42 17.5 64t25 30.5t38.5 8.5h274q28 0 41 -10t13 -32q0 -5 -2 -21l-36 -207q97 142 203.5 217t204.5 75q83 0 153 -56q37 -30 37 -73q0 -38 -28 -88q-49 -90 -98 -90 q-15 0 -29 8q-49 28 -106 28q-79 0 -158.5 -50.5t-137.5 -139t-76 -195.5l-14 -85h287q26 0 38 -10.5t12 -39.5q0 -20 -6 -53q-7 -42 -17 -64t-24.5 -30t-38.5 -8h-684q-27 0 -39 11t-12 40z" />
<glyph unicode="s" d="M110 28q0 8 1 13l39 223q6 33 32 48t75 15q61 0 78 -28q40 -63 112.5 -92t165.5 -29q92 0 134 26t42 65q0 45 -73 62q-25 6 -104 18q-104 16 -172 32.5t-123 49.5q-52 31 -80.5 79t-28.5 120q0 84 44.5 156t136 116t223.5 44q155 0 264 -78l3 15q7 34 33.5 48.5 t89.5 14.5q57 0 82.5 -11.5t25.5 -38.5q0 -8 -1 -13l-37 -211q-6 -34 -30 -48.5t-73 -14.5q-54 0 -69 21q-48 63 -119.5 89.5t-171.5 26.5q-69 0 -105 -25t-36 -61q0 -23 17.5 -36t53.5 -21q22 -5 103 -17q102 -14 173 -29.5t127 -47.5q52 -30 80.5 -76.5t28.5 -117.5 q0 -88 -44.5 -164t-143.5 -124.5t-255 -48.5q-75 0 -136 19t-119 57l-2 -13q-5 -33 -37 -48t-96 -15q-57 0 -82.5 11.5t-25.5 38.5z" />
<glyph unicode="t" d="M154 702q0 21 6 54q11 62 29 85t53 23h193l50 282q6 34 39 48.5t104 14.5q61 0 85 -11t24 -36q0 -4 -2 -16l-50 -282h371q26 0 38 -12t12 -42q0 -21 -6 -54q-11 -62 -29 -84.5t-53 -22.5h-371l-49 -278q-5 -25 -5 -55q0 -111 105 -111q46 0 111.5 21t152.5 57q15 7 31 7 q22 0 39 -18.5t33 -62.5q14 -40 14 -63t-12 -38t-36 -26q-107 -50 -200.5 -77t-174.5 -27q-151 0 -234 76.5t-83 218.5q0 44 9 95l49 281h-193q-26 0 -38 11.5t-12 41.5z" />
<glyph unicode="u" d="M118 770q0 21 6 52q7 42 17.5 64t25 30t38.5 8h264q28 0 41 -10t13 -32q0 -5 -2 -21l-87 -498q-6 -31 -6 -58q0 -49 22.5 -74.5t72.5 -25.5q58 0 120.5 55.5t110 144.5t62.5 181l22 133h-107q-27 0 -39 11t-12 40q0 21 6 52q7 42 17.5 64t25 30t38.5 8h294q28 0 41 -10 t13 -32q0 -5 -2 -21l-115 -656h77q27 0 39 -10.5t12 -39.5q0 -20 -6 -52q-7 -42 -17.5 -64t-25 -30.5t-38.5 -8.5h-224q-28 0 -41 10t-13 32q0 5 2 21l25 145q-86 -119 -175 -174.5t-185 -55.5q-79 0 -137 34t-89.5 95.5t-31.5 141.5q0 39 7 75l69 395h-77q-27 0 -39 11 t-12 40z" />
<glyph unicode="v" d="M108 769q0 21 6 52q7 42 17.5 64t25 30.5t38.5 8.5h391q27 0 39 -11t12 -40q0 -20 -6 -52q-7 -42 -17.5 -64t-25 -30t-38.5 -8h-67l100 -441l256 441h-55q-27 0 -39 10.5t-12 39.5q0 21 6 52q7 42 17.5 64t25 30.5t38.5 8.5h397q27 0 39 -11t12 -40q0 -20 -6 -52 q-7 -42 -17.5 -64t-25 -30t-38.5 -8h-68l-412 -676q-21 -35 -57.5 -50t-106.5 -15t-100.5 15.5t-39.5 49.5l-172 676h-66q-27 0 -39 10.5t-12 39.5z" />
<glyph unicode="w" d="M48 769q0 21 6 52q7 42 17.5 64t25 30.5t38.5 8.5h336q27 0 39 -11t12 -40q0 -20 -6 -52q-7 -42 -17.5 -64t-25 -30t-38.5 -8h-85l7 -388l198 339q16 28 40.5 42.5t65.5 14.5q43 0 62.5 -12t25.5 -38l76 -346l146 388h-72q-27 0 -39 10.5t-12 39.5q0 21 6 52 q7 42 17.5 64t25 30.5t38.5 8.5h342q27 0 39 -11t12 -40q0 -20 -6 -52q-7 -42 -17.5 -64t-25 -30t-38.5 -8h-41l-265 -676q-14 -36 -43 -50.5t-89 -14.5q-59 0 -84 15.5t-32 49.5l-77 355l-205 -355q-20 -35 -51 -50t-89 -15q-60 0 -83 14.5t-25 50.5l-24 676h-34 q-27 0 -39 10.5t-12 39.5z" />
<glyph unicode="x" d="M12 51q0 25 5 51q11 61 29 82t53 21h44l311 274l-202 240h-53q-27 0 -39 10.5t-12 39.5q0 21 6 52q7 42 17.5 64t25 30.5t38.5 8.5h374q27 0 39 -11t12 -40q0 -20 -6 -52q-7 -42 -17.5 -64t-25 -30t-38.5 -8h-31l111 -132l146 132h-12q-27 0 -39 10.5t-12 39.5q0 21 6 52 q7 42 17.5 64t25 30.5t38.5 8.5h354q27 0 39 -11t12 -40q0 -20 -6 -52q-7 -42 -17.5 -64t-25 -30t-38.5 -8h-48l-296 -261l212 -253h52q26 0 38 -10.5t12 -39.5q0 -20 -6 -53q-7 -42 -17 -64t-24.5 -30t-38.5 -8h-384q-27 0 -39 11t-12 40q0 25 5 51q11 61 29 82t53 21h32 l-114 135l-149 -135h7q26 0 38 -10.5t12 -39.5q0 -20 -6 -53q-7 -42 -17 -64t-24.5 -30t-38.5 -8h-354q-27 0 -39 11t-12 40z" />
<glyph unicode="y" d="M-7 -307q0 119 64 123q80 5 134.5 31.5t105.5 83t129 169.5l-192 619h-75q-27 0 -39 10.5t-12 39.5q0 21 6 52q7 42 17.5 64t25 30.5t38.5 8.5h394q27 0 39 -11t12 -40q0 -20 -6 -52q-7 -42 -17.5 -64t-25 -30t-38.5 -8h-60l107 -380l241 380h-54q-27 0 -39 10.5 t-12 39.5q0 21 6 52q7 42 17.5 64t25 30.5t38.5 8.5h394q27 0 39 -11t12 -40q0 -20 -6 -52q-7 -42 -17.5 -64t-25 -30t-38.5 -8h-59l-520 -776q-95 -142 -171.5 -215t-161.5 -103.5t-212 -34.5q-32 -1 -48 21.5t-16 81.5z" />
<glyph unicode="z" d="M90 51q0 25 5 51q5 27 15.5 45t31.5 37l587 535h-295l-20 -114q-6 -35 -34.5 -49t-98.5 -14q-58 0 -78.5 9.5t-20.5 32.5q0 5 2 21l45 254q6 35 24 50t52 15h794q27 0 39 -10.5t12 -39.5q0 -20 -6 -52q-4 -27 -14.5 -45t-31.5 -37l-587 -535h315l22 124q5 34 34 48.5 t99 14.5q58 0 78.5 -10t20.5 -33q0 -6 -2 -20l-47 -264q-6 -35 -24 -50t-52 -15h-814q-27 0 -39 11t-12 40z" />
<glyph unicode="{" d="M185 486q0 22 6 56q7 44 17.5 66.5t25 31t38.5 8.5q121 0 188.5 51t74.5 147l9 126q10 141 72.5 229t180.5 129.5t300 41.5q26 0 38 -11t12 -41q0 -20 -6 -53q-8 -46 -18.5 -69t-25 -31t-38.5 -8q-94 0 -149.5 -22.5t-82.5 -68t-35 -118.5l-11 -104 q-12 -116 -79.5 -189.5t-205.5 -109.5l-1 -10q185 -57 185 -235q0 -29 -7 -73l-18 -104q-9 -56 -9 -86q0 -80 47.5 -119.5t160.5 -39.5q27 0 38.5 -10t11.5 -39q0 -22 -6 -58q-11 -62 -29 -84t-53 -22q-216 0 -318.5 80.5t-102.5 242.5q0 62 13 130l21 113q5 24 5 53 q0 149 -199 149q-26 0 -38 11t-12 40z" />
<glyph unicode="|" d="M365 -305q0 8 1 13l287 1623q6 33 41.5 48t101.5 15q57 0 82.5 -11.5t25.5 -38.5q0 -8 -1 -13l-287 -1623q-6 -33 -41.5 -48t-101.5 -15q-57 0 -82.5 11.5t-25.5 38.5z" />
<glyph unicode="}" d="M101 -281q0 20 6 53q8 46 18.5 69t25 31t38.5 8q92 0 148 24t84 71.5t37 123.5l17 138q15 118 81 192.5t204 106.5l1 10q-94 30 -136 93t-42 156q0 27 3 55l7 64q5 47 5 76q0 58 -18 94.5t-62.5 55.5t-123.5 19q-27 0 -38.5 10t-11.5 39q0 22 6 58q11 62 29 84t53 22 q149 0 240 -36.5t133 -110t42 -187.5q0 -47 -8 -109l-10 -79q-3 -22 -3 -44q0 -77 46 -117.5t149 -40.5q26 0 38 -11t12 -40q0 -21 -6 -56q-7 -44 -17.5 -66.5t-25 -31t-38.5 -8.5q-120 0 -187 -53.5t-77 -154.5l-14 -150q-14 -151 -76.5 -240.5t-178.5 -129.5t-300 -40 q-26 0 -38 11t-12 41z" />
<glyph unicode="~" d="M161 552q0 17 13 38q59 87 128.5 131t159.5 44q53 0 100 -17.5t113 -51.5q53 -28 90 -42.5t73 -14.5q39 0 69.5 16t62.5 50q18 19 40 19q33 0 74 -37q47 -41 47 -78q0 -17 -13 -38q-59 -87 -128.5 -131t-159.5 -44q-54 0 -102.5 18t-112.5 52q-54 28 -90 42t-71 14 q-39 0 -69.5 -16t-62.5 -50q-18 -19 -40 -19q-33 0 -74 37q-47 41 -47 78z" />
<glyph unicode="&#xa0;" />
<glyph unicode="&#xa1;" d="M310 -316q0 9 3 21l173 657q15 58 109 58t89 -58l-59 -657q-4 -50 -50 -50h-230q-35 0 -35 29zM472 657l38 214q6 34 42.5 48.5t117.5 14.5q83 0 119.5 -15t30.5 -48l-38 -214q-6 -34 -42.5 -48.5t-117.5 -14.5q-83 0 -119.5 15t-30.5 48z" />
<glyph unicode="&#xa2;" d="M159 529q0 129 57.5 251t168 205t261.5 98l29 166q6 35 27.5 49t76.5 14q47 0 65.5 -10t18.5 -34q0 -5 -2 -19l-33 -186q77 -31 105 -99l10 59q6 34 37.5 48.5t95.5 14.5q55 0 77 -11t22 -36q0 -4 -2 -16l-56 -321q-6 -34 -39.5 -48.5t-104.5 -14.5q-60 0 -84 11t-24 36 q0 4 2 16q2 18 2 27q0 40 -20 71t-59 46l-88 -495q121 17 253 88q17 9 31 9q43 0 74 -83q15 -42 15 -71q0 -25 -11 -42t-34 -29q-85 -42 -180.5 -69t-187.5 -34l-32 -182q-6 -35 -28 -49t-77 -14q-46 0 -64.5 10t-18.5 34q0 5 2 19l34 193q-99 22 -171 78t-110 138.5 t-38 181.5zM425 542q0 -62 24.5 -106.5t69.5 -67.5l83 469q-57 -24 -97 -71.5t-60 -106t-20 -117.5z" />
<glyph unicode="&#xa3;" d="M129 97q0 44 28 64q101 70 153 128t70 136h-163q-26 0 -38 10.5t-12 40.5q0 26 7 61q8 47 19 71t25.5 33t38.5 9h98q-18 55 -26.5 91.5t-8.5 78.5q0 91 46.5 181t144.5 149t242 59q81 0 166 -22.5t163 -66.5q36 -21 36 -52q0 -7 -1 -11l-37 -207q-6 -34 -37.5 -48.5 t-95.5 -14.5q-55 0 -77 11t-22 36q0 4 2 16l20 111q-59 31 -138 31q-56 0 -92 -27t-52 -66.5t-16 -79.5q0 -33 8 -62t25 -74q5 -11 13 -33h291q26 0 38 -11t12 -41q0 -26 -7 -61q-8 -47 -18.5 -71t-25.5 -32.5t-39 -8.5h-240q-16 -59 -54 -110.5t-100 -107.5q81 28 147 28 q38 0 87 -9q50 -8 78 -8q63 0 138 33q8 4 17 4q21 0 40 -21t30 -52q11 -30 11 -59q0 -22 -7.5 -40t-21.5 -27q-68 -44 -124.5 -61t-112.5 -17q-30 0 -57 4t-75 12q-53 10 -87 14.5t-74 4.5q-114 0 -238 -47q-4 -2 -12 -2q-21 0 -41 21.5t-33 53.5q-11 30 -11 58z" />
<glyph unicode="&#xa4;" d="M79 251q0 19 24 40l160 135q-24 63 -24 141q0 69 20.5 134t59.5 121l-103 122q-18 21 -18 37t14.5 35.5t48.5 47.5q57 49 87 49q19 0 40 -24l103 -123q91 40 194 40q117 0 206 -53l159 133q20 17 37 17q16 0 35.5 -14.5t47.5 -48.5q48 -56 48 -85q0 -20 -24 -41 l-158 -133q25 -69 25 -144q0 -69 -20.5 -134.5t-59.5 -120.5l103 -123q17 -20 17 -37q0 -16 -14.5 -35.5t-48.5 -47.5q-56 -48 -85 -48q-20 0 -41 24l-103 123q-91 -40 -194 -40q-119 0 -208 54l-159 -133q-21 -18 -37 -18t-35.5 14.5t-47.5 48.5q-49 57 -49 87zM461 579 q0 -73 46.5 -119t123.5 -46q64 0 111.5 29.5t72 78t24.5 103.5q0 73 -46.5 119t-123.5 46q-64 0 -111.5 -29.5t-72 -78t-24.5 -103.5z" />
<glyph unicode="&#xa5;" d="M138 376q0 15 5 43q10 55 27.5 74t52.5 19h256l-68 143h-183q-28 0 -40 10.5t-12 38.5q0 15 5 43q9 54 27 73.5t53 19.5h62l-67 142h-50q-27 0 -39 10.5t-12 39.5q0 21 6 52q7 42 17.5 64t25 30.5t38.5 8.5h384q27 0 39 -11t12 -40q0 -20 -6 -52q-7 -42 -17.5 -64 t-25 -30t-38.5 -8h-67l134 -292l239 292h-52q-27 0 -39 10.5t-12 39.5q0 21 6 52q7 42 17.5 64t25 30.5t38.5 8.5h384q27 0 39 -11t12 -40q0 -20 -6 -52q-7 -42 -17.5 -64t-25 -30t-38.5 -8h-45l-118 -142h58q27 0 39 -10.5t12 -38.5q0 -14 -5 -44q-9 -54 -26.5 -73 t-52.5 -19h-179l-118 -143h252q27 0 39 -10.5t12 -37.5q0 -15 -5 -45q-9 -54 -26.5 -73t-52.5 -19h-286l-21 -122h206q26 0 38 -10.5t12 -39.5q0 -20 -6 -53q-7 -42 -17 -64t-24.5 -30t-38.5 -8h-642q-27 0 -39 11t-12 40q0 25 5 51q11 61 29 82t53 21h186l21 122h-286 q-28 0 -40 10.5t-12 38.5z" />
<glyph unicode="&#xa6;" d="M365 -305q0 8 1 13l110 623q6 33 41.5 48t101.5 15q57 0 82.5 -11.5t25.5 -38.5q0 -8 -1 -13l-110 -623q-6 -33 -41.5 -48t-101.5 -15q-57 0 -82.5 11.5t-25.5 38.5zM542 695q0 8 1 13l110 623q6 33 41.5 48t101.5 15q57 0 82.5 -11.5t25.5 -38.5q0 -8 -1 -13l-110 -623 q-6 -33 -41.5 -48t-101.5 -15q-57 0 -82.5 11.5t-25.5 38.5z" />
<glyph unicode="&#xa7;" d="M109 -186q0 5 2 21l46 262q6 34 37.5 48.5t95.5 14.5q55 0 77 -11t22 -36q0 -4 -2 -16l-23 -132h193q54 0 78.5 27t24.5 70q0 27 -13 48t-45 38l-266 145q-69 38 -108 100.5t-39 140.5q0 90 41.5 164.5t117.5 129.5q-2 13 -2 40q0 79 35.5 151.5t112.5 120t194 47.5h404 q29 0 42 -10.5t13 -33.5q0 -5 -2 -21l-46 -262q-6 -34 -37.5 -48.5t-95.5 -14.5q-55 0 -77 11t-22 36q0 4 2 16l23 132h-193q-54 0 -78.5 -27t-24.5 -70q0 -27 13 -48t45 -38l266 -145q69 -38 108 -100.5t39 -140.5q0 -90 -42 -165t-118 -130q3 -19 3 -39 q0 -79 -35.5 -151.5t-112.5 -120t-194 -47.5h-404q-29 0 -42 10.5t-13 33.5zM439 565q0 -31 16.5 -54t53.5 -44l242 -132q21 -12 39 -24q27 35 27 81q0 31 -16.5 54t-53.5 44l-242 132q-21 11 -39 24q-27 -33 -27 -81z" />
<glyph unicode="&#xa8;" d="M373 1176q0 47 24 85.5t63.5 61t83.5 22.5q57 0 94 -38t37 -93q0 -47 -23.5 -85.5t-63 -61t-83.5 -22.5q-57 0 -94.5 38t-37.5 93zM833 1176q0 47 24 85.5t63.5 61t83.5 22.5q57 0 94 -38t37 -93q0 -47 -23.5 -85.5t-63 -61t-83.5 -22.5q-57 0 -94.5 38t-37.5 93z" />
<glyph unicode="&#xa9;" d="M55 493q0 182 86.5 347t243 267t357.5 102q148 0 261 -66.5t174.5 -183.5t61.5 -265q0 -182 -86 -347t-242.5 -267t-357.5 -102q-148 0 -261.5 67t-175 184.5t-61.5 263.5zM206 495q0 -107 42.5 -189.5t124 -128.5t193.5 -46q152 0 271 80t185 209.5t66 271.5 q0 108 -42.5 190.5t-123.5 128t-193 45.5q-152 0 -271.5 -80t-185.5 -209.5t-66 -271.5zM336 528q0 77 29 159.5t86 140.5q52 53 122 81t151 28q47 0 93 -11t85 -32q30 -17 30 -44q0 -20 -16 -58q-26 -60 -61 -60q-5 0 -19 4q-75 28 -133 28q-79 0 -129 -53 q-28 -30 -43.5 -73t-15.5 -89q0 -61 33.5 -94t94.5 -33q57 0 143 28q11 4 20 4q15 0 23.5 -13.5t17.5 -45.5q8 -29 8 -47q0 -20 -9 -33t-30 -23q-46 -21 -96.5 -32t-97.5 -11q-84 0 -149 34t-101 97t-36 148z" />
<glyph unicode="&#xaa;" d="M301 774q0 103 44.5 203.5t133.5 166t214 65.5q71 0 127 -32t84 -88l10 62q4 26 27.5 37.5t67.5 11.5q45 0 62.5 -11.5t13.5 -37.5l-72 -411q-3 -18 -3 -33q0 -58 57 -58h4q19 0 27.5 -8.5t8.5 -31.5q0 -19 -4 -43q-8 -50 -21.5 -67t-40.5 -17h-18q-65 0 -108 29.5 t-56 90.5q-112 -137 -273 -137q-88 0 -152.5 41t-98.5 111t-34 157zM505 783q0 -67 33.5 -105t93.5 -38q66 0 115 36t75 92t26 115q0 72 -41 112t-106 40t-109.5 -40t-65.5 -98.5t-21 -113.5z" />
<glyph unicode="&#xab;" d="M105 565q0 15 12 27l320 339q15 15 35 15q36 0 94 -49q55 -46 55 -86q0 -22 -17 -39l-228 -232l178 -274q10 -17 10 -30q0 -44 -74 -85q-54 -30 -88 -30q-30 0 -45 24l-245 397q-7 12 -7 23zM625 545q0 15 12 27l340 359q15 15 35 15q36 0 94 -49q55 -46 55 -86 q0 -22 -17 -39l-248 -252l158 -254q10 -17 10 -31q0 -43 -74 -84q-54 -30 -88 -30q-30 0 -45 24l-225 377q-7 12 -7 23z" />
<glyph unicode="&#xac;" d="M174 682q0 22 6 56q7 45 17.5 67.5t25 31t38.5 8.5h850q29 0 42.5 -10.5t13.5 -34.5q0 -4 -2 -20l-83 -472q-6 -34 -39 -48.5t-104 -14.5q-61 0 -85 11t-24 36q0 4 2 16l57 322h-665q-26 0 -38 11t-12 41z" />
<glyph unicode="&#xad;" d="M188 377q0 26 7 61q8 47 19 71t25.5 33t38.5 9h704q26 0 38 -11t12 -41q0 -26 -7 -61q-8 -47 -18.5 -71t-25.5 -32.5t-39 -8.5h-704q-26 0 -38 10.5t-12 40.5z" />
<glyph unicode="&#xae;" d="M194 737q0 152 72 289.5t202.5 222.5t297.5 85q124 0 218 -55.5t145 -153t51 -220.5q0 -151 -71.5 -289t-202 -223t-297.5 -85q-124 0 -218 56t-145.5 153.5t-51.5 219.5zM319 739q0 -89 35.5 -157.5t103.5 -107t162 -38.5q126 0 225.5 67t154.5 174.5t55 225.5 q0 90 -35.5 158.5t-103.5 106.5t-161 38q-126 0 -225.5 -67t-155 -174.5t-55.5 -225.5zM442 586q0 6 2 20l75 432q5 28 19.5 40.5t42.5 12.5h180q89 0 137 -48.5t48 -127.5q0 -61 -34 -110.5t-102 -79.5l55 -78q11 -16 11 -28q0 -25 -48 -52q-33 -20 -52 -20t-35 25l-74 124 h-66l-16 -90q-5 -30 -21 -42t-60 -12q-35 0 -48.5 8t-13.5 26zM624 825h82q48 0 69.5 23.5t21.5 52.5q0 24 -16 38t-45 14h-90z" />
<glyph unicode="&#xaf;" d="M400 1120q0 21 6 52q7 42 17.5 64t25 30.5t38.5 8.5h562q27 0 39 -11t12 -40q0 -20 -6 -52q-7 -42 -17.5 -64t-25 -30t-38.5 -8h-562q-27 0 -39 10.5t-12 39.5z" />
<glyph unicode="&#xb0;" d="M303 855q0 98 44 179t124.5 128t185.5 47q89 0 156 -37t103.5 -103t36.5 -150q0 -98 -44 -179t-124.5 -128t-185.5 -47q-89 0 -156 37t-103.5 103t-36.5 150zM516 870q0 -42 27 -68t72 -26q54 0 89.5 36.5t35.5 91.5q0 42 -27 68t-72 26q-54 0 -89.5 -36.5t-35.5 -91.5z " />
<glyph unicode="&#xb1;" d="M112 52q0 16 7 60q8 47 19 71t25.5 33t38.5 9h762q26 0 38 -11t12 -41q0 -26 -7 -61q-8 -47 -18.5 -71t-25 -32.5t-38.5 -8.5h-762q-27 0 -39 10.5t-12 41.5zM222 671q0 26 7 61q8 47 18.5 71t25 33t38.5 9h268l39 218q4 24 15 37t36.5 19.5t72.5 6.5q59 0 81 -10t22 -34 q0 -5 -2 -19l-39 -218h269q26 0 38 -11.5t12 -42.5q0 -21 -6 -59q-8 -47 -18.5 -71t-25.5 -32.5t-39 -8.5h-269l-39 -219q-4 -24 -15 -37t-36 -19.5t-72 -6.5q-59 0 -81.5 10t-22.5 35q0 4 2 18l39 219h-268q-26 0 -38 10.5t-12 40.5z" />
<glyph unicode="&#xb2;" d="M327 542q0 20 4 41q10 56 46 82l347 243q78 54 106.5 87t28.5 77q0 41 -26 65t-74 24q-72 0 -136 -26l-16 -88q-5 -26 -24.5 -37t-69.5 -11q-52 0 -74 12t-17 36l32 178q4 29 39 45q70 32 147 48t151 16q86 0 147 -30.5t93 -84.5t32 -125q0 -64 -26 -113.5t-72 -90.5 t-126 -96l-206 -141h220l8 46q4 25 24 36.5t70 11.5q52 0 73.5 -12t17.5 -36l-30 -170q-5 -25 -17 -35.5t-37 -10.5h-595q-40 0 -40 59z" />
<glyph unicode="&#xb3;" d="M325 568q0 24 12 55q12 33 30 51t35 18q7 0 11 -2q51 -23 110 -37.5t113 -14.5q165 0 165 108q0 31 -24 48t-69 17h-93q-19 0 -28 11t-9 36q0 19 4 39q8 46 23.5 66t39.5 20h74q73 0 107 30t34 73q0 36 -29 55.5t-88 19.5q-67 0 -142 -26l-11 -58q-4 -25 -24 -36.5 t-70 -11.5q-52 0 -73.5 12t-17.5 36l28 158q7 33 39 45q69 26 145 40t150 14q95 0 161.5 -28t100.5 -78t34 -116q0 -152 -156 -215q49 -23 76 -64t27 -94q0 -71 -33.5 -132.5t-117.5 -101.5t-225 -40q-74 0 -150.5 15t-128.5 39q-30 14 -30 49z" />
<glyph unicode="&#xb4;" d="M523 1097q0 14 7.5 27t20.5 21l408 247q14 8 27 8q49 0 93 -99q26 -61 26 -97q0 -38 -29 -46l-480 -125q-6 -2 -16 -2q-18 0 -31.5 11t-20.5 30q-5 13 -5 25z" />
<glyph unicode="&#xb5;" d="M54 -351q0 5 2 21l210 1191q6 34 23 48.5t51 14.5h124q28 0 41 -10t13 -32q0 -5 -2 -21l-86 -488q-5 -30 -5 -50q0 -108 114 -108q58 0 120.5 43t109 115.5t60.5 154.5l59 333q6 34 23 48.5t51 14.5h124q28 0 41 -10t13 -32q0 -5 -2 -21l-141 -798q-6 -34 -23 -48.5 t-51 -14.5h-84q-28 0 -41 10t-13 32q0 5 2 21l17 98q-74 -89 -164 -136t-188 -47q-50 0 -89 15l-57 -323q-6 -34 -23 -48.5t-51 -14.5h-124q-28 0 -41 10t-13 32z" />
<glyph unicode="&#xb6;" d="M170 751q0 118 54.5 217.5t165 159t268.5 59.5h556q27 0 39 -11t12 -40q0 -20 -6 -52q-7 -42 -17.5 -64t-25 -30t-38.5 -8h-66l-235 -1329q-6 -33 -36 -48t-87 -15q-49 0 -69 10.5t-20 35.5q0 5 2 17l235 1329h-160l-235 -1329q-6 -33 -36 -48t-87 -15q-49 0 -69 10.5 t-20 35.5q0 5 2 17l139 787q-125 20 -195.5 103t-70.5 208z" />
<glyph unicode="&#xb7;" d="M459 453l45 254q6 34 44 48.5t124 14.5q89 0 128.5 -15t33.5 -48l-45 -254q-6 -34 -44 -48.5t-124 -14.5q-88 0 -128 15t-34 48z" />
<glyph unicode="&#xb8;" d="M221 -399q0 22 14 53q12 27 27 43.5t31 16.5q7 0 11 -2q42 -17 76.5 -25.5t80.5 -8.5q52 0 74 18t22 46q0 42 -65 42q-21 0 -53 -5q-13 -3 -23 4.5t-10 24.5q0 8 1 12l36 208h175l-21 -121q96 3 145.5 -40t49.5 -117q0 -36 -12 -74t-36 -65q-71 -83 -257 -83 q-149 0 -248 41q-18 7 -18 32z" />
<glyph unicode="&#xb9;" d="M339 528q0 19 4 40q8 45 23 65t43 20h178l77 437l-148 -70q-18 -8 -30 -8q-17 0 -31 14t-27 46q-12 30 -12 50q0 18 10 30.5t31 22.5l341 151q19 8 38 8q24 0 40 -12t16 -35q0 -8 -1 -12l-109 -622h191q21 0 31 -11.5t10 -36.5q0 -9 -4 -37q-8 -45 -23.5 -65t-43.5 -20 h-564q-21 0 -30.5 11t-9.5 34z" />
<glyph unicode="&#xba;" d="M308 780q0 107 48.5 205.5t147.5 161t241 62.5q101 0 175.5 -40t114.5 -111.5t40 -163.5q0 -104 -47.5 -202.5t-146 -162.5t-243.5 -64q-102 0 -176.5 40t-114 111.5t-39.5 163.5zM513 790q0 -70 38.5 -110t105.5 -40q64 0 112.5 34t74 90t25.5 119q0 70 -38 111t-105 41 q-64 0 -112.5 -34.5t-74.5 -90.5t-26 -120z" />
<glyph unicode="&#xbb;" d="M114 257q0 22 17 39l248 252l-158 254q-10 17 -10 31q0 43 74 84q54 30 88 30q30 0 45 -24l225 -377q7 -12 7 -23q0 -15 -12 -27l-340 -359q-15 -15 -35 -15q-36 0 -94 49q-55 46 -55 86zM654 257q0 22 17 39l228 232l-178 274q-10 17 -10 30q0 44 74 85q54 30 88 30 q30 0 45 -24l245 -397q7 -12 7 -23q0 -15 -12 -27l-320 -339q-15 -15 -35 -15q-36 0 -94 49q-55 46 -55 86z" />
<glyph unicode="&#xbc;" d="M36 722q0 14 3 33q7 37 20 54t36 17h148l65 364l-124 -58q-16 -7 -25 -7q-14 0 -26 11.5t-23 38.5q-10 27 -10 41q0 16 8.5 26.5t26.5 18.5l284 126q14 7 32 7q23 0 36.5 -13.5t9.5 -36.5l-91 -518h159q34 0 34 -40q0 -13 -3 -31q-7 -38 -20 -54.5t-36 -16.5h-471 q-17 0 -25 9t-8 29zM66 280q0 26 25 39l1029 521q12 5 21 5q26 0 48 -45q14 -28 14 -50q0 -26 -25 -39l-1029 -521q-12 -5 -21 -5q-26 0 -48 45q-14 28 -14 50zM570 30q0 16 5.5 28t18.5 25l381 383q34 37 106 37q45 0 66.5 -12.5t17.5 -33.5l-67 -378h76q18 0 26 -10t8 -31 q0 -12 -3 -30q-7 -37 -20.5 -54t-36.5 -17h-74l-22 -121q-4 -21 -21.5 -30.5t-59.5 -9.5q-48 0 -68 10t-16 30l21 121h-291q-20 0 -33.5 28.5t-13.5 64.5zM783 79h150l52 212z" />
<glyph unicode="&#xbd;" d="M36 722q0 14 3 33q7 37 20 54t36 17h148l65 364l-124 -58q-16 -7 -25 -7q-14 0 -26 11.5t-23 38.5q-10 27 -10 41q0 16 8.5 26.5t26.5 18.5l284 126q14 7 32 7q23 0 36.5 -13.5t9.5 -36.5l-91 -518h159q34 0 34 -40q0 -13 -3 -31q-7 -38 -20 -54.5t-36 -16.5h-471 q-17 0 -25 9t-8 29zM66 330q0 26 25 39l1029 521q12 5 21 5q26 0 48 -45q14 -28 14 -50q0 -26 -25 -39l-1029 -521q-12 -5 -21 -5q-26 0 -48 45q-14 28 -14 50zM599 -167q0 14 3 34q8 47 39 69l290 202q65 45 88.5 72.5t23.5 64.5q0 34 -21.5 54t-61.5 20q-61 0 -114 -21 l-13 -74q-4 -21 -20.5 -30.5t-58.5 -9.5q-84 0 -76 40l27 149q5 25 33 37q58 27 122.5 40.5t125.5 13.5q108 0 168 -55t60 -146q0 -53 -22 -94.5t-60.5 -76t-104.5 -79.5l-172 -117h183l7 38q3 21 19.5 30.5t58.5 9.5q44 0 62 -9.5t14 -30.5l-25 -142q-4 -20 -14 -29t-31 -9 h-497q-33 0 -33 49z" />
<glyph unicode="&#xbe;" d="M44 756q0 15 10 45q10 27 25 42t29 15q4 0 10 -2q42 -19 91.5 -31t94.5 -12q138 0 138 90q0 26 -20 40t-58 14h-77q-31 0 -31 40q0 14 3 32q7 38 20 55t33 17h61q61 0 89.5 25t28.5 61q0 30 -24.5 46t-73.5 16q-56 0 -118 -21l-9 -49q-4 -21 -20.5 -30.5t-58.5 -9.5 q-82 0 -76 40l24 132q5 27 32 38q119 45 246 45q119 0 183.5 -50.5t64.5 -135.5q0 -127 -131 -179q41 -19 63.5 -53t22.5 -79q0 -94 -71.5 -161t-242.5 -67q-61 0 -125 12.5t-108 32.5q-25 11 -25 42zM66 290q0 26 25 39l1029 521q12 5 21 5q26 0 48 -45q14 -28 14 -50 q0 -26 -25 -39l-1029 -521q-12 -5 -21 -5q-26 0 -48 45q-14 28 -14 50zM570 30q0 16 5.5 28t18.5 25l381 383q34 37 106 37q45 0 66.5 -12.5t17.5 -33.5l-67 -378h76q18 0 26 -10t8 -31q0 -12 -3 -30q-7 -37 -20.5 -54t-36.5 -17h-74l-22 -121q-4 -21 -21.5 -30.5 t-59.5 -9.5q-48 0 -68 10t-16 30l21 121h-291q-20 0 -33.5 28.5t-13.5 64.5zM783 79h150l52 212z" />
<glyph unicode="&#xbf;" d="M129 -33q0 143 88 240t284 139l24 91q6 25 30.5 36.5t79.5 11.5t74.5 -11.5t17.5 -36.5l-17 -208q-3 -44 -39 -51l-113 -20q-85 -15 -129 -55t-44 -105q0 -58 35 -92t103 -34q79 0 158 30l15 92q5 35 31 49t88 14q58 0 85 -12t27 -39q0 -8 -1 -12l-35 -200 q-8 -43 -52 -61q-183 -78 -340 -78q-117 0 -200.5 38.5t-126.5 109t-43 164.5zM519 697l31 174q6 34 40 48.5t110 14.5q78 0 112 -15t28 -48l-31 -174q-6 -34 -40 -48.5t-110 -14.5q-78 0 -112 15t-28 48z" />
<glyph unicode="&#xc0;" d="M-67 52q0 16 5 51q7 42 17.5 64t25 30t38.5 8h80l390 777h-163q-27 0 -39 11t-12 40q0 21 6 52q7 42 17.5 64t25 30t38.5 8h470q40 0 62 -15.5t27 -49.5l129 -917h91q27 0 39 -10.5t12 -39.5q0 -20 -6 -52q-7 -42 -17.5 -64t-25 -30.5t-38.5 -8.5h-424q-27 0 -39 11 t-12 40q0 21 6 52q7 42 17.5 64t25 30t38.5 8h90l-20 145h-364l-70 -145h70q27 0 39 -10.5t12 -39.5q0 -20 -6 -52q-7 -42 -17.5 -64t-25 -30.5t-38.5 -8.5h-404q-27 0 -38.5 11t-11.5 41zM377 1474q0 36 26 97q44 99 93 99q13 0 27 -8l408 -247q13 -8 20.5 -21t7.5 -27 q0 -12 -5 -25q-7 -19 -20.5 -30t-31.5 -11q-10 0 -16 2l-480 125q-29 8 -29 46zM517 555h249l-44 427h-6z" />
<glyph unicode="&#xc1;" d="M-67 52q0 16 5 51q7 42 17.5 64t25 30t38.5 8h80l390 777h-163q-27 0 -39 11t-12 40q0 21 6 52q7 42 17.5 64t25 30t38.5 8h470q40 0 62 -15.5t27 -49.5l129 -917h91q27 0 39 -10.5t12 -39.5q0 -20 -6 -52q-7 -42 -17.5 -64t-25 -30.5t-38.5 -8.5h-424q-27 0 -39 11 t-12 40q0 21 6 52q7 42 17.5 64t25 30t38.5 8h90l-20 145h-364l-70 -145h70q27 0 39 -10.5t12 -39.5q0 -20 -6 -52q-7 -42 -17.5 -64t-25 -30.5t-38.5 -8.5h-404q-27 0 -38.5 11t-11.5 41zM463 1367q0 14 7.5 27t20.5 21l408 247q14 8 27 8q49 0 93 -99q26 -61 26 -97 q0 -38 -29 -46l-480 -125q-6 -2 -16 -2q-18 0 -31.5 11t-20.5 30q-5 13 -5 25zM517 555h249l-44 427h-6z" />
<glyph unicode="&#xc2;" d="M-67 52q0 16 5 51q7 42 17.5 64t25 30t38.5 8h80l390 777h-163q-27 0 -39 11t-12 40q0 21 6 52q7 42 17.5 64t25 30t38.5 8h470q40 0 62 -15.5t27 -49.5l129 -917h91q27 0 39 -10.5t12 -39.5q0 -20 -6 -52q-7 -42 -17.5 -64t-25 -30.5t-38.5 -8.5h-424q-27 0 -39 11 t-12 40q0 21 6 52q7 42 17.5 64t25 30t38.5 8h90l-20 145h-364l-70 -145h70q27 0 39 -10.5t12 -39.5q0 -20 -6 -52q-7 -42 -17.5 -64t-25 -30.5t-38.5 -8.5h-404q-27 0 -38.5 11t-11.5 41zM371 1363q0 19 19 34l323 261q24 18 58 18q37 0 52 -18l251 -261q15 -15 15 -35 q0 -16 -13 -37q-20 -32 -48 -32q-12 0 -24 6l-255 134l-303 -134q-12 -5 -20 -5q-25 0 -44 35q-11 19 -11 34zM517 555h249l-44 427h-6z" />
<glyph unicode="&#xc3;" d="M-67 52q0 16 5 51q7 42 17.5 64t25 30t38.5 8h80l390 777h-163q-27 0 -39 11t-12 40q0 21 6 52q7 42 17.5 64t25 30t38.5 8h470q40 0 62 -15.5t27 -49.5l129 -917h91q27 0 39 -10.5t12 -39.5q0 -20 -6 -52q-7 -42 -17.5 -64t-25 -30.5t-38.5 -8.5h-424q-27 0 -39 11 t-12 40q0 21 6 52q7 42 17.5 64t25 30t38.5 8h90l-20 145h-364l-70 -145h70q27 0 39 -10.5t12 -39.5q0 -20 -6 -52q-7 -42 -17.5 -64t-25 -30.5t-38.5 -8.5h-404q-27 0 -38.5 11t-11.5 41zM346 1451q0 25 18 40q106 93 205 93q37 0 72.5 -9.5t84.5 -28.5q48 -18 78.5 -27 t62.5 -9q63 0 122 31q14 7 23 7q31 0 55 -44q15 -28 15 -51q0 -26 -19 -42q-111 -93 -203 -93q-38 0 -73.5 10t-84.5 29q-45 17 -76.5 26t-63.5 9q-65 0 -124 -31q-11 -6 -22 -6q-30 0 -54 44q-16 29 -16 52zM517 555h249l-44 427h-6z" />
<glyph unicode="&#xc4;" d="M-67 52q0 16 5 51q7 42 17.5 64t25 30t38.5 8h80l390 777h-163q-27 0 -39 11t-12 40q0 21 6 52q7 42 17.5 64t25 30t38.5 8h470q40 0 62 -15.5t27 -49.5l129 -917h91q27 0 39 -10.5t12 -39.5q0 -20 -6 -52q-7 -42 -17.5 -64t-25 -30.5t-38.5 -8.5h-424q-27 0 -39 11 t-12 40q0 21 6 52q7 42 17.5 64t25 30t38.5 8h90l-20 145h-364l-70 -145h70q27 0 39 -10.5t12 -39.5q0 -20 -6 -52q-7 -42 -17.5 -64t-25 -30.5t-38.5 -8.5h-404q-27 0 -38.5 11t-11.5 41zM373 1446q0 47 24 85.5t63.5 61t83.5 22.5q57 0 94 -38t37 -93q0 -47 -23.5 -85.5 t-63 -61t-83.5 -22.5q-57 0 -94.5 38t-37.5 93zM517 555h249l-44 427h-6zM833 1446q0 47 24 85.5t63.5 61t83.5 22.5q57 0 94 -38t37 -93q0 -47 -23.5 -85.5t-63 -61t-83.5 -22.5q-57 0 -94.5 38t-37.5 93z" />
<glyph unicode="&#xc5;" d="M-67 52q0 16 5 51q7 42 17.5 64t25 30t38.5 8h80l390 777h-163q-27 0 -39 11t-12 40q0 21 6 52q7 42 17.5 64t25 30t38.5 8h470q40 0 62 -15.5t27 -49.5l129 -917h91q27 0 39 -10.5t12 -39.5q0 -20 -6 -52q-7 -42 -17.5 -64t-25 -30.5t-38.5 -8.5h-424q-27 0 -39 11 t-12 40q0 21 6 52q7 42 17.5 64t25 30t38.5 8h90l-20 145h-364l-70 -145h70q27 0 39 -10.5t12 -39.5q0 -20 -6 -52q-7 -42 -17.5 -64t-25 -30.5t-38.5 -8.5h-404q-27 0 -38.5 11t-11.5 41zM511 1501q0 76 39.5 144t108.5 110t152 42q64 0 116 -31t82 -83.5t30 -114.5 q0 -73 -38.5 -141t-107.5 -111t-154 -43q-64 0 -116 30.5t-82 83t-30 114.5zM517 555h249l-44 427h-6zM670 1517q0 -37 24.5 -61t62.5 -24q32 0 60 17t45 45t17 59q0 36 -24 60.5t-62 24.5q-33 0 -61.5 -17.5t-45 -45.5t-16.5 -58z" />
<glyph unicode="&#xc6;" d="M-88 50q0 21 6 52q10 61 28 82t53 21h53l336 777h-102q-27 0 -39 10.5t-12 39.5q0 21 6 52q7 42 17.5 64t25 30.5t38.5 8.5h912q29 0 42 -10.5t13 -33.5q0 -5 -2 -21l-48 -272q-6 -34 -34.5 -48.5t-88.5 -14.5q-50 0 -69.5 10t-19.5 34q0 5 2 19l22 122h-170l-43 -243 h114q26 0 38 -12t12 -42q0 -21 -6 -54q-11 -62 -29 -84.5t-53 -22.5h-114l-53 -299h180l31 172q6 34 35 48.5t92 14.5q54 0 74.5 -10t20.5 -35q0 -4 -2 -18l-57 -322q-6 -35 -24 -50t-52 -15h-500q-29 0 -42.5 10.5t-13.5 34.5q0 4 2 20l47 265h-197l-54 -125h41 q26 0 38 -10.5t12 -39.5q0 -20 -6 -53q-7 -42 -17 -64t-24.5 -30t-38.5 -8h-329q-27 0 -39 10.5t-12 39.5zM431 545h145l75 427h-52z" />
<glyph unicode="&#xc7;" d="M128 471q0 181 73 351.5t216 278.5t340 108q90 0 153 -35.5t93 -95.5l13 68q7 34 38 48.5t95 14.5q55 0 77 -11t22 -36q0 -4 -2 -16l-68 -384q-6 -34 -39 -48.5t-104 -14.5q-61 0 -85 11t-24 36q0 4 2 16q5 32 5 54q0 77 -45 121.5t-131 44.5q-130 0 -211.5 -82.5 t-116.5 -199t-35 -225.5q0 -130 60.5 -200t175.5 -70q86 0 166.5 24t185.5 73q14 7 30 7q46 0 70 -84q11 -41 11 -66q0 -28 -12 -46t-36 -29q-204 -93 -395 -105l-13 -72q96 3 145.5 -40t49.5 -117q0 -36 -12 -74t-36 -65q-71 -83 -257 -83q-149 0 -248 41q-18 7 -18 32 q0 22 14 53q12 27 27 43.5t31 16.5q7 0 11 -2q42 -17 76.5 -25.5t80.5 -8.5q52 0 74 18t22 46q0 42 -65 42q-21 0 -53 -5q-13 -3 -23 4.5t-10 24.5q0 8 1 12l30 171q-108 24 -186.5 89t-120.5 165t-42 226z" />
<glyph unicode="&#xc8;" d="M2 51q0 25 5 51q11 61 29 82t53 21h97l137 777h-97q-27 0 -39 10.5t-12 39.5q0 21 6 52q7 42 17.5 64t25 30.5t38.5 8.5h912q29 0 42 -10.5t13 -33.5q0 -5 -2 -21l-53 -302q-6 -34 -37.5 -48.5t-95.5 -14.5q-55 0 -77 11t-22 36q0 4 2 16l27 152h-400l-45 -253h244 q26 0 38 -12t12 -42q0 -21 -6 -54q-11 -62 -29 -84.5t-53 -22.5h-244l-51 -289h410l36 202q6 34 38 48.5t99 14.5q58 0 81.5 -11t23.5 -36q0 -4 -2 -16l-62 -352q-6 -35 -24 -50t-52 -15h-932q-27 0 -39 11t-12 40zM437 1474q0 36 26 97q44 99 93 99q13 0 27 -8l408 -247 q13 -8 20.5 -21t7.5 -27q0 -12 -5 -25q-7 -19 -20.5 -30t-31.5 -11q-10 0 -16 2l-480 125q-29 8 -29 46z" />
<glyph unicode="&#xc9;" d="M2 51q0 25 5 51q11 61 29 82t53 21h97l137 777h-97q-27 0 -39 10.5t-12 39.5q0 21 6 52q7 42 17.5 64t25 30.5t38.5 8.5h912q29 0 42 -10.5t13 -33.5q0 -5 -2 -21l-53 -302q-6 -34 -37.5 -48.5t-95.5 -14.5q-55 0 -77 11t-22 36q0 4 2 16l27 152h-400l-45 -253h244 q26 0 38 -12t12 -42q0 -21 -6 -54q-11 -62 -29 -84.5t-53 -22.5h-244l-51 -289h410l36 202q6 34 38 48.5t99 14.5q58 0 81.5 -11t23.5 -36q0 -4 -2 -16l-62 -352q-6 -35 -24 -50t-52 -15h-932q-27 0 -39 11t-12 40zM523 1367q0 14 7.5 27t20.5 21l408 247q14 8 27 8 q49 0 93 -99q26 -61 26 -97q0 -38 -29 -46l-480 -125q-6 -2 -16 -2q-18 0 -31.5 11t-20.5 30q-5 13 -5 25z" />
<glyph unicode="&#xca;" d="M2 51q0 25 5 51q11 61 29 82t53 21h97l137 777h-97q-27 0 -39 10.5t-12 39.5q0 21 6 52q7 42 17.5 64t25 30.5t38.5 8.5h912q29 0 42 -10.5t13 -33.5q0 -5 -2 -21l-53 -302q-6 -34 -37.5 -48.5t-95.5 -14.5q-55 0 -77 11t-22 36q0 4 2 16l27 152h-400l-45 -253h244 q26 0 38 -12t12 -42q0 -21 -6 -54q-11 -62 -29 -84.5t-53 -22.5h-244l-51 -289h410l36 202q6 34 38 48.5t99 14.5q58 0 81.5 -11t23.5 -36q0 -4 -2 -16l-62 -352q-6 -35 -24 -50t-52 -15h-932q-27 0 -39 11t-12 40zM421 1363q0 19 19 34l323 261q24 18 58 18q37 0 52 -18 l251 -261q15 -15 15 -35q0 -16 -13 -37q-20 -32 -48 -32q-12 0 -24 6l-255 134l-303 -134q-12 -5 -20 -5q-25 0 -44 35q-11 19 -11 34z" />
<glyph unicode="&#xcb;" d="M2 51q0 25 5 51q11 61 29 82t53 21h97l137 777h-97q-27 0 -39 10.5t-12 39.5q0 21 6 52q7 42 17.5 64t25 30.5t38.5 8.5h912q29 0 42 -10.5t13 -33.5q0 -5 -2 -21l-53 -302q-6 -34 -37.5 -48.5t-95.5 -14.5q-55 0 -77 11t-22 36q0 4 2 16l27 152h-400l-45 -253h244 q26 0 38 -12t12 -42q0 -21 -6 -54q-11 -62 -29 -84.5t-53 -22.5h-244l-51 -289h410l36 202q6 34 38 48.5t99 14.5q58 0 81.5 -11t23.5 -36q0 -4 -2 -16l-62 -352q-6 -35 -24 -50t-52 -15h-932q-27 0 -39 11t-12 40zM413 1446q0 47 24 85.5t63.5 61t83.5 22.5q57 0 94 -38 t37 -93q0 -47 -23.5 -85.5t-63 -61t-83.5 -22.5q-57 0 -94.5 38t-37.5 93zM873 1446q0 47 24 85.5t63.5 61t83.5 22.5q57 0 94 -38t37 -93q0 -47 -23.5 -85.5t-63 -61t-83.5 -22.5q-57 0 -94.5 38t-37.5 93z" />
<glyph unicode="&#xcc;" d="M132 51q0 25 5 51q11 61 29 82t53 21h236l137 777h-256q-27 0 -39 10.5t-12 39.5q0 21 6 52q7 42 17.5 64t25 30.5t38.5 8.5h742q27 0 39 -11t12 -40q0 -20 -6 -52q-7 -42 -17.5 -64t-25 -30t-38.5 -8h-236l-137 -777h256q26 0 38 -10.5t12 -39.5q0 -20 -6 -53 q-7 -42 -17 -64t-24.5 -30t-38.5 -8h-742q-27 0 -39 11t-12 40zM417 1474q0 36 26 97q44 99 93 99q13 0 27 -8l408 -247q13 -8 20.5 -21t7.5 -27q0 -12 -5 -25q-7 -19 -20.5 -30t-31.5 -11q-10 0 -16 2l-480 125q-29 8 -29 46z" />
<glyph unicode="&#xcd;" d="M132 51q0 25 5 51q11 61 29 82t53 21h236l137 777h-256q-27 0 -39 10.5t-12 39.5q0 21 6 52q7 42 17.5 64t25 30.5t38.5 8.5h742q27 0 39 -11t12 -40q0 -20 -6 -52q-7 -42 -17.5 -64t-25 -30t-38.5 -8h-236l-137 -777h256q26 0 38 -10.5t12 -39.5q0 -20 -6 -53 q-7 -42 -17 -64t-24.5 -30t-38.5 -8h-742q-27 0 -39 11t-12 40zM533 1367q0 14 7.5 27t20.5 21l408 247q14 8 27 8q49 0 93 -99q26 -61 26 -97q0 -38 -29 -46l-480 -125q-6 -2 -16 -2q-18 0 -31.5 11t-20.5 30q-5 13 -5 25z" />
<glyph unicode="&#xce;" d="M132 51q0 25 5 51q11 61 29 82t53 21h236l137 777h-256q-27 0 -39 10.5t-12 39.5q0 21 6 52q7 42 17.5 64t25 30.5t38.5 8.5h742q27 0 39 -11t12 -40q0 -20 -6 -52q-7 -42 -17.5 -64t-25 -30t-38.5 -8h-236l-137 -777h256q26 0 38 -10.5t12 -39.5q0 -20 -6 -53 q-7 -42 -17 -64t-24.5 -30t-38.5 -8h-742q-27 0 -39 11t-12 40zM401 1363q0 19 19 34l323 261q24 18 58 18q37 0 52 -18l251 -261q15 -15 15 -35q0 -16 -13 -37q-20 -32 -48 -32q-12 0 -24 6l-255 134l-303 -134q-12 -5 -20 -5q-25 0 -44 35q-11 19 -11 34z" />
<glyph unicode="&#xcf;" d="M132 51q0 25 5 51q11 61 29 82t53 21h236l137 777h-256q-27 0 -39 10.5t-12 39.5q0 21 6 52q7 42 17.5 64t25 30.5t38.5 8.5h742q27 0 39 -11t12 -40q0 -20 -6 -52q-7 -42 -17.5 -64t-25 -30t-38.5 -8h-236l-137 -777h256q26 0 38 -10.5t12 -39.5q0 -20 -6 -53 q-7 -42 -17 -64t-24.5 -30t-38.5 -8h-742q-27 0 -39 11t-12 40zM403 1446q0 47 24 85.5t63.5 61t83.5 22.5q57 0 94 -38t37 -93q0 -47 -23.5 -85.5t-63 -61t-83.5 -22.5q-57 0 -94.5 38t-37.5 93zM863 1446q0 47 24 85.5t63.5 61t83.5 22.5q57 0 94 -38t37 -93 q0 -47 -23.5 -85.5t-63 -61t-83.5 -22.5q-57 0 -94.5 38t-37.5 93z" />
<glyph unicode="&#xd0;" d="M2 51q0 25 5 51q11 61 29 82t53 21h97l51 289h-117q-27 0 -38.5 11t-11.5 42q0 22 6 59q8 47 19 71t25.5 33t38.5 9h118l46 263h-97q-27 0 -39 10.5t-12 39.5q0 21 6 52q7 42 17.5 64t25 30.5t38.5 8.5h451q151 0 260 -56t167 -161.5t58 -251.5q0 -158 -57.5 -321 t-203.5 -280t-393 -117h-491q-27 0 -39 11t-12 40zM438 215h104q138 0 225.5 75t126 188t38.5 234q0 129 -64.5 194.5t-192.5 65.5h-104l-44 -253h134q26 0 38 -11t12 -41q0 -26 -7 -61q-8 -47 -18.5 -71t-25 -32.5t-38.5 -8.5h-135z" />
<glyph unicode="&#xd1;" d="M-8 51q0 25 5 51q11 61 29 82t53 21h67l137 777h-67q-27 0 -39 10.5t-12 39.5q0 21 6 52q7 42 17.5 64t25 30.5t38.5 8.5h264q40 0 51 -27l290 -707h4l94 529h-92q-27 0 -39 10.5t-12 39.5q0 21 6 52q7 42 17.5 64t25 30.5t38.5 8.5h375q27 0 39 -11t12 -40q0 -20 -6 -52 q-7 -42 -17.5 -64t-25 -30t-38.5 -8h-57l-166 -938q-6 -33 -33.5 -49.5t-87.5 -16.5q-46 0 -67 12.5t-32 40.5l-315 765h-4l-104 -591h111q26 0 38 -10.5t12 -39.5q0 -20 -6 -53q-7 -42 -17 -64t-24.5 -30t-38.5 -8h-404q-27 0 -39 11t-12 40zM416 1451q0 25 18 40 q106 93 205 93q37 0 72.5 -9.5t84.5 -28.5q48 -18 78.5 -27t62.5 -9q63 0 122 31q14 7 23 7q31 0 55 -44q15 -28 15 -51q0 -26 -19 -42q-111 -93 -203 -93q-38 0 -73.5 10t-84.5 29q-45 17 -76.5 26t-63.5 9q-65 0 -124 -31q-11 -6 -22 -6q-30 0 -54 44q-16 29 -16 52z" />
<glyph unicode="&#xd2;" d="M88 471q0 123 38 254t109 231q86 123 214.5 188t287.5 65q142 0 249 -60.5t165 -172t58 -260.5q0 -123 -38 -254t-109 -231q-86 -123 -214.5 -188t-287.5 -65q-142 0 -249 60.5t-165 172t-58 260.5zM353 467q0 -127 57 -194.5t170 -67.5q159 0 255 133q52 73 80.5 178.5 t28.5 203.5q0 127 -57 194.5t-170 67.5q-159 0 -255 -133q-52 -73 -80.5 -178.5t-28.5 -203.5zM427 1474q0 36 26 97q44 99 93 99q13 0 27 -8l408 -247q13 -8 20.5 -21t7.5 -27q0 -12 -5 -25q-7 -19 -20.5 -30t-31.5 -11q-10 0 -16 2l-480 125q-29 8 -29 46z" />
<glyph unicode="&#xd3;" d="M88 471q0 123 38 254t109 231q86 123 214.5 188t287.5 65q142 0 249 -60.5t165 -172t58 -260.5q0 -123 -38 -254t-109 -231q-86 -123 -214.5 -188t-287.5 -65q-142 0 -249 60.5t-165 172t-58 260.5zM353 467q0 -127 57 -194.5t170 -67.5q159 0 255 133q52 73 80.5 178.5 t28.5 203.5q0 127 -57 194.5t-170 67.5q-159 0 -255 -133q-52 -73 -80.5 -178.5t-28.5 -203.5zM513 1367q0 14 7.5 27t20.5 21l408 247q14 8 27 8q49 0 93 -99q26 -61 26 -97q0 -38 -29 -46l-480 -125q-6 -2 -16 -2q-18 0 -31.5 11t-20.5 30q-5 13 -5 25z" />
<glyph unicode="&#xd4;" d="M88 471q0 123 38 254t109 231q86 123 214.5 188t287.5 65q142 0 249 -60.5t165 -172t58 -260.5q0 -123 -38 -254t-109 -231q-86 -123 -214.5 -188t-287.5 -65q-142 0 -249 60.5t-165 172t-58 260.5zM353 467q0 -127 57 -194.5t170 -67.5q159 0 255 133q52 73 80.5 178.5 t28.5 203.5q0 127 -57 194.5t-170 67.5q-159 0 -255 -133q-52 -73 -80.5 -178.5t-28.5 -203.5zM401 1363q0 19 19 34l323 261q24 18 58 18q37 0 52 -18l251 -261q15 -15 15 -35q0 -16 -13 -37q-20 -32 -48 -32q-12 0 -24 6l-255 134l-303 -134q-12 -5 -20 -5q-25 0 -44 35 q-11 19 -11 34z" />
<glyph unicode="&#xd5;" d="M88 471q0 123 38 254t109 231q86 123 214.5 188t287.5 65q142 0 249 -60.5t165 -172t58 -260.5q0 -123 -38 -254t-109 -231q-86 -123 -214.5 -188t-287.5 -65q-142 0 -249 60.5t-165 172t-58 260.5zM353 467q0 -127 57 -194.5t170 -67.5q159 0 255 133q52 73 80.5 178.5 t28.5 203.5q0 127 -57 194.5t-170 67.5q-159 0 -255 -133q-52 -73 -80.5 -178.5t-28.5 -203.5zM406 1451q0 25 18 40q106 93 205 93q37 0 72.5 -9.5t84.5 -28.5q48 -18 78.5 -27t62.5 -9q63 0 122 31q14 7 23 7q31 0 55 -44q15 -28 15 -51q0 -26 -19 -42q-111 -93 -203 -93 q-38 0 -73.5 10t-84.5 29q-45 17 -76.5 26t-63.5 9q-65 0 -124 -31q-11 -6 -22 -6q-30 0 -54 44q-16 29 -16 52z" />
<glyph unicode="&#xd6;" d="M88 471q0 123 38 254t109 231q86 123 214.5 188t287.5 65q142 0 249 -60.5t165 -172t58 -260.5q0 -123 -38 -254t-109 -231q-86 -123 -214.5 -188t-287.5 -65q-142 0 -249 60.5t-165 172t-58 260.5zM353 467q0 -127 57 -194.5t170 -67.5q159 0 255 133q52 73 80.5 178.5 t28.5 203.5q0 127 -57 194.5t-170 67.5q-159 0 -255 -133q-52 -73 -80.5 -178.5t-28.5 -203.5zM413 1446q0 47 24 85.5t63.5 61t83.5 22.5q57 0 94 -38t37 -93q0 -47 -23.5 -85.5t-63 -61t-83.5 -22.5q-57 0 -94.5 38t-37.5 93zM873 1446q0 47 24 85.5t63.5 61t83.5 22.5 q57 0 94 -38t37 -93q0 -47 -23.5 -85.5t-63 -61t-83.5 -22.5q-57 0 -94.5 38t-37.5 93z" />
<glyph unicode="&#xd7;" d="M203 336q0 20 24 41l259 220l-182 218q-17 20 -17 37q0 16 14.5 35.5t47.5 47.5q58 48 87 48q20 0 41 -24l181 -217l258 219q20 17 37 17t36 -14.5t48 -48.5q48 -56 48 -86q0 -21 -25 -41l-258 -219l183 -219q17 -20 17 -37q0 -16 -14.5 -35.5t-48.5 -48.5 q-56 -48 -86 -48q-21 0 -41 25l-182 218l-259 -220q-20 -17 -37 -17q-16 0 -35.5 14.5t-47.5 47.5q-48 58 -48 87z" />
<glyph unicode="&#xd8;" d="M49 19q0 19 22 44l97 111q-80 122 -80 297q0 123 38 254t109 231q86 123 214.5 188t287.5 65q157 0 271 -74l86 98q13 15 24.5 22t24.5 7q23 0 63 -31q23 -19 33.5 -33.5t10.5 -28.5q0 -18 -22 -43l-99 -113q80 -122 80 -297q0 -123 -38 -254t-109 -231 q-86 -123 -214.5 -188t-287.5 -65q-157 0 -271 74l-84 -96q-13 -15 -24.5 -22t-24.5 -7q-23 0 -63 31q-44 34 -44 61zM353 467q0 -40 6 -75l487 558q-52 32 -129 32q-159 0 -255 -133q-52 -73 -80.5 -178.5t-28.5 -203.5zM451 237q52 -32 129 -32q159 0 255 133 q52 73 80.5 178.5t28.5 203.5q0 41 -6 75z" />
<glyph unicode="&#xd9;" d="M157 338q0 46 9 95l97 549h-47q-27 0 -39 10.5t-12 39.5q0 21 6 52q7 42 17.5 64t25 30.5t38.5 8.5h374q27 0 39 -11t12 -40q0 -20 -6 -52q-7 -42 -17.5 -64t-25 -30t-38.5 -8h-77l-97 -549q-6 -34 -6 -63q0 -83 45 -124t125 -41q94 0 159 56.5t85 171.5l97 549h-77 q-27 0 -39 10.5t-12 39.5q0 21 6 52q7 42 17.5 64t25 30.5t38.5 8.5h374q27 0 39 -11t12 -40q0 -20 -6 -52q-7 -42 -17.5 -64t-25 -30t-38.5 -8h-47l-103 -579q-37 -209 -167 -317t-341 -108q-123 0 -214 43.5t-140 124.5t-49 192zM427 1474q0 36 26 97q44 99 93 99 q13 0 27 -8l408 -247q13 -8 20.5 -21t7.5 -27q0 -12 -5 -25q-7 -19 -20.5 -30t-31.5 -11q-10 0 -16 2l-480 125q-29 8 -29 46z" />
<glyph unicode="&#xda;" d="M157 338q0 46 9 95l97 549h-47q-27 0 -39 10.5t-12 39.5q0 21 6 52q7 42 17.5 64t25 30.5t38.5 8.5h374q27 0 39 -11t12 -40q0 -20 -6 -52q-7 -42 -17.5 -64t-25 -30t-38.5 -8h-77l-97 -549q-6 -34 -6 -63q0 -83 45 -124t125 -41q94 0 159 56.5t85 171.5l97 549h-77 q-27 0 -39 10.5t-12 39.5q0 21 6 52q7 42 17.5 64t25 30.5t38.5 8.5h374q27 0 39 -11t12 -40q0 -20 -6 -52q-7 -42 -17.5 -64t-25 -30t-38.5 -8h-47l-103 -579q-37 -209 -167 -317t-341 -108q-123 0 -214 43.5t-140 124.5t-49 192zM523 1367q0 14 7.5 27t20.5 21l408 247 q14 8 27 8q49 0 93 -99q26 -61 26 -97q0 -38 -29 -46l-480 -125q-6 -2 -16 -2q-18 0 -31.5 11t-20.5 30q-5 13 -5 25z" />
<glyph unicode="&#xdb;" d="M157 338q0 46 9 95l97 549h-47q-27 0 -39 10.5t-12 39.5q0 21 6 52q7 42 17.5 64t25 30.5t38.5 8.5h374q27 0 39 -11t12 -40q0 -20 -6 -52q-7 -42 -17.5 -64t-25 -30t-38.5 -8h-77l-97 -549q-6 -34 -6 -63q0 -83 45 -124t125 -41q94 0 159 56.5t85 171.5l97 549h-77 q-27 0 -39 10.5t-12 39.5q0 21 6 52q7 42 17.5 64t25 30.5t38.5 8.5h374q27 0 39 -11t12 -40q0 -20 -6 -52q-7 -42 -17.5 -64t-25 -30t-38.5 -8h-47l-103 -579q-37 -209 -167 -317t-341 -108q-123 0 -214 43.5t-140 124.5t-49 192zM401 1363q0 19 19 34l323 261q24 18 58 18 q37 0 52 -18l251 -261q15 -15 15 -35q0 -16 -13 -37q-20 -32 -48 -32q-12 0 -24 6l-255 134l-303 -134q-12 -5 -20 -5q-25 0 -44 35q-11 19 -11 34z" />
<glyph unicode="&#xdc;" d="M157 338q0 46 9 95l97 549h-47q-27 0 -39 10.5t-12 39.5q0 21 6 52q7 42 17.5 64t25 30.5t38.5 8.5h374q27 0 39 -11t12 -40q0 -20 -6 -52q-7 -42 -17.5 -64t-25 -30t-38.5 -8h-77l-97 -549q-6 -34 -6 -63q0 -83 45 -124t125 -41q94 0 159 56.5t85 171.5l97 549h-77 q-27 0 -39 10.5t-12 39.5q0 21 6 52q7 42 17.5 64t25 30.5t38.5 8.5h374q27 0 39 -11t12 -40q0 -20 -6 -52q-7 -42 -17.5 -64t-25 -30t-38.5 -8h-47l-103 -579q-37 -209 -167 -317t-341 -108q-123 0 -214 43.5t-140 124.5t-49 192zM403 1446q0 47 24 85.5t63.5 61t83.5 22.5 q57 0 94 -38t37 -93q0 -47 -23.5 -85.5t-63 -61t-83.5 -22.5q-57 0 -94.5 38t-37.5 93zM863 1446q0 47 24 85.5t63.5 61t83.5 22.5q57 0 94 -38t37 -93q0 -47 -23.5 -85.5t-63 -61t-83.5 -22.5q-57 0 -94.5 38t-37.5 93z" />
<glyph unicode="&#xdd;" d="M155 1032q0 21 6 52q7 42 17.5 64t25 30.5t38.5 8.5h384q27 0 39 -11t12 -40q0 -20 -6 -52q-7 -42 -17.5 -64t-25 -30t-38.5 -8h-67l134 -292l239 292h-52q-27 0 -39 10.5t-12 39.5q0 21 6 52q7 42 17.5 64t25 30.5t38.5 8.5h384q27 0 39 -11t12 -40q0 -20 -6 -52 q-7 -42 -17.5 -64t-25 -30t-38.5 -8h-45l-433 -522l-45 -255h206q26 0 38 -10.5t12 -39.5q0 -20 -6 -53q-7 -42 -17 -64t-24.5 -30t-38.5 -8h-642q-27 0 -39 11t-12 40q0 25 5 51q11 61 29 82t53 21h186l46 262l-245 515h-50q-27 0 -39 10.5t-12 39.5zM553 1367q0 14 7.5 27 t20.5 21l408 247q14 8 27 8q49 0 93 -99q26 -61 26 -97q0 -38 -29 -46l-480 -125q-6 -2 -16 -2q-18 0 -31.5 11t-20.5 30q-5 13 -5 25z" />
<glyph unicode="&#xde;" d="M62 51q0 25 5 51q11 61 29 82t53 21h147l137 777h-147q-27 0 -39 10.5t-12 39.5q0 21 6 52q7 42 17.5 64t25 30.5t38.5 8.5h584q27 0 39 -11t12 -40q0 -20 -6 -52q-7 -42 -17.5 -64t-25 -30t-38.5 -8h-187l-17 -96h139q158 0 238 -67t80 -180q0 -63 -21 -125.5 t-65 -106.5q-104 -106 -334 -106h-140l-17 -96h187q26 0 38 -10.5t12 -39.5q0 -20 -6 -53q-7 -42 -17 -64t-24.5 -30t-38.5 -8h-584q-27 0 -39 11t-12 40zM597 496h109q94 0 130 39q14 15 21.5 37t7.5 45q0 39 -30.5 56.5t-94.5 17.5h-109z" />
<glyph unicode="&#xdf;" d="M137 42q0 5 2 21l143 814q36 205 157.5 322.5t315.5 117.5q113 0 195.5 -40.5t126 -112t43.5 -162.5q0 -233 -208 -334q80 -32 122 -96.5t42 -153.5q0 -110 -50 -210t-162 -165t-289 -65q-34 0 -48.5 18.5t-14.5 64.5q0 19 1 30q4 62 20.5 87t51.5 27q114 4 171 65 t57 152q0 61 -40 94t-115 33q-25 0 -37 13t-12 43q0 23 6 56q11 62 29.5 86.5t53.5 26.5q91 7 132 64.5t41 130.5q0 54 -33 87.5t-101 33.5q-81 0 -134 -55.5t-71 -160.5l-143 -811q-6 -34 -23 -48.5t-51 -14.5h-124q-28 0 -41 10t-13 32z" />
<glyph unicode="&#xe0;" d="M106 380q0 134 58 264.5t173 216t277 85.5q91 0 164.5 -44.5t110.5 -119.5l13 79q5 34 22.5 48.5t51.5 14.5h94q28 0 41 -10t13 -32q0 -5 -2 -21l-90 -511q-4 -21 -4 -42q0 -83 82 -83h5q26 0 37.5 -11t11.5 -42q0 -23 -6 -59q-11 -67 -29 -90t-54 -23h-24 q-84 0 -142 32.5t-81 100.5q-149 -155 -364 -155q-108 0 -189 51t-125 142t-44 209zM372 391q0 -85 42.5 -135t120.5 -50q85 0 149 47t97.5 120.5t33.5 148.5q0 92 -53 144t-137 52q-85 0 -142 -51t-84 -126.5t-27 -149.5zM417 1204q0 36 26 97q44 99 93 99q13 0 27 -8 l408 -247q13 -8 20.5 -21t7.5 -27q0 -12 -5 -25q-7 -19 -20.5 -30t-31.5 -11q-10 0 -16 2l-480 125q-29 8 -29 46z" />
<glyph unicode="&#xe1;" d="M106 380q0 134 58 264.5t173 216t277 85.5q91 0 164.5 -44.5t110.5 -119.5l13 79q5 34 22.5 48.5t51.5 14.5h94q28 0 41 -10t13 -32q0 -5 -2 -21l-90 -511q-4 -21 -4 -42q0 -83 82 -83h5q26 0 37.5 -11t11.5 -42q0 -23 -6 -59q-11 -67 -29 -90t-54 -23h-24 q-84 0 -142 32.5t-81 100.5q-149 -155 -364 -155q-108 0 -189 51t-125 142t-44 209zM372 391q0 -85 42.5 -135t120.5 -50q85 0 149 47t97.5 120.5t33.5 148.5q0 92 -53 144t-137 52q-85 0 -142 -51t-84 -126.5t-27 -149.5zM443 1097q0 14 7.5 27t20.5 21l408 247q14 8 27 8 q49 0 93 -99q26 -61 26 -97q0 -38 -29 -46l-480 -125q-6 -2 -16 -2q-18 0 -31.5 11t-20.5 30q-5 13 -5 25z" />
<glyph unicode="&#xe2;" d="M106 380q0 134 58 264.5t173 216t277 85.5q91 0 164.5 -44.5t110.5 -119.5l13 79q5 34 22.5 48.5t51.5 14.5h94q28 0 41 -10t13 -32q0 -5 -2 -21l-90 -511q-4 -21 -4 -42q0 -83 82 -83h5q26 0 37.5 -11t11.5 -42q0 -23 -6 -59q-11 -67 -29 -90t-54 -23h-24 q-84 0 -142 32.5t-81 100.5q-149 -155 -364 -155q-108 0 -189 51t-125 142t-44 209zM351 1093q0 19 19 34l323 261q24 18 58 18q37 0 52 -18l251 -261q15 -15 15 -35q0 -16 -13 -37q-20 -32 -48 -32q-12 0 -24 6l-255 134l-303 -134q-12 -5 -20 -5q-25 0 -44 35 q-11 19 -11 34zM372 391q0 -85 42.5 -135t120.5 -50q85 0 149 47t97.5 120.5t33.5 148.5q0 92 -53 144t-137 52q-85 0 -142 -51t-84 -126.5t-27 -149.5z" />
<glyph unicode="&#xe3;" d="M106 380q0 134 58 264.5t173 216t277 85.5q91 0 164.5 -44.5t110.5 -119.5l13 79q5 34 22.5 48.5t51.5 14.5h94q28 0 41 -10t13 -32q0 -5 -2 -21l-90 -511q-4 -21 -4 -42q0 -83 82 -83h5q26 0 37.5 -11t11.5 -42q0 -23 -6 -59q-11 -67 -29 -90t-54 -23h-24 q-84 0 -142 32.5t-81 100.5q-149 -155 -364 -155q-108 0 -189 51t-125 142t-44 209zM356 1191q0 25 18 40q106 93 205 93q37 0 72.5 -9.5t84.5 -28.5q48 -18 78.5 -27t62.5 -9q63 0 122 31q14 7 23 7q31 0 55 -44q15 -28 15 -51q0 -26 -19 -42q-111 -93 -203 -93 q-38 0 -73.5 10t-84.5 29q-45 17 -76.5 26t-63.5 9q-65 0 -124 -31q-11 -6 -22 -6q-30 0 -54 44q-16 29 -16 52zM372 391q0 -85 42.5 -135t120.5 -50q85 0 149 47t97.5 120.5t33.5 148.5q0 92 -53 144t-137 52q-85 0 -142 -51t-84 -126.5t-27 -149.5z" />
<glyph unicode="&#xe4;" d="M106 380q0 134 58 264.5t173 216t277 85.5q91 0 164.5 -44.5t110.5 -119.5l13 79q5 34 22.5 48.5t51.5 14.5h94q28 0 41 -10t13 -32q0 -5 -2 -21l-90 -511q-4 -21 -4 -42q0 -83 82 -83h5q26 0 37.5 -11t11.5 -42q0 -23 -6 -59q-11 -67 -29 -90t-54 -23h-24 q-84 0 -142 32.5t-81 100.5q-149 -155 -364 -155q-108 0 -189 51t-125 142t-44 209zM353 1176q0 47 24 85.5t63.5 61t83.5 22.5q57 0 94 -38t37 -93q0 -47 -23.5 -85.5t-63 -61t-83.5 -22.5q-57 0 -94.5 38t-37.5 93zM372 391q0 -85 42.5 -135t120.5 -50q85 0 149 47 t97.5 120.5t33.5 148.5q0 92 -53 144t-137 52q-85 0 -142 -51t-84 -126.5t-27 -149.5zM813 1176q0 47 24 85.5t63.5 61t83.5 22.5q57 0 94 -38t37 -93q0 -47 -23.5 -85.5t-63 -61t-83.5 -22.5q-57 0 -94.5 38t-37.5 93z" />
<glyph unicode="&#xe5;" d="M106 380q0 134 58 264.5t173 216t277 85.5q91 0 164.5 -44.5t110.5 -119.5l13 79q5 34 22.5 48.5t51.5 14.5h94q28 0 41 -10t13 -32q0 -5 -2 -21l-90 -511q-4 -21 -4 -42q0 -83 82 -83h5q26 0 37.5 -11t11.5 -42q0 -23 -6 -59q-11 -67 -29 -90t-54 -23h-24 q-84 0 -142 32.5t-81 100.5q-149 -155 -364 -155q-108 0 -189 51t-125 142t-44 209zM372 391q0 -85 42.5 -135t120.5 -50q85 0 149 47t97.5 120.5t33.5 148.5q0 92 -53 144t-137 52q-85 0 -142 -51t-84 -126.5t-27 -149.5zM491 1271q0 76 39.5 144t108.5 110t152 42 q64 0 116 -31t82 -83.5t30 -114.5q0 -73 -38.5 -141t-107.5 -111t-154 -43q-64 0 -116 30.5t-82 83t-30 114.5zM650 1287q0 -37 24.5 -61t62.5 -24q32 0 60 17t45 45t17 59q0 36 -24 60.5t-62 24.5q-33 0 -61.5 -17.5t-45 -45.5t-16.5 -58z" />
<glyph unicode="&#xe6;" d="M6 221q0 114 52 196.5t150 126.5t234 44q48 0 99 -6l1 6q3 18 3 32q0 99 -124 99q-43 0 -88 -13.5t-97 -38.5q-14 -7 -28 -7q-20 0 -37.5 19t-33.5 61q-13 32 -13 58q0 43 38 64q76 41 155 62.5t152 21.5q160 0 225 -94q49 45 110.5 69.5t129.5 24.5q147 0 215 -87.5 t68 -244.5q0 -76 -18 -182q-6 -34 -23 -48t-51 -14h-406q-2 -18 -2 -38q0 -62 28 -94.5t79 -32.5q52 0 100.5 12t115.5 38q19 7 31 7q20 0 34 -19t27 -64q11 -41 11 -63q0 -26 -12 -41t-38 -26q-84 -34 -157 -52.5t-147 -18.5q-157 0 -219 124q-57 -62 -134.5 -93 t-164.5 -31q-79 0 -139 29.5t-93 84.5t-33 129zM238 260q0 -34 21 -52.5t62 -18.5q70 0 119 47.5t62 121.5l5 32q-37 3 -69 3q-101 0 -150.5 -31.5t-49.5 -101.5zM753 565h244q3 21 3 40q0 55 -21.5 84.5t-64.5 29.5q-60 0 -98.5 -37.5t-62.5 -116.5z" />
<glyph unicode="&#xe7;" d="M134 389q0 137 64.5 265.5t188.5 210t293 81.5q82 0 143.5 -31.5t84.5 -90.5l10 59q6 34 37.5 48.5t95.5 14.5q55 0 77 -11t22 -36q0 -4 -2 -16l-56 -321q-6 -34 -39.5 -48.5t-104.5 -14.5q-60 0 -84 11t-24 36q0 4 2 16q2 9 2 28q0 56 -39.5 92.5t-114.5 36.5 q-93 0 -158.5 -47.5t-98.5 -120.5t-33 -149q0 -92 53 -144.5t147 -52.5q77 0 161.5 25t168.5 69q17 9 31 9q43 0 74 -83q15 -42 15 -71q0 -25 -11 -42t-34 -29q-86 -42 -184 -69t-191 -34l-13 -73q96 3 145.5 -40t49.5 -117q0 -36 -12 -74t-36 -65q-71 -83 -257 -83 q-149 0 -248 41q-18 7 -18 32q0 22 14 53q12 27 27 43.5t31 16.5q7 0 11 -2q42 -17 76.5 -25.5t80.5 -8.5q52 0 74 18t22 46q0 42 -65 42q-21 0 -53 -5q-13 -3 -23 4.5t-10 24.5q0 8 1 12l29 170q-100 22 -172.5 78t-111 139t-38.5 182z" />
<glyph unicode="&#xe8;" d="M137 379q0 156 69 285t200 205.5t308 76.5q116 0 204 -39.5t136.5 -110.5t48.5 -162q0 -114 -62.5 -180.5t-188.5 -79.5l-453 -45q15 -61 62 -92.5t123 -31.5q174 0 365 55q12 4 25 4q23 0 36 -19.5t23 -68.5q6 -31 6 -54q0 -31 -13 -47.5t-42 -25.5 q-108 -34 -221.5 -52.5t-218.5 -18.5q-127 0 -219 51.5t-140 142.5t-48 207zM412 516l349 35q42 4 60 24t18 49q0 40 -37.5 67.5t-113.5 27.5q-216 0 -276 -203zM417 1204q0 36 26 97q44 99 93 99q13 0 27 -8l408 -247q13 -8 20.5 -21t7.5 -27q0 -12 -5 -25 q-7 -19 -20.5 -30t-31.5 -11q-10 0 -16 2l-480 125q-29 8 -29 46z" />
<glyph unicode="&#xe9;" d="M137 379q0 156 69 285t200 205.5t308 76.5q116 0 204 -39.5t136.5 -110.5t48.5 -162q0 -114 -62.5 -180.5t-188.5 -79.5l-453 -45q15 -61 62 -92.5t123 -31.5q174 0 365 55q12 4 25 4q23 0 36 -19.5t23 -68.5q6 -31 6 -54q0 -31 -13 -47.5t-42 -25.5 q-108 -34 -221.5 -52.5t-218.5 -18.5q-127 0 -219 51.5t-140 142.5t-48 207zM412 516l349 35q42 4 60 24t18 49q0 40 -37.5 67.5t-113.5 27.5q-216 0 -276 -203zM453 1097q0 14 7.5 27t20.5 21l408 247q14 8 27 8q49 0 93 -99q26 -61 26 -97q0 -38 -29 -46l-480 -125 q-6 -2 -16 -2q-18 0 -31.5 11t-20.5 30q-5 13 -5 25z" />
<glyph unicode="&#xea;" d="M137 379q0 156 69 285t200 205.5t308 76.5q116 0 204 -39.5t136.5 -110.5t48.5 -162q0 -114 -62.5 -180.5t-188.5 -79.5l-453 -45q15 -61 62 -92.5t123 -31.5q174 0 365 55q12 4 25 4q23 0 36 -19.5t23 -68.5q6 -31 6 -54q0 -31 -13 -47.5t-42 -25.5 q-108 -34 -221.5 -52.5t-218.5 -18.5q-127 0 -219 51.5t-140 142.5t-48 207zM361 1093q0 19 19 34l323 261q24 18 58 18q37 0 52 -18l251 -261q15 -15 15 -35q0 -16 -13 -37q-20 -32 -48 -32q-12 0 -24 6l-255 134l-303 -134q-12 -5 -20 -5q-25 0 -44 35q-11 19 -11 34z M412 516l349 35q42 4 60 24t18 49q0 40 -37.5 67.5t-113.5 27.5q-216 0 -276 -203z" />
<glyph unicode="&#xeb;" d="M137 379q0 156 69 285t200 205.5t308 76.5q116 0 204 -39.5t136.5 -110.5t48.5 -162q0 -114 -62.5 -180.5t-188.5 -79.5l-453 -45q15 -61 62 -92.5t123 -31.5q174 0 365 55q12 4 25 4q23 0 36 -19.5t23 -68.5q6 -31 6 -54q0 -31 -13 -47.5t-42 -25.5 q-108 -34 -221.5 -52.5t-218.5 -18.5q-127 0 -219 51.5t-140 142.5t-48 207zM353 1176q0 47 24 85.5t63.5 61t83.5 22.5q57 0 94 -38t37 -93q0 -47 -23.5 -85.5t-63 -61t-83.5 -22.5q-57 0 -94.5 38t-37.5 93zM412 516l349 35q42 4 60 24t18 49q0 40 -37.5 67.5t-113.5 27.5 q-216 0 -276 -203zM813 1176q0 47 24 85.5t63.5 61t83.5 22.5q57 0 94 -38t37 -93q0 -47 -23.5 -85.5t-63 -61t-83.5 -22.5q-57 0 -94.5 38t-37.5 93z" />
<glyph unicode="&#xec;" d="M255 769q0 21 6 52q7 42 17.5 64t25 30.5t38.5 8.5h380q28 0 41 -10t13 -32q0 -5 -2 -21l-88 -500q-5 -32 -5 -53q0 -53 24.5 -78t72.5 -25q49 0 94.5 14t108.5 48q20 11 36 11q22 0 39 -18t34 -56q21 -47 21 -70q0 -36 -41 -60q-94 -53 -170 -74.5t-164 -21.5 q-146 0 -226.5 77t-80.5 217q0 45 9 96l61 351h-193q-27 0 -39 10.5t-12 39.5zM267 1204q0 36 26 97q44 99 93 99q13 0 27 -8l408 -247q13 -8 20.5 -21t7.5 -27q0 -12 -5 -25q-7 -19 -20.5 -30t-31.5 -11q-10 0 -16 2l-480 125q-29 8 -29 46z" />
<glyph unicode="&#xed;" d="M255 769q0 21 6 52q7 42 17.5 64t25 30.5t38.5 8.5h380q28 0 41 -10t13 -32q0 -5 -2 -21l-88 -500q-5 -32 -5 -53q0 -53 24.5 -78t72.5 -25q49 0 94.5 14t108.5 48q20 11 36 11q22 0 39 -18t34 -56q21 -47 21 -70q0 -36 -41 -60q-94 -53 -170 -74.5t-164 -21.5 q-146 0 -226.5 77t-80.5 217q0 45 9 96l61 351h-193q-27 0 -39 10.5t-12 39.5zM383 1097q0 14 7.5 27t20.5 21l408 247q14 8 27 8q49 0 93 -99q26 -61 26 -97q0 -38 -29 -46l-480 -125q-6 -2 -16 -2q-18 0 -31.5 11t-20.5 30q-5 13 -5 25z" />
<glyph unicode="&#xee;" d="M255 769q0 21 6 52q7 42 17.5 64t25 30.5t38.5 8.5h380q28 0 41 -10t13 -32q0 -5 -2 -21l-88 -500q-5 -32 -5 -53q0 -53 24.5 -78t72.5 -25q49 0 94.5 14t108.5 48q20 11 36 11q22 0 39 -18t34 -56q21 -47 21 -70q0 -36 -41 -60q-94 -53 -170 -74.5t-164 -21.5 q-146 0 -226.5 77t-80.5 217q0 45 9 96l61 351h-193q-27 0 -39 10.5t-12 39.5zM301 1093q0 19 19 34l323 261q24 18 58 18q37 0 52 -18l251 -261q15 -15 15 -35q0 -16 -13 -37q-20 -32 -48 -32q-12 0 -24 6l-255 134l-303 -134q-12 -5 -20 -5q-25 0 -44 35q-11 19 -11 34z " />
<glyph unicode="&#xef;" d="M255 769q0 21 6 52q7 42 17.5 64t25 30.5t38.5 8.5h380q28 0 41 -10t13 -32q0 -5 -2 -21l-88 -500q-5 -32 -5 -53q0 -53 24.5 -78t72.5 -25q49 0 94.5 14t108.5 48q20 11 36 11q22 0 39 -18t34 -56q21 -47 21 -70q0 -36 -41 -60q-94 -53 -170 -74.5t-164 -21.5 q-146 0 -226.5 77t-80.5 217q0 45 9 96l61 351h-193q-27 0 -39 10.5t-12 39.5zM293 1176q0 47 24 85.5t63.5 61t83.5 22.5q57 0 94 -38t37 -93q0 -47 -23.5 -85.5t-63 -61t-83.5 -22.5q-57 0 -94.5 38t-37.5 93zM753 1176q0 47 24 85.5t63.5 61t83.5 22.5q57 0 94 -38 t37 -93q0 -47 -23.5 -85.5t-63 -61t-83.5 -22.5q-57 0 -94.5 38t-37.5 93z" />
<glyph unicode="&#xf0;" d="M122 359q0 117 57 233.5t177.5 195t299.5 78.5q114 0 196 -55q-42 93 -122 176l-163 -79q-20 -10 -35 -10q-17 0 -31 14.5t-29 47.5q-16 35 -16 56q0 17 10 29t32 22l84 41q-16 11 -50 31l-18 10q-24 14 -24 37q0 34 50 91q34 39 58 55.5t45 16.5q17 0 33 -9 q93 -52 160 -109l166 81q22 10 33 10q15 0 27.5 -14.5t28.5 -48.5q18 -37 18 -59q0 -16 -9 -27t-29 -20l-107 -52q82 -104 123.5 -227.5t41.5 -260.5q0 -78 -16 -171q-26 -148 -102 -252.5t-193.5 -158t-267.5 -53.5q-130 0 -227 49t-149 135.5t-52 196.5zM390 375 q0 -80 50.5 -125t139.5 -45q85 0 145 37.5t90.5 98.5t30.5 129q0 80 -50.5 124.5t-139.5 44.5q-88 0 -148 -39.5t-89 -100t-29 -124.5z" />
<glyph unicode="&#xf1;" d="M115 769q0 21 6 52q7 42 17.5 64t25 30.5t38.5 8.5h244q28 0 41 -10t13 -32q0 -5 -2 -21l-25 -145q86 119 175 174.5t185 55.5q79 0 137 -34t89.5 -95.5t31.5 -141.5q0 -31 -7 -75l-69 -395h77q26 0 38 -10.5t12 -39.5q0 -20 -6 -53q-7 -42 -17 -64t-24.5 -30t-38.5 -8 h-264q-28 0 -41 10t-13 32q0 5 2 21l87 498q6 33 6 60q0 48 -22.5 73t-72.5 25q-58 0 -120 -55.5t-109.5 -144t-63.5 -181.5l-47 -275q-6 -34 -23 -48.5t-51 -14.5h-124q-28 0 -41 10t-13 32q0 5 2 21l115 656h-97q-27 0 -39 10.5t-12 39.5zM366 1191q0 25 18 40 q106 93 205 93q37 0 72.5 -9.5t84.5 -28.5q48 -18 78.5 -27t62.5 -9q63 0 122 31q14 7 23 7q31 0 55 -44q15 -28 15 -51q0 -26 -19 -42q-111 -93 -203 -93q-38 0 -73.5 10t-84.5 29q-45 17 -76.5 26t-63.5 9q-65 0 -124 -31q-11 -6 -22 -6q-30 0 -54 44q-16 29 -16 52z" />
<glyph unicode="&#xf2;" d="M113 388q0 138 66 266t198.5 210t322.5 82q133 0 232 -53t151.5 -146.5t52.5 -210.5q0 -134 -64 -262.5t-196.5 -212t-325.5 -83.5q-134 0 -233 53t-151.5 146t-52.5 211zM380 401q0 -91 53.5 -143.5t146.5 -52.5q88 0 153.5 44.5t100.5 117t35 155.5q0 91 -53 144 t-146 53q-88 0 -154 -44.5t-101 -117.5t-35 -156zM417 1204q0 36 26 97q44 99 93 99q13 0 27 -8l408 -247q13 -8 20.5 -21t7.5 -27q0 -12 -5 -25q-7 -19 -20.5 -30t-31.5 -11q-10 0 -16 2l-480 125q-29 8 -29 46z" />
<glyph unicode="&#xf3;" d="M113 388q0 138 66 266t198.5 210t322.5 82q133 0 232 -53t151.5 -146.5t52.5 -210.5q0 -134 -64 -262.5t-196.5 -212t-325.5 -83.5q-134 0 -233 53t-151.5 146t-52.5 211zM380 401q0 -91 53.5 -143.5t146.5 -52.5q88 0 153.5 44.5t100.5 117t35 155.5q0 91 -53 144 t-146 53q-88 0 -154 -44.5t-101 -117.5t-35 -156zM473 1097q0 14 7.5 27t20.5 21l408 247q14 8 27 8q49 0 93 -99q26 -61 26 -97q0 -38 -29 -46l-480 -125q-6 -2 -16 -2q-18 0 -31.5 11t-20.5 30q-5 13 -5 25z" />
<glyph unicode="&#xf4;" d="M113 388q0 138 66 266t198.5 210t322.5 82q133 0 232 -53t151.5 -146.5t52.5 -210.5q0 -134 -64 -262.5t-196.5 -212t-325.5 -83.5q-134 0 -233 53t-151.5 146t-52.5 211zM361 1093q0 19 19 34l323 261q24 18 58 18q37 0 52 -18l251 -261q15 -15 15 -35q0 -16 -13 -37 q-20 -32 -48 -32q-12 0 -24 6l-255 134l-303 -134q-12 -5 -20 -5q-25 0 -44 35q-11 19 -11 34zM380 401q0 -91 53.5 -143.5t146.5 -52.5q88 0 153.5 44.5t100.5 117t35 155.5q0 91 -53 144t-146 53q-88 0 -154 -44.5t-101 -117.5t-35 -156z" />
<glyph unicode="&#xf5;" d="M113 388q0 138 66 266t198.5 210t322.5 82q133 0 232 -53t151.5 -146.5t52.5 -210.5q0 -134 -64 -262.5t-196.5 -212t-325.5 -83.5q-134 0 -233 53t-151.5 146t-52.5 211zM356 1191q0 25 18 40q106 93 205 93q37 0 72.5 -9.5t84.5 -28.5q48 -18 78.5 -27t62.5 -9 q63 0 122 31q14 7 23 7q31 0 55 -44q15 -28 15 -51q0 -26 -19 -42q-111 -93 -203 -93q-38 0 -73.5 10t-84.5 29q-45 17 -76.5 26t-63.5 9q-65 0 -124 -31q-11 -6 -22 -6q-30 0 -54 44q-16 29 -16 52zM380 401q0 -91 53.5 -143.5t146.5 -52.5q88 0 153.5 44.5t100.5 117 t35 155.5q0 91 -53 144t-146 53q-88 0 -154 -44.5t-101 -117.5t-35 -156z" />
<glyph unicode="&#xf6;" d="M113 388q0 138 66 266t198.5 210t322.5 82q133 0 232 -53t151.5 -146.5t52.5 -210.5q0 -134 -64 -262.5t-196.5 -212t-325.5 -83.5q-134 0 -233 53t-151.5 146t-52.5 211zM353 1176q0 47 24 85.5t63.5 61t83.5 22.5q57 0 94 -38t37 -93q0 -47 -23.5 -85.5t-63 -61 t-83.5 -22.5q-57 0 -94.5 38t-37.5 93zM380 401q0 -91 53.5 -143.5t146.5 -52.5q88 0 153.5 44.5t100.5 117t35 155.5q0 91 -53 144t-146 53q-88 0 -154 -44.5t-101 -117.5t-35 -156zM813 1176q0 47 24 85.5t63.5 61t83.5 22.5q57 0 94 -38t37 -93q0 -47 -23.5 -85.5 t-63 -61t-83.5 -22.5q-57 0 -94.5 38t-37.5 93z" />
<glyph unicode="&#xf7;" d="M195 521q0 26 7 61q8 47 19 71t25.5 33t38.5 9h762q26 0 38 -11t12 -41q0 -26 -7 -61q-8 -47 -18.5 -71t-25.5 -32.5t-39 -8.5h-762q-26 0 -38 10.5t-12 40.5zM452 133l26 144q6 34 38 48.5t98 14.5q60 0 87.5 -12t27.5 -39q0 -8 -1 -12l-26 -144q-5 -34 -37.5 -48.5 t-98.5 -14.5t-92.5 14.5t-21.5 48.5zM565 876q0 8 1 12l25 144q6 34 38 48.5t98 14.5q60 0 87.5 -12t27.5 -39q0 -8 -1 -12l-25 -144q-6 -34 -38.5 -48.5t-98.5 -14.5q-60 0 -87 12t-27 39z" />
<glyph unicode="&#xf8;" d="M42 43q0 22 28 47l97 85q-54 94 -54 213q0 138 66 266t198.5 210t322.5 82q155 0 265 -73l103 90q26 23 46 23q26 0 62 -42q32 -38 32 -63q0 -22 -28 -47l-98 -85q54 -96 54 -213q0 -134 -64 -262.5t-196.5 -212t-325.5 -83.5q-156 0 -266 72l-102 -89q-26 -23 -46 -23 q-26 0 -62 42q-32 38 -32 63zM380 401q0 -20 3 -38l384 337q-43 19 -97 19q-88 0 -154 -44.5t-101 -117.5t-35 -156zM483 224q43 -19 97 -19q88 0 153.5 44.5t100.5 117t35 155.5q0 20 -3 38z" />
<glyph unicode="&#xf9;" d="M118 770q0 21 6 52q7 42 17.5 64t25 30t38.5 8h264q28 0 41 -10t13 -32q0 -5 -2 -21l-87 -498q-6 -31 -6 -58q0 -49 22.5 -74.5t72.5 -25.5q58 0 120.5 55.5t110 144.5t62.5 181l22 133h-107q-27 0 -39 11t-12 40q0 21 6 52q7 42 17.5 64t25 30t38.5 8h294q28 0 41 -10 t13 -32q0 -5 -2 -21l-115 -656h77q27 0 39 -10.5t12 -39.5q0 -20 -6 -52q-7 -42 -17.5 -64t-25 -30.5t-38.5 -8.5h-224q-28 0 -41 10t-13 32q0 5 2 21l25 145q-86 -119 -175 -174.5t-185 -55.5q-79 0 -137 34t-89.5 95.5t-31.5 141.5q0 39 7 75l69 395h-77q-27 0 -39 11 t-12 40zM377 1204q0 36 26 97q44 99 93 99q13 0 27 -8l408 -247q13 -8 20.5 -21t7.5 -27q0 -12 -5 -25q-7 -19 -20.5 -30t-31.5 -11q-10 0 -16 2l-480 125q-29 8 -29 46z" />
<glyph unicode="&#xfa;" d="M118 770q0 21 6 52q7 42 17.5 64t25 30t38.5 8h264q28 0 41 -10t13 -32q0 -5 -2 -21l-87 -498q-6 -31 -6 -58q0 -49 22.5 -74.5t72.5 -25.5q58 0 120.5 55.5t110 144.5t62.5 181l22 133h-107q-27 0 -39 11t-12 40q0 21 6 52q7 42 17.5 64t25 30t38.5 8h294q28 0 41 -10 t13 -32q0 -5 -2 -21l-115 -656h77q27 0 39 -10.5t12 -39.5q0 -20 -6 -52q-7 -42 -17.5 -64t-25 -30.5t-38.5 -8.5h-224q-28 0 -41 10t-13 32q0 5 2 21l25 145q-86 -119 -175 -174.5t-185 -55.5q-79 0 -137 34t-89.5 95.5t-31.5 141.5q0 39 7 75l69 395h-77q-27 0 -39 11 t-12 40zM483 1097q0 14 7.5 27t20.5 21l408 247q14 8 27 8q49 0 93 -99q26 -61 26 -97q0 -38 -29 -46l-480 -125q-6 -2 -16 -2q-18 0 -31.5 11t-20.5 30q-5 13 -5 25z" />
<glyph unicode="&#xfb;" d="M118 770q0 21 6 52q7 42 17.5 64t25 30t38.5 8h264q28 0 41 -10t13 -32q0 -5 -2 -21l-87 -498q-6 -31 -6 -58q0 -49 22.5 -74.5t72.5 -25.5q58 0 120.5 55.5t110 144.5t62.5 181l22 133h-107q-27 0 -39 11t-12 40q0 21 6 52q7 42 17.5 64t25 30t38.5 8h294q28 0 41 -10 t13 -32q0 -5 -2 -21l-115 -656h77q27 0 39 -10.5t12 -39.5q0 -20 -6 -52q-7 -42 -17.5 -64t-25 -30.5t-38.5 -8.5h-224q-28 0 -41 10t-13 32q0 5 2 21l25 145q-86 -119 -175 -174.5t-185 -55.5q-79 0 -137 34t-89.5 95.5t-31.5 141.5q0 39 7 75l69 395h-77q-27 0 -39 11 t-12 40zM341 1093q0 19 19 34l323 261q24 18 58 18q37 0 52 -18l251 -261q15 -15 15 -35q0 -16 -13 -37q-20 -32 -48 -32q-12 0 -24 6l-255 134l-303 -134q-12 -5 -20 -5q-25 0 -44 35q-11 19 -11 34z" />
<glyph unicode="&#xfc;" d="M118 770q0 21 6 52q7 42 17.5 64t25 30t38.5 8h264q28 0 41 -10t13 -32q0 -5 -2 -21l-87 -498q-6 -31 -6 -58q0 -49 22.5 -74.5t72.5 -25.5q58 0 120.5 55.5t110 144.5t62.5 181l22 133h-107q-27 0 -39 11t-12 40q0 21 6 52q7 42 17.5 64t25 30t38.5 8h294q28 0 41 -10 t13 -32q0 -5 -2 -21l-115 -656h77q27 0 39 -10.5t12 -39.5q0 -20 -6 -52q-7 -42 -17.5 -64t-25 -30.5t-38.5 -8.5h-224q-28 0 -41 10t-13 32q0 5 2 21l25 145q-86 -119 -175 -174.5t-185 -55.5q-79 0 -137 34t-89.5 95.5t-31.5 141.5q0 39 7 75l69 395h-77q-27 0 -39 11 t-12 40zM323 1176q0 47 24 85.5t63.5 61t83.5 22.5q57 0 94 -38t37 -93q0 -47 -23.5 -85.5t-63 -61t-83.5 -22.5q-57 0 -94.5 38t-37.5 93zM783 1176q0 47 24 85.5t63.5 61t83.5 22.5q57 0 94 -38t37 -93q0 -47 -23.5 -85.5t-63 -61t-83.5 -22.5q-57 0 -94.5 38t-37.5 93z " />
<glyph unicode="&#xfd;" d="M-7 -307q0 119 64 123q80 5 134.5 31.5t105.5 83t129 169.5l-192 619h-75q-27 0 -39 10.5t-12 39.5q0 21 6 52q7 42 17.5 64t25 30.5t38.5 8.5h394q27 0 39 -11t12 -40q0 -20 -6 -52q-7 -42 -17.5 -64t-25 -30t-38.5 -8h-60l107 -380l241 380h-54q-27 0 -39 10.5 t-12 39.5q0 21 6 52q7 42 17.5 64t25 30.5t38.5 8.5h394q27 0 39 -11t12 -40q0 -20 -6 -52q-7 -42 -17.5 -64t-25 -30t-38.5 -8h-59l-520 -776q-95 -142 -171.5 -215t-161.5 -103.5t-212 -34.5q-32 -1 -48 21.5t-16 81.5zM511 1097q0 14 7.5 27t20.5 21l408 247q14 8 27 8 q49 0 93 -99q26 -61 26 -97q0 -38 -29 -46l-480 -125q-6 -2 -16 -2q-18 0 -31.5 11t-20.5 30q-5 13 -5 25z" />
<glyph unicode="&#xfe;" d="M-79 -338q0 20 6 52q7 42 17 64t24.5 30.5t38.5 8.5h87l228 1290h-87q-27 0 -39 10.5t-12 39.5q0 21 6 52q7 42 17.5 64t25 30.5t38.5 8.5h274q28 0 41 -10t13 -32q0 -5 -2 -21l-74 -416q131 113 273 113q109 0 191 -51t126 -142t44 -209q0 -134 -58 -264.5t-174 -216 t-279 -85.5q-78 0 -143.5 32.5t-108.5 89.5l-50 -283h167q27 0 39 -11t12 -40q0 -21 -6 -52q-7 -42 -17.5 -64t-25 -30t-38.5 -8h-504q-26 0 -38 10.5t-12 39.5zM445 402q0 -93 53 -145t138 -52t142.5 52t85 128.5t27.5 147.5q0 87 -43.5 136.5t-121.5 49.5 q-86 0 -149.5 -47t-97.5 -120.5t-34 -149.5z" />
<glyph unicode="&#xff;" d="M-7 -307q0 119 64 123q80 5 134.5 31.5t105.5 83t129 169.5l-192 619h-75q-27 0 -39 10.5t-12 39.5q0 21 6 52q7 42 17.5 64t25 30.5t38.5 8.5h394q27 0 39 -11t12 -40q0 -20 -6 -52q-7 -42 -17.5 -64t-25 -30t-38.5 -8h-60l107 -380l241 380h-54q-27 0 -39 10.5 t-12 39.5q0 21 6 52q7 42 17.5 64t25 30.5t38.5 8.5h394q27 0 39 -11t12 -40q0 -20 -6 -52q-7 -42 -17.5 -64t-25 -30t-38.5 -8h-59l-520 -776q-95 -142 -171.5 -215t-161.5 -103.5t-212 -34.5q-32 -1 -48 21.5t-16 81.5zM353 1176q0 47 24 85.5t63.5 61t83.5 22.5 q57 0 94 -38t37 -93q0 -47 -23.5 -85.5t-63 -61t-83.5 -22.5q-57 0 -94.5 38t-37.5 93zM813 1176q0 47 24 85.5t63.5 61t83.5 22.5q57 0 94 -38t37 -93q0 -47 -23.5 -85.5t-63 -61t-83.5 -22.5q-57 0 -94.5 38t-37.5 93z" />
<glyph unicode="&#x152;" d="M87 459q0 127 40.5 267.5t116.5 240.5q83 109 204 164.5t275 55.5h501q29 0 42 -10.5t13 -33.5q0 -5 -2 -21l-48 -272q-6 -34 -34.5 -48.5t-88.5 -14.5q-50 0 -69.5 10t-19.5 34q0 5 2 19l22 122h-170l-43 -243h114q26 0 38 -12t12 -42q0 -21 -6 -54q-11 -62 -29 -84.5 t-53 -22.5h-114l-53 -299h180l31 172q6 34 35 48.5t92 14.5q54 0 74.5 -10t20.5 -35q0 -4 -2 -18l-57 -322q-6 -35 -24 -50t-52 -15h-501q-140 0 -240.5 54.5t-153.5 158t-53 246.5zM325 469q0 -118 48.5 -182.5t133.5 -71.5l134 757q-61 -5 -115 -38t-96 -94 q-50 -71 -77.5 -173.5t-27.5 -197.5z" />
<glyph unicode="&#x153;" d="M28 333q0 81 18 174t53.5 178.5t85.5 141.5q105 119 275 119q75 0 130.5 -29t86.5 -81q119 110 257 110q147 0 215 -87.5t68 -244.5q0 -76 -18 -182q-6 -34 -23 -48t-51 -14h-406q-2 -18 -2 -38q0 -62 28 -94.5t79 -32.5q52 0 100.5 12t115.5 38q19 7 31 7q20 0 34 -19 t27 -64q11 -41 11 -63q0 -26 -12 -41t-38 -26q-84 -34 -157 -52.5t-147 -18.5q-144 0 -209 106q-101 -106 -250 -106q-152 0 -227 96t-75 259zM262 330q0 -64 21.5 -94.5t66.5 -30.5q62 0 100 59q32 49 55 152.5t23 177.5q0 64 -21.5 94.5t-66.5 30.5q-65 0 -106 -69 q-30 -50 -51 -148.5t-21 -171.5zM753 565h244q3 21 3 40q0 55 -21.5 84.5t-64.5 29.5q-60 0 -98.5 -37.5t-62.5 -116.5z" />
<glyph unicode="&#x178;" d="M155 1032q0 21 6 52q7 42 17.5 64t25 30.5t38.5 8.5h384q27 0 39 -11t12 -40q0 -20 -6 -52q-7 -42 -17.5 -64t-25 -30t-38.5 -8h-67l134 -292l239 292h-52q-27 0 -39 10.5t-12 39.5q0 21 6 52q7 42 17.5 64t25 30.5t38.5 8.5h384q27 0 39 -11t12 -40q0 -20 -6 -52 q-7 -42 -17.5 -64t-25 -30t-38.5 -8h-45l-433 -522l-45 -255h206q26 0 38 -10.5t12 -39.5q0 -20 -6 -53q-7 -42 -17 -64t-24.5 -30t-38.5 -8h-642q-27 0 -39 11t-12 40q0 25 5 51q11 61 29 82t53 21h186l46 262l-245 515h-50q-27 0 -39 10.5t-12 39.5zM403 1446 q0 47 24 85.5t63.5 61t83.5 22.5q57 0 94 -38t37 -93q0 -47 -23.5 -85.5t-63 -61t-83.5 -22.5q-57 0 -94.5 38t-37.5 93zM863 1446q0 47 24 85.5t63.5 61t83.5 22.5q57 0 94 -38t37 -93q0 -47 -23.5 -85.5t-63 -61t-83.5 -22.5q-57 0 -94.5 38t-37.5 93z" />
<glyph unicode="&#x2c6;" d="M381 1093q0 19 19 34l323 261q24 18 58 18q37 0 52 -18l251 -261q15 -15 15 -35q0 -16 -13 -37q-20 -32 -48 -32q-12 0 -24 6l-255 134l-303 -134q-12 -5 -20 -5q-25 0 -44 35q-11 19 -11 34z" />
<glyph unicode="&#x2dc;" d="M386 1191q0 25 18 40q106 93 205 93q37 0 72.5 -9.5t84.5 -28.5q48 -18 78.5 -27t62.5 -9q63 0 122 31q14 7 23 7q31 0 55 -44q15 -28 15 -51q0 -26 -19 -42q-111 -93 -203 -93q-38 0 -73.5 10t-84.5 29q-45 17 -76.5 26t-63.5 9q-65 0 -124 -31q-11 -6 -22 -6 q-30 0 -54 44q-16 29 -16 52z" />
<glyph unicode="&#x2000;" horiz-adv-x="898" />
<glyph unicode="&#x2001;" horiz-adv-x="1797" />
<glyph unicode="&#x2002;" horiz-adv-x="898" />
<glyph unicode="&#x2003;" horiz-adv-x="1797" />
<glyph unicode="&#x2004;" horiz-adv-x="599" />
<glyph unicode="&#x2005;" horiz-adv-x="449" />
<glyph unicode="&#x2006;" horiz-adv-x="299" />
<glyph unicode="&#x2007;" horiz-adv-x="299" />
<glyph unicode="&#x2008;" horiz-adv-x="224" />
<glyph unicode="&#x2009;" horiz-adv-x="359" />
<glyph unicode="&#x200a;" horiz-adv-x="99" />
<glyph unicode="&#x2010;" d="M195 521q0 26 7 61q8 47 19 71t25.5 33t38.5 9h762q26 0 38 -11t12 -41q0 -26 -7 -61q-8 -47 -18.5 -71t-25.5 -32.5t-39 -8.5h-762q-26 0 -38 10.5t-12 40.5z" />
<glyph unicode="&#x2011;" d="M195 521q0 26 7 61q8 47 19 71t25.5 33t38.5 9h762q26 0 38 -11t12 -41q0 -26 -7 -61q-8 -47 -18.5 -71t-25.5 -32.5t-39 -8.5h-762q-26 0 -38 10.5t-12 40.5z" />
<glyph unicode="&#x2012;" d="M195 521q0 26 7 61q8 47 19 71t25.5 33t38.5 9h762q26 0 38 -11t12 -41q0 -26 -7 -61q-8 -47 -18.5 -71t-25.5 -32.5t-39 -8.5h-762q-26 0 -38 10.5t-12 40.5z" />
<glyph unicode="&#x2013;" d="M195 521q0 26 7 61q8 47 19 71t25.5 33t38.5 9h762q26 0 38 -11t12 -41q0 -26 -7 -61q-8 -47 -18.5 -71t-25.5 -32.5t-39 -8.5h-762q-26 0 -38 10.5t-12 40.5z" />
<glyph unicode="&#x2014;" d="M-5 521q0 26 7 61q8 47 19 71t25.5 33t38.5 9h1162q26 0 38 -11t12 -41q0 -26 -7 -61q-8 -47 -18.5 -71t-25.5 -32.5t-39 -8.5h-1162q-26 0 -38 10.5t-12 40.5z" />
<glyph unicode="&#x2018;" d="M440 738q0 18 11 34l291 469q22 34 54.5 50t82.5 16q38 0 56 -11t18 -35q0 -16 -9 -40l-174 -472q-7 -19 -22.5 -29.5t-36.5 -10.5h-238q-15 0 -24 8t-9 21z" />
<glyph unicode="&#x2019;" d="M468 717q0 16 9 40l174 472q7 19 22.5 29.5t36.5 10.5h238q15 0 24 -8t9 -21q0 -17 -11 -34l-291 -469q-22 -34 -54.5 -50t-82.5 -16q-38 0 -56 11t-18 35z" />
<glyph unicode="&#x201a;" d="M298 -248q0 16 9 40l174 472q7 19 22.5 29.5t36.5 10.5h238q15 0 24 -8t9 -21q0 -17 -11 -34l-291 -469q-22 -34 -54.5 -50t-82.5 -16q-38 0 -56 11t-18 35z" />
<glyph unicode="&#x201c;" d="M160 738q0 18 11 34l291 469q22 34 54.5 50t82.5 16q38 0 56 -11t18 -35q0 -16 -9 -40l-174 -472q-7 -19 -22.5 -29.5t-36.5 -10.5h-238q-15 0 -24 8t-9 21zM720 738q0 18 11 34l291 469q22 34 54.5 50t82.5 16q38 0 56 -11t18 -35q0 -16 -9 -40l-174 -472 q-7 -19 -22.5 -29.5t-36.5 -10.5h-238q-15 0 -24 8t-9 21z" />
<glyph unicode="&#x201d;" d="M188 717q0 16 9 40l174 472q7 19 22.5 29.5t36.5 10.5h238q15 0 24 -8t9 -21q0 -17 -11 -34l-291 -469q-22 -34 -54.5 -50t-82.5 -16q-38 0 -56 11t-18 35zM748 717q0 16 9 40l174 472q7 19 22.5 29.5t36.5 10.5h238q15 0 24 -8t9 -21q0 -17 -11 -34l-291 -469 q-22 -34 -54.5 -50t-82.5 -16q-38 0 -56 11t-18 35z" />
<glyph unicode="&#x201e;" d="M18 -248q0 16 9 40l174 472q7 19 22.5 29.5t36.5 10.5h238q15 0 24 -8t9 -21q0 -17 -11 -34l-291 -469q-22 -34 -54.5 -50t-82.5 -16q-38 0 -56 11t-18 35zM578 -248q0 16 9 40l174 472q7 19 22.5 29.5t36.5 10.5h238q15 0 24 -8t9 -21q0 -17 -11 -34l-291 -469 q-22 -34 -54.5 -50t-82.5 -16q-38 0 -56 11t-18 35z" />
<glyph unicode="&#x2022;" d="M361 402q0 4 2 16l58 332q11 58 71 83t193 25q126 0 187 -22t61 -70q0 -4 -2 -16l-58 -332q-11 -58 -71 -83t-193 -25q-126 0 -187 22t-61 70z" />
<glyph unicode="&#x2026;" d="M27 42q0 7 1 11l31 174q6 34 35.5 48.5t94.5 14.5q62 0 91.5 -12.5t29.5 -39.5q0 -7 -1 -11l-31 -174q-6 -34 -35.5 -48.5t-94.5 -14.5q-62 0 -91.5 12.5t-29.5 39.5zM427 42q0 7 1 11l31 174q6 34 35.5 48.5t94.5 14.5q62 0 91.5 -12.5t29.5 -39.5q0 -7 -1 -11l-31 -174 q-6 -34 -35.5 -48.5t-94.5 -14.5q-62 0 -91.5 12.5t-29.5 39.5zM827 42q0 7 1 11l31 174q6 34 35.5 48.5t94.5 14.5q62 0 91.5 -12.5t29.5 -39.5q0 -7 -1 -11l-31 -174q-6 -34 -35.5 -48.5t-94.5 -14.5q-62 0 -91.5 12.5t-29.5 39.5z" />
<glyph unicode="&#x202f;" horiz-adv-x="359" />
<glyph unicode="&#x2039;" d="M375 555q0 15 12 27l330 349q15 15 35 15q36 0 94 -49q55 -46 55 -86q0 -22 -17 -39l-238 -242l168 -264q10 -17 10 -31q0 -43 -74 -84q-54 -30 -88 -30q-30 0 -45 24l-235 387q-7 12 -7 23z" />
<glyph unicode="&#x203a;" d="M374 257q0 22 17 39l238 242l-168 264q-10 17 -10 31q0 43 74 84q54 30 88 30q30 0 45 -24l235 -387q7 -12 7 -23q0 -15 -12 -27l-330 -349q-15 -15 -35 -15q-36 0 -94 49q-55 46 -55 86z" />
<glyph unicode="&#x205f;" horiz-adv-x="449" />
<glyph unicode="&#x20ac;" d="M60 386q0 15 5 43q9 54 27 73.5t53 19.5h64q6 73 22 143h-61q-28 0 -40 10.5t-12 38.5q0 15 5 43q9 55 26.5 74t52.5 19h87q74 174 200 266.5t288 92.5q85 0 146 -35t91 -95l12 67q6 34 37.5 48.5t95.5 14.5q55 0 77 -11t22 -36q0 -4 -2 -16l-68 -384q-6 -34 -39 -48.5 t-104 -14.5q-61 0 -85 11t-24 36q0 4 2 16q5 32 5 54q0 77 -43 121.5t-123 44.5q-71 0 -123 -33t-89 -99h189q27 0 39.5 -11t12.5 -39q0 -15 -5 -43q-9 -54 -26.5 -73t-52.5 -19h-223q-15 -64 -25 -143h223q27 0 39 -10.5t12 -38.5q0 -14 -5 -44q-9 -54 -26.5 -73t-52.5 -19 h-185q32 -132 171 -132q79 0 158 24.5t185 73.5q14 7 29 7q44 0 70 -85q12 -37 12 -65q0 -55 -49 -76q-113 -52 -224.5 -79t-210.5 -27q-168 0 -273.5 95t-132.5 264h-102q-28 0 -40 10.5t-12 38.5z" />
<glyph unicode="&#x2122;" d="M194 1201q0 14 3 33q9 47 25.5 62.5t51.5 15.5h402q28 0 40.5 -9t12.5 -34q0 -16 -4 -35q-8 -47 -24 -62t-52 -15h-121l-61 -344q-6 -36 -25 -50.5t-67 -14.5q-39 0 -54.5 10t-15.5 32q0 5 2 23l61 344h-121q-29 0 -41 9t-12 35zM698 787q0 6 4 26l108 444 q9 36 28.5 50.5t63.5 14.5q33 0 48 -6.5t20 -22.5l95 -256l185 256q11 15 30 22t52 7q45 0 62.5 -15t13.5 -50l-48 -444q-4 -36 -22 -50.5t-63 -14.5q-39 0 -55.5 11.5t-16.5 37.5q0 10 1 16l27 209l-114 -157q-16 -23 -37.5 -35t-42.5 -12t-38 12t-26 35l-66 173l-49 -225 q-8 -35 -29 -50t-66 -15q-35 0 -50 9t-15 30z" />
<glyph unicode="&#x25fc;" horiz-adv-x="925" d="M0 0v925h925v-925h-925z" />
</font>
</defs>
</svg>
